M48
;DRILL file {KiCad 4.0.2+e4-6225~38~ubuntu14.04.1-stable} date Di 12 Jul 2016 12:51:01 CEST
;FORMAT={-:-/ absolute / inch / decimal}
FMAT,2
INCH,TZ
T1C0.012
T2C0.028
T3C0.031
T4C0.032
T5C0.032
T6C0.039
T7C0.040
%
G90
G05
M72
T1
X2.07Y-3.24
X2.075Y-4.14
X2.1Y-4.755
X2.125Y-3.085
X2.17Y-4.595
X2.19Y-4.18
X2.25Y-4.98
X2.35Y-4.065
X2.4Y-3.785
X2.485Y-2.61
X2.605Y-3.
X2.62Y-5.41
X2.7Y-3.735
X2.7445Y-3.616
X2.745Y-4.185
X2.8Y-3.735
X2.8Y-4.115
X2.81Y-2.4
X2.905Y-4.21
X2.915Y-5.28
X2.93Y-4.565
X3.015Y-4.23
X3.09Y-5.62
X3.14Y-4.3
X3.1775Y-4.689
X3.195Y-4.53
X3.21Y-4.715
X3.21Y-5.835
X3.22Y-3.71
X3.2806Y-4.5706
X3.29Y-3.7
X3.385Y-2.125
X3.41Y-4.425
X3.47Y-4.425
X3.535Y-4.42
X3.6136Y-4.4296
X3.615Y-4.605
X3.655Y-3.555
X3.675Y-5.1
X3.699Y-4.569
X3.73Y-2.14
X3.73Y-2.855
X3.75Y-5.74
X3.76Y-5.075
X3.765Y-2.905
X3.78Y-3.26
X3.785Y-2.195
X3.785Y-5.63
X3.8Y-4.91
X3.82Y-5.45
X3.88Y-3.3
X3.965Y-2.755
X3.98Y-3.515
X3.99Y-3.335
X4.055Y-2.43
X4.08Y-5.45
X4.09Y-3.37
X4.125Y-5.098
X4.125Y-5.175
X4.13Y-2.9
X4.175Y-2.855
X4.185Y-3.495
X4.235Y-4.505
X4.25Y-2.08
X4.28Y-3.675
X4.28Y-3.85
X4.33Y-4.62
X4.335Y-4.25
X4.51Y-4.23
X4.52Y-3.555
X4.54Y-3.83
X4.6Y-3.99
X4.61Y-3.895
X4.645Y-5.815
X4.74Y-2.155
X4.94Y-4.175
X4.95Y-2.28
X4.97Y-3.695
X5.01Y-3.605
X5.01Y-4.21
X5.06Y-4.13
X5.165Y-4.285
X5.225Y-2.44
X5.2351Y-3.645
X5.245Y-2.88
X5.245Y-5.435
X5.27Y-5.08
X5.725Y-4.795
X5.73Y-3.82
X5.755Y-3.06
X5.79Y-4.13
T2
X4.3951Y-3.255
X4.3951Y-3.655
X5.2351Y-3.245
X5.2351Y-3.645
T3
X3.6909Y-3.7409
X3.6909Y-3.811
X3.6909Y-3.8811
X3.6909Y-3.9512
X3.6909Y-4.0213
X3.6909Y-4.0913
X3.6909Y-4.1614
X3.6909Y-4.2315
X4.187Y-3.7409
X4.187Y-3.811
X4.187Y-3.8811
X4.187Y-3.9512
X4.187Y-4.0213
X4.187Y-4.0913
X4.187Y-4.1614
X4.187Y-4.2315
X4.3416Y-3.075
X4.44Y-3.075
T4
X2.71Y-4.6339
X2.71Y-4.8261
T5
X3.36Y-2.72
X3.36Y-5.14
X3.46Y-2.62
X3.46Y-5.24
X3.56Y-2.72
X3.56Y-5.14
X4.3Y-2.72
X4.3Y-5.14
X4.4Y-2.62
X4.4Y-5.24
X4.5Y-2.72
X4.5Y-5.14
T6
X2.9002Y-3.3465
X3.0002Y-3.3465
X3.1002Y-3.3465
T7
X4.41Y-4.57
X4.41Y-4.67
X4.51Y-4.57
X4.51Y-4.67
X4.61Y-4.57
X4.61Y-4.67
X4.7Y-3.25
X4.7Y-3.35
X4.7Y-3.45
X4.7Y-3.55
X4.7Y-3.65
X4.8Y-3.25
X4.8Y-3.35
X4.8Y-3.45
X4.8Y-3.55
X4.8Y-3.65
T0
M30
