G04 #@! TF.FileFunction,Soldermask,Top*
%FSLAX46Y46*%
G04 Gerber Fmt 4.6, Leading zero omitted, Abs format (unit mm)*
G04 Created by KiCad (PCBNEW 4.0.2+e4-6225~38~ubuntu14.04.1-stable) date Di 12 Jul 2016 12:55:20 CEST*
%MOMM*%
G01*
G04 APERTURE LIST*
%ADD10C,0.100000*%
%ADD11R,2.900000X2.500000*%
%ADD12R,1.900000X2.500000*%
%ADD13C,1.901140*%
%ADD14R,1.650000X1.900000*%
%ADD15R,1.900000X1.650000*%
%ADD16R,1.700000X1.700000*%
%ADD17C,1.700000*%
%ADD18R,2.127200X2.127200*%
%ADD19O,2.127200X2.127200*%
%ADD20R,1.997660X2.200860*%
%ADD21C,2.099260*%
%ADD22R,2.099260X2.099260*%
%ADD23R,2.000000X0.950000*%
%ADD24R,0.950000X2.000000*%
%ADD25O,1.906220X3.414980*%
%ADD26R,1.900000X1.700000*%
%ADD27R,1.700000X1.900000*%
%ADD28R,1.000000X1.900000*%
%ADD29R,1.900000X1.000000*%
%ADD30C,3.600000*%
%ADD31C,1.924000*%
%ADD32C,1.800000*%
%ADD33R,1.620000X1.310000*%
%ADD34R,2.203400X1.289000*%
%ADD35C,1.009600*%
G04 APERTURE END LIST*
D10*
D11*
X101104680Y-53873550D03*
D12*
X98444680Y-53873550D03*
D13*
X68834000Y-122582940D03*
X68834000Y-117701060D03*
D14*
X135890000Y-101580000D03*
X135890000Y-99080000D03*
X60960000Y-98445000D03*
X60960000Y-100945000D03*
D15*
X101580000Y-64135000D03*
X99080000Y-64135000D03*
X75418000Y-117602000D03*
X72918000Y-117602000D03*
X98445000Y-135890000D03*
X100945000Y-135890000D03*
X68814000Y-120142000D03*
X66314000Y-120142000D03*
X70124000Y-115316000D03*
X72624000Y-115316000D03*
D16*
X112776000Y-78105000D03*
D17*
X110276000Y-78105000D03*
D14*
X89408000Y-116352000D03*
X89408000Y-118852000D03*
D18*
X112014000Y-116078000D03*
D19*
X112014000Y-118618000D03*
X114554000Y-116078000D03*
X114554000Y-118618000D03*
X117094000Y-116078000D03*
X117094000Y-118618000D03*
D20*
X146707860Y-109220000D03*
X143868140Y-109220000D03*
X56283860Y-109220000D03*
X53444140Y-109220000D03*
X139087860Y-73660000D03*
X136248140Y-73660000D03*
X92351860Y-54864000D03*
X89512140Y-54864000D03*
X56283860Y-90932000D03*
X53444140Y-90932000D03*
X63649860Y-73660000D03*
X60810140Y-73660000D03*
X76349860Y-61468000D03*
X73510140Y-61468000D03*
X92351860Y-145288000D03*
X89512140Y-145288000D03*
X107546140Y-145288000D03*
X110385860Y-145288000D03*
X126387860Y-61468000D03*
X123548140Y-61468000D03*
X110385860Y-54610000D03*
X107546140Y-54610000D03*
X126641860Y-138684000D03*
X123802140Y-138684000D03*
X76349860Y-138684000D03*
X73510140Y-138684000D03*
X146707860Y-90932000D03*
X143868140Y-90932000D03*
X139341860Y-126492000D03*
X136502140Y-126492000D03*
X63649860Y-126492000D03*
X60810140Y-126492000D03*
D21*
X132971540Y-82422480D03*
D22*
X132971540Y-92582480D03*
D21*
X111635540Y-82676480D03*
D22*
X111635540Y-92836480D03*
D11*
X131457720Y-132638650D03*
D12*
X134117720Y-132638650D03*
D11*
X140906520Y-118922650D03*
D12*
X143566520Y-118922650D03*
D11*
X140881120Y-81102050D03*
D12*
X143541120Y-81102050D03*
D11*
X144970520Y-100025050D03*
D12*
X147630520Y-100025050D03*
D11*
X68440280Y-67437150D03*
D12*
X65780280Y-67437150D03*
D11*
X59067680Y-81076950D03*
D12*
X56407680Y-81076950D03*
D11*
X59093080Y-118922950D03*
D12*
X56433080Y-118922950D03*
D11*
X55079880Y-99974550D03*
D12*
X52419880Y-99974550D03*
D11*
X131381520Y-67411450D03*
D12*
X134041520Y-67411450D03*
D11*
X115887520Y-57200650D03*
D12*
X118547520Y-57200650D03*
D11*
X81673720Y-57149850D03*
D12*
X84333720Y-57149850D03*
D11*
X68491080Y-132537350D03*
D12*
X65831080Y-132537350D03*
D11*
X83985080Y-142849750D03*
D12*
X81325080Y-142849750D03*
D11*
X115869720Y-142999850D03*
D12*
X118529720Y-142999850D03*
D11*
X101130280Y-146000150D03*
D12*
X98470280Y-146000150D03*
D23*
X78300000Y-114675000D03*
X78300000Y-115475000D03*
X78300000Y-116275000D03*
X78300000Y-117075000D03*
X78300000Y-117875000D03*
X78300000Y-118675000D03*
X78300000Y-119475000D03*
X78300000Y-120275000D03*
D24*
X79750000Y-121725000D03*
X80550000Y-121725000D03*
X81350000Y-121725000D03*
X82150000Y-121725000D03*
X82950000Y-121725000D03*
X83750000Y-121725000D03*
X84550000Y-121725000D03*
X85350000Y-121725000D03*
D23*
X86800000Y-120275000D03*
X86800000Y-119475000D03*
X86800000Y-118675000D03*
X86800000Y-117875000D03*
X86800000Y-117075000D03*
X86800000Y-116275000D03*
X86800000Y-115475000D03*
X86800000Y-114675000D03*
D24*
X85350000Y-113225000D03*
X84550000Y-113225000D03*
X83750000Y-113225000D03*
X82950000Y-113225000D03*
X82150000Y-113225000D03*
X81350000Y-113225000D03*
X80550000Y-113225000D03*
X79750000Y-113225000D03*
D18*
X119380000Y-92710000D03*
D19*
X121920000Y-92710000D03*
X119380000Y-90170000D03*
X121920000Y-90170000D03*
X119380000Y-87630000D03*
X121920000Y-87630000D03*
X119380000Y-85090000D03*
X121920000Y-85090000D03*
X119380000Y-82550000D03*
X121920000Y-82550000D03*
D25*
X73665000Y-85000000D03*
X76205000Y-85000000D03*
X78745000Y-85000000D03*
D26*
X143938000Y-111760000D03*
X146638000Y-111760000D03*
X53514000Y-111506000D03*
X56214000Y-111506000D03*
X136318000Y-71120000D03*
X139018000Y-71120000D03*
X89582000Y-57150000D03*
X92282000Y-57150000D03*
X133938000Y-135585200D03*
X131238000Y-135585200D03*
X143285200Y-121818400D03*
X140585200Y-121818400D03*
X143285200Y-77673200D03*
X140585200Y-77673200D03*
X147349200Y-102870000D03*
X144649200Y-102870000D03*
X119046000Y-101092000D03*
X121746000Y-101092000D03*
X119046000Y-103632000D03*
X121746000Y-103632000D03*
X119046000Y-98552000D03*
X121746000Y-98552000D03*
X119046000Y-96012000D03*
X121746000Y-96012000D03*
X53514000Y-88392000D03*
X56214000Y-88392000D03*
X60905400Y-71120000D03*
X63605400Y-71120000D03*
X73580000Y-64008000D03*
X76280000Y-64008000D03*
X89582000Y-142748000D03*
X92282000Y-142748000D03*
X65706000Y-64363600D03*
X68406000Y-64363600D03*
X56612800Y-78054200D03*
X59312800Y-78054200D03*
X56663600Y-121920000D03*
X59363600Y-121920000D03*
X52599600Y-102920800D03*
X55299600Y-102920800D03*
X76789000Y-98425000D03*
X74089000Y-98425000D03*
X76789000Y-95885000D03*
X74089000Y-95885000D03*
D27*
X76581000Y-104982000D03*
X76581000Y-102282000D03*
X73787000Y-104982000D03*
X73787000Y-102282000D03*
D26*
X110316000Y-142748000D03*
X107616000Y-142748000D03*
X123618000Y-64008000D03*
X126318000Y-64008000D03*
X107616000Y-57150000D03*
X110316000Y-57150000D03*
X123872000Y-141224000D03*
X126572000Y-141224000D03*
X133811000Y-64414400D03*
X131111000Y-64414400D03*
X118367800Y-54279800D03*
X115667800Y-54279800D03*
X84230200Y-54102000D03*
X81530200Y-54102000D03*
X98624400Y-56819800D03*
X101324400Y-56819800D03*
D27*
X101362000Y-81456000D03*
X101362000Y-78756000D03*
X103886000Y-81487000D03*
X103886000Y-78787000D03*
X98568000Y-81456000D03*
X98568000Y-78756000D03*
X96028000Y-81456000D03*
X96028000Y-78756000D03*
D26*
X73580000Y-141224000D03*
X76280000Y-141224000D03*
X143938000Y-93218000D03*
X146638000Y-93218000D03*
X136572000Y-129032000D03*
X139272000Y-129032000D03*
X60880000Y-129032000D03*
X63580000Y-129032000D03*
X66010800Y-135534400D03*
X68710800Y-135534400D03*
X81555600Y-145796000D03*
X84255600Y-145796000D03*
X118350000Y-146000000D03*
X115650000Y-146000000D03*
X98650000Y-143000000D03*
X101350000Y-143000000D03*
X91360000Y-125222000D03*
X94060000Y-125222000D03*
X91370160Y-127670560D03*
X94070160Y-127670560D03*
X97710000Y-123190000D03*
X100410000Y-123190000D03*
X97710000Y-120904000D03*
X100410000Y-120904000D03*
D27*
X84852000Y-80026000D03*
X84852000Y-82726000D03*
X87138000Y-80026000D03*
X87138000Y-82726000D03*
X82804000Y-110570000D03*
X82804000Y-107870000D03*
X85344000Y-110570000D03*
X85344000Y-107870000D03*
D28*
X126190000Y-102700000D03*
X127460000Y-102700000D03*
X128730000Y-102700000D03*
X130000000Y-102700000D03*
X131270000Y-102700000D03*
X132540000Y-102700000D03*
X133810000Y-102700000D03*
X133810000Y-97300000D03*
X132540000Y-97300000D03*
X131270000Y-97300000D03*
X130000000Y-97300000D03*
X128730000Y-97300000D03*
X127460000Y-97300000D03*
X126190000Y-97300000D03*
X71120000Y-96995000D03*
X69850000Y-96995000D03*
X68580000Y-96995000D03*
X67310000Y-96995000D03*
X66040000Y-96995000D03*
X64770000Y-96995000D03*
X63500000Y-96995000D03*
X63500000Y-102395000D03*
X64770000Y-102395000D03*
X66040000Y-102395000D03*
X67310000Y-102395000D03*
X68580000Y-102395000D03*
X69850000Y-102395000D03*
X71120000Y-102395000D03*
D29*
X102700000Y-73810000D03*
X102700000Y-72540000D03*
X102700000Y-71270000D03*
X102700000Y-70000000D03*
X102700000Y-68730000D03*
X102700000Y-67460000D03*
X102700000Y-66190000D03*
X97300000Y-66190000D03*
X97300000Y-67460000D03*
X97300000Y-68730000D03*
X97300000Y-70000000D03*
X97300000Y-71270000D03*
X97300000Y-72540000D03*
X97300000Y-73810000D03*
X97300000Y-126190000D03*
X97300000Y-127460000D03*
X97300000Y-128730000D03*
X97300000Y-130000000D03*
X97300000Y-131270000D03*
X97300000Y-132540000D03*
X97300000Y-133810000D03*
X102700000Y-133810000D03*
X102700000Y-132540000D03*
X102700000Y-131270000D03*
X102700000Y-130000000D03*
X102700000Y-128730000D03*
X102700000Y-127460000D03*
X102700000Y-126190000D03*
D30*
X75000000Y-75000000D03*
X125000000Y-75000000D03*
X75000000Y-125000000D03*
X125000000Y-125000000D03*
D31*
X111760000Y-133096000D03*
X109220000Y-130556000D03*
X114300000Y-130556000D03*
X87884000Y-66548000D03*
X90424000Y-69088000D03*
X85344000Y-69088000D03*
X111760000Y-66548000D03*
X114300000Y-69088000D03*
X109220000Y-69088000D03*
X87884000Y-133096000D03*
X85344000Y-130556000D03*
X90424000Y-130556000D03*
D32*
X106350000Y-95020000D03*
X106350000Y-96800000D03*
X106350000Y-98580000D03*
X106350000Y-100360000D03*
X106350000Y-102140000D03*
X106350000Y-103920000D03*
X106350000Y-105700000D03*
X106350000Y-107480000D03*
X93750000Y-107480000D03*
X93750000Y-105700000D03*
X93750000Y-103920000D03*
X93750000Y-102140000D03*
X93750000Y-100360000D03*
X93750000Y-98580000D03*
X93750000Y-96800000D03*
X93750000Y-95020000D03*
D33*
X92710000Y-77994000D03*
X92710000Y-81264000D03*
X90170000Y-81264000D03*
X90170000Y-77994000D03*
X92710000Y-88630000D03*
X92710000Y-85360000D03*
X90170000Y-85233000D03*
X90170000Y-88503000D03*
D34*
X127000000Y-85852000D03*
X127000000Y-82372200D03*
D26*
X114634000Y-105156000D03*
X111934000Y-105156000D03*
X114634000Y-102616000D03*
X111934000Y-102616000D03*
X114634000Y-100076000D03*
X111934000Y-100076000D03*
X126920000Y-88138000D03*
X129620000Y-88138000D03*
D35*
X103632000Y-138430000D03*
X131191000Y-108839000D03*
X66167000Y-76200000D03*
X60960000Y-96139000D03*
X102997000Y-61722000D03*
X74041000Y-134112000D03*
X55118000Y-116713000D03*
X59690000Y-103251000D03*
X97028000Y-138430000D03*
X127254000Y-106934000D03*
X125476000Y-106045000D03*
X127254000Y-91567000D03*
X126238000Y-93853000D03*
X69710300Y-91846400D03*
X71120000Y-94869000D03*
X69723000Y-106299000D03*
X71120000Y-104521000D03*
X106045000Y-72517000D03*
X104902000Y-73660000D03*
X94742000Y-72517000D03*
X95631000Y-73787000D03*
X96520000Y-124714000D03*
X93345000Y-129540000D03*
X104775000Y-129489200D03*
X104775000Y-131445000D03*
X133223000Y-73152000D03*
X76581000Y-107442000D03*
X80708500Y-119100600D03*
X73787000Y-106934000D03*
X81534000Y-119761000D03*
X107569000Y-114427000D03*
X115316000Y-97282000D03*
X89789000Y-112268000D03*
X103886000Y-85598000D03*
X101346000Y-84709000D03*
X88138000Y-112395000D03*
X98552000Y-83820000D03*
X86614000Y-112395000D03*
X79756000Y-109220000D03*
X96012000Y-82804000D03*
X114808000Y-90297000D03*
X108077000Y-52679600D03*
X71069200Y-60960000D03*
X133807200Y-129032000D03*
X125577600Y-57962800D03*
X83566000Y-93980000D03*
X55626000Y-106172000D03*
X52578000Y-82296000D03*
X94742000Y-54356000D03*
X145542000Y-97028000D03*
X95250000Y-145796000D03*
X78486000Y-142748000D03*
X57150000Y-126492000D03*
X91785440Y-112511840D03*
X93954600Y-116052600D03*
X83327240Y-116093240D03*
X110109000Y-107950000D03*
X100711000Y-69977000D03*
X96139000Y-55753000D03*
X120396000Y-54737000D03*
X132715000Y-61976000D03*
X85979000Y-53975000D03*
X63119000Y-66294000D03*
X53975000Y-78359000D03*
X52705000Y-105156000D03*
X68580000Y-94869000D03*
X53340000Y-120777000D03*
X66548000Y-137414000D03*
X74422000Y-115951000D03*
X91821000Y-116967000D03*
X133223000Y-138049000D03*
X81534000Y-148209000D03*
X96139000Y-143002000D03*
X117983000Y-147701000D03*
X95504000Y-128905000D03*
X146177000Y-77724000D03*
X147066000Y-104902000D03*
X145415000Y-121793000D03*
X128524000Y-104902000D03*
X132971540Y-92582480D03*
X101092000Y-89281000D03*
X116840000Y-101346000D03*
X92837000Y-90297000D03*
X108712000Y-93345000D03*
X108712000Y-97790000D03*
X81788000Y-94234000D03*
X106299000Y-88773000D03*
X114554000Y-107442000D03*
X109982000Y-117348000D03*
X117094000Y-98933000D03*
X81153000Y-115062000D03*
M02*
