  0
SECTION
  2
HEADER
  9
$ANGBASE
  50
0.0
  9
$ANGDIR
  70
  1
  9
$MEASUREMENT
  70
0
  0
ENDSEC
  0
SECTION
  2
TABLES
  0
TABLE
  2
LTYPE
  70
4
  0
LTYPE
  5
40F
  2
CONTINUOUS
  70
0
  3
Solid line
  72
65
  73
0
  40
0.0
  0
LTYPE
  5
410
  2
DASHDOT
 70
0
  3
Dash Dot ____ _ ____ _
 72
65
 73
4
 40
2.0
 49
1.25
 49
-0.25
 49
0.25
 49
-0.25
  0
LTYPE
  5
411
  2
DASHED
 70
0
  3
Dashed __ __ __ __ __
 72
65
 73
2
 40
0.75
 49
0.5
 49
-0.25
  0
LTYPE
  5
43B
  2
DOTTED
 70
0
  3
Dotted .  .  .  .
 72
65
 73
2
 40
0.2
 49
0.0
 49
-0.2
  0
ENDTAB
  0
TABLE
  2
STYLE
  70
4
  0
STYLE
  2
KICAD
  70
0
  40
0
  41
1
  42
1
  50
0
  71
0
  3
isocp.shx
  0
STYLE
  2
KICADB
  70
0
  40
0
  41
1
  42
1
  50
0
  71
0
  3
isocp.shx
  0
STYLE
  2
KICADI
  70
0
  40
0
  41
1
  42
1
  50
15
  71
0
  3
isocp.shx
  0
STYLE
  2
KICADBI
  70
0
  40
0
  41
1
  42
1
  50
15
  71
0
  3
isocp.shx
  0
ENDTAB
  0
TABLE
  2
LAYER
  70
30
  0
LAYER
  2
BLACK
  70
0
  62
7
  6
CONTINUOUS
  0
LAYER
  2
GRAY1
  70
0
  62
251
  6
CONTINUOUS
  0
LAYER
  2
GRAY2
  70
0
  62
8
  6
CONTINUOUS
  0
LAYER
  2
GRAY3
  70
0
  62
9
  6
CONTINUOUS
  0
LAYER
  2
WHITE
  70
0
  62
7
  6
CONTINUOUS
  0
LAYER
  2
LYELLOW
  70
0
  62
51
  6
CONTINUOUS
  0
LAYER
  2
BLUE1
  70
0
  62
178
  6
CONTINUOUS
  0
LAYER
  2
GREEN1
  70
0
  62
98
  6
CONTINUOUS
  0
LAYER
  2
CYAN1
  70
0
  62
138
  6
CONTINUOUS
  0
LAYER
  2
RED1
  70
0
  62
18
  6
CONTINUOUS
  0
LAYER
  2
MAGENTA1
  70
0
  62
228
  6
CONTINUOUS
  0
LAYER
  2
BROWN1
  70
0
  62
58
  6
CONTINUOUS
  0
LAYER
  2
BLUE2
  70
0
  62
5
  6
CONTINUOUS
  0
LAYER
  2
GREEN2
  70
0
  62
3
  6
CONTINUOUS
  0
LAYER
  2
CYAN2
  70
0
  62
4
  6
CONTINUOUS
  0
LAYER
  2
RED2
  70
0
  62
1
  6
CONTINUOUS
  0
LAYER
  2
MAGENTA2
  70
0
  62
6
  6
CONTINUOUS
  0
LAYER
  2
BROWN2
  70
0
  62
54
  6
CONTINUOUS
  0
LAYER
  2
BLUE3
  70
0
  62
171
  6
CONTINUOUS
  0
LAYER
  2
GREEN3
  70
0
  62
91
  6
CONTINUOUS
  0
LAYER
  2
CYAN3
  70
0
  62
131
  6
CONTINUOUS
  0
LAYER
  2
RED3
  70
0
  62
11
  6
CONTINUOUS
  0
LAYER
  2
MAGENTA3
  70
0
  62
221
  6
CONTINUOUS
  0
LAYER
  2
YELLOW3
  70
0
  62
2
  6
CONTINUOUS
  0
LAYER
  2
BLUE4
  70
0
  62
5
  6
CONTINUOUS
  0
LAYER
  2
GREEN4
  70
0
  62
3
  6
CONTINUOUS
  0
LAYER
  2
CYAN4
  70
0
  62
4
  6
CONTINUOUS
  0
LAYER
  2
RED4
  70
0
  62
1
  6
CONTINUOUS
  0
LAYER
  2
MAGENTA4
  70
0
  62
6
  6
CONTINUOUS
  0
LAYER
  2
YELLOW4
  70
0
  62
2
  6
CONTINUOUS
  0
ENDTAB
  0
ENDSEC
  0
SECTION
  2
ENTITIES
0
LINE
8
BLACK
6
CONTINUOUS
10
146.828
20
-140.196
11
145.328
21
-140.196
0
LINE
8
BLACK
6
CONTINUOUS
10
145.328
20
-140.196
11
145.328
21
-138.696
0
LINE
8
BLACK
6
CONTINUOUS
10
145.328
20
-138.696
11
146.828
21
-138.696
0
LINE
8
BLACK
6
CONTINUOUS
10
146.828
20
-138.696
11
146.828
21
-140.196
0
LINE
8
BLACK
6
CONTINUOUS
10
150.328
20
-140.196
11
148.828
21
-140.196
0
LINE
8
BLACK
6
CONTINUOUS
10
148.828
20
-140.196
11
148.828
21
-138.696
0
LINE
8
BLACK
6
CONTINUOUS
10
148.828
20
-138.696
11
150.328
21
-138.696
0
LINE
8
BLACK
6
CONTINUOUS
10
150.328
20
-138.696
11
150.328
21
-140.196
0
LINE
8
BLACK
6
CONTINUOUS
10
168.603
20
-139.891
11
167.103
21
-139.891
0
LINE
8
BLACK
6
CONTINUOUS
10
167.103
20
-139.891
11
167.103
21
-138.391
0
LINE
8
BLACK
6
CONTINUOUS
10
167.103
20
-138.391
11
168.603
21
-138.391
0
LINE
8
BLACK
6
CONTINUOUS
10
168.603
20
-138.391
11
168.603
21
-139.891
0
LINE
8
BLACK
6
CONTINUOUS
10
165.103
20
-139.891
11
163.603
21
-139.891
0
LINE
8
BLACK
6
CONTINUOUS
10
163.603
20
-139.891
11
163.603
21
-138.391
0
LINE
8
BLACK
6
CONTINUOUS
10
163.603
20
-138.391
11
165.103
21
-138.391
0
LINE
8
BLACK
6
CONTINUOUS
10
165.103
20
-138.391
11
165.103
21
-139.891
0
LINE
8
BLACK
6
CONTINUOUS
10
162.395
20
-139.118
11
161.095
21
-139.118
0
LINE
8
BLACK
6
CONTINUOUS
10
161.095
20
-139.118
11
161.095
21
-137.618
0
LINE
8
BLACK
6
CONTINUOUS
10
161.095
20
-137.618
11
162.395
21
-137.618
0
LINE
8
BLACK
6
CONTINUOUS
10
162.395
20
-137.618
11
162.395
21
-139.118
0
LINE
8
BLACK
6
CONTINUOUS
10
149.97
20
-137.794
11
148.373
21
-137.794
0
LINE
8
BLACK
6
CONTINUOUS
10
148.373
20
-137.794
11
148.373
21
-135.993
0
LINE
8
BLACK
6
CONTINUOUS
10
148.373
20
-135.993
11
149.97
21
-135.993
0
LINE
8
BLACK
6
CONTINUOUS
10
149.97
20
-135.993
11
149.97
21
-137.794
0
LINE
8
BLACK
6
CONTINUOUS
10
147.131
20
-137.794
11
145.533
21
-137.794
0
LINE
8
BLACK
6
CONTINUOUS
10
145.533
20
-137.794
11
145.533
21
-135.993
0
LINE
8
BLACK
6
CONTINUOUS
10
145.533
20
-135.993
11
147.131
21
-135.993
0
LINE
8
BLACK
6
CONTINUOUS
10
147.131
20
-135.993
11
147.131
21
-137.794
0
LINE
8
BLACK
6
CONTINUOUS
10
165.454
20
-137.611
11
163.857
21
-137.611
0
LINE
8
BLACK
6
CONTINUOUS
10
163.857
20
-137.611
11
163.857
21
-135.81
0
LINE
8
BLACK
6
CONTINUOUS
10
163.857
20
-135.81
11
165.454
21
-135.81
0
LINE
8
BLACK
6
CONTINUOUS
10
165.454
20
-135.81
11
165.454
21
-137.611
0
LINE
8
BLACK
6
CONTINUOUS
10
168.294
20
-137.611
11
166.696
21
-137.611
0
LINE
8
BLACK
6
CONTINUOUS
10
166.696
20
-137.611
11
166.696
21
-135.81
0
LINE
8
BLACK
6
CONTINUOUS
10
166.696
20
-135.81
11
168.294
21
-135.81
0
LINE
8
BLACK
6
CONTINUOUS
10
168.294
20
-135.81
11
168.294
21
-137.611
0
LINE
8
BLACK
6
CONTINUOUS
10
162.395
20
-136.418
11
161.095
21
-136.418
0
LINE
8
BLACK
6
CONTINUOUS
10
161.095
20
-136.418
11
161.095
21
-134.918
0
LINE
8
BLACK
6
CONTINUOUS
10
161.095
20
-134.918
11
162.395
21
-134.918
0
LINE
8
BLACK
6
CONTINUOUS
10
162.395
20
-134.918
11
162.395
21
-136.418
0
LINE
8
BLACK
6
CONTINUOUS
10
129.93
20
-136.15
11
128.43
21
-136.15
0
LINE
8
BLACK
6
CONTINUOUS
10
128.43
20
-136.15
11
128.43
21
-134.85
0
LINE
8
BLACK
6
CONTINUOUS
10
128.43
20
-134.85
11
129.93
21
-134.85
0
LINE
8
BLACK
6
CONTINUOUS
10
129.93
20
-134.85
11
129.93
21
-136.15
0
LINE
8
BLACK
6
CONTINUOUS
10
132.63
20
-136.15
11
131.13
21
-136.15
0
LINE
8
BLACK
6
CONTINUOUS
10
131.13
20
-136.15
11
131.13
21
-134.85
0
LINE
8
BLACK
6
CONTINUOUS
10
131.13
20
-134.85
11
132.63
21
-134.85
0
LINE
8
BLACK
6
CONTINUOUS
10
132.63
20
-134.85
11
132.63
21
-136.15
0
LINE
8
BLACK
6
CONTINUOUS
10
144.541
20
-135.653
11
143.241
21
-135.653
0
LINE
8
BLACK
6
CONTINUOUS
10
143.241
20
-135.653
11
143.241
21
-134.153
0
LINE
8
BLACK
6
CONTINUOUS
10
143.241
20
-134.153
11
144.541
21
-134.153
0
LINE
8
BLACK
6
CONTINUOUS
10
144.541
20
-134.153
11
144.541
21
-135.653
0
LINE
8
BLACK
6
CONTINUOUS
10
134.377
20
-133.968
11
132.877
21
-133.968
0
LINE
8
BLACK
6
CONTINUOUS
10
132.877
20
-133.968
11
132.877
21
-132.468
0
LINE
8
BLACK
6
CONTINUOUS
10
132.877
20
-132.468
11
134.377
21
-132.468
0
LINE
8
BLACK
6
CONTINUOUS
10
134.377
20
-132.468
11
134.377
21
-133.968
0
LINE
8
BLACK
6
CONTINUOUS
10
130.877
20
-133.968
11
129.377
21
-133.968
0
LINE
8
BLACK
6
CONTINUOUS
10
129.377
20
-133.968
11
129.377
21
-132.468
0
LINE
8
BLACK
6
CONTINUOUS
10
129.377
20
-132.468
11
130.877
21
-132.468
0
LINE
8
BLACK
6
CONTINUOUS
10
130.877
20
-132.468
11
130.877
21
-133.968
0
LINE
8
BLACK
6
CONTINUOUS
10
181.286
20
-133.353
11
179.786
21
-133.353
0
LINE
8
BLACK
6
CONTINUOUS
10
179.786
20
-133.353
11
179.786
21
-131.853
0
LINE
8
BLACK
6
CONTINUOUS
10
179.786
20
-131.853
11
181.286
21
-131.853
0
LINE
8
BLACK
6
CONTINUOUS
10
181.286
20
-131.853
11
181.286
21
-133.353
0
LINE
8
BLACK
6
CONTINUOUS
10
184.786
20
-133.353
11
183.286
21
-133.353
0
LINE
8
BLACK
6
CONTINUOUS
10
183.286
20
-133.353
11
183.286
21
-131.853
0
LINE
8
BLACK
6
CONTINUOUS
10
183.286
20
-131.853
11
184.786
21
-131.853
0
LINE
8
BLACK
6
CONTINUOUS
10
184.786
20
-131.853
11
184.786
21
-133.353
0
LINE
8
BLACK
6
CONTINUOUS
10
178.879
20
-133.334
11
177.579
21
-133.334
0
LINE
8
BLACK
6
CONTINUOUS
10
177.579
20
-133.334
11
177.579
21
-131.834
0
LINE
8
BLACK
6
CONTINUOUS
10
177.579
20
-131.834
11
178.879
21
-131.834
0
LINE
8
BLACK
6
CONTINUOUS
10
178.879
20
-131.834
11
178.879
21
-133.334
0
LINE
8
BLACK
6
CONTINUOUS
10
144.541
20
-132.953
11
143.241
21
-132.953
0
LINE
8
BLACK
6
CONTINUOUS
10
143.241
20
-132.953
11
143.241
21
-131.453
0
LINE
8
BLACK
6
CONTINUOUS
10
143.241
20
-131.453
11
144.541
21
-131.453
0
LINE
8
BLACK
6
CONTINUOUS
10
144.541
20
-131.453
11
144.541
21
-132.953
0
LINE
8
BLACK
6
CONTINUOUS
10
154.32
20
-132.91
11
153.02
21
-132.91
0
LINE
8
BLACK
6
CONTINUOUS
10
153.02
20
-132.91
11
153.02
21
-131.41
0
LINE
8
BLACK
6
CONTINUOUS
10
153.02
20
-131.41
11
154.32
21
-131.41
0
LINE
8
BLACK
6
CONTINUOUS
10
154.32
20
-131.41
11
154.32
21
-132.91
0
LINE
8
BLACK
6
CONTINUOUS
10
165.475
20
-132.583
11
163.975
21
-132.583
0
LINE
8
BLACK
6
CONTINUOUS
10
163.975
20
-132.583
11
163.975
21
-131.283
0
LINE
8
BLACK
6
CONTINUOUS
10
163.975
20
-131.283
11
165.475
21
-131.283
0
LINE
8
BLACK
6
CONTINUOUS
10
165.475
20
-131.283
11
165.475
21
-132.583
0
LINE
8
BLACK
6
CONTINUOUS
10
168.175
20
-132.583
11
166.675
21
-132.583
0
LINE
8
BLACK
6
CONTINUOUS
10
166.675
20
-132.583
11
166.675
21
-131.283
0
LINE
8
BLACK
6
CONTINUOUS
10
166.675
20
-131.283
11
168.175
21
-131.283
0
LINE
8
BLACK
6
CONTINUOUS
10
168.175
20
-131.283
11
168.175
21
-132.583
0
LINE
8
BLACK
6
CONTINUOUS
10
149.852
20
-132.438
11
148.352
21
-132.438
0
LINE
8
BLACK
6
CONTINUOUS
10
148.352
20
-132.438
11
148.352
21
-131.138
0
LINE
8
BLACK
6
CONTINUOUS
10
148.352
20
-131.138
11
149.852
21
-131.138
0
LINE
8
BLACK
6
CONTINUOUS
10
149.852
20
-131.138
11
149.852
21
-132.438
0
LINE
8
BLACK
6
CONTINUOUS
10
147.152
20
-132.438
11
145.652
21
-132.438
0
LINE
8
BLACK
6
CONTINUOUS
10
145.652
20
-132.438
11
145.652
21
-131.138
0
LINE
8
BLACK
6
CONTINUOUS
10
145.652
20
-131.138
11
147.152
21
-131.138
0
LINE
8
BLACK
6
CONTINUOUS
10
147.152
20
-131.138
11
147.152
21
-132.438
0
LINE
8
BLACK
6
CONTINUOUS
10
158.6
20
-132.15
11
157.4
21
-132.15
0
LINE
8
BLACK
6
CONTINUOUS
10
157.4
20
-132.15
11
157.4
21
-131.35
0
LINE
8
BLACK
6
CONTINUOUS
10
157.4
20
-131.35
11
158.6
21
-131.35
0
LINE
8
BLACK
6
CONTINUOUS
10
158.6
20
-131.35
11
158.6
21
-132.15
0
LINE
8
BLACK
6
CONTINUOUS
10
131.144
20
-131.436
11
129.546
21
-131.436
0
LINE
8
BLACK
6
CONTINUOUS
10
129.546
20
-131.436
11
129.546
21
-129.635
0
LINE
8
BLACK
6
CONTINUOUS
10
129.546
20
-129.635
11
131.144
21
-129.635
0
LINE
8
BLACK
6
CONTINUOUS
10
131.144
20
-129.635
11
131.144
21
-131.436
0
LINE
8
BLACK
6
CONTINUOUS
10
133.984
20
-131.436
11
132.386
21
-131.436
0
LINE
8
BLACK
6
CONTINUOUS
10
132.386
20
-131.436
11
132.386
21
-129.635
0
LINE
8
BLACK
6
CONTINUOUS
10
132.386
20
-129.635
11
133.984
21
-129.635
0
LINE
8
BLACK
6
CONTINUOUS
10
133.984
20
-129.635
11
133.984
21
-131.436
0
LINE
8
BLACK
6
CONTINUOUS
10
156.6
20
-131.2
11
155.4
21
-131.2
0
LINE
8
BLACK
6
CONTINUOUS
10
155.4
20
-131.2
11
155.4
21
-130.4
0
LINE
8
BLACK
6
CONTINUOUS
10
155.4
20
-130.4
11
156.6
21
-130.4
0
LINE
8
BLACK
6
CONTINUOUS
10
156.6
20
-130.4
11
156.6
21
-131.2
0
LINE
8
BLACK
6
CONTINUOUS
10
184.52
20
-131.187
11
182.922
21
-131.187
0
LINE
8
BLACK
6
CONTINUOUS
10
182.922
20
-131.187
11
182.922
21
-129.386
0
LINE
8
BLACK
6
CONTINUOUS
10
182.922
20
-129.386
11
184.52
21
-129.386
0
LINE
8
BLACK
6
CONTINUOUS
10
184.52
20
-129.386
11
184.52
21
-131.187
0
LINE
8
BLACK
6
CONTINUOUS
10
181.68
20
-131.187
11
180.082
21
-131.187
0
LINE
8
BLACK
6
CONTINUOUS
10
180.082
20
-131.187
11
180.082
21
-129.386
0
LINE
8
BLACK
6
CONTINUOUS
10
180.082
20
-129.386
11
181.68
21
-129.386
0
LINE
8
BLACK
6
CONTINUOUS
10
181.68
20
-129.386
11
181.68
21
-131.187
0
LINE
8
BLACK
6
CONTINUOUS
10
178.879
20
-130.634
11
177.579
21
-130.634
0
LINE
8
BLACK
6
CONTINUOUS
10
177.579
20
-130.634
11
177.579
21
-129.134
0
LINE
8
BLACK
6
CONTINUOUS
10
177.579
20
-129.134
11
178.879
21
-129.134
0
LINE
8
BLACK
6
CONTINUOUS
10
178.879
20
-129.134
11
178.879
21
-130.634
0
LINE
8
BLACK
6
CONTINUOUS
10
158.6
20
-130.25
11
157.4
21
-130.25
0
LINE
8
BLACK
6
CONTINUOUS
10
157.4
20
-130.25
11
157.4
21
-129.45
0
LINE
8
BLACK
6
CONTINUOUS
10
157.4
20
-129.45
11
158.6
21
-129.45
0
LINE
8
BLACK
6
CONTINUOUS
10
158.6
20
-129.45
11
158.6
21
-130.25
0
LINE
8
BLACK
6
CONTINUOUS
10
154.32
20
-130.21
11
153.02
21
-130.21
0
LINE
8
BLACK
6
CONTINUOUS
10
153.02
20
-130.21
11
153.02
21
-128.71
0
LINE
8
BLACK
6
CONTINUOUS
10
153.02
20
-128.71
11
154.32
21
-128.71
0
LINE
8
BLACK
6
CONTINUOUS
10
154.32
20
-128.71
11
154.32
21
-130.21
0
LINE
8
BLACK
6
CONTINUOUS
10
183.68
20
-126.34
11
182.18
21
-126.34
0
LINE
8
BLACK
6
CONTINUOUS
10
182.18
20
-126.34
11
182.18
21
-125.04
0
LINE
8
BLACK
6
CONTINUOUS
10
182.18
20
-125.04
11
183.68
21
-125.04
0
LINE
8
BLACK
6
CONTINUOUS
10
183.68
20
-125.04
11
183.68
21
-126.34
0
LINE
8
BLACK
6
CONTINUOUS
10
180.98
20
-126.34
11
179.48
21
-126.34
0
LINE
8
BLACK
6
CONTINUOUS
10
179.48
20
-126.34
11
179.48
21
-125.04
0
LINE
8
BLACK
6
CONTINUOUS
10
179.48
20
-125.04
11
180.98
21
-125.04
0
LINE
8
BLACK
6
CONTINUOUS
10
180.98
20
-125.04
11
180.98
21
-126.34
0
LINE
8
BLACK
6
CONTINUOUS
10
132.76
20
-126.11
11
131.26
21
-126.11
0
LINE
8
BLACK
6
CONTINUOUS
10
131.26
20
-126.11
11
131.26
21
-124.81
0
LINE
8
BLACK
6
CONTINUOUS
10
131.26
20
-124.81
11
132.76
21
-124.81
0
LINE
8
BLACK
6
CONTINUOUS
10
132.76
20
-124.81
11
132.76
21
-126.11
0
LINE
8
BLACK
6
CONTINUOUS
10
135.46
20
-126.11
11
133.96
21
-126.11
0
LINE
8
BLACK
6
CONTINUOUS
10
133.96
20
-126.11
11
133.96
21
-124.81
0
LINE
8
BLACK
6
CONTINUOUS
10
133.96
20
-124.81
11
135.46
21
-124.81
0
LINE
8
BLACK
6
CONTINUOUS
10
135.46
20
-124.81
11
135.46
21
-126.11
0
LINE
8
BLACK
6
CONTINUOUS
10
196.35
20
-124.4
11
194.85
21
-124.4
0
LINE
8
BLACK
6
CONTINUOUS
10
194.85
20
-124.4
11
194.85
21
-123.1
0
LINE
8
BLACK
6
CONTINUOUS
10
194.85
20
-123.1
11
196.35
21
-123.1
0
LINE
8
BLACK
6
CONTINUOUS
10
196.35
20
-123.1
11
196.35
21
-124.4
0
LINE
8
BLACK
6
CONTINUOUS
10
193.65
20
-124.4
11
192.15
21
-124.4
0
LINE
8
BLACK
6
CONTINUOUS
10
192.15
20
-124.4
11
192.15
21
-123.1
0
LINE
8
BLACK
6
CONTINUOUS
10
192.15
20
-123.1
11
193.65
21
-123.1
0
LINE
8
BLACK
6
CONTINUOUS
10
193.65
20
-123.1
11
193.65
21
-124.4
0
LINE
8
BLACK
6
CONTINUOUS
10
118.728
20
-121.982
11
117.228
21
-121.982
0
LINE
8
BLACK
6
CONTINUOUS
10
117.228
20
-121.982
11
117.228
21
-120.482
0
LINE
8
BLACK
6
CONTINUOUS
10
117.228
20
-120.482
11
118.728
21
-120.482
0
LINE
8
BLACK
6
CONTINUOUS
10
118.728
20
-120.482
11
118.728
21
-121.982
0
LINE
8
BLACK
6
CONTINUOUS
10
196.546
20
-121.982
11
195.046
21
-121.982
0
LINE
8
BLACK
6
CONTINUOUS
10
195.046
20
-121.982
11
195.046
21
-120.482
0
LINE
8
BLACK
6
CONTINUOUS
10
195.046
20
-120.482
11
196.546
21
-120.482
0
LINE
8
BLACK
6
CONTINUOUS
10
196.546
20
-120.482
11
196.546
21
-121.982
0
LINE
8
BLACK
6
CONTINUOUS
10
121.642
20
-121.66
11
119.841
21
-121.66
0
LINE
8
BLACK
6
CONTINUOUS
10
119.841
20
-121.66
11
119.841
21
-120.062
0
LINE
8
BLACK
6
CONTINUOUS
10
119.841
20
-120.062
11
121.642
21
-120.062
0
LINE
8
BLACK
6
CONTINUOUS
10
121.642
20
-120.062
11
121.642
21
-121.66
0
LINE
8
BLACK
6
CONTINUOUS
10
193.915
20
-121.586
11
192.114
21
-121.586
0
LINE
8
BLACK
6
CONTINUOUS
10
192.114
20
-121.586
11
192.114
21
-119.988
0
LINE
8
BLACK
6
CONTINUOUS
10
192.114
20
-119.988
11
193.915
21
-119.988
0
LINE
8
BLACK
6
CONTINUOUS
10
193.915
20
-119.988
11
193.915
21
-121.586
0
LINE
8
BLACK
6
CONTINUOUS
10
188.62
20
-119.03
11
187.32
21
-119.03
0
LINE
8
BLACK
6
CONTINUOUS
10
187.32
20
-119.03
11
187.32
21
-117.53
0
LINE
8
BLACK
6
CONTINUOUS
10
187.32
20
-117.53
11
188.62
21
-117.53
0
LINE
8
BLACK
6
CONTINUOUS
10
188.62
20
-117.53
11
188.62
21
-119.03
0
LINE
8
BLACK
6
CONTINUOUS
10
121.642
20
-118.82
11
119.841
21
-118.82
0
LINE
8
BLACK
6
CONTINUOUS
10
119.841
20
-118.82
11
119.841
21
-117.222
0
LINE
8
BLACK
6
CONTINUOUS
10
119.841
20
-117.222
11
121.642
21
-117.222
0
LINE
8
BLACK
6
CONTINUOUS
10
121.642
20
-117.222
11
121.642
21
-118.82
0
LINE
8
BLACK
6
CONTINUOUS
10
193.915
20
-118.746
11
192.114
21
-118.746
0
LINE
8
BLACK
6
CONTINUOUS
10
192.114
20
-118.746
11
192.114
21
-117.149
0
LINE
8
BLACK
6
CONTINUOUS
10
192.114
20
-117.149
11
193.915
21
-117.149
0
LINE
8
BLACK
6
CONTINUOUS
10
193.915
20
-117.149
11
193.915
21
-118.746
0
LINE
8
BLACK
6
CONTINUOUS
10
196.546
20
-118.482
11
195.046
21
-118.482
0
LINE
8
BLACK
6
CONTINUOUS
10
195.046
20
-118.482
11
195.046
21
-116.982
0
LINE
8
BLACK
6
CONTINUOUS
10
195.046
20
-116.982
11
196.546
21
-116.982
0
LINE
8
BLACK
6
CONTINUOUS
10
196.546
20
-116.982
11
196.546
21
-118.482
0
LINE
8
BLACK
6
CONTINUOUS
10
118.728
20
-118.482
11
117.228
21
-118.482
0
LINE
8
BLACK
6
CONTINUOUS
10
117.228
20
-118.482
11
117.228
21
-116.982
0
LINE
8
BLACK
6
CONTINUOUS
10
117.228
20
-116.982
11
118.728
21
-116.982
0
LINE
8
BLACK
6
CONTINUOUS
10
118.728
20
-116.982
11
118.728
21
-118.482
0
LINE
8
BLACK
6
CONTINUOUS
10
188.62
20
-116.33
11
187.32
21
-116.33
0
LINE
8
BLACK
6
CONTINUOUS
10
187.32
20
-116.33
11
187.32
21
-114.83
0
LINE
8
BLACK
6
CONTINUOUS
10
187.32
20
-114.83
11
188.62
21
-114.83
0
LINE
8
BLACK
6
CONTINUOUS
10
188.62
20
-114.83
11
188.62
21
-116.33
0
LINE
8
BLACK
6
CONTINUOUS
10
121.935
20
-114.495
11
120.635
21
-114.495
0
LINE
8
BLACK
6
CONTINUOUS
10
120.635
20
-114.495
11
120.635
21
-112.995
0
LINE
8
BLACK
6
CONTINUOUS
10
120.635
20
-112.995
11
121.935
21
-112.995
0
LINE
8
BLACK
6
CONTINUOUS
10
121.935
20
-112.995
11
121.935
21
-114.495
0
LINE
8
BLACK
6
CONTINUOUS
10
119.395
20
-114.495
11
118.095
21
-114.495
0
LINE
8
BLACK
6
CONTINUOUS
10
118.095
20
-114.495
11
118.095
21
-112.995
0
LINE
8
BLACK
6
CONTINUOUS
10
118.095
20
-112.995
11
119.395
21
-112.995
0
LINE
8
BLACK
6
CONTINUOUS
10
119.395
20
-112.995
11
119.395
21
-114.495
0
LINE
8
BLACK
6
CONTINUOUS
10
119.395
20
-111.795
11
118.095
21
-111.795
0
LINE
8
BLACK
6
CONTINUOUS
10
118.095
20
-111.795
11
118.095
21
-110.295
0
LINE
8
BLACK
6
CONTINUOUS
10
118.095
20
-110.295
11
119.395
21
-110.295
0
LINE
8
BLACK
6
CONTINUOUS
10
119.395
20
-110.295
11
119.395
21
-111.795
0
LINE
8
BLACK
6
CONTINUOUS
10
121.935
20
-111.795
11
120.635
21
-111.795
0
LINE
8
BLACK
6
CONTINUOUS
10
120.635
20
-111.795
11
120.635
21
-110.295
0
LINE
8
BLACK
6
CONTINUOUS
10
120.635
20
-110.295
11
121.935
21
-110.295
0
LINE
8
BLACK
6
CONTINUOUS
10
121.935
20
-110.295
11
121.935
21
-111.795
0
LINE
8
BLACK
6
CONTINUOUS
10
200.26
20
-108.08
11
198.76
21
-108.08
0
LINE
8
BLACK
6
CONTINUOUS
10
198.76
20
-108.08
11
198.76
21
-106.78
0
LINE
8
BLACK
6
CONTINUOUS
10
198.76
20
-106.78
11
200.26
21
-106.78
0
LINE
8
BLACK
6
CONTINUOUS
10
200.26
20
-106.78
11
200.26
21
-108.08
0
LINE
8
BLACK
6
CONTINUOUS
10
202.96
20
-108.08
11
201.46
21
-108.08
0
LINE
8
BLACK
6
CONTINUOUS
10
201.46
20
-108.08
11
201.46
21
-106.78
0
LINE
8
BLACK
6
CONTINUOUS
10
201.46
20
-106.78
11
202.96
21
-106.78
0
LINE
8
BLACK
6
CONTINUOUS
10
202.96
20
-106.78
11
202.96
21
-108.08
0
LINE
8
BLACK
6
CONTINUOUS
10
111.354
20
-104.646
11
109.854
21
-104.646
0
LINE
8
BLACK
6
CONTINUOUS
10
109.854
20
-104.646
11
109.854
21
-103.146
0
LINE
8
BLACK
6
CONTINUOUS
10
109.854
20
-103.146
11
111.354
21
-103.146
0
LINE
8
BLACK
6
CONTINUOUS
10
111.354
20
-103.146
11
111.354
21
-104.646
0
LINE
8
BLACK
6
CONTINUOUS
10
204.113
20
-104.547
11
202.613
21
-104.547
0
LINE
8
BLACK
6
CONTINUOUS
10
202.613
20
-104.547
11
202.613
21
-103.047
0
LINE
8
BLACK
6
CONTINUOUS
10
202.613
20
-103.047
11
204.113
21
-103.047
0
LINE
8
BLACK
6
CONTINUOUS
10
204.113
20
-103.047
11
204.113
21
-104.547
0
LINE
8
BLACK
6
CONTINUOUS
10
114.172
20
-104.327
11
112.371
21
-104.327
0
LINE
8
BLACK
6
CONTINUOUS
10
112.371
20
-104.327
11
112.371
21
-102.729
0
LINE
8
BLACK
6
CONTINUOUS
10
112.371
20
-102.729
11
114.172
21
-102.729
0
LINE
8
BLACK
6
CONTINUOUS
10
114.172
20
-102.729
11
114.172
21
-104.327
0
LINE
8
BLACK
6
CONTINUOUS
10
118.808
20
-104.221
11
117.508
21
-104.221
0
LINE
8
BLACK
6
CONTINUOUS
10
117.508
20
-104.221
11
117.508
21
-102.721
0
LINE
8
BLACK
6
CONTINUOUS
10
117.508
20
-102.721
11
118.808
21
-102.721
0
LINE
8
BLACK
6
CONTINUOUS
10
118.808
20
-102.721
11
118.808
21
-104.221
0
LINE
8
BLACK
6
CONTINUOUS
10
201.54
20
-104.164
11
199.739
21
-104.164
0
LINE
8
BLACK
6
CONTINUOUS
10
199.739
20
-104.164
11
199.739
21
-102.566
0
LINE
8
BLACK
6
CONTINUOUS
10
199.739
20
-102.566
11
201.54
21
-102.566
0
LINE
8
BLACK
6
CONTINUOUS
10
201.54
20
-102.566
11
201.54
21
-104.164
0
LINE
8
BLACK
6
CONTINUOUS
10
196.271
20
-104.045
11
194.971
21
-104.045
0
LINE
8
BLACK
6
CONTINUOUS
10
194.971
20
-104.045
11
194.971
21
-102.545
0
LINE
8
BLACK
6
CONTINUOUS
10
194.971
20
-102.545
11
196.271
21
-102.545
0
LINE
8
BLACK
6
CONTINUOUS
10
196.271
20
-102.545
11
196.271
21
-104.045
0
LINE
8
BLACK
6
CONTINUOUS
10
118.808
20
-101.521
11
117.508
21
-101.521
0
LINE
8
BLACK
6
CONTINUOUS
10
117.508
20
-101.521
11
117.508
21
-100.021
0
LINE
8
BLACK
6
CONTINUOUS
10
117.508
20
-100.021
11
118.808
21
-100.021
0
LINE
8
BLACK
6
CONTINUOUS
10
118.808
20
-100.021
11
118.808
21
-101.521
0
LINE
8
BLACK
6
CONTINUOUS
10
114.172
20
-101.487
11
112.371
21
-101.487
0
LINE
8
BLACK
6
CONTINUOUS
10
112.371
20
-101.487
11
112.371
21
-99.8893
0
LINE
8
BLACK
6
CONTINUOUS
10
112.371
20
-99.8893
11
114.172
21
-99.8893
0
LINE
8
BLACK
6
CONTINUOUS
10
114.172
20
-99.8893
11
114.172
21
-101.487
0
LINE
8
BLACK
6
CONTINUOUS
10
196.271
20
-101.345
11
194.971
21
-101.345
0
LINE
8
BLACK
6
CONTINUOUS
10
194.971
20
-101.345
11
194.971
21
-99.8454
0
LINE
8
BLACK
6
CONTINUOUS
10
194.971
20
-99.8454
11
196.271
21
-99.8454
0
LINE
8
BLACK
6
CONTINUOUS
10
196.271
20
-99.8454
11
196.271
21
-101.345
0
LINE
8
BLACK
6
CONTINUOUS
10
201.54
20
-101.324
11
199.739
21
-101.324
0
LINE
8
BLACK
6
CONTINUOUS
10
199.739
20
-101.324
11
199.739
21
-99.7267
0
LINE
8
BLACK
6
CONTINUOUS
10
199.739
20
-99.7267
11
201.54
21
-99.7267
0
LINE
8
BLACK
6
CONTINUOUS
10
201.54
20
-99.7267
11
201.54
21
-101.324
0
LINE
8
BLACK
6
CONTINUOUS
10
111.354
20
-101.146
11
109.854
21
-101.146
0
LINE
8
BLACK
6
CONTINUOUS
10
109.854
20
-101.146
11
109.854
21
-99.6461
0
LINE
8
BLACK
6
CONTINUOUS
10
109.854
20
-99.6461
11
111.354
21
-99.6461
0
LINE
8
BLACK
6
CONTINUOUS
10
111.354
20
-99.6461
11
111.354
21
-101.146
0
LINE
8
BLACK
6
CONTINUOUS
10
204.113
20
-101.047
11
202.613
21
-101.047
0
LINE
8
BLACK
6
CONTINUOUS
10
202.613
20
-101.047
11
202.613
21
-99.547
0
LINE
8
BLACK
6
CONTINUOUS
10
202.613
20
-99.547
11
204.113
21
-99.547
0
LINE
8
BLACK
6
CONTINUOUS
10
204.113
20
-99.547
11
204.113
21
-101.047
0
LINE
8
BLACK
6
CONTINUOUS
10
121.42
20
-99.05
11
119.92
21
-99.05
0
LINE
8
BLACK
6
CONTINUOUS
10
119.92
20
-99.05
11
119.92
21
-97.8
0
LINE
8
BLACK
6
CONTINUOUS
10
119.92
20
-97.8
11
121.42
21
-97.8
0
LINE
8
BLACK
6
CONTINUOUS
10
121.42
20
-97.8
11
121.42
21
-99.05
0
LINE
8
BLACK
6
CONTINUOUS
10
123.92
20
-99.05
11
122.42
21
-99.05
0
LINE
8
BLACK
6
CONTINUOUS
10
122.42
20
-99.05
11
122.42
21
-97.8
0
LINE
8
BLACK
6
CONTINUOUS
10
122.42
20
-97.8
11
123.92
21
-97.8
0
LINE
8
BLACK
6
CONTINUOUS
10
123.92
20
-97.8
11
123.92
21
-99.05
0
LINE
8
BLACK
6
CONTINUOUS
10
115.13
20
-97.805
11
113.63
21
-97.805
0
LINE
8
BLACK
6
CONTINUOUS
10
113.63
20
-97.805
11
113.63
21
-96.505
0
LINE
8
BLACK
6
CONTINUOUS
10
113.63
20
-96.505
11
115.13
21
-96.505
0
LINE
8
BLACK
6
CONTINUOUS
10
115.13
20
-96.505
11
115.13
21
-97.805
0
LINE
8
BLACK
6
CONTINUOUS
10
112.43
20
-97.805
11
110.93
21
-97.805
0
LINE
8
BLACK
6
CONTINUOUS
10
110.93
20
-97.805
11
110.93
21
-96.505
0
LINE
8
BLACK
6
CONTINUOUS
10
110.93
20
-96.505
11
112.43
21
-96.505
0
LINE
8
BLACK
6
CONTINUOUS
10
112.43
20
-96.505
11
112.43
21
-97.805
0
LINE
8
BLACK
6
CONTINUOUS
10
123.49
20
-96.535
11
122.89
21
-96.535
0
LINE
8
BLACK
6
CONTINUOUS
10
122.89
20
-96.535
11
122.89
21
-95.235
0
LINE
8
BLACK
6
CONTINUOUS
10
122.89
20
-95.235
11
123.49
21
-95.235
0
LINE
8
BLACK
6
CONTINUOUS
10
123.49
20
-95.235
11
123.49
21
-96.535
0
LINE
8
BLACK
6
CONTINUOUS
10
122.22
20
-96.535
11
121.62
21
-96.535
0
LINE
8
BLACK
6
CONTINUOUS
10
121.62
20
-96.535
11
121.62
21
-95.235
0
LINE
8
BLACK
6
CONTINUOUS
10
121.62
20
-95.235
11
122.22
21
-95.235
0
LINE
8
BLACK
6
CONTINUOUS
10
122.22
20
-95.235
11
122.22
21
-96.535
0
LINE
8
BLACK
6
CONTINUOUS
10
124.76
20
-96.535
11
124.16
21
-96.535
0
LINE
8
BLACK
6
CONTINUOUS
10
124.16
20
-96.535
11
124.16
21
-95.235
0
LINE
8
BLACK
6
CONTINUOUS
10
124.16
20
-95.235
11
124.76
21
-95.235
0
LINE
8
BLACK
6
CONTINUOUS
10
124.76
20
-95.235
11
124.76
21
-96.535
0
LINE
8
BLACK
6
CONTINUOUS
10
126.03
20
-96.535
11
125.43
21
-96.535
0
LINE
8
BLACK
6
CONTINUOUS
10
125.43
20
-96.535
11
125.43
21
-95.235
0
LINE
8
BLACK
6
CONTINUOUS
10
125.43
20
-95.235
11
126.03
21
-95.235
0
LINE
8
BLACK
6
CONTINUOUS
10
126.03
20
-95.235
11
126.03
21
-96.535
0
LINE
8
BLACK
6
CONTINUOUS
10
127.3
20
-96.535
11
126.7
21
-96.535
0
LINE
8
BLACK
6
CONTINUOUS
10
126.7
20
-96.535
11
126.7
21
-95.235
0
LINE
8
BLACK
6
CONTINUOUS
10
126.7
20
-95.235
11
127.3
21
-95.235
0
LINE
8
BLACK
6
CONTINUOUS
10
127.3
20
-95.235
11
127.3
21
-96.535
0
LINE
8
BLACK
6
CONTINUOUS
10
128.57
20
-96.535
11
127.97
21
-96.535
0
LINE
8
BLACK
6
CONTINUOUS
10
127.97
20
-96.535
11
127.97
21
-95.235
0
LINE
8
BLACK
6
CONTINUOUS
10
127.97
20
-95.235
11
128.57
21
-95.235
0
LINE
8
BLACK
6
CONTINUOUS
10
128.57
20
-95.235
11
128.57
21
-96.535
0
LINE
8
BLACK
6
CONTINUOUS
10
129.84
20
-96.535
11
129.24
21
-96.535
0
LINE
8
BLACK
6
CONTINUOUS
10
129.24
20
-96.535
11
129.24
21
-95.235
0
LINE
8
BLACK
6
CONTINUOUS
10
129.24
20
-95.235
11
129.84
21
-95.235
0
LINE
8
BLACK
6
CONTINUOUS
10
129.84
20
-95.235
11
129.84
21
-96.535
0
LINE
8
BLACK
6
CONTINUOUS
10
131.11
20
-96.535
11
130.51
21
-96.535
0
LINE
8
BLACK
6
CONTINUOUS
10
130.51
20
-96.535
11
130.51
21
-95.235
0
LINE
8
BLACK
6
CONTINUOUS
10
130.51
20
-95.235
11
131.11
21
-95.235
0
LINE
8
BLACK
6
CONTINUOUS
10
131.11
20
-95.235
11
131.11
21
-96.535
0
LINE
8
BLACK
6
CONTINUOUS
10
186.99
20
-96.12
11
186.39
21
-96.12
0
LINE
8
BLACK
6
CONTINUOUS
10
186.39
20
-96.12
11
186.39
21
-94.82
0
LINE
8
BLACK
6
CONTINUOUS
10
186.39
20
-94.82
11
186.99
21
-94.82
0
LINE
8
BLACK
6
CONTINUOUS
10
186.99
20
-94.82
11
186.99
21
-96.12
0
LINE
8
BLACK
6
CONTINUOUS
10
188.26
20
-96.12
11
187.66
21
-96.12
0
LINE
8
BLACK
6
CONTINUOUS
10
187.66
20
-96.12
11
187.66
21
-94.82
0
LINE
8
BLACK
6
CONTINUOUS
10
187.66
20
-94.82
11
188.26
21
-94.82
0
LINE
8
BLACK
6
CONTINUOUS
10
188.26
20
-94.82
11
188.26
21
-96.12
0
LINE
8
BLACK
6
CONTINUOUS
10
189.53
20
-96.12
11
188.93
21
-96.12
0
LINE
8
BLACK
6
CONTINUOUS
10
188.93
20
-96.12
11
188.93
21
-94.82
0
LINE
8
BLACK
6
CONTINUOUS
10
188.93
20
-94.82
11
189.53
21
-94.82
0
LINE
8
BLACK
6
CONTINUOUS
10
189.53
20
-94.82
11
189.53
21
-96.12
0
LINE
8
BLACK
6
CONTINUOUS
10
190.8
20
-96.12
11
190.2
21
-96.12
0
LINE
8
BLACK
6
CONTINUOUS
10
190.2
20
-96.12
11
190.2
21
-94.82
0
LINE
8
BLACK
6
CONTINUOUS
10
190.2
20
-94.82
11
190.8
21
-94.82
0
LINE
8
BLACK
6
CONTINUOUS
10
190.8
20
-94.82
11
190.8
21
-96.12
0
LINE
8
BLACK
6
CONTINUOUS
10
192.07
20
-96.12
11
191.47
21
-96.12
0
LINE
8
BLACK
6
CONTINUOUS
10
191.47
20
-96.12
11
191.47
21
-94.82
0
LINE
8
BLACK
6
CONTINUOUS
10
191.47
20
-94.82
11
192.07
21
-94.82
0
LINE
8
BLACK
6
CONTINUOUS
10
192.07
20
-94.82
11
192.07
21
-96.12
0
LINE
8
BLACK
6
CONTINUOUS
10
183.18
20
-96.12
11
182.58
21
-96.12
0
LINE
8
BLACK
6
CONTINUOUS
10
182.58
20
-96.12
11
182.58
21
-94.82
0
LINE
8
BLACK
6
CONTINUOUS
10
182.58
20
-94.82
11
183.18
21
-94.82
0
LINE
8
BLACK
6
CONTINUOUS
10
183.18
20
-94.82
11
183.18
21
-96.12
0
LINE
8
BLACK
6
CONTINUOUS
10
184.45
20
-96.12
11
183.85
21
-96.12
0
LINE
8
BLACK
6
CONTINUOUS
10
183.85
20
-96.12
11
183.85
21
-94.82
0
LINE
8
BLACK
6
CONTINUOUS
10
183.85
20
-94.82
11
184.45
21
-94.82
0
LINE
8
BLACK
6
CONTINUOUS
10
184.45
20
-94.82
11
184.45
21
-96.12
0
LINE
8
BLACK
6
CONTINUOUS
10
185.72
20
-96.12
11
185.12
21
-96.12
0
LINE
8
BLACK
6
CONTINUOUS
10
185.12
20
-96.12
11
185.12
21
-94.82
0
LINE
8
BLACK
6
CONTINUOUS
10
185.12
20
-94.82
11
185.72
21
-94.82
0
LINE
8
BLACK
6
CONTINUOUS
10
185.72
20
-94.82
11
185.72
21
-96.12
0
LINE
8
BLACK
6
CONTINUOUS
10
204.411
20
-95.509
11
203.411
21
-95.509
0
LINE
8
BLACK
6
CONTINUOUS
10
203.411
20
-95.509
11
203.411
21
-94.409
0
LINE
8
BLACK
6
CONTINUOUS
10
203.411
20
-94.409
11
204.411
21
-94.409
0
LINE
8
BLACK
6
CONTINUOUS
10
204.411
20
-94.409
11
204.411
21
-95.509
0
LINE
8
BLACK
6
CONTINUOUS
10
202.611
20
-95.509
11
201.611
21
-95.509
0
LINE
8
BLACK
6
CONTINUOUS
10
201.611
20
-95.509
11
201.611
21
-94.409
0
LINE
8
BLACK
6
CONTINUOUS
10
201.611
20
-94.409
11
202.611
21
-94.409
0
LINE
8
BLACK
6
CONTINUOUS
10
202.611
20
-94.409
11
202.611
21
-95.509
0
LINE
8
BLACK
6
CONTINUOUS
10
204.411
20
-91.609
11
203.411
21
-91.609
0
LINE
8
BLACK
6
CONTINUOUS
10
203.411
20
-91.609
11
203.411
21
-90.509
0
LINE
8
BLACK
6
CONTINUOUS
10
203.411
20
-90.509
11
204.411
21
-90.509
0
LINE
8
BLACK
6
CONTINUOUS
10
204.411
20
-90.509
11
204.411
21
-91.609
0
LINE
8
BLACK
6
CONTINUOUS
10
202.611
20
-91.609
11
201.611
21
-91.609
0
LINE
8
BLACK
6
CONTINUOUS
10
201.611
20
-91.609
11
201.611
21
-90.509
0
LINE
8
BLACK
6
CONTINUOUS
10
201.611
20
-90.509
11
202.611
21
-90.509
0
LINE
8
BLACK
6
CONTINUOUS
10
202.611
20
-90.509
11
202.611
21
-91.609
0
LINE
8
BLACK
6
CONTINUOUS
10
128.57
20
-91.235
11
127.97
21
-91.235
0
LINE
8
BLACK
6
CONTINUOUS
10
127.97
20
-91.235
11
127.97
21
-89.935
0
LINE
8
BLACK
6
CONTINUOUS
10
127.97
20
-89.935
11
128.57
21
-89.935
0
LINE
8
BLACK
6
CONTINUOUS
10
128.57
20
-89.935
11
128.57
21
-91.235
0
LINE
8
BLACK
6
CONTINUOUS
10
131.11
20
-91.235
11
130.51
21
-91.235
0
LINE
8
BLACK
6
CONTINUOUS
10
130.51
20
-91.235
11
130.51
21
-89.935
0
LINE
8
BLACK
6
CONTINUOUS
10
130.51
20
-89.935
11
131.11
21
-89.935
0
LINE
8
BLACK
6
CONTINUOUS
10
131.11
20
-89.935
11
131.11
21
-91.235
0
LINE
8
BLACK
6
CONTINUOUS
10
129.84
20
-91.235
11
129.24
21
-91.235
0
LINE
8
BLACK
6
CONTINUOUS
10
129.24
20
-91.235
11
129.24
21
-89.935
0
LINE
8
BLACK
6
CONTINUOUS
10
129.24
20
-89.935
11
129.84
21
-89.935
0
LINE
8
BLACK
6
CONTINUOUS
10
129.84
20
-89.935
11
129.84
21
-91.235
0
LINE
8
BLACK
6
CONTINUOUS
10
127.3
20
-91.235
11
126.7
21
-91.235
0
LINE
8
BLACK
6
CONTINUOUS
10
126.7
20
-91.235
11
126.7
21
-89.935
0
LINE
8
BLACK
6
CONTINUOUS
10
126.7
20
-89.935
11
127.3
21
-89.935
0
LINE
8
BLACK
6
CONTINUOUS
10
127.3
20
-89.935
11
127.3
21
-91.235
0
LINE
8
BLACK
6
CONTINUOUS
10
126.03
20
-91.235
11
125.43
21
-91.235
0
LINE
8
BLACK
6
CONTINUOUS
10
125.43
20
-91.235
11
125.43
21
-89.935
0
LINE
8
BLACK
6
CONTINUOUS
10
125.43
20
-89.935
11
126.03
21
-89.935
0
LINE
8
BLACK
6
CONTINUOUS
10
126.03
20
-89.935
11
126.03
21
-91.235
0
LINE
8
BLACK
6
CONTINUOUS
10
124.76
20
-91.235
11
124.16
21
-91.235
0
LINE
8
BLACK
6
CONTINUOUS
10
124.16
20
-91.235
11
124.16
21
-89.935
0
LINE
8
BLACK
6
CONTINUOUS
10
124.16
20
-89.935
11
124.76
21
-89.935
0
LINE
8
BLACK
6
CONTINUOUS
10
124.76
20
-89.935
11
124.76
21
-91.235
0
LINE
8
BLACK
6
CONTINUOUS
10
123.49
20
-91.235
11
122.89
21
-91.235
0
LINE
8
BLACK
6
CONTINUOUS
10
122.89
20
-91.235
11
122.89
21
-89.935
0
LINE
8
BLACK
6
CONTINUOUS
10
122.89
20
-89.935
11
123.49
21
-89.935
0
LINE
8
BLACK
6
CONTINUOUS
10
123.49
20
-89.935
11
123.49
21
-91.235
0
LINE
8
BLACK
6
CONTINUOUS
10
122.22
20
-91.235
11
121.62
21
-91.235
0
LINE
8
BLACK
6
CONTINUOUS
10
121.62
20
-91.235
11
121.62
21
-89.935
0
LINE
8
BLACK
6
CONTINUOUS
10
121.62
20
-89.935
11
122.22
21
-89.935
0
LINE
8
BLACK
6
CONTINUOUS
10
122.22
20
-89.935
11
122.22
21
-91.235
0
LINE
8
BLACK
6
CONTINUOUS
10
189.53
20
-90.82
11
188.93
21
-90.82
0
LINE
8
BLACK
6
CONTINUOUS
10
188.93
20
-90.82
11
188.93
21
-89.52
0
LINE
8
BLACK
6
CONTINUOUS
10
188.93
20
-89.52
11
189.53
21
-89.52
0
LINE
8
BLACK
6
CONTINUOUS
10
189.53
20
-89.52
11
189.53
21
-90.82
0
LINE
8
BLACK
6
CONTINUOUS
10
188.26
20
-90.82
11
187.66
21
-90.82
0
LINE
8
BLACK
6
CONTINUOUS
10
187.66
20
-90.82
11
187.66
21
-89.52
0
LINE
8
BLACK
6
CONTINUOUS
10
187.66
20
-89.52
11
188.26
21
-89.52
0
LINE
8
BLACK
6
CONTINUOUS
10
188.26
20
-89.52
11
188.26
21
-90.82
0
LINE
8
BLACK
6
CONTINUOUS
10
186.99
20
-90.82
11
186.39
21
-90.82
0
LINE
8
BLACK
6
CONTINUOUS
10
186.39
20
-90.82
11
186.39
21
-89.52
0
LINE
8
BLACK
6
CONTINUOUS
10
186.39
20
-89.52
11
186.99
21
-89.52
0
LINE
8
BLACK
6
CONTINUOUS
10
186.99
20
-89.52
11
186.99
21
-90.82
0
LINE
8
BLACK
6
CONTINUOUS
10
185.72
20
-90.82
11
185.12
21
-90.82
0
LINE
8
BLACK
6
CONTINUOUS
10
185.12
20
-90.82
11
185.12
21
-89.52
0
LINE
8
BLACK
6
CONTINUOUS
10
185.12
20
-89.52
11
185.72
21
-89.52
0
LINE
8
BLACK
6
CONTINUOUS
10
185.72
20
-89.52
11
185.72
21
-90.82
0
LINE
8
BLACK
6
CONTINUOUS
10
190.8
20
-90.82
11
190.2
21
-90.82
0
LINE
8
BLACK
6
CONTINUOUS
10
190.2
20
-90.82
11
190.2
21
-89.52
0
LINE
8
BLACK
6
CONTINUOUS
10
190.2
20
-89.52
11
190.8
21
-89.52
0
LINE
8
BLACK
6
CONTINUOUS
10
190.8
20
-89.52
11
190.8
21
-90.82
0
LINE
8
BLACK
6
CONTINUOUS
10
183.18
20
-90.82
11
182.58
21
-90.82
0
LINE
8
BLACK
6
CONTINUOUS
10
182.58
20
-90.82
11
182.58
21
-89.52
0
LINE
8
BLACK
6
CONTINUOUS
10
182.58
20
-89.52
11
183.18
21
-89.52
0
LINE
8
BLACK
6
CONTINUOUS
10
183.18
20
-89.52
11
183.18
21
-90.82
0
LINE
8
BLACK
6
CONTINUOUS
10
192.07
20
-90.82
11
191.47
21
-90.82
0
LINE
8
BLACK
6
CONTINUOUS
10
191.47
20
-90.82
11
191.47
21
-89.52
0
LINE
8
BLACK
6
CONTINUOUS
10
191.47
20
-89.52
11
192.07
21
-89.52
0
LINE
8
BLACK
6
CONTINUOUS
10
192.07
20
-89.52
11
192.07
21
-90.82
0
LINE
8
BLACK
6
CONTINUOUS
10
184.45
20
-90.82
11
183.85
21
-90.82
0
LINE
8
BLACK
6
CONTINUOUS
10
183.85
20
-90.82
11
183.85
21
-89.52
0
LINE
8
BLACK
6
CONTINUOUS
10
183.85
20
-89.52
11
184.45
21
-89.52
0
LINE
8
BLACK
6
CONTINUOUS
10
184.45
20
-89.52
11
184.45
21
-90.82
0
LINE
8
BLACK
6
CONTINUOUS
10
199.842
20
-88.9963
11
198.342
21
-88.9963
0
LINE
8
BLACK
6
CONTINUOUS
10
198.342
20
-88.9963
11
198.342
21
-87.6963
0
LINE
8
BLACK
6
CONTINUOUS
10
198.342
20
-87.6963
11
199.842
21
-87.6963
0
LINE
8
BLACK
6
CONTINUOUS
10
199.842
20
-87.6963
11
199.842
21
-88.9963
0
LINE
8
BLACK
6
CONTINUOUS
10
202.542
20
-88.9963
11
201.042
21
-88.9963
0
LINE
8
BLACK
6
CONTINUOUS
10
201.042
20
-88.9963
11
201.042
21
-87.6963
0
LINE
8
BLACK
6
CONTINUOUS
10
201.042
20
-87.6963
11
202.542
21
-87.6963
0
LINE
8
BLACK
6
CONTINUOUS
10
202.542
20
-87.6963
11
202.542
21
-88.9963
0
LINE
8
BLACK
6
CONTINUOUS
10
193.76
20
-88.285
11
192.26
21
-88.285
0
LINE
8
BLACK
6
CONTINUOUS
10
192.26
20
-88.285
11
192.26
21
-87.035
0
LINE
8
BLACK
6
CONTINUOUS
10
192.26
20
-87.035
11
193.76
21
-87.035
0
LINE
8
BLACK
6
CONTINUOUS
10
193.76
20
-87.035
11
193.76
21
-88.285
0
LINE
8
BLACK
6
CONTINUOUS
10
191.26
20
-88.285
11
189.76
21
-88.285
0
LINE
8
BLACK
6
CONTINUOUS
10
189.76
20
-88.285
11
189.76
21
-87.035
0
LINE
8
BLACK
6
CONTINUOUS
10
189.76
20
-87.035
11
191.26
21
-87.035
0
LINE
8
BLACK
6
CONTINUOUS
10
191.26
20
-87.035
11
191.26
21
-88.285
0
LINE
8
BLACK
6
CONTINUOUS
10
111.469
20
-86.5105
11
109.969
21
-86.5105
0
LINE
8
BLACK
6
CONTINUOUS
10
109.969
20
-86.5105
11
109.969
21
-85.0105
0
LINE
8
BLACK
6
CONTINUOUS
10
109.969
20
-85.0105
11
111.469
21
-85.0105
0
LINE
8
BLACK
6
CONTINUOUS
10
111.469
20
-85.0105
11
111.469
21
-86.5105
0
LINE
8
BLACK
6
CONTINUOUS
10
114.667
20
-86.3435
11
112.866
21
-86.3435
0
LINE
8
BLACK
6
CONTINUOUS
10
112.866
20
-86.3435
11
112.866
21
-84.7458
0
LINE
8
BLACK
6
CONTINUOUS
10
112.866
20
-84.7458
11
114.667
21
-84.7458
0
LINE
8
BLACK
6
CONTINUOUS
10
114.667
20
-84.7458
11
114.667
21
-86.3435
0
LINE
8
BLACK
6
CONTINUOUS
10
204.153
20
-86.32
11
202.653
21
-86.32
0
LINE
8
BLACK
6
CONTINUOUS
10
202.653
20
-86.32
11
202.653
21
-84.82
0
LINE
8
BLACK
6
CONTINUOUS
10
202.653
20
-84.82
11
204.153
21
-84.82
0
LINE
8
BLACK
6
CONTINUOUS
10
204.153
20
-84.82
11
204.153
21
-86.32
0
LINE
8
BLACK
6
CONTINUOUS
10
201.459
20
-86.1911
11
199.658
21
-86.1911
0
LINE
8
BLACK
6
CONTINUOUS
10
199.658
20
-86.1911
11
199.658
21
-84.5934
0
LINE
8
BLACK
6
CONTINUOUS
10
199.658
20
-84.5934
11
201.459
21
-84.5934
0
LINE
8
BLACK
6
CONTINUOUS
10
201.459
20
-84.5934
11
201.459
21
-86.1911
0
LINE
8
BLACK
6
CONTINUOUS
10
119.522
20
-86.1486
11
118.222
21
-86.1486
0
LINE
8
BLACK
6
CONTINUOUS
10
118.222
20
-86.1486
11
118.222
21
-84.6486
0
LINE
8
BLACK
6
CONTINUOUS
10
118.222
20
-84.6486
11
119.522
21
-84.6486
0
LINE
8
BLACK
6
CONTINUOUS
10
119.522
20
-84.6486
11
119.522
21
-86.1486
0
LINE
8
BLACK
6
CONTINUOUS
10
196.258
20
-86.0038
11
194.958
21
-86.0038
0
LINE
8
BLACK
6
CONTINUOUS
10
194.958
20
-86.0038
11
194.958
21
-84.5038
0
LINE
8
BLACK
6
CONTINUOUS
10
194.958
20
-84.5038
11
196.258
21
-84.5038
0
LINE
8
BLACK
6
CONTINUOUS
10
196.258
20
-84.5038
11
196.258
21
-86.0038
0
LINE
8
BLACK
6
CONTINUOUS
10
182.22
20
-85.91
11
181
21
-85.91
0
LINE
8
BLACK
6
CONTINUOUS
10
181
20
-85.91
11
181
21
-85
0
LINE
8
BLACK
6
CONTINUOUS
10
181
20
-85
11
182.22
21
-85
0
LINE
8
BLACK
6
CONTINUOUS
10
182.22
20
-85
11
182.22
21
-85.91
0
LINE
8
BLACK
6
CONTINUOUS
10
114.667
20
-83.5038
11
112.866
21
-83.5038
0
LINE
8
BLACK
6
CONTINUOUS
10
112.866
20
-83.5038
11
112.866
21
-81.9061
0
LINE
8
BLACK
6
CONTINUOUS
10
112.866
20
-81.9061
11
114.667
21
-81.9061
0
LINE
8
BLACK
6
CONTINUOUS
10
114.667
20
-81.9061
11
114.667
21
-83.5038
0
LINE
8
BLACK
6
CONTINUOUS
10
119.522
20
-83.4486
11
118.222
21
-83.4486
0
LINE
8
BLACK
6
CONTINUOUS
10
118.222
20
-83.4486
11
118.222
21
-81.9486
0
LINE
8
BLACK
6
CONTINUOUS
10
118.222
20
-81.9486
11
119.522
21
-81.9486
0
LINE
8
BLACK
6
CONTINUOUS
10
119.522
20
-81.9486
11
119.522
21
-83.4486
0
LINE
8
BLACK
6
CONTINUOUS
10
201.459
20
-83.3514
11
199.658
21
-83.3514
0
LINE
8
BLACK
6
CONTINUOUS
10
199.658
20
-83.3514
11
199.658
21
-81.7537
0
LINE
8
BLACK
6
CONTINUOUS
10
199.658
20
-81.7537
11
201.459
21
-81.7537
0
LINE
8
BLACK
6
CONTINUOUS
10
201.459
20
-81.7537
11
201.459
21
-83.3514
0
LINE
8
BLACK
6
CONTINUOUS
10
196.258
20
-83.3038
11
194.958
21
-83.3038
0
LINE
8
BLACK
6
CONTINUOUS
10
194.958
20
-83.3038
11
194.958
21
-81.8038
0
LINE
8
BLACK
6
CONTINUOUS
10
194.958
20
-81.8038
11
196.258
21
-81.8038
0
LINE
8
BLACK
6
CONTINUOUS
10
196.258
20
-81.8038
11
196.258
21
-83.3038
0
LINE
8
BLACK
6
CONTINUOUS
10
111.469
20
-83.0105
11
109.969
21
-83.0105
0
LINE
8
BLACK
6
CONTINUOUS
10
109.969
20
-83.0105
11
109.969
21
-81.5105
0
LINE
8
BLACK
6
CONTINUOUS
10
109.969
20
-81.5105
11
111.469
21
-81.5105
0
LINE
8
BLACK
6
CONTINUOUS
10
111.469
20
-81.5105
11
111.469
21
-83.0105
0
LINE
8
BLACK
6
CONTINUOUS
10
204.153
20
-82.82
11
202.653
21
-82.82
0
LINE
8
BLACK
6
CONTINUOUS
10
202.653
20
-82.82
11
202.653
21
-81.32
0
LINE
8
BLACK
6
CONTINUOUS
10
202.653
20
-81.32
11
204.153
21
-81.32
0
LINE
8
BLACK
6
CONTINUOUS
10
204.153
20
-81.32
11
204.153
21
-82.82
0
LINE
8
BLACK
6
CONTINUOUS
10
182.22
20
-82.64
11
181
21
-82.64
0
LINE
8
BLACK
6
CONTINUOUS
10
181
20
-82.64
11
181
21
-81.73
0
LINE
8
BLACK
6
CONTINUOUS
10
181
20
-81.73
11
182.22
21
-81.73
0
LINE
8
BLACK
6
CONTINUOUS
10
182.22
20
-81.73
11
182.22
21
-82.64
0
LINE
8
BLACK
6
CONTINUOUS
10
115.402
20
-80.7108
11
113.902
21
-80.7108
0
LINE
8
BLACK
6
CONTINUOUS
10
113.902
20
-80.7108
11
113.902
21
-79.4108
0
LINE
8
BLACK
6
CONTINUOUS
10
113.902
20
-79.4108
11
115.402
21
-79.4108
0
LINE
8
BLACK
6
CONTINUOUS
10
115.402
20
-79.4108
11
115.402
21
-80.7108
0
LINE
8
BLACK
6
CONTINUOUS
10
118.102
20
-80.7108
11
116.602
21
-80.7108
0
LINE
8
BLACK
6
CONTINUOUS
10
116.602
20
-80.7108
11
116.602
21
-79.4108
0
LINE
8
BLACK
6
CONTINUOUS
10
116.602
20
-79.4108
11
118.102
21
-79.4108
0
LINE
8
BLACK
6
CONTINUOUS
10
118.102
20
-79.4108
11
118.102
21
-80.7108
0
LINE
8
BLACK
6
CONTINUOUS
10
155.69
20
-77.841
11
154.19
21
-77.841
0
LINE
8
BLACK
6
CONTINUOUS
10
154.19
20
-77.841
11
154.19
21
-76.591
0
LINE
8
BLACK
6
CONTINUOUS
10
154.19
20
-76.591
11
155.69
21
-76.591
0
LINE
8
BLACK
6
CONTINUOUS
10
155.69
20
-76.591
11
155.69
21
-77.841
0
LINE
8
BLACK
6
CONTINUOUS
10
153.19
20
-77.841
11
151.69
21
-77.841
0
LINE
8
BLACK
6
CONTINUOUS
10
151.69
20
-77.841
11
151.69
21
-76.591
0
LINE
8
BLACK
6
CONTINUOUS
10
151.69
20
-76.591
11
153.19
21
-76.591
0
LINE
8
BLACK
6
CONTINUOUS
10
153.19
20
-76.591
11
153.19
21
-77.841
0
LINE
8
BLACK
6
CONTINUOUS
10
168.68
20
-77.83
11
167.38
21
-77.83
0
LINE
8
BLACK
6
CONTINUOUS
10
167.38
20
-77.83
11
167.38
21
-76.33
0
LINE
8
BLACK
6
CONTINUOUS
10
167.38
20
-76.33
11
168.68
21
-76.33
0
LINE
8
BLACK
6
CONTINUOUS
10
168.68
20
-76.33
11
168.68
21
-77.83
0
LINE
8
BLACK
6
CONTINUOUS
10
151.9
20
-75.301
11
150.4
21
-75.301
0
LINE
8
BLACK
6
CONTINUOUS
10
150.4
20
-75.301
11
150.4
21
-74.051
0
LINE
8
BLACK
6
CONTINUOUS
10
150.4
20
-74.051
11
151.9
21
-74.051
0
LINE
8
BLACK
6
CONTINUOUS
10
151.9
20
-74.051
11
151.9
21
-75.301
0
LINE
8
BLACK
6
CONTINUOUS
10
154.4
20
-75.301
11
152.9
21
-75.301
0
LINE
8
BLACK
6
CONTINUOUS
10
152.9
20
-75.301
11
152.9
21
-74.051
0
LINE
8
BLACK
6
CONTINUOUS
10
152.9
20
-74.051
11
154.4
21
-74.051
0
LINE
8
BLACK
6
CONTINUOUS
10
154.4
20
-74.051
11
154.4
21
-75.301
0
LINE
8
BLACK
6
CONTINUOUS
10
168.68
20
-75.13
11
167.38
21
-75.13
0
LINE
8
BLACK
6
CONTINUOUS
10
167.38
20
-75.13
11
167.38
21
-73.63
0
LINE
8
BLACK
6
CONTINUOUS
10
167.38
20
-73.63
11
168.68
21
-73.63
0
LINE
8
BLACK
6
CONTINUOUS
10
168.68
20
-73.63
11
168.68
21
-75.13
0
LINE
8
BLACK
6
CONTINUOUS
10
191.15
20
-75.05
11
189.85
21
-75.05
0
LINE
8
BLACK
6
CONTINUOUS
10
189.85
20
-75.05
11
189.85
21
-73.55
0
LINE
8
BLACK
6
CONTINUOUS
10
189.85
20
-73.55
11
191.15
21
-73.55
0
LINE
8
BLACK
6
CONTINUOUS
10
191.15
20
-73.55
11
191.15
21
-75.05
0
LINE
8
BLACK
6
CONTINUOUS
10
120.538
20
-74.744
11
119.238
21
-74.744
0
LINE
8
BLACK
6
CONTINUOUS
10
119.238
20
-74.744
11
119.238
21
-73.244
0
LINE
8
BLACK
6
CONTINUOUS
10
119.238
20
-73.244
11
120.538
21
-73.244
0
LINE
8
BLACK
6
CONTINUOUS
10
120.538
20
-73.244
11
120.538
21
-74.744
0
LINE
8
BLACK
6
CONTINUOUS
10
140.35
20
-73.728
11
139.05
21
-73.728
0
LINE
8
BLACK
6
CONTINUOUS
10
139.05
20
-73.728
11
139.05
21
-72.228
0
LINE
8
BLACK
6
CONTINUOUS
10
139.05
20
-72.228
11
140.35
21
-72.228
0
LINE
8
BLACK
6
CONTINUOUS
10
140.35
20
-72.228
11
140.35
21
-73.728
0
LINE
8
BLACK
6
CONTINUOUS
10
155.475
20
-72.36
11
154.925
21
-72.36
0
LINE
8
BLACK
6
CONTINUOUS
10
154.925
20
-72.36
11
154.925
21
-70.76
0
LINE
8
BLACK
6
CONTINUOUS
10
154.925
20
-70.76
11
155.475
21
-70.76
0
LINE
8
BLACK
6
CONTINUOUS
10
155.475
20
-70.76
11
155.475
21
-72.36
0
LINE
8
BLACK
6
CONTINUOUS
10
149.875
20
-72.36
11
149.325
21
-72.36
0
LINE
8
BLACK
6
CONTINUOUS
10
149.325
20
-72.36
11
149.325
21
-70.76
0
LINE
8
BLACK
6
CONTINUOUS
10
149.325
20
-70.76
11
149.875
21
-70.76
0
LINE
8
BLACK
6
CONTINUOUS
10
149.875
20
-70.76
11
149.875
21
-72.36
0
LINE
8
BLACK
6
CONTINUOUS
10
154.675
20
-72.36
11
154.125
21
-72.36
0
LINE
8
BLACK
6
CONTINUOUS
10
154.125
20
-72.36
11
154.125
21
-70.76
0
LINE
8
BLACK
6
CONTINUOUS
10
154.125
20
-70.76
11
154.675
21
-70.76
0
LINE
8
BLACK
6
CONTINUOUS
10
154.675
20
-70.76
11
154.675
21
-72.36
0
LINE
8
BLACK
6
CONTINUOUS
10
153.875
20
-72.36
11
153.325
21
-72.36
0
LINE
8
BLACK
6
CONTINUOUS
10
153.325
20
-72.36
11
153.325
21
-70.76
0
LINE
8
BLACK
6
CONTINUOUS
10
153.325
20
-70.76
11
153.875
21
-70.76
0
LINE
8
BLACK
6
CONTINUOUS
10
153.875
20
-70.76
11
153.875
21
-72.36
0
LINE
8
BLACK
6
CONTINUOUS
10
150.675
20
-72.36
11
150.125
21
-72.36
0
LINE
8
BLACK
6
CONTINUOUS
10
150.125
20
-72.36
11
150.125
21
-70.76
0
LINE
8
BLACK
6
CONTINUOUS
10
150.125
20
-70.76
11
150.675
21
-70.76
0
LINE
8
BLACK
6
CONTINUOUS
10
150.675
20
-70.76
11
150.675
21
-72.36
0
LINE
8
BLACK
6
CONTINUOUS
10
153.075
20
-72.36
11
152.525
21
-72.36
0
LINE
8
BLACK
6
CONTINUOUS
10
152.525
20
-72.36
11
152.525
21
-70.76
0
LINE
8
BLACK
6
CONTINUOUS
10
152.525
20
-70.76
11
153.075
21
-70.76
0
LINE
8
BLACK
6
CONTINUOUS
10
153.075
20
-70.76
11
153.075
21
-72.36
0
LINE
8
BLACK
6
CONTINUOUS
10
152.275
20
-72.36
11
151.725
21
-72.36
0
LINE
8
BLACK
6
CONTINUOUS
10
151.725
20
-72.36
11
151.725
21
-70.76
0
LINE
8
BLACK
6
CONTINUOUS
10
151.725
20
-70.76
11
152.275
21
-70.76
0
LINE
8
BLACK
6
CONTINUOUS
10
152.275
20
-70.76
11
152.275
21
-72.36
0
LINE
8
BLACK
6
CONTINUOUS
10
151.475
20
-72.36
11
150.925
21
-72.36
0
LINE
8
BLACK
6
CONTINUOUS
10
150.925
20
-72.36
11
150.925
21
-70.76
0
LINE
8
BLACK
6
CONTINUOUS
10
150.925
20
-70.76
11
151.475
21
-70.76
0
LINE
8
BLACK
6
CONTINUOUS
10
151.475
20
-70.76
11
151.475
21
-72.36
0
LINE
8
BLACK
6
CONTINUOUS
10
191.15
20
-72.35
11
189.85
21
-72.35
0
LINE
8
BLACK
6
CONTINUOUS
10
189.85
20
-72.35
11
189.85
21
-70.85
0
LINE
8
BLACK
6
CONTINUOUS
10
189.85
20
-70.85
11
191.15
21
-70.85
0
LINE
8
BLACK
6
CONTINUOUS
10
191.15
20
-70.85
11
191.15
21
-72.35
0
LINE
8
BLACK
6
CONTINUOUS
10
120.538
20
-72.044
11
119.238
21
-72.044
0
LINE
8
BLACK
6
CONTINUOUS
10
119.238
20
-72.044
11
119.238
21
-70.544
0
LINE
8
BLACK
6
CONTINUOUS
10
119.238
20
-70.544
11
120.538
21
-70.544
0
LINE
8
BLACK
6
CONTINUOUS
10
120.538
20
-70.544
11
120.538
21
-72.044
0
LINE
8
BLACK
6
CONTINUOUS
10
140.35
20
-71.028
11
139.05
21
-71.028
0
LINE
8
BLACK
6
CONTINUOUS
10
139.05
20
-71.028
11
139.05
21
-69.528
0
LINE
8
BLACK
6
CONTINUOUS
10
139.05
20
-69.528
11
140.35
21
-69.528
0
LINE
8
BLACK
6
CONTINUOUS
10
140.35
20
-69.528
11
140.35
21
-71.028
0
LINE
8
BLACK
6
CONTINUOUS
10
193.443
20
-71.0207
11
191.943
21
-71.0207
0
LINE
8
BLACK
6
CONTINUOUS
10
191.943
20
-71.0207
11
191.943
21
-69.7207
0
LINE
8
BLACK
6
CONTINUOUS
10
191.943
20
-69.7207
11
193.443
21
-69.7207
0
LINE
8
BLACK
6
CONTINUOUS
10
193.443
20
-69.7207
11
193.443
21
-71.0207
0
LINE
8
BLACK
6
CONTINUOUS
10
196.143
20
-71.0207
11
194.643
21
-71.0207
0
LINE
8
BLACK
6
CONTINUOUS
10
194.643
20
-71.0207
11
194.643
21
-69.7207
0
LINE
8
BLACK
6
CONTINUOUS
10
194.643
20
-69.7207
11
196.143
21
-69.7207
0
LINE
8
BLACK
6
CONTINUOUS
10
196.143
20
-69.7207
11
196.143
21
-71.0207
0
LINE
8
BLACK
6
CONTINUOUS
10
148.95
20
-70.385
11
147.35
21
-70.385
0
LINE
8
BLACK
6
CONTINUOUS
10
147.35
20
-70.385
11
147.35
21
-69.835
0
LINE
8
BLACK
6
CONTINUOUS
10
147.35
20
-69.835
11
148.95
21
-69.835
0
LINE
8
BLACK
6
CONTINUOUS
10
148.95
20
-69.835
11
148.95
21
-70.385
0
LINE
8
BLACK
6
CONTINUOUS
10
157.45
20
-70.385
11
155.85
21
-70.385
0
LINE
8
BLACK
6
CONTINUOUS
10
155.85
20
-70.385
11
155.85
21
-69.835
0
LINE
8
BLACK
6
CONTINUOUS
10
155.85
20
-69.835
11
157.45
21
-69.835
0
LINE
8
BLACK
6
CONTINUOUS
10
157.45
20
-69.835
11
157.45
21
-70.385
0
LINE
8
BLACK
6
CONTINUOUS
10
124.475
20
-70.045
11
123.175
21
-70.045
0
LINE
8
BLACK
6
CONTINUOUS
10
123.175
20
-70.045
11
123.175
21
-68.545
0
LINE
8
BLACK
6
CONTINUOUS
10
123.175
20
-68.545
11
124.475
21
-68.545
0
LINE
8
BLACK
6
CONTINUOUS
10
124.475
20
-68.545
11
124.475
21
-70.045
0
LINE
8
BLACK
6
CONTINUOUS
10
146.372
20
-69.738
11
144.872
21
-69.738
0
LINE
8
BLACK
6
CONTINUOUS
10
144.872
20
-69.738
11
144.872
21
-68.438
0
LINE
8
BLACK
6
CONTINUOUS
10
144.872
20
-68.438
11
146.372
21
-68.438
0
LINE
8
BLACK
6
CONTINUOUS
10
146.372
20
-68.438
11
146.372
21
-69.738
0
LINE
8
BLACK
6
CONTINUOUS
10
143.672
20
-69.738
11
142.172
21
-69.738
0
LINE
8
BLACK
6
CONTINUOUS
10
142.172
20
-69.738
11
142.172
21
-68.438
0
LINE
8
BLACK
6
CONTINUOUS
10
142.172
20
-68.438
11
143.672
21
-68.438
0
LINE
8
BLACK
6
CONTINUOUS
10
143.672
20
-68.438
11
143.672
21
-69.738
0
LINE
8
BLACK
6
CONTINUOUS
10
148.95
20
-69.585
11
147.35
21
-69.585
0
LINE
8
BLACK
6
CONTINUOUS
10
147.35
20
-69.585
11
147.35
21
-69.035
0
LINE
8
BLACK
6
CONTINUOUS
10
147.35
20
-69.035
11
148.95
21
-69.035
0
LINE
8
BLACK
6
CONTINUOUS
10
148.95
20
-69.035
11
148.95
21
-69.585
0
LINE
8
BLACK
6
CONTINUOUS
10
157.45
20
-69.585
11
155.85
21
-69.585
0
LINE
8
BLACK
6
CONTINUOUS
10
155.85
20
-69.585
11
155.85
21
-69.035
0
LINE
8
BLACK
6
CONTINUOUS
10
155.85
20
-69.035
11
157.45
21
-69.035
0
LINE
8
BLACK
6
CONTINUOUS
10
157.45
20
-69.035
11
157.45
21
-69.585
0
LINE
8
BLACK
6
CONTINUOUS
10
118.631
20
-69.3655
11
117.131
21
-69.3655
0
LINE
8
BLACK
6
CONTINUOUS
10
117.131
20
-69.3655
11
117.131
21
-67.8655
0
LINE
8
BLACK
6
CONTINUOUS
10
117.131
20
-67.8655
11
118.631
21
-67.8655
0
LINE
8
BLACK
6
CONTINUOUS
10
118.631
20
-67.8655
11
118.631
21
-69.3655
0
LINE
8
BLACK
6
CONTINUOUS
10
122.058
20
-69.0207
11
120.258
21
-69.0207
0
LINE
8
BLACK
6
CONTINUOUS
10
120.258
20
-69.0207
11
120.258
21
-67.423
0
LINE
8
BLACK
6
CONTINUOUS
10
120.258
20
-67.423
11
122.058
21
-67.423
0
LINE
8
BLACK
6
CONTINUOUS
10
122.058
20
-67.423
11
122.058
21
-69.0207
0
LINE
8
BLACK
6
CONTINUOUS
10
196.777
20
-68.987
11
195.277
21
-68.987
0
LINE
8
BLACK
6
CONTINUOUS
10
195.277
20
-68.987
11
195.277
21
-67.487
0
LINE
8
BLACK
6
CONTINUOUS
10
195.277
20
-67.487
11
196.777
21
-67.487
0
LINE
8
BLACK
6
CONTINUOUS
10
196.777
20
-67.487
11
196.777
21
-68.987
0
LINE
8
BLACK
6
CONTINUOUS
10
194.164
20
-68.8886
11
192.363
21
-68.8886
0
LINE
8
BLACK
6
CONTINUOUS
10
192.363
20
-68.8886
11
192.363
21
-67.2909
0
LINE
8
BLACK
6
CONTINUOUS
10
192.363
20
-67.2909
11
194.164
21
-67.2909
0
LINE
8
BLACK
6
CONTINUOUS
10
194.164
20
-67.2909
11
194.164
21
-68.8886
0
LINE
8
BLACK
6
CONTINUOUS
10
157.45
20
-68.785
11
155.85
21
-68.785
0
LINE
8
BLACK
6
CONTINUOUS
10
155.85
20
-68.785
11
155.85
21
-68.235
0
LINE
8
BLACK
6
CONTINUOUS
10
155.85
20
-68.235
11
157.45
21
-68.235
0
LINE
8
BLACK
6
CONTINUOUS
10
157.45
20
-68.235
11
157.45
21
-68.785
0
LINE
8
BLACK
6
CONTINUOUS
10
148.95
20
-68.785
11
147.35
21
-68.785
0
LINE
8
BLACK
6
CONTINUOUS
10
147.35
20
-68.785
11
147.35
21
-68.235
0
LINE
8
BLACK
6
CONTINUOUS
10
147.35
20
-68.235
11
148.95
21
-68.235
0
LINE
8
BLACK
6
CONTINUOUS
10
148.95
20
-68.235
11
148.95
21
-68.785
0
LINE
8
BLACK
6
CONTINUOUS
10
140.858
20
-68.648
11
139.558
21
-68.648
0
LINE
8
BLACK
6
CONTINUOUS
10
139.558
20
-68.648
11
139.558
21
-67.148
0
LINE
8
BLACK
6
CONTINUOUS
10
139.558
20
-67.148
11
140.858
21
-67.148
0
LINE
8
BLACK
6
CONTINUOUS
10
140.858
20
-67.148
11
140.858
21
-68.648
0
LINE
8
BLACK
6
CONTINUOUS
10
157.45
20
-67.985
11
155.85
21
-67.985
0
LINE
8
BLACK
6
CONTINUOUS
10
155.85
20
-67.985
11
155.85
21
-67.435
0
LINE
8
BLACK
6
CONTINUOUS
10
155.85
20
-67.435
11
157.45
21
-67.435
0
LINE
8
BLACK
6
CONTINUOUS
10
157.45
20
-67.435
11
157.45
21
-67.985
0
LINE
8
BLACK
6
CONTINUOUS
10
148.95
20
-67.985
11
147.35
21
-67.985
0
LINE
8
BLACK
6
CONTINUOUS
10
147.35
20
-67.985
11
147.35
21
-67.435
0
LINE
8
BLACK
6
CONTINUOUS
10
147.35
20
-67.435
11
148.95
21
-67.435
0
LINE
8
BLACK
6
CONTINUOUS
10
148.95
20
-67.435
11
148.95
21
-67.985
0
LINE
8
BLACK
6
CONTINUOUS
10
124.475
20
-67.345
11
123.175
21
-67.345
0
LINE
8
BLACK
6
CONTINUOUS
10
123.175
20
-67.345
11
123.175
21
-65.845
0
LINE
8
BLACK
6
CONTINUOUS
10
123.175
20
-65.845
11
124.475
21
-65.845
0
LINE
8
BLACK
6
CONTINUOUS
10
124.475
20
-65.845
11
124.475
21
-67.345
0
LINE
8
BLACK
6
CONTINUOUS
10
143.672
20
-67.198
11
142.172
21
-67.198
0
LINE
8
BLACK
6
CONTINUOUS
10
142.172
20
-67.198
11
142.172
21
-65.898
0
LINE
8
BLACK
6
CONTINUOUS
10
142.172
20
-65.898
11
143.672
21
-65.898
0
LINE
8
BLACK
6
CONTINUOUS
10
143.672
20
-65.898
11
143.672
21
-67.198
0
LINE
8
BLACK
6
CONTINUOUS
10
146.372
20
-67.198
11
144.872
21
-67.198
0
LINE
8
BLACK
6
CONTINUOUS
10
144.872
20
-67.198
11
144.872
21
-65.898
0
LINE
8
BLACK
6
CONTINUOUS
10
144.872
20
-65.898
11
146.372
21
-65.898
0
LINE
8
BLACK
6
CONTINUOUS
10
146.372
20
-65.898
11
146.372
21
-67.198
0
LINE
8
BLACK
6
CONTINUOUS
10
157.45
20
-67.185
11
155.85
21
-67.185
0
LINE
8
BLACK
6
CONTINUOUS
10
155.85
20
-67.185
11
155.85
21
-66.635
0
LINE
8
BLACK
6
CONTINUOUS
10
155.85
20
-66.635
11
157.45
21
-66.635
0
LINE
8
BLACK
6
CONTINUOUS
10
157.45
20
-66.635
11
157.45
21
-67.185
0
LINE
8
BLACK
6
CONTINUOUS
10
148.95
20
-67.185
11
147.35
21
-67.185
0
LINE
8
BLACK
6
CONTINUOUS
10
147.35
20
-67.185
11
147.35
21
-66.635
0
LINE
8
BLACK
6
CONTINUOUS
10
147.35
20
-66.635
11
148.95
21
-66.635
0
LINE
8
BLACK
6
CONTINUOUS
10
148.95
20
-66.635
11
148.95
21
-67.185
0
LINE
8
BLACK
6
CONTINUOUS
10
157.45
20
-66.385
11
155.85
21
-66.385
0
LINE
8
BLACK
6
CONTINUOUS
10
155.85
20
-66.385
11
155.85
21
-65.835
0
LINE
8
BLACK
6
CONTINUOUS
10
155.85
20
-65.835
11
157.45
21
-65.835
0
LINE
8
BLACK
6
CONTINUOUS
10
157.45
20
-65.835
11
157.45
21
-66.385
0
LINE
8
BLACK
6
CONTINUOUS
10
148.95
20
-66.385
11
147.35
21
-66.385
0
LINE
8
BLACK
6
CONTINUOUS
10
147.35
20
-66.385
11
147.35
21
-65.835
0
LINE
8
BLACK
6
CONTINUOUS
10
147.35
20
-65.835
11
148.95
21
-65.835
0
LINE
8
BLACK
6
CONTINUOUS
10
148.95
20
-65.835
11
148.95
21
-66.385
0
LINE
8
BLACK
6
CONTINUOUS
10
122.058
20
-66.181
11
120.258
21
-66.181
0
LINE
8
BLACK
6
CONTINUOUS
10
120.258
20
-66.181
11
120.258
21
-64.5833
0
LINE
8
BLACK
6
CONTINUOUS
10
120.258
20
-64.5833
11
122.058
21
-64.5833
0
LINE
8
BLACK
6
CONTINUOUS
10
122.058
20
-64.5833
11
122.058
21
-66.181
0
LINE
8
BLACK
6
CONTINUOUS
10
194.164
20
-66.0489
11
192.363
21
-66.0489
0
LINE
8
BLACK
6
CONTINUOUS
10
192.363
20
-66.0489
11
192.363
21
-64.4512
0
LINE
8
BLACK
6
CONTINUOUS
10
192.363
20
-64.4512
11
194.164
21
-64.4512
0
LINE
8
BLACK
6
CONTINUOUS
10
194.164
20
-64.4512
11
194.164
21
-66.0489
0
LINE
8
BLACK
6
CONTINUOUS
10
140.858
20
-65.948
11
139.558
21
-65.948
0
LINE
8
BLACK
6
CONTINUOUS
10
139.558
20
-65.948
11
139.558
21
-64.448
0
LINE
8
BLACK
6
CONTINUOUS
10
139.558
20
-64.448
11
140.858
21
-64.448
0
LINE
8
BLACK
6
CONTINUOUS
10
140.858
20
-64.448
11
140.858
21
-65.948
0
LINE
8
BLACK
6
CONTINUOUS
10
118.631
20
-65.8655
11
117.131
21
-65.8655
0
LINE
8
BLACK
6
CONTINUOUS
10
117.131
20
-65.8655
11
117.131
21
-64.3655
0
LINE
8
BLACK
6
CONTINUOUS
10
117.131
20
-64.3655
11
118.631
21
-64.3655
0
LINE
8
BLACK
6
CONTINUOUS
10
118.631
20
-64.3655
11
118.631
21
-65.8655
0
LINE
8
BLACK
6
CONTINUOUS
10
168.758
20
-65.59
11
167.538
21
-65.59
0
LINE
8
BLACK
6
CONTINUOUS
10
167.538
20
-65.59
11
167.538
21
-64.68
0
LINE
8
BLACK
6
CONTINUOUS
10
167.538
20
-64.68
11
168.758
21
-64.68
0
LINE
8
BLACK
6
CONTINUOUS
10
168.758
20
-64.68
11
168.758
21
-65.59
0
LINE
8
BLACK
6
CONTINUOUS
10
166.218
20
-65.59
11
164.998
21
-65.59
0
LINE
8
BLACK
6
CONTINUOUS
10
164.998
20
-65.59
11
164.998
21
-64.68
0
LINE
8
BLACK
6
CONTINUOUS
10
164.998
20
-64.68
11
166.218
21
-64.68
0
LINE
8
BLACK
6
CONTINUOUS
10
166.218
20
-64.68
11
166.218
21
-65.59
0
LINE
8
BLACK
6
CONTINUOUS
10
161.138
20
-65.59
11
159.918
21
-65.59
0
LINE
8
BLACK
6
CONTINUOUS
10
159.918
20
-65.59
11
159.918
21
-64.68
0
LINE
8
BLACK
6
CONTINUOUS
10
159.918
20
-64.68
11
161.138
21
-64.68
0
LINE
8
BLACK
6
CONTINUOUS
10
161.138
20
-64.68
11
161.138
21
-65.59
0
LINE
8
BLACK
6
CONTINUOUS
10
163.678
20
-65.59
11
162.458
21
-65.59
0
LINE
8
BLACK
6
CONTINUOUS
10
162.458
20
-65.59
11
162.458
21
-64.68
0
LINE
8
BLACK
6
CONTINUOUS
10
162.458
20
-64.68
11
163.678
21
-64.68
0
LINE
8
BLACK
6
CONTINUOUS
10
163.678
20
-64.68
11
163.678
21
-65.59
0
LINE
8
BLACK
6
CONTINUOUS
10
157.45
20
-65.585
11
155.85
21
-65.585
0
LINE
8
BLACK
6
CONTINUOUS
10
155.85
20
-65.585
11
155.85
21
-65.035
0
LINE
8
BLACK
6
CONTINUOUS
10
155.85
20
-65.035
11
157.45
21
-65.035
0
LINE
8
BLACK
6
CONTINUOUS
10
157.45
20
-65.035
11
157.45
21
-65.585
0
LINE
8
BLACK
6
CONTINUOUS
10
148.95
20
-65.585
11
147.35
21
-65.585
0
LINE
8
BLACK
6
CONTINUOUS
10
147.35
20
-65.585
11
147.35
21
-65.035
0
LINE
8
BLACK
6
CONTINUOUS
10
147.35
20
-65.035
11
148.95
21
-65.035
0
LINE
8
BLACK
6
CONTINUOUS
10
148.95
20
-65.035
11
148.95
21
-65.585
0
LINE
8
BLACK
6
CONTINUOUS
10
196.777
20
-65.487
11
195.277
21
-65.487
0
LINE
8
BLACK
6
CONTINUOUS
10
195.277
20
-65.487
11
195.277
21
-63.987
0
LINE
8
BLACK
6
CONTINUOUS
10
195.277
20
-63.987
11
196.777
21
-63.987
0
LINE
8
BLACK
6
CONTINUOUS
10
196.777
20
-63.987
11
196.777
21
-65.487
0
LINE
8
BLACK
6
CONTINUOUS
10
157.45
20
-64.785
11
155.85
21
-64.785
0
LINE
8
BLACK
6
CONTINUOUS
10
155.85
20
-64.785
11
155.85
21
-64.235
0
LINE
8
BLACK
6
CONTINUOUS
10
155.85
20
-64.235
11
157.45
21
-64.235
0
LINE
8
BLACK
6
CONTINUOUS
10
157.45
20
-64.235
11
157.45
21
-64.785
0
LINE
8
BLACK
6
CONTINUOUS
10
148.95
20
-64.785
11
147.35
21
-64.785
0
LINE
8
BLACK
6
CONTINUOUS
10
147.35
20
-64.785
11
147.35
21
-64.235
0
LINE
8
BLACK
6
CONTINUOUS
10
147.35
20
-64.235
11
148.95
21
-64.235
0
LINE
8
BLACK
6
CONTINUOUS
10
148.95
20
-64.235
11
148.95
21
-64.785
0
LINE
8
BLACK
6
CONTINUOUS
10
155.475
20
-63.86
11
154.925
21
-63.86
0
LINE
8
BLACK
6
CONTINUOUS
10
154.925
20
-63.86
11
154.925
21
-62.26
0
LINE
8
BLACK
6
CONTINUOUS
10
154.925
20
-62.26
11
155.475
21
-62.26
0
LINE
8
BLACK
6
CONTINUOUS
10
155.475
20
-62.26
11
155.475
21
-63.86
0
LINE
8
BLACK
6
CONTINUOUS
10
150.675
20
-63.86
11
150.125
21
-63.86
0
LINE
8
BLACK
6
CONTINUOUS
10
150.125
20
-63.86
11
150.125
21
-62.26
0
LINE
8
BLACK
6
CONTINUOUS
10
150.125
20
-62.26
11
150.675
21
-62.26
0
LINE
8
BLACK
6
CONTINUOUS
10
150.675
20
-62.26
11
150.675
21
-63.86
0
LINE
8
BLACK
6
CONTINUOUS
10
154.675
20
-63.86
11
154.125
21
-63.86
0
LINE
8
BLACK
6
CONTINUOUS
10
154.125
20
-63.86
11
154.125
21
-62.26
0
LINE
8
BLACK
6
CONTINUOUS
10
154.125
20
-62.26
11
154.675
21
-62.26
0
LINE
8
BLACK
6
CONTINUOUS
10
154.675
20
-62.26
11
154.675
21
-63.86
0
LINE
8
BLACK
6
CONTINUOUS
10
149.875
20
-63.86
11
149.325
21
-63.86
0
LINE
8
BLACK
6
CONTINUOUS
10
149.325
20
-63.86
11
149.325
21
-62.26
0
LINE
8
BLACK
6
CONTINUOUS
10
149.325
20
-62.26
11
149.875
21
-62.26
0
LINE
8
BLACK
6
CONTINUOUS
10
149.875
20
-62.26
11
149.875
21
-63.86
0
LINE
8
BLACK
6
CONTINUOUS
10
152.275
20
-63.86
11
151.725
21
-63.86
0
LINE
8
BLACK
6
CONTINUOUS
10
151.725
20
-63.86
11
151.725
21
-62.26
0
LINE
8
BLACK
6
CONTINUOUS
10
151.725
20
-62.26
11
152.275
21
-62.26
0
LINE
8
BLACK
6
CONTINUOUS
10
152.275
20
-62.26
11
152.275
21
-63.86
0
LINE
8
BLACK
6
CONTINUOUS
10
151.475
20
-63.86
11
150.925
21
-63.86
0
LINE
8
BLACK
6
CONTINUOUS
10
150.925
20
-63.86
11
150.925
21
-62.26
0
LINE
8
BLACK
6
CONTINUOUS
10
150.925
20
-62.26
11
151.475
21
-62.26
0
LINE
8
BLACK
6
CONTINUOUS
10
151.475
20
-62.26
11
151.475
21
-63.86
0
LINE
8
BLACK
6
CONTINUOUS
10
153.075
20
-63.86
11
152.525
21
-63.86
0
LINE
8
BLACK
6
CONTINUOUS
10
152.525
20
-63.86
11
152.525
21
-62.26
0
LINE
8
BLACK
6
CONTINUOUS
10
152.525
20
-62.26
11
153.075
21
-62.26
0
LINE
8
BLACK
6
CONTINUOUS
10
153.075
20
-62.26
11
153.075
21
-63.86
0
LINE
8
BLACK
6
CONTINUOUS
10
153.875
20
-63.86
11
153.325
21
-63.86
0
LINE
8
BLACK
6
CONTINUOUS
10
153.325
20
-63.86
11
153.325
21
-62.26
0
LINE
8
BLACK
6
CONTINUOUS
10
153.325
20
-62.26
11
153.875
21
-62.26
0
LINE
8
BLACK
6
CONTINUOUS
10
153.875
20
-62.26
11
153.875
21
-63.86
0
LINE
8
BLACK
6
CONTINUOUS
10
166.218
20
-62.32
11
164.998
21
-62.32
0
LINE
8
BLACK
6
CONTINUOUS
10
164.998
20
-62.32
11
164.998
21
-61.41
0
LINE
8
BLACK
6
CONTINUOUS
10
164.998
20
-61.41
11
166.218
21
-61.41
0
LINE
8
BLACK
6
CONTINUOUS
10
166.218
20
-61.41
11
166.218
21
-62.32
0
LINE
8
BLACK
6
CONTINUOUS
10
163.678
20
-62.32
11
162.458
21
-62.32
0
LINE
8
BLACK
6
CONTINUOUS
10
162.458
20
-62.32
11
162.458
21
-61.41
0
LINE
8
BLACK
6
CONTINUOUS
10
162.458
20
-61.41
11
163.678
21
-61.41
0
LINE
8
BLACK
6
CONTINUOUS
10
163.678
20
-61.41
11
163.678
21
-62.32
0
LINE
8
BLACK
6
CONTINUOUS
10
168.758
20
-62.32
11
167.538
21
-62.32
0
LINE
8
BLACK
6
CONTINUOUS
10
167.538
20
-62.32
11
167.538
21
-61.41
0
LINE
8
BLACK
6
CONTINUOUS
10
167.538
20
-61.41
11
168.758
21
-61.41
0
LINE
8
BLACK
6
CONTINUOUS
10
168.758
20
-61.41
11
168.758
21
-62.32
0
LINE
8
BLACK
6
CONTINUOUS
10
161.138
20
-62.32
11
159.918
21
-62.32
0
LINE
8
BLACK
6
CONTINUOUS
10
159.918
20
-62.32
11
159.918
21
-61.41
0
LINE
8
BLACK
6
CONTINUOUS
10
159.918
20
-61.41
11
161.138
21
-61.41
0
LINE
8
BLACK
6
CONTINUOUS
10
161.138
20
-61.41
11
161.138
21
-62.32
0
LINE
8
BLACK
6
CONTINUOUS
10
135.45
20
-61.61
11
133.95
21
-61.61
0
LINE
8
BLACK
6
CONTINUOUS
10
133.95
20
-61.61
11
133.95
21
-60.31
0
LINE
8
BLACK
6
CONTINUOUS
10
133.95
20
-60.31
11
135.45
21
-60.31
0
LINE
8
BLACK
6
CONTINUOUS
10
135.45
20
-60.31
11
135.45
21
-61.61
0
LINE
8
BLACK
6
CONTINUOUS
10
132.75
20
-61.61
11
131.25
21
-61.61
0
LINE
8
BLACK
6
CONTINUOUS
10
131.25
20
-61.61
11
131.25
21
-60.31
0
LINE
8
BLACK
6
CONTINUOUS
10
131.25
20
-60.31
11
132.75
21
-60.31
0
LINE
8
BLACK
6
CONTINUOUS
10
132.75
20
-60.31
11
132.75
21
-61.61
0
LINE
8
BLACK
6
CONTINUOUS
10
180.358
20
-61.1528
11
178.858
21
-61.1528
0
LINE
8
BLACK
6
CONTINUOUS
10
178.858
20
-61.1528
11
178.858
21
-59.8528
0
LINE
8
BLACK
6
CONTINUOUS
10
178.858
20
-59.8528
11
180.358
21
-59.8528
0
LINE
8
BLACK
6
CONTINUOUS
10
180.358
20
-59.8528
11
180.358
21
-61.1528
0
LINE
8
BLACK
6
CONTINUOUS
10
183.058
20
-61.1528
11
181.558
21
-61.1528
0
LINE
8
BLACK
6
CONTINUOUS
10
181.558
20
-61.1528
11
181.558
21
-59.8528
0
LINE
8
BLACK
6
CONTINUOUS
10
181.558
20
-59.8528
11
183.058
21
-59.8528
0
LINE
8
BLACK
6
CONTINUOUS
10
183.058
20
-59.8528
11
183.058
21
-61.1528
0
LINE
8
BLACK
6
CONTINUOUS
10
187.9
20
-56.85
11
186.6
21
-56.85
0
LINE
8
BLACK
6
CONTINUOUS
10
186.6
20
-56.85
11
186.6
21
-55.35
0
LINE
8
BLACK
6
CONTINUOUS
10
186.6
20
-55.35
11
187.9
21
-55.35
0
LINE
8
BLACK
6
CONTINUOUS
10
187.9
20
-55.35
11
187.9
21
-56.85
0
LINE
8
BLACK
6
CONTINUOUS
10
184.527
20
-56.7931
11
182.93
21
-56.7931
0
LINE
8
BLACK
6
CONTINUOUS
10
182.93
20
-56.7931
11
182.93
21
-54.9923
0
LINE
8
BLACK
6
CONTINUOUS
10
182.93
20
-54.9923
11
184.527
21
-54.9923
0
LINE
8
BLACK
6
CONTINUOUS
10
184.527
20
-54.9923
11
184.527
21
-56.7931
0
LINE
8
BLACK
6
CONTINUOUS
10
181.687
20
-56.7931
11
180.09
21
-56.7931
0
LINE
8
BLACK
6
CONTINUOUS
10
180.09
20
-56.7931
11
180.09
21
-54.9923
0
LINE
8
BLACK
6
CONTINUOUS
10
180.09
20
-54.9923
11
181.687
21
-54.9923
0
LINE
8
BLACK
6
CONTINUOUS
10
181.687
20
-54.9923
11
181.687
21
-56.7931
0
LINE
8
BLACK
6
CONTINUOUS
10
136.885
20
-56.6948
11
135.585
21
-56.6948
0
LINE
8
BLACK
6
CONTINUOUS
10
135.585
20
-56.6948
11
135.585
21
-55.1948
0
LINE
8
BLACK
6
CONTINUOUS
10
135.585
20
-55.1948
11
136.885
21
-55.1948
0
LINE
8
BLACK
6
CONTINUOUS
10
136.885
20
-55.1948
11
136.885
21
-56.6948
0
LINE
8
BLACK
6
CONTINUOUS
10
134.263
20
-56.5569
11
132.665
21
-56.5569
0
LINE
8
BLACK
6
CONTINUOUS
10
132.665
20
-56.5569
11
132.665
21
-54.756
0
LINE
8
BLACK
6
CONTINUOUS
10
132.665
20
-54.756
11
134.263
21
-54.756
0
LINE
8
BLACK
6
CONTINUOUS
10
134.263
20
-54.756
11
134.263
21
-56.5569
0
LINE
8
BLACK
6
CONTINUOUS
10
131.423
20
-56.5569
11
129.826
21
-56.5569
0
LINE
8
BLACK
6
CONTINUOUS
10
129.826
20
-56.5569
11
129.826
21
-54.756
0
LINE
8
BLACK
6
CONTINUOUS
10
129.826
20
-54.756
11
131.423
21
-54.756
0
LINE
8
BLACK
6
CONTINUOUS
10
131.423
20
-54.756
11
131.423
21
-56.5569
0
LINE
8
BLACK
6
CONTINUOUS
10
165.63
20
-54.8663
11
164.13
21
-54.8663
0
LINE
8
BLACK
6
CONTINUOUS
10
164.13
20
-54.8663
11
164.13
21
-53.5663
0
LINE
8
BLACK
6
CONTINUOUS
10
164.13
20
-53.5663
11
165.63
21
-53.5663
0
LINE
8
BLACK
6
CONTINUOUS
10
165.63
20
-53.5663
11
165.63
21
-54.8663
0
LINE
8
BLACK
6
CONTINUOUS
10
168.33
20
-54.8663
11
166.83
21
-54.8663
0
LINE
8
BLACK
6
CONTINUOUS
10
166.83
20
-54.8663
11
166.83
21
-53.5663
0
LINE
8
BLACK
6
CONTINUOUS
10
166.83
20
-53.5663
11
168.33
21
-53.5663
0
LINE
8
BLACK
6
CONTINUOUS
10
168.33
20
-53.5663
11
168.33
21
-54.8663
0
LINE
8
BLACK
6
CONTINUOUS
10
147.495
20
-54.4472
11
145.995
21
-54.4472
0
LINE
8
BLACK
6
CONTINUOUS
10
145.995
20
-54.4472
11
145.995
21
-53.1472
0
LINE
8
BLACK
6
CONTINUOUS
10
145.995
20
-53.1472
11
147.495
21
-53.1472
0
LINE
8
BLACK
6
CONTINUOUS
10
147.495
20
-53.1472
11
147.495
21
-54.4472
0
LINE
8
BLACK
6
CONTINUOUS
10
150.195
20
-54.4472
11
148.695
21
-54.4472
0
LINE
8
BLACK
6
CONTINUOUS
10
148.695
20
-54.4472
11
148.695
21
-53.1472
0
LINE
8
BLACK
6
CONTINUOUS
10
148.695
20
-53.1472
11
150.195
21
-53.1472
0
LINE
8
BLACK
6
CONTINUOUS
10
150.195
20
-53.1472
11
150.195
21
-54.4472
0
LINE
8
BLACK
6
CONTINUOUS
10
170.843
20
-54.4113
11
169.543
21
-54.4113
0
LINE
8
BLACK
6
CONTINUOUS
10
169.543
20
-54.4113
11
169.543
21
-52.9113
0
LINE
8
BLACK
6
CONTINUOUS
10
169.543
20
-52.9113
11
170.843
21
-52.9113
0
LINE
8
BLACK
6
CONTINUOUS
10
170.843
20
-52.9113
11
170.843
21
-54.4113
0
LINE
8
BLACK
6
CONTINUOUS
10
187.9
20
-54.15
11
186.6
21
-54.15
0
LINE
8
BLACK
6
CONTINUOUS
10
186.6
20
-54.15
11
186.6
21
-52.65
0
LINE
8
BLACK
6
CONTINUOUS
10
186.6
20
-52.65
11
187.9
21
-52.65
0
LINE
8
BLACK
6
CONTINUOUS
10
187.9
20
-52.65
11
187.9
21
-54.15
0
LINE
8
BLACK
6
CONTINUOUS
10
184.885
20
-54.0138
11
183.385
21
-54.0138
0
LINE
8
BLACK
6
CONTINUOUS
10
183.385
20
-54.0138
11
183.385
21
-52.5138
0
LINE
8
BLACK
6
CONTINUOUS
10
183.385
20
-52.5138
11
184.885
21
-52.5138
0
LINE
8
BLACK
6
CONTINUOUS
10
184.885
20
-52.5138
11
184.885
21
-54.0138
0
LINE
8
BLACK
6
CONTINUOUS
10
181.385
20
-54.0138
11
179.885
21
-54.0138
0
LINE
8
BLACK
6
CONTINUOUS
10
179.885
20
-54.0138
11
179.885
21
-52.5138
0
LINE
8
BLACK
6
CONTINUOUS
10
179.885
20
-52.5138
11
181.385
21
-52.5138
0
LINE
8
BLACK
6
CONTINUOUS
10
181.385
20
-52.5138
11
181.385
21
-54.0138
0
LINE
8
BLACK
6
CONTINUOUS
10
136.885
20
-53.9948
11
135.585
21
-53.9948
0
LINE
8
BLACK
6
CONTINUOUS
10
135.585
20
-53.9948
11
135.585
21
-52.4948
0
LINE
8
BLACK
6
CONTINUOUS
10
135.585
20
-52.4948
11
136.885
21
-52.4948
0
LINE
8
BLACK
6
CONTINUOUS
10
136.885
20
-52.4948
11
136.885
21
-53.9948
0
LINE
8
BLACK
6
CONTINUOUS
10
134.433
20
-53.9478
11
132.933
21
-53.9478
0
LINE
8
BLACK
6
CONTINUOUS
10
132.933
20
-53.9478
11
132.933
21
-52.4478
0
LINE
8
BLACK
6
CONTINUOUS
10
132.933
20
-52.4478
11
134.433
21
-52.4478
0
LINE
8
BLACK
6
CONTINUOUS
10
134.433
20
-52.4478
11
134.433
21
-53.9478
0
LINE
8
BLACK
6
CONTINUOUS
10
130.933
20
-53.9478
11
129.433
21
-53.9478
0
LINE
8
BLACK
6
CONTINUOUS
10
129.433
20
-53.9478
11
129.433
21
-52.4478
0
LINE
8
BLACK
6
CONTINUOUS
10
129.433
20
-52.4478
11
130.933
21
-52.4478
0
LINE
8
BLACK
6
CONTINUOUS
10
130.933
20
-52.4478
11
130.933
21
-53.9478
0
LINE
8
BLACK
6
CONTINUOUS
10
170.843
20
-51.7113
11
169.543
21
-51.7113
0
LINE
8
BLACK
6
CONTINUOUS
10
169.543
20
-51.7113
11
169.543
21
-50.2113
0
LINE
8
BLACK
6
CONTINUOUS
10
169.543
20
-50.2113
11
170.843
21
-50.2113
0
LINE
8
BLACK
6
CONTINUOUS
10
170.843
20
-50.2113
11
170.843
21
-51.7113
0
LINE
8
BLACK
6
CONTINUOUS
10
153.164
20
-51.0966
11
151.864
21
-51.0966
0
LINE
8
BLACK
6
CONTINUOUS
10
151.864
20
-51.0966
11
151.864
21
-49.5966
0
LINE
8
BLACK
6
CONTINUOUS
10
151.864
20
-49.5966
11
153.164
21
-49.5966
0
LINE
8
BLACK
6
CONTINUOUS
10
153.164
20
-49.5966
11
153.164
21
-51.0966
0
LINE
8
BLACK
6
CONTINUOUS
10
165.391
20
-50.1764
11
163.793
21
-50.1764
0
LINE
8
BLACK
6
CONTINUOUS
10
163.793
20
-50.1764
11
163.793
21
-48.3756
0
LINE
8
BLACK
6
CONTINUOUS
10
163.793
20
-48.3756
11
165.391
21
-48.3756
0
LINE
8
BLACK
6
CONTINUOUS
10
165.391
20
-48.3756
11
165.391
21
-50.1764
0
LINE
8
BLACK
6
CONTINUOUS
10
168.231
20
-50.1764
11
166.633
21
-50.1764
0
LINE
8
BLACK
6
CONTINUOUS
10
166.633
20
-50.1764
11
166.633
21
-48.3756
0
LINE
8
BLACK
6
CONTINUOUS
10
166.633
20
-48.3756
11
168.231
21
-48.3756
0
LINE
8
BLACK
6
CONTINUOUS
10
168.231
20
-48.3756
11
168.231
21
-50.1764
0
LINE
8
BLACK
6
CONTINUOUS
10
150.237
20
-50.0875
11
148.64
21
-50.0875
0
LINE
8
BLACK
6
CONTINUOUS
10
148.64
20
-50.0875
11
148.64
21
-48.2867
0
LINE
8
BLACK
6
CONTINUOUS
10
148.64
20
-48.2867
11
150.237
21
-48.2867
0
LINE
8
BLACK
6
CONTINUOUS
10
150.237
20
-48.2867
11
150.237
21
-50.0875
0
LINE
8
BLACK
6
CONTINUOUS
10
147.397
20
-50.0875
11
145.8
21
-50.0875
0
LINE
8
BLACK
6
CONTINUOUS
10
145.8
20
-50.0875
11
145.8
21
-48.2867
0
LINE
8
BLACK
6
CONTINUOUS
10
145.8
20
-48.2867
11
147.397
21
-48.2867
0
LINE
8
BLACK
6
CONTINUOUS
10
147.397
20
-48.2867
11
147.397
21
-50.0875
0
LINE
8
BLACK
6
CONTINUOUS
10
153.164
20
-48.3966
11
151.864
21
-48.3966
0
LINE
8
BLACK
6
CONTINUOUS
10
151.864
20
-48.3966
11
151.864
21
-46.8966
0
LINE
8
BLACK
6
CONTINUOUS
10
151.864
20
-46.8966
11
153.164
21
-46.8966
0
LINE
8
BLACK
6
CONTINUOUS
10
153.164
20
-46.8966
11
153.164
21
-48.3966
0
LINE
8
BLACK
6
CONTINUOUS
10
146.866
20
-47.3844
11
145.366
21
-47.3844
0
LINE
8
BLACK
6
CONTINUOUS
10
145.366
20
-47.3844
11
145.366
21
-45.8844
0
LINE
8
BLACK
6
CONTINUOUS
10
145.366
20
-45.8844
11
146.866
21
-45.8844
0
LINE
8
BLACK
6
CONTINUOUS
10
146.866
20
-45.8844
11
146.866
21
-47.3844
0
LINE
8
BLACK
6
CONTINUOUS
10
150.366
20
-47.3844
11
148.866
21
-47.3844
0
LINE
8
BLACK
6
CONTINUOUS
10
148.866
20
-47.3844
11
148.866
21
-45.8844
0
LINE
8
BLACK
6
CONTINUOUS
10
148.866
20
-45.8844
11
150.366
21
-45.8844
0
LINE
8
BLACK
6
CONTINUOUS
10
150.366
20
-45.8844
11
150.366
21
-47.3844
0
LINE
8
BLACK
6
CONTINUOUS
10
165.019
20
-47.3539
11
163.519
21
-47.3539
0
LINE
8
BLACK
6
CONTINUOUS
10
163.519
20
-47.3539
11
163.519
21
-45.8539
0
LINE
8
BLACK
6
CONTINUOUS
10
163.519
20
-45.8539
11
165.019
21
-45.8539
0
LINE
8
BLACK
6
CONTINUOUS
10
165.019
20
-45.8539
11
165.019
21
-47.3539
0
LINE
8
BLACK
6
CONTINUOUS
10
168.519
20
-47.3539
11
167.019
21
-47.3539
0
LINE
8
BLACK
6
CONTINUOUS
10
167.019
20
-47.3539
11
167.019
21
-45.8539
0
LINE
8
BLACK
6
CONTINUOUS
10
167.019
20
-45.8539
11
168.519
21
-45.8539
0
LINE
8
BLACK
6
CONTINUOUS
10
168.519
20
-45.8539
11
168.519
21
-47.3539
  0
ENDSEC
  0
EOF
