  0
SECTION
  2
HEADER
  9
$ANGBASE
  50
0.0
  9
$ANGDIR
  70
  1
  9
$MEASUREMENT
  70
0
  0
ENDSEC
  0
SECTION
  2
TABLES
  0
TABLE
  2
LTYPE
  70
4
  0
LTYPE
  5
40F
  2
CONTINUOUS
  70
0
  3
Solid line
  72
65
  73
0
  40
0.0
  0
LTYPE
  5
410
  2
DASHDOT
 70
0
  3
Dash Dot ____ _ ____ _
 72
65
 73
4
 40
2.0
 49
1.25
 49
-0.25
 49
0.25
 49
-0.25
  0
LTYPE
  5
411
  2
DASHED
 70
0
  3
Dashed __ __ __ __ __
 72
65
 73
2
 40
0.75
 49
0.5
 49
-0.25
  0
LTYPE
  5
43B
  2
DOTTED
 70
0
  3
Dotted .  .  .  .
 72
65
 73
2
 40
0.2
 49
0.0
 49
-0.2
  0
ENDTAB
  0
TABLE
  2
STYLE
  70
4
  0
STYLE
  2
KICAD
  70
0
  40
0
  41
1
  42
1
  50
0
  71
0
  3
isocp.shx
  0
STYLE
  2
KICADB
  70
0
  40
0
  41
1
  42
1
  50
0
  71
0
  3
isocp.shx
  0
STYLE
  2
KICADI
  70
0
  40
0
  41
1
  42
1
  50
15
  71
0
  3
isocp.shx
  0
STYLE
  2
KICADBI
  70
0
  40
0
  41
1
  42
1
  50
15
  71
0
  3
isocp.shx
  0
ENDTAB
  0
TABLE
  2
LAYER
  70
30
  0
LAYER
  2
BLACK
  70
0
  62
7
  6
CONTINUOUS
  0
LAYER
  2
GRAY1
  70
0
  62
251
  6
CONTINUOUS
  0
LAYER
  2
GRAY2
  70
0
  62
8
  6
CONTINUOUS
  0
LAYER
  2
GRAY3
  70
0
  62
9
  6
CONTINUOUS
  0
LAYER
  2
WHITE
  70
0
  62
7
  6
CONTINUOUS
  0
LAYER
  2
LYELLOW
  70
0
  62
51
  6
CONTINUOUS
  0
LAYER
  2
BLUE1
  70
0
  62
178
  6
CONTINUOUS
  0
LAYER
  2
GREEN1
  70
0
  62
98
  6
CONTINUOUS
  0
LAYER
  2
CYAN1
  70
0
  62
138
  6
CONTINUOUS
  0
LAYER
  2
RED1
  70
0
  62
18
  6
CONTINUOUS
  0
LAYER
  2
MAGENTA1
  70
0
  62
228
  6
CONTINUOUS
  0
LAYER
  2
BROWN1
  70
0
  62
58
  6
CONTINUOUS
  0
LAYER
  2
BLUE2
  70
0
  62
5
  6
CONTINUOUS
  0
LAYER
  2
GREEN2
  70
0
  62
3
  6
CONTINUOUS
  0
LAYER
  2
CYAN2
  70
0
  62
4
  6
CONTINUOUS
  0
LAYER
  2
RED2
  70
0
  62
1
  6
CONTINUOUS
  0
LAYER
  2
MAGENTA2
  70
0
  62
6
  6
CONTINUOUS
  0
LAYER
  2
BROWN2
  70
0
  62
54
  6
CONTINUOUS
  0
LAYER
  2
BLUE3
  70
0
  62
171
  6
CONTINUOUS
  0
LAYER
  2
GREEN3
  70
0
  62
91
  6
CONTINUOUS
  0
LAYER
  2
CYAN3
  70
0
  62
131
  6
CONTINUOUS
  0
LAYER
  2
RED3
  70
0
  62
11
  6
CONTINUOUS
  0
LAYER
  2
MAGENTA3
  70
0
  62
221
  6
CONTINUOUS
  0
LAYER
  2
YELLOW3
  70
0
  62
2
  6
CONTINUOUS
  0
LAYER
  2
BLUE4
  70
0
  62
5
  6
CONTINUOUS
  0
LAYER
  2
GREEN4
  70
0
  62
3
  6
CONTINUOUS
  0
LAYER
  2
CYAN4
  70
0
  62
4
  6
CONTINUOUS
  0
LAYER
  2
RED4
  70
0
  62
1
  6
CONTINUOUS
  0
LAYER
  2
MAGENTA4
  70
0
  62
6
  6
CONTINUOUS
  0
LAYER
  2
YELLOW4
  70
0
  62
2
  6
CONTINUOUS
  0
ENDTAB
  0
ENDSEC
  0
SECTION
  2
ENTITIES
0
LINE
8
BLACK
6
CONTINUOUS
10
146.939
20
-69.065
11
145.669
21
-69.065
0
LINE
8
BLACK
6
CONTINUOUS
10
145.669
20
-69.065
11
145.669
21
-68.095
0
LINE
8
BLACK
6
CONTINUOUS
10
145.669
20
-68.095
11
146.939
21
-68.095
0
LINE
8
BLACK
6
CONTINUOUS
10
146.939
20
-68.095
11
146.939
21
-69.065
0
LINE
8
BLACK
6
CONTINUOUS
10
144.399
20
-69.065
11
143.129
21
-69.065
0
LINE
8
BLACK
6
CONTINUOUS
10
143.129
20
-69.065
11
143.129
21
-68.095
0
LINE
8
BLACK
6
CONTINUOUS
10
143.129
20
-68.095
11
144.399
21
-68.095
0
LINE
8
BLACK
6
CONTINUOUS
10
144.399
20
-68.095
11
144.399
21
-69.065
0
LINE
8
BLACK
6
CONTINUOUS
10
146.939
20
-67.795
11
145.669
21
-67.795
0
LINE
8
BLACK
6
CONTINUOUS
10
145.669
20
-67.795
11
145.669
21
-66.825
0
LINE
8
BLACK
6
CONTINUOUS
10
145.669
20
-66.825
11
146.939
21
-66.825
0
LINE
8
BLACK
6
CONTINUOUS
10
146.939
20
-66.825
11
146.939
21
-67.795
0
LINE
8
BLACK
6
CONTINUOUS
10
144.399
20
-67.795
11
143.129
21
-67.795
0
LINE
8
BLACK
6
CONTINUOUS
10
143.129
20
-67.795
11
143.129
21
-66.825
0
LINE
8
BLACK
6
CONTINUOUS
10
143.129
20
-66.825
11
144.399
21
-66.825
0
LINE
8
BLACK
6
CONTINUOUS
10
144.399
20
-66.825
11
144.399
21
-67.795
0
LINE
8
BLACK
6
CONTINUOUS
10
146.939
20
-66.525
11
145.669
21
-66.525
0
LINE
8
BLACK
6
CONTINUOUS
10
145.669
20
-66.525
11
145.669
21
-65.555
0
LINE
8
BLACK
6
CONTINUOUS
10
145.669
20
-65.555
11
146.939
21
-65.555
0
LINE
8
BLACK
6
CONTINUOUS
10
146.939
20
-65.555
11
146.939
21
-66.525
0
LINE
8
BLACK
6
CONTINUOUS
10
144.399
20
-66.525
11
143.129
21
-66.525
0
LINE
8
BLACK
6
CONTINUOUS
10
143.129
20
-66.525
11
143.129
21
-65.555
0
LINE
8
BLACK
6
CONTINUOUS
10
143.129
20
-65.555
11
144.399
21
-65.555
0
LINE
8
BLACK
6
CONTINUOUS
10
144.399
20
-65.555
11
144.399
21
-66.525
0
LINE
8
BLACK
6
CONTINUOUS
10
182.016
20
-42.9267
11
182.026
21
-42.9284
0
LINE
8
BLACK
6
CONTINUOUS
10
182.026
20
-42.9284
11
182.029
21
-42.9301
0
LINE
8
BLACK
6
CONTINUOUS
10
182.029
20
-42.9301
11
182.032
21
-42.931
0
LINE
8
BLACK
6
CONTINUOUS
10
182.032
20
-42.931
11
182.04
21
-42.9367
0
LINE
8
BLACK
6
CONTINUOUS
10
182.04
20
-42.9367
11
182.049
21
-42.9417
0
LINE
8
BLACK
6
CONTINUOUS
10
182.049
20
-42.9417
11
182.055
21
-42.9493
0
LINE
8
BLACK
6
CONTINUOUS
10
182.055
20
-42.9493
11
207.051
21
-67.9447
0
LINE
8
BLACK
6
CONTINUOUS
10
207.051
20
-67.9447
11
207.058
21
-67.951
0
LINE
8
BLACK
6
CONTINUOUS
10
207.058
20
-67.951
11
207.063
21
-67.9597
0
LINE
8
BLACK
6
CONTINUOUS
10
207.063
20
-67.9597
11
207.069
21
-67.9678
0
LINE
8
BLACK
6
CONTINUOUS
10
207.069
20
-67.9678
11
207.07
21
-67.971
0
LINE
8
BLACK
6
CONTINUOUS
10
207.07
20
-67.971
11
207.072
21
-67.974
0
LINE
8
BLACK
6
CONTINUOUS
10
207.072
20
-67.974
11
207.073
21
-67.9838
0
LINE
8
BLACK
6
CONTINUOUS
10
207.073
20
-67.9838
11
207.076
21
-67.9934
0
LINE
8
BLACK
6
CONTINUOUS
10
207.076
20
-67.9934
11
207.075
21
-68.0033
0
LINE
8
BLACK
6
CONTINUOUS
10
207.075
20
-68.0033
11
207.075
21
-117.997
0
LINE
8
BLACK
6
CONTINUOUS
10
207.075
20
-117.997
11
207.076
21
-118.007
0
LINE
8
BLACK
6
CONTINUOUS
10
207.076
20
-118.007
11
207.073
21
-118.016
0
LINE
8
BLACK
6
CONTINUOUS
10
207.073
20
-118.016
11
207.072
21
-118.026
0
LINE
8
BLACK
6
CONTINUOUS
10
207.072
20
-118.026
11
207.07
21
-118.029
0
LINE
8
BLACK
6
CONTINUOUS
10
207.07
20
-118.029
11
207.069
21
-118.032
0
LINE
8
BLACK
6
CONTINUOUS
10
207.069
20
-118.032
11
207.063
21
-118.04
0
LINE
8
BLACK
6
CONTINUOUS
10
207.063
20
-118.04
11
207.058
21
-118.049
0
LINE
8
BLACK
6
CONTINUOUS
10
207.058
20
-118.049
11
207.051
21
-118.055
0
LINE
8
BLACK
6
CONTINUOUS
10
207.051
20
-118.055
11
182.055
21
-143.051
0
LINE
8
BLACK
6
CONTINUOUS
10
182.055
20
-143.051
11
182.049
21
-143.058
0
LINE
8
BLACK
6
CONTINUOUS
10
182.049
20
-143.058
11
182.04
21
-143.063
0
LINE
8
BLACK
6
CONTINUOUS
10
182.04
20
-143.063
11
182.032
21
-143.069
0
LINE
8
BLACK
6
CONTINUOUS
10
182.032
20
-143.069
11
182.029
21
-143.07
0
LINE
8
BLACK
6
CONTINUOUS
10
182.029
20
-143.07
11
182.026
21
-143.072
0
LINE
8
BLACK
6
CONTINUOUS
10
182.026
20
-143.072
11
182.016
21
-143.073
0
LINE
8
BLACK
6
CONTINUOUS
10
182.016
20
-143.073
11
182.007
21
-143.076
0
LINE
8
BLACK
6
CONTINUOUS
10
182.007
20
-143.076
11
181.997
21
-143.075
0
LINE
8
BLACK
6
CONTINUOUS
10
181.997
20
-143.075
11
132.003
21
-143.075
0
LINE
8
BLACK
6
CONTINUOUS
10
132.003
20
-143.075
11
131.993
21
-143.076
0
LINE
8
BLACK
6
CONTINUOUS
10
131.993
20
-143.076
11
131.984
21
-143.073
0
LINE
8
BLACK
6
CONTINUOUS
10
131.984
20
-143.073
11
131.974
21
-143.072
0
LINE
8
BLACK
6
CONTINUOUS
10
131.974
20
-143.072
11
131.971
21
-143.07
0
LINE
8
BLACK
6
CONTINUOUS
10
131.971
20
-143.07
11
131.968
21
-143.069
0
LINE
8
BLACK
6
CONTINUOUS
10
131.968
20
-143.069
11
131.96
21
-143.063
0
LINE
8
BLACK
6
CONTINUOUS
10
131.96
20
-143.063
11
131.951
21
-143.058
0
LINE
8
BLACK
6
CONTINUOUS
10
131.951
20
-143.058
11
131.945
21
-143.051
0
LINE
8
BLACK
6
CONTINUOUS
10
131.945
20
-143.051
11
106.949
21
-118.055
0
LINE
8
BLACK
6
CONTINUOUS
10
106.949
20
-118.055
11
106.942
21
-118.049
0
LINE
8
BLACK
6
CONTINUOUS
10
106.942
20
-118.049
11
106.937
21
-118.04
0
LINE
8
BLACK
6
CONTINUOUS
10
106.937
20
-118.04
11
106.931
21
-118.032
0
LINE
8
BLACK
6
CONTINUOUS
10
106.931
20
-118.032
11
106.93
21
-118.029
0
LINE
8
BLACK
6
CONTINUOUS
10
106.93
20
-118.029
11
106.928
21
-118.026
0
LINE
8
BLACK
6
CONTINUOUS
10
106.928
20
-118.026
11
106.927
21
-118.016
0
LINE
8
BLACK
6
CONTINUOUS
10
106.927
20
-118.016
11
106.924
21
-118.007
0
LINE
8
BLACK
6
CONTINUOUS
10
106.924
20
-118.007
11
106.925
21
-117.997
0
LINE
8
BLACK
6
CONTINUOUS
10
106.925
20
-117.997
11
106.925
21
-68.0033
0
LINE
8
BLACK
6
CONTINUOUS
10
106.925
20
-68.0033
11
106.924
21
-67.9934
0
LINE
8
BLACK
6
CONTINUOUS
10
106.924
20
-67.9934
11
106.927
21
-67.9837
0
LINE
8
BLACK
6
CONTINUOUS
10
106.927
20
-67.9837
11
106.928
21
-67.974
0
LINE
8
BLACK
6
CONTINUOUS
10
106.928
20
-67.974
11
106.93
21
-67.9711
0
LINE
8
BLACK
6
CONTINUOUS
10
106.93
20
-67.9711
11
106.931
21
-67.9678
0
LINE
8
BLACK
6
CONTINUOUS
10
106.931
20
-67.9678
11
106.937
21
-67.9597
0
LINE
8
BLACK
6
CONTINUOUS
10
106.937
20
-67.9597
11
106.942
21
-67.951
0
LINE
8
BLACK
6
CONTINUOUS
10
106.942
20
-67.951
11
106.949
21
-67.9447
0
LINE
8
BLACK
6
CONTINUOUS
10
106.949
20
-67.9447
11
131.945
21
-42.9493
0
LINE
8
BLACK
6
CONTINUOUS
10
131.945
20
-42.9493
11
131.951
21
-42.9417
0
LINE
8
BLACK
6
CONTINUOUS
10
131.951
20
-42.9417
11
131.96
21
-42.9367
0
LINE
8
BLACK
6
CONTINUOUS
10
131.96
20
-42.9367
11
131.968
21
-42.931
0
LINE
8
BLACK
6
CONTINUOUS
10
131.968
20
-42.931
11
131.971
21
-42.9301
0
LINE
8
BLACK
6
CONTINUOUS
10
131.971
20
-42.9301
11
131.974
21
-42.9284
0
LINE
8
BLACK
6
CONTINUOUS
10
131.974
20
-42.9284
11
131.984
21
-42.9267
0
LINE
8
BLACK
6
CONTINUOUS
10
131.984
20
-42.9267
11
131.993
21
-42.9241
0
LINE
8
BLACK
6
CONTINUOUS
10
131.993
20
-42.9241
11
132.003
21
-42.925
0
LINE
8
BLACK
6
CONTINUOUS
10
132.003
20
-42.925
11
181.997
21
-42.925
0
LINE
8
BLACK
6
CONTINUOUS
10
181.997
20
-42.925
11
182.007
21
-42.9241
0
LINE
8
BLACK
6
CONTINUOUS
10
182.007
20
-42.9241
11
182.016
21
-42.9267
0
LINE
8
BLACK
6
CONTINUOUS
10
132.031
20
-43.075
11
107.075
21
-68.0311
0
LINE
8
BLACK
6
CONTINUOUS
10
107.075
20
-68.0311
11
107.075
21
-117.969
0
LINE
8
BLACK
6
CONTINUOUS
10
107.075
20
-117.969
11
132.031
21
-142.925
0
LINE
8
BLACK
6
CONTINUOUS
10
132.031
20
-142.925
11
181.969
21
-142.925
0
LINE
8
BLACK
6
CONTINUOUS
10
181.969
20
-142.925
11
206.925
21
-117.969
0
LINE
8
BLACK
6
CONTINUOUS
10
206.925
20
-117.969
11
206.925
21
-68.0311
0
LINE
8
BLACK
6
CONTINUOUS
10
206.925
20
-68.0311
11
181.969
21
-43.075
0
LINE
8
BLACK
6
CONTINUOUS
10
181.969
20
-43.075
11
132.031
21
-43.075
0
LINE
8
BLACK
6
CONTINUOUS
10
141.493
20
-117.575
11
141.487
21
-117.575
0
LINE
8
BLACK
6
CONTINUOUS
10
141.487
20
-117.575
11
141.481
21
-117.573
0
LINE
8
BLACK
6
CONTINUOUS
10
141.481
20
-117.573
11
141.474
21
-117.572
0
LINE
8
BLACK
6
CONTINUOUS
10
141.474
20
-117.572
11
141.468
21
-117.568
0
LINE
8
BLACK
6
CONTINUOUS
10
141.468
20
-117.568
11
141.462
21
-117.566
0
LINE
8
BLACK
6
CONTINUOUS
10
141.462
20
-117.566
11
141.457
21
-117.562
0
LINE
8
BLACK
6
CONTINUOUS
10
141.457
20
-117.562
11
141.451
21
-117.558
0
LINE
8
BLACK
6
CONTINUOUS
10
141.451
20
-117.558
11
141.447
21
-117.553
0
LINE
8
BLACK
6
CONTINUOUS
10
141.447
20
-117.553
11
141.442
21
-117.549
0
LINE
8
BLACK
6
CONTINUOUS
10
141.442
20
-117.549
11
141.438
21
-117.543
0
LINE
8
BLACK
6
CONTINUOUS
10
141.438
20
-117.543
11
141.434
21
-117.538
0
LINE
8
BLACK
6
CONTINUOUS
10
141.434
20
-117.538
11
141.432
21
-117.532
0
LINE
8
BLACK
6
CONTINUOUS
10
141.432
20
-117.532
11
141.428
21
-117.526
0
LINE
8
BLACK
6
CONTINUOUS
10
141.428
20
-117.526
11
141.427
21
-117.519
0
LINE
8
BLACK
6
CONTINUOUS
10
141.427
20
-117.519
11
141.425
21
-117.513
0
LINE
8
BLACK
6
CONTINUOUS
10
141.425
20
-117.513
11
141.425
21
-117.487
0
LINE
8
BLACK
6
CONTINUOUS
10
141.425
20
-117.487
11
141.425
21
-79.9934
0
LINE
8
BLACK
6
CONTINUOUS
10
141.425
20
-79.9934
11
141.425
21
-79.9934
0
LINE
8
BLACK
6
CONTINUOUS
10
141.425
20
-79.9934
11
141.425
21
-79.9868
0
LINE
8
BLACK
6
CONTINUOUS
10
141.425
20
-79.9868
11
141.427
21
-79.9805
0
LINE
8
BLACK
6
CONTINUOUS
10
141.427
20
-79.9805
11
141.428
21
-79.974
0
LINE
8
BLACK
6
CONTINUOUS
10
141.428
20
-79.974
11
141.432
21
-79.9682
0
LINE
8
BLACK
6
CONTINUOUS
10
141.432
20
-79.9682
11
141.434
21
-79.9619
0
LINE
8
BLACK
6
CONTINUOUS
10
141.434
20
-79.9619
11
141.438
21
-79.9568
0
LINE
8
BLACK
6
CONTINUOUS
10
141.438
20
-79.9568
11
141.442
21
-79.951
0
LINE
8
BLACK
6
CONTINUOUS
10
141.442
20
-79.951
11
141.447
21
-79.9468
0
LINE
8
BLACK
6
CONTINUOUS
10
141.447
20
-79.9468
11
141.451
21
-79.9417
0
LINE
8
BLACK
6
CONTINUOUS
10
141.451
20
-79.9417
11
141.457
21
-79.9383
0
LINE
8
BLACK
6
CONTINUOUS
10
141.457
20
-79.9383
11
141.462
21
-79.934
0
LINE
8
BLACK
6
CONTINUOUS
10
141.462
20
-79.934
11
141.468
21
-79.9318
0
LINE
8
BLACK
6
CONTINUOUS
10
141.468
20
-79.9318
11
141.474
21
-79.9284
0
LINE
8
BLACK
6
CONTINUOUS
10
141.474
20
-79.9284
11
141.481
21
-79.9273
0
LINE
8
BLACK
6
CONTINUOUS
10
141.481
20
-79.9273
11
141.487
21
-79.925
0
LINE
8
BLACK
6
CONTINUOUS
10
141.487
20
-79.925
11
141.493
21
-79.925
0
LINE
8
BLACK
6
CONTINUOUS
10
141.493
20
-79.925
11
141.493
21
-79.925
0
LINE
8
BLACK
6
CONTINUOUS
10
141.493
20
-79.925
11
172.507
21
-79.925
0
LINE
8
BLACK
6
CONTINUOUS
10
172.507
20
-79.925
11
172.507
21
-79.925
0
LINE
8
BLACK
6
CONTINUOUS
10
172.507
20
-79.925
11
172.513
21
-79.925
0
LINE
8
BLACK
6
CONTINUOUS
10
172.513
20
-79.925
11
172.519
21
-79.9273
0
LINE
8
BLACK
6
CONTINUOUS
10
172.519
20
-79.9273
11
172.526
21
-79.9284
0
LINE
8
BLACK
6
CONTINUOUS
10
172.526
20
-79.9284
11
172.532
21
-79.9318
0
LINE
8
BLACK
6
CONTINUOUS
10
172.532
20
-79.9318
11
172.538
21
-79.934
0
LINE
8
BLACK
6
CONTINUOUS
10
172.538
20
-79.934
11
172.543
21
-79.9383
0
LINE
8
BLACK
6
CONTINUOUS
10
172.543
20
-79.9383
11
172.549
21
-79.9417
0
LINE
8
BLACK
6
CONTINUOUS
10
172.549
20
-79.9417
11
172.553
21
-79.9468
0
LINE
8
BLACK
6
CONTINUOUS
10
172.553
20
-79.9468
11
172.558
21
-79.951
0
LINE
8
BLACK
6
CONTINUOUS
10
172.558
20
-79.951
11
172.562
21
-79.9568
0
LINE
8
BLACK
6
CONTINUOUS
10
172.562
20
-79.9568
11
172.566
21
-79.9619
0
LINE
8
BLACK
6
CONTINUOUS
10
172.566
20
-79.9619
11
172.568
21
-79.9682
0
LINE
8
BLACK
6
CONTINUOUS
10
172.568
20
-79.9682
11
172.572
21
-79.974
0
LINE
8
BLACK
6
CONTINUOUS
10
172.572
20
-79.974
11
172.573
21
-79.9805
0
LINE
8
BLACK
6
CONTINUOUS
10
172.573
20
-79.9805
11
172.575
21
-79.9868
0
LINE
8
BLACK
6
CONTINUOUS
10
172.575
20
-79.9868
11
172.575
21
-79.9934
0
LINE
8
BLACK
6
CONTINUOUS
10
172.575
20
-79.9934
11
172.575
21
-79.9934
0
LINE
8
BLACK
6
CONTINUOUS
10
172.575
20
-79.9934
11
172.575
21
-117.507
0
LINE
8
BLACK
6
CONTINUOUS
10
172.575
20
-117.507
11
172.575
21
-117.507
0
LINE
8
BLACK
6
CONTINUOUS
10
172.575
20
-117.507
11
172.575
21
-117.513
0
LINE
8
BLACK
6
CONTINUOUS
10
172.575
20
-117.513
11
172.573
21
-117.519
0
LINE
8
BLACK
6
CONTINUOUS
10
172.573
20
-117.519
11
172.572
21
-117.526
0
LINE
8
BLACK
6
CONTINUOUS
10
172.572
20
-117.526
11
172.568
21
-117.532
0
LINE
8
BLACK
6
CONTINUOUS
10
172.568
20
-117.532
11
172.566
21
-117.538
0
LINE
8
BLACK
6
CONTINUOUS
10
172.566
20
-117.538
11
172.562
21
-117.543
0
LINE
8
BLACK
6
CONTINUOUS
10
172.562
20
-117.543
11
172.558
21
-117.549
0
LINE
8
BLACK
6
CONTINUOUS
10
172.558
20
-117.549
11
172.553
21
-117.553
0
LINE
8
BLACK
6
CONTINUOUS
10
172.553
20
-117.553
11
172.549
21
-117.558
0
LINE
8
BLACK
6
CONTINUOUS
10
172.549
20
-117.558
11
172.543
21
-117.562
0
LINE
8
BLACK
6
CONTINUOUS
10
172.543
20
-117.562
11
172.538
21
-117.566
0
LINE
8
BLACK
6
CONTINUOUS
10
172.538
20
-117.566
11
172.532
21
-117.568
0
LINE
8
BLACK
6
CONTINUOUS
10
172.532
20
-117.568
11
172.526
21
-117.572
0
LINE
8
BLACK
6
CONTINUOUS
10
172.526
20
-117.572
11
172.519
21
-117.573
0
LINE
8
BLACK
6
CONTINUOUS
10
172.519
20
-117.573
11
172.513
21
-117.575
0
LINE
8
BLACK
6
CONTINUOUS
10
172.513
20
-117.575
11
172.507
21
-117.575
0
LINE
8
BLACK
6
CONTINUOUS
10
172.507
20
-117.575
11
172.507
21
-117.575
0
LINE
8
BLACK
6
CONTINUOUS
10
172.507
20
-117.575
11
141.493
21
-117.575
0
LINE
8
BLACK
6
CONTINUOUS
10
141.493
20
-117.575
11
141.493
21
-117.575
0
LINE
8
BLACK
6
CONTINUOUS
10
172.425
20
-80.075
11
141.575
21
-80.075
0
LINE
8
BLACK
6
CONTINUOUS
10
141.575
20
-80.075
11
141.575
21
-117.425
0
LINE
8
BLACK
6
CONTINUOUS
10
141.575
20
-117.425
11
172.425
21
-117.425
0
LINE
8
BLACK
6
CONTINUOUS
10
172.425
20
-117.425
11
172.425
21
-80.075
  0
ENDSEC
  0
EOF
