  0
SECTION
  2
HEADER
  9
$ANGBASE
  50
0.0
  9
$ANGDIR
  70
  1
  9
$MEASUREMENT
  70
0
  0
ENDSEC
  0
SECTION
  2
TABLES
  0
TABLE
  2
LTYPE
  70
4
  0
LTYPE
  5
40F
  2
CONTINUOUS
  70
0
  3
Solid line
  72
65
  73
0
  40
0.0
  0
LTYPE
  5
410
  2
DASHDOT
 70
0
  3
Dash Dot ____ _ ____ _
 72
65
 73
4
 40
2.0
 49
1.25
 49
-0.25
 49
0.25
 49
-0.25
  0
LTYPE
  5
411
  2
DASHED
 70
0
  3
Dashed __ __ __ __ __
 72
65
 73
2
 40
0.75
 49
0.5
 49
-0.25
  0
LTYPE
  5
43B
  2
DOTTED
 70
0
  3
Dotted .  .  .  .
 72
65
 73
2
 40
0.2
 49
0.0
 49
-0.2
  0
ENDTAB
  0
TABLE
  2
STYLE
  70
4
  0
STYLE
  2
KICAD
  70
0
  40
0
  41
1
  42
1
  50
0
  71
0
  3
isocp.shx
  0
STYLE
  2
KICADB
  70
0
  40
0
  41
1
  42
1
  50
0
  71
0
  3
isocp.shx
  0
STYLE
  2
KICADI
  70
0
  40
0
  41
1
  42
1
  50
15
  71
0
  3
isocp.shx
  0
STYLE
  2
KICADBI
  70
0
  40
0
  41
1
  42
1
  50
15
  71
0
  3
isocp.shx
  0
ENDTAB
  0
TABLE
  2
LAYER
  70
30
  0
LAYER
  2
BLACK
  70
0
  62
7
  6
CONTINUOUS
  0
LAYER
  2
GRAY1
  70
0
  62
251
  6
CONTINUOUS
  0
LAYER
  2
GRAY2
  70
0
  62
8
  6
CONTINUOUS
  0
LAYER
  2
GRAY3
  70
0
  62
9
  6
CONTINUOUS
  0
LAYER
  2
WHITE
  70
0
  62
7
  6
CONTINUOUS
  0
LAYER
  2
LYELLOW
  70
0
  62
51
  6
CONTINUOUS
  0
LAYER
  2
BLUE1
  70
0
  62
178
  6
CONTINUOUS
  0
LAYER
  2
GREEN1
  70
0
  62
98
  6
CONTINUOUS
  0
LAYER
  2
CYAN1
  70
0
  62
138
  6
CONTINUOUS
  0
LAYER
  2
RED1
  70
0
  62
18
  6
CONTINUOUS
  0
LAYER
  2
MAGENTA1
  70
0
  62
228
  6
CONTINUOUS
  0
LAYER
  2
BROWN1
  70
0
  62
58
  6
CONTINUOUS
  0
LAYER
  2
BLUE2
  70
0
  62
5
  6
CONTINUOUS
  0
LAYER
  2
GREEN2
  70
0
  62
3
  6
CONTINUOUS
  0
LAYER
  2
CYAN2
  70
0
  62
4
  6
CONTINUOUS
  0
LAYER
  2
RED2
  70
0
  62
1
  6
CONTINUOUS
  0
LAYER
  2
MAGENTA2
  70
0
  62
6
  6
CONTINUOUS
  0
LAYER
  2
BROWN2
  70
0
  62
54
  6
CONTINUOUS
  0
LAYER
  2
BLUE3
  70
0
  62
171
  6
CONTINUOUS
  0
LAYER
  2
GREEN3
  70
0
  62
91
  6
CONTINUOUS
  0
LAYER
  2
CYAN3
  70
0
  62
131
  6
CONTINUOUS
  0
LAYER
  2
RED3
  70
0
  62
11
  6
CONTINUOUS
  0
LAYER
  2
MAGENTA3
  70
0
  62
221
  6
CONTINUOUS
  0
LAYER
  2
YELLOW3
  70
0
  62
2
  6
CONTINUOUS
  0
LAYER
  2
BLUE4
  70
0
  62
5
  6
CONTINUOUS
  0
LAYER
  2
GREEN4
  70
0
  62
3
  6
CONTINUOUS
  0
LAYER
  2
CYAN4
  70
0
  62
4
  6
CONTINUOUS
  0
LAYER
  2
RED4
  70
0
  62
1
  6
CONTINUOUS
  0
LAYER
  2
MAGENTA4
  70
0
  62
6
  6
CONTINUOUS
  0
LAYER
  2
YELLOW4
  70
0
  62
2
  6
CONTINUOUS
  0
ENDTAB
  0
ENDSEC
  0
SECTION
  2
ENTITIES
0
LINE
8
BLACK
6
CONTINUOUS
10
155.629
20
-140.424
11
154.529
21
-140.424
0
LINE
8
BLACK
6
CONTINUOUS
10
154.529
20
-140.424
11
154.529
21
-139.424
0
LINE
8
BLACK
6
CONTINUOUS
10
154.529
20
-139.424
11
155.629
21
-139.424
0
LINE
8
BLACK
6
CONTINUOUS
10
155.629
20
-139.424
11
155.629
21
-140.424
0
LINE
8
BLACK
6
CONTINUOUS
10
159.529
20
-140.424
11
158.429
21
-140.424
0
LINE
8
BLACK
6
CONTINUOUS
10
158.429
20
-140.424
11
158.429
21
-139.424
0
LINE
8
BLACK
6
CONTINUOUS
10
158.429
20
-139.424
11
159.529
21
-139.424
0
LINE
8
BLACK
6
CONTINUOUS
10
159.529
20
-139.424
11
159.529
21
-140.424
0
LINE
8
BLACK
6
CONTINUOUS
10
162.395
20
-139.118
11
161.095
21
-139.118
0
LINE
8
BLACK
6
CONTINUOUS
10
161.095
20
-139.118
11
161.095
21
-137.618
0
LINE
8
BLACK
6
CONTINUOUS
10
161.095
20
-137.618
11
162.395
21
-137.618
0
LINE
8
BLACK
6
CONTINUOUS
10
162.395
20
-137.618
11
162.395
21
-139.118
0
LINE
8
BLACK
6
CONTINUOUS
10
159.529
20
-138.624
11
158.429
21
-138.624
0
LINE
8
BLACK
6
CONTINUOUS
10
158.429
20
-138.624
11
158.429
21
-137.624
0
LINE
8
BLACK
6
CONTINUOUS
10
158.429
20
-137.624
11
159.529
21
-137.624
0
LINE
8
BLACK
6
CONTINUOUS
10
159.529
20
-137.624
11
159.529
21
-138.624
0
LINE
8
BLACK
6
CONTINUOUS
10
155.629
20
-138.624
11
154.529
21
-138.624
0
LINE
8
BLACK
6
CONTINUOUS
10
154.529
20
-138.624
11
154.529
21
-137.624
0
LINE
8
BLACK
6
CONTINUOUS
10
154.529
20
-137.624
11
155.629
21
-137.624
0
LINE
8
BLACK
6
CONTINUOUS
10
155.629
20
-137.624
11
155.629
21
-138.624
0
LINE
8
BLACK
6
CONTINUOUS
10
176.686
20
-137.05
11
175.586
21
-137.05
0
LINE
8
BLACK
6
CONTINUOUS
10
175.586
20
-137.05
11
175.586
21
-136.05
0
LINE
8
BLACK
6
CONTINUOUS
10
175.586
20
-136.05
11
176.686
21
-136.05
0
LINE
8
BLACK
6
CONTINUOUS
10
176.686
20
-136.05
11
176.686
21
-137.05
0
LINE
8
BLACK
6
CONTINUOUS
10
172.786
20
-137.05
11
171.686
21
-137.05
0
LINE
8
BLACK
6
CONTINUOUS
10
171.686
20
-137.05
11
171.686
21
-136.05
0
LINE
8
BLACK
6
CONTINUOUS
10
171.686
20
-136.05
11
172.786
21
-136.05
0
LINE
8
BLACK
6
CONTINUOUS
10
172.786
20
-136.05
11
172.786
21
-137.05
0
LINE
8
BLACK
6
CONTINUOUS
10
138.344
20
-137.012
11
137.244
21
-137.012
0
LINE
8
BLACK
6
CONTINUOUS
10
137.244
20
-137.012
11
137.244
21
-136.012
0
LINE
8
BLACK
6
CONTINUOUS
10
137.244
20
-136.012
11
138.344
21
-136.012
0
LINE
8
BLACK
6
CONTINUOUS
10
138.344
20
-136.012
11
138.344
21
-137.012
0
LINE
8
BLACK
6
CONTINUOUS
10
142.244
20
-137.012
11
141.144
21
-137.012
0
LINE
8
BLACK
6
CONTINUOUS
10
141.144
20
-137.012
11
141.144
21
-136.012
0
LINE
8
BLACK
6
CONTINUOUS
10
141.144
20
-136.012
11
142.244
21
-136.012
0
LINE
8
BLACK
6
CONTINUOUS
10
142.244
20
-136.012
11
142.244
21
-137.012
0
LINE
8
BLACK
6
CONTINUOUS
10
162.395
20
-136.418
11
161.095
21
-136.418
0
LINE
8
BLACK
6
CONTINUOUS
10
161.095
20
-136.418
11
161.095
21
-134.918
0
LINE
8
BLACK
6
CONTINUOUS
10
161.095
20
-134.918
11
162.395
21
-134.918
0
LINE
8
BLACK
6
CONTINUOUS
10
162.395
20
-134.918
11
162.395
21
-136.418
0
LINE
8
BLACK
6
CONTINUOUS
10
132.63
20
-136.15
11
131.13
21
-136.15
0
LINE
8
BLACK
6
CONTINUOUS
10
131.13
20
-136.15
11
131.13
21
-134.85
0
LINE
8
BLACK
6
CONTINUOUS
10
131.13
20
-134.85
11
132.63
21
-134.85
0
LINE
8
BLACK
6
CONTINUOUS
10
132.63
20
-134.85
11
132.63
21
-136.15
0
LINE
8
BLACK
6
CONTINUOUS
10
129.93
20
-136.15
11
128.43
21
-136.15
0
LINE
8
BLACK
6
CONTINUOUS
10
128.43
20
-136.15
11
128.43
21
-134.85
0
LINE
8
BLACK
6
CONTINUOUS
10
128.43
20
-134.85
11
129.93
21
-134.85
0
LINE
8
BLACK
6
CONTINUOUS
10
129.93
20
-134.85
11
129.93
21
-136.15
0
LINE
8
BLACK
6
CONTINUOUS
10
144.541
20
-135.653
11
143.241
21
-135.653
0
LINE
8
BLACK
6
CONTINUOUS
10
143.241
20
-135.653
11
143.241
21
-134.153
0
LINE
8
BLACK
6
CONTINUOUS
10
143.241
20
-134.153
11
144.541
21
-134.153
0
LINE
8
BLACK
6
CONTINUOUS
10
144.541
20
-134.153
11
144.541
21
-135.653
0
LINE
8
BLACK
6
CONTINUOUS
10
172.786
20
-135.25
11
171.686
21
-135.25
0
LINE
8
BLACK
6
CONTINUOUS
10
171.686
20
-135.25
11
171.686
21
-134.25
0
LINE
8
BLACK
6
CONTINUOUS
10
171.686
20
-134.25
11
172.786
21
-134.25
0
LINE
8
BLACK
6
CONTINUOUS
10
172.786
20
-134.25
11
172.786
21
-135.25
0
LINE
8
BLACK
6
CONTINUOUS
10
176.686
20
-135.25
11
175.586
21
-135.25
0
LINE
8
BLACK
6
CONTINUOUS
10
175.586
20
-135.25
11
175.586
21
-134.25
0
LINE
8
BLACK
6
CONTINUOUS
10
175.586
20
-134.25
11
176.686
21
-134.25
0
LINE
8
BLACK
6
CONTINUOUS
10
176.686
20
-134.25
11
176.686
21
-135.25
0
LINE
8
BLACK
6
CONTINUOUS
10
142.244
20
-135.212
11
141.144
21
-135.212
0
LINE
8
BLACK
6
CONTINUOUS
10
141.144
20
-135.212
11
141.144
21
-134.212
0
LINE
8
BLACK
6
CONTINUOUS
10
141.144
20
-134.212
11
142.244
21
-134.212
0
LINE
8
BLACK
6
CONTINUOUS
10
142.244
20
-134.212
11
142.244
21
-135.212
0
LINE
8
BLACK
6
CONTINUOUS
10
138.344
20
-135.212
11
137.244
21
-135.212
0
LINE
8
BLACK
6
CONTINUOUS
10
137.244
20
-135.212
11
137.244
21
-134.212
0
LINE
8
BLACK
6
CONTINUOUS
10
137.244
20
-134.212
11
138.344
21
-134.212
0
LINE
8
BLACK
6
CONTINUOUS
10
138.344
20
-134.212
11
138.344
21
-135.212
0
LINE
8
BLACK
6
CONTINUOUS
10
178.879
20
-133.334
11
177.579
21
-133.334
0
LINE
8
BLACK
6
CONTINUOUS
10
177.579
20
-133.334
11
177.579
21
-131.834
0
LINE
8
BLACK
6
CONTINUOUS
10
177.579
20
-131.834
11
178.879
21
-131.834
0
LINE
8
BLACK
6
CONTINUOUS
10
178.879
20
-131.834
11
178.879
21
-133.334
0
LINE
8
BLACK
6
CONTINUOUS
10
144.541
20
-132.953
11
143.241
21
-132.953
0
LINE
8
BLACK
6
CONTINUOUS
10
143.241
20
-132.953
11
143.241
21
-131.453
0
LINE
8
BLACK
6
CONTINUOUS
10
143.241
20
-131.453
11
144.541
21
-131.453
0
LINE
8
BLACK
6
CONTINUOUS
10
144.541
20
-131.453
11
144.541
21
-132.953
0
LINE
8
BLACK
6
CONTINUOUS
10
154.32
20
-132.91
11
153.02
21
-132.91
0
LINE
8
BLACK
6
CONTINUOUS
10
153.02
20
-132.91
11
153.02
21
-131.41
0
LINE
8
BLACK
6
CONTINUOUS
10
153.02
20
-131.41
11
154.32
21
-131.41
0
LINE
8
BLACK
6
CONTINUOUS
10
154.32
20
-131.41
11
154.32
21
-132.91
0
LINE
8
BLACK
6
CONTINUOUS
10
168.175
20
-132.583
11
166.675
21
-132.583
0
LINE
8
BLACK
6
CONTINUOUS
10
166.675
20
-132.583
11
166.675
21
-131.283
0
LINE
8
BLACK
6
CONTINUOUS
10
166.675
20
-131.283
11
168.175
21
-131.283
0
LINE
8
BLACK
6
CONTINUOUS
10
168.175
20
-131.283
11
168.175
21
-132.583
0
LINE
8
BLACK
6
CONTINUOUS
10
165.475
20
-132.583
11
163.975
21
-132.583
0
LINE
8
BLACK
6
CONTINUOUS
10
163.975
20
-132.583
11
163.975
21
-131.283
0
LINE
8
BLACK
6
CONTINUOUS
10
163.975
20
-131.283
11
165.475
21
-131.283
0
LINE
8
BLACK
6
CONTINUOUS
10
165.475
20
-131.283
11
165.475
21
-132.583
0
LINE
8
BLACK
6
CONTINUOUS
10
149.852
20
-132.438
11
148.352
21
-132.438
0
LINE
8
BLACK
6
CONTINUOUS
10
148.352
20
-132.438
11
148.352
21
-131.138
0
LINE
8
BLACK
6
CONTINUOUS
10
148.352
20
-131.138
11
149.852
21
-131.138
0
LINE
8
BLACK
6
CONTINUOUS
10
149.852
20
-131.138
11
149.852
21
-132.438
0
LINE
8
BLACK
6
CONTINUOUS
10
147.152
20
-132.438
11
145.652
21
-132.438
0
LINE
8
BLACK
6
CONTINUOUS
10
145.652
20
-132.438
11
145.652
21
-131.138
0
LINE
8
BLACK
6
CONTINUOUS
10
145.652
20
-131.138
11
147.152
21
-131.138
0
LINE
8
BLACK
6
CONTINUOUS
10
147.152
20
-131.138
11
147.152
21
-132.438
0
LINE
8
BLACK
6
CONTINUOUS
10
158.6
20
-132.15
11
157.4
21
-132.15
0
LINE
8
BLACK
6
CONTINUOUS
10
157.4
20
-132.15
11
157.4
21
-131.35
0
LINE
8
BLACK
6
CONTINUOUS
10
157.4
20
-131.35
11
158.6
21
-131.35
0
LINE
8
BLACK
6
CONTINUOUS
10
158.6
20
-131.35
11
158.6
21
-132.15
0
LINE
8
BLACK
6
CONTINUOUS
10
156.6
20
-131.2
11
155.4
21
-131.2
0
LINE
8
BLACK
6
CONTINUOUS
10
155.4
20
-131.2
11
155.4
21
-130.4
0
LINE
8
BLACK
6
CONTINUOUS
10
155.4
20
-130.4
11
156.6
21
-130.4
0
LINE
8
BLACK
6
CONTINUOUS
10
156.6
20
-130.4
11
156.6
21
-131.2
0
LINE
8
BLACK
6
CONTINUOUS
10
191.992
20
-129.965
11
191.215
21
-130.742
0
LINE
8
BLACK
6
CONTINUOUS
10
191.215
20
-130.742
11
190.508
21
-130.035
0
LINE
8
BLACK
6
CONTINUOUS
10
190.508
20
-130.035
11
191.285
21
-129.258
0
LINE
8
BLACK
6
CONTINUOUS
10
191.285
20
-129.258
11
191.992
21
-129.965
0
LINE
8
BLACK
6
CONTINUOUS
10
178.879
20
-130.634
11
177.579
21
-130.634
0
LINE
8
BLACK
6
CONTINUOUS
10
177.579
20
-130.634
11
177.579
21
-129.134
0
LINE
8
BLACK
6
CONTINUOUS
10
177.579
20
-129.134
11
178.879
21
-129.134
0
LINE
8
BLACK
6
CONTINUOUS
10
178.879
20
-129.134
11
178.879
21
-130.634
0
LINE
8
BLACK
6
CONTINUOUS
10
123.75
20
-129.793
11
123.043
21
-130.5
0
LINE
8
BLACK
6
CONTINUOUS
10
123.043
20
-130.5
11
122.265
21
-129.722
0
LINE
8
BLACK
6
CONTINUOUS
10
122.265
20
-129.722
11
122.972
21
-129.015
0
LINE
8
BLACK
6
CONTINUOUS
10
122.972
20
-129.015
11
123.75
21
-129.793
0
LINE
8
BLACK
6
CONTINUOUS
10
158.6
20
-130.25
11
157.4
21
-130.25
0
LINE
8
BLACK
6
CONTINUOUS
10
157.4
20
-130.25
11
157.4
21
-129.45
0
LINE
8
BLACK
6
CONTINUOUS
10
157.4
20
-129.45
11
158.6
21
-129.45
0
LINE
8
BLACK
6
CONTINUOUS
10
158.6
20
-129.45
11
158.6
21
-130.25
0
LINE
8
BLACK
6
CONTINUOUS
10
154.32
20
-130.21
11
153.02
21
-130.21
0
LINE
8
BLACK
6
CONTINUOUS
10
153.02
20
-130.21
11
153.02
21
-128.71
0
LINE
8
BLACK
6
CONTINUOUS
10
153.02
20
-128.71
11
154.32
21
-128.71
0
LINE
8
BLACK
6
CONTINUOUS
10
154.32
20
-128.71
11
154.32
21
-130.21
0
LINE
8
BLACK
6
CONTINUOUS
10
190.72
20
-128.692
11
189.942
21
-129.47
0
LINE
8
BLACK
6
CONTINUOUS
10
189.942
20
-129.47
11
189.235
21
-128.763
0
LINE
8
BLACK
6
CONTINUOUS
10
189.235
20
-128.763
11
190.013
21
-127.985
0
LINE
8
BLACK
6
CONTINUOUS
10
190.013
20
-127.985
11
190.72
21
-128.692
0
LINE
8
BLACK
6
CONTINUOUS
10
125.023
20
-128.52
11
124.316
21
-129.227
0
LINE
8
BLACK
6
CONTINUOUS
10
124.316
20
-129.227
11
123.538
21
-128.45
0
LINE
8
BLACK
6
CONTINUOUS
10
123.538
20
-128.45
11
124.245
21
-127.742
0
LINE
8
BLACK
6
CONTINUOUS
10
124.245
20
-127.742
11
125.023
21
-128.52
0
LINE
8
BLACK
6
CONTINUOUS
10
194.75
20
-127.207
11
193.972
21
-127.985
0
LINE
8
BLACK
6
CONTINUOUS
10
193.972
20
-127.985
11
193.265
21
-127.278
0
LINE
8
BLACK
6
CONTINUOUS
10
193.265
20
-127.278
11
194.043
21
-126.5
0
LINE
8
BLACK
6
CONTINUOUS
10
194.043
20
-126.5
11
194.75
21
-127.207
0
LINE
8
BLACK
6
CONTINUOUS
10
120.992
20
-127.035
11
120.285
21
-127.742
0
LINE
8
BLACK
6
CONTINUOUS
10
120.285
20
-127.742
11
119.508
21
-126.965
0
LINE
8
BLACK
6
CONTINUOUS
10
119.508
20
-126.965
11
120.215
21
-126.258
0
LINE
8
BLACK
6
CONTINUOUS
10
120.215
20
-126.258
11
120.992
21
-127.035
0
LINE
8
BLACK
6
CONTINUOUS
10
193.477
20
-125.934
11
192.7
21
-126.712
0
LINE
8
BLACK
6
CONTINUOUS
10
192.7
20
-126.712
11
191.992
21
-126.005
0
LINE
8
BLACK
6
CONTINUOUS
10
191.992
20
-126.005
11
192.77
21
-125.227
0
LINE
8
BLACK
6
CONTINUOUS
10
192.77
20
-125.227
11
193.477
21
-125.934
0
LINE
8
BLACK
6
CONTINUOUS
10
122.265
20
-125.763
11
121.558
21
-126.47
0
LINE
8
BLACK
6
CONTINUOUS
10
121.558
20
-126.47
11
120.78
21
-125.692
0
LINE
8
BLACK
6
CONTINUOUS
10
120.78
20
-125.692
11
121.487
21
-124.985
0
LINE
8
BLACK
6
CONTINUOUS
10
121.487
20
-124.985
11
122.265
21
-125.763
0
LINE
8
BLACK
6
CONTINUOUS
10
180.98
20
-126.34
11
179.48
21
-126.34
0
LINE
8
BLACK
6
CONTINUOUS
10
179.48
20
-126.34
11
179.48
21
-125.04
0
LINE
8
BLACK
6
CONTINUOUS
10
179.48
20
-125.04
11
180.98
21
-125.04
0
LINE
8
BLACK
6
CONTINUOUS
10
180.98
20
-125.04
11
180.98
21
-126.34
0
LINE
8
BLACK
6
CONTINUOUS
10
183.68
20
-126.34
11
182.18
21
-126.34
0
LINE
8
BLACK
6
CONTINUOUS
10
182.18
20
-126.34
11
182.18
21
-125.04
0
LINE
8
BLACK
6
CONTINUOUS
10
182.18
20
-125.04
11
183.68
21
-125.04
0
LINE
8
BLACK
6
CONTINUOUS
10
183.68
20
-125.04
11
183.68
21
-126.34
0
LINE
8
BLACK
6
CONTINUOUS
10
135.46
20
-126.11
11
133.96
21
-126.11
0
LINE
8
BLACK
6
CONTINUOUS
10
133.96
20
-126.11
11
133.96
21
-124.81
0
LINE
8
BLACK
6
CONTINUOUS
10
133.96
20
-124.81
11
135.46
21
-124.81
0
LINE
8
BLACK
6
CONTINUOUS
10
135.46
20
-124.81
11
135.46
21
-126.11
0
LINE
8
BLACK
6
CONTINUOUS
10
132.76
20
-126.11
11
131.26
21
-126.11
0
LINE
8
BLACK
6
CONTINUOUS
10
131.26
20
-126.11
11
131.26
21
-124.81
0
LINE
8
BLACK
6
CONTINUOUS
10
131.26
20
-124.81
11
132.76
21
-124.81
0
LINE
8
BLACK
6
CONTINUOUS
10
132.76
20
-124.81
11
132.76
21
-126.11
0
LINE
8
BLACK
6
CONTINUOUS
10
193.65
20
-124.4
11
192.15
21
-124.4
0
LINE
8
BLACK
6
CONTINUOUS
10
192.15
20
-124.4
11
192.15
21
-123.1
0
LINE
8
BLACK
6
CONTINUOUS
10
192.15
20
-123.1
11
193.65
21
-123.1
0
LINE
8
BLACK
6
CONTINUOUS
10
193.65
20
-123.1
11
193.65
21
-124.4
0
LINE
8
BLACK
6
CONTINUOUS
10
196.35
20
-124.4
11
194.85
21
-124.4
0
LINE
8
BLACK
6
CONTINUOUS
10
194.85
20
-124.4
11
194.85
21
-123.1
0
LINE
8
BLACK
6
CONTINUOUS
10
194.85
20
-123.1
11
196.35
21
-123.1
0
LINE
8
BLACK
6
CONTINUOUS
10
196.35
20
-123.1
11
196.35
21
-124.4
0
LINE
8
BLACK
6
CONTINUOUS
10
188.62
20
-119.03
11
187.32
21
-119.03
0
LINE
8
BLACK
6
CONTINUOUS
10
187.32
20
-119.03
11
187.32
21
-117.53
0
LINE
8
BLACK
6
CONTINUOUS
10
187.32
20
-117.53
11
188.62
21
-117.53
0
LINE
8
BLACK
6
CONTINUOUS
10
188.62
20
-117.53
11
188.62
21
-119.03
0
LINE
8
BLACK
6
CONTINUOUS
10
188.62
20
-116.33
11
187.32
21
-116.33
0
LINE
8
BLACK
6
CONTINUOUS
10
187.32
20
-116.33
11
187.32
21
-114.83
0
LINE
8
BLACK
6
CONTINUOUS
10
187.32
20
-114.83
11
188.62
21
-114.83
0
LINE
8
BLACK
6
CONTINUOUS
10
188.62
20
-114.83
11
188.62
21
-116.33
0
LINE
8
BLACK
6
CONTINUOUS
10
119.395
20
-114.495
11
118.095
21
-114.495
0
LINE
8
BLACK
6
CONTINUOUS
10
118.095
20
-114.495
11
118.095
21
-112.995
0
LINE
8
BLACK
6
CONTINUOUS
10
118.095
20
-112.995
11
119.395
21
-112.995
0
LINE
8
BLACK
6
CONTINUOUS
10
119.395
20
-112.995
11
119.395
21
-114.495
0
LINE
8
BLACK
6
CONTINUOUS
10
121.935
20
-114.495
11
120.635
21
-114.495
0
LINE
8
BLACK
6
CONTINUOUS
10
120.635
20
-114.495
11
120.635
21
-112.995
0
LINE
8
BLACK
6
CONTINUOUS
10
120.635
20
-112.995
11
121.935
21
-112.995
0
LINE
8
BLACK
6
CONTINUOUS
10
121.935
20
-112.995
11
121.935
21
-114.495
0
LINE
8
BLACK
6
CONTINUOUS
10
200.258
20
-114.483
11
199.258
21
-114.483
0
LINE
8
BLACK
6
CONTINUOUS
10
199.258
20
-114.483
11
199.258
21
-113.383
0
LINE
8
BLACK
6
CONTINUOUS
10
199.258
20
-113.383
11
200.258
21
-113.383
0
LINE
8
BLACK
6
CONTINUOUS
10
200.258
20
-113.383
11
200.258
21
-114.483
0
LINE
8
BLACK
6
CONTINUOUS
10
198.458
20
-114.483
11
197.458
21
-114.483
0
LINE
8
BLACK
6
CONTINUOUS
10
197.458
20
-114.483
11
197.458
21
-113.383
0
LINE
8
BLACK
6
CONTINUOUS
10
197.458
20
-113.383
11
198.458
21
-113.383
0
LINE
8
BLACK
6
CONTINUOUS
10
198.458
20
-113.383
11
198.458
21
-114.483
0
LINE
8
BLACK
6
CONTINUOUS
10
116.351
20
-114.433
11
115.351
21
-114.433
0
LINE
8
BLACK
6
CONTINUOUS
10
115.351
20
-114.433
11
115.351
21
-113.333
0
LINE
8
BLACK
6
CONTINUOUS
10
115.351
20
-113.333
11
116.351
21
-113.333
0
LINE
8
BLACK
6
CONTINUOUS
10
116.351
20
-113.333
11
116.351
21
-114.433
0
LINE
8
BLACK
6
CONTINUOUS
10
114.551
20
-114.433
11
113.551
21
-114.433
0
LINE
8
BLACK
6
CONTINUOUS
10
113.551
20
-114.433
11
113.551
21
-113.333
0
LINE
8
BLACK
6
CONTINUOUS
10
113.551
20
-113.333
11
114.551
21
-113.333
0
LINE
8
BLACK
6
CONTINUOUS
10
114.551
20
-113.333
11
114.551
21
-114.433
0
LINE
8
BLACK
6
CONTINUOUS
10
119.395
20
-111.795
11
118.095
21
-111.795
0
LINE
8
BLACK
6
CONTINUOUS
10
118.095
20
-111.795
11
118.095
21
-110.295
0
LINE
8
BLACK
6
CONTINUOUS
10
118.095
20
-110.295
11
119.395
21
-110.295
0
LINE
8
BLACK
6
CONTINUOUS
10
119.395
20
-110.295
11
119.395
21
-111.795
0
LINE
8
BLACK
6
CONTINUOUS
10
121.935
20
-111.795
11
120.635
21
-111.795
0
LINE
8
BLACK
6
CONTINUOUS
10
120.635
20
-111.795
11
120.635
21
-110.295
0
LINE
8
BLACK
6
CONTINUOUS
10
120.635
20
-110.295
11
121.935
21
-110.295
0
LINE
8
BLACK
6
CONTINUOUS
10
121.935
20
-110.295
11
121.935
21
-111.795
0
LINE
8
BLACK
6
CONTINUOUS
10
200.258
20
-110.583
11
199.258
21
-110.583
0
LINE
8
BLACK
6
CONTINUOUS
10
199.258
20
-110.583
11
199.258
21
-109.483
0
LINE
8
BLACK
6
CONTINUOUS
10
199.258
20
-109.483
11
200.258
21
-109.483
0
LINE
8
BLACK
6
CONTINUOUS
10
200.258
20
-109.483
11
200.258
21
-110.583
0
LINE
8
BLACK
6
CONTINUOUS
10
198.458
20
-110.583
11
197.458
21
-110.583
0
LINE
8
BLACK
6
CONTINUOUS
10
197.458
20
-110.583
11
197.458
21
-109.483
0
LINE
8
BLACK
6
CONTINUOUS
10
197.458
20
-109.483
11
198.458
21
-109.483
0
LINE
8
BLACK
6
CONTINUOUS
10
198.458
20
-109.483
11
198.458
21
-110.583
0
LINE
8
BLACK
6
CONTINUOUS
10
116.351
20
-110.533
11
115.351
21
-110.533
0
LINE
8
BLACK
6
CONTINUOUS
10
115.351
20
-110.533
11
115.351
21
-109.433
0
LINE
8
BLACK
6
CONTINUOUS
10
115.351
20
-109.433
11
116.351
21
-109.433
0
LINE
8
BLACK
6
CONTINUOUS
10
116.351
20
-109.433
11
116.351
21
-110.533
0
LINE
8
BLACK
6
CONTINUOUS
10
114.551
20
-110.533
11
113.551
21
-110.533
0
LINE
8
BLACK
6
CONTINUOUS
10
113.551
20
-110.533
11
113.551
21
-109.433
0
LINE
8
BLACK
6
CONTINUOUS
10
113.551
20
-109.433
11
114.551
21
-109.433
0
LINE
8
BLACK
6
CONTINUOUS
10
114.551
20
-109.433
11
114.551
21
-110.533
0
LINE
8
BLACK
6
CONTINUOUS
10
202.96
20
-108.08
11
201.46
21
-108.08
0
LINE
8
BLACK
6
CONTINUOUS
10
201.46
20
-108.08
11
201.46
21
-106.78
0
LINE
8
BLACK
6
CONTINUOUS
10
201.46
20
-106.78
11
202.96
21
-106.78
0
LINE
8
BLACK
6
CONTINUOUS
10
202.96
20
-106.78
11
202.96
21
-108.08
0
LINE
8
BLACK
6
CONTINUOUS
10
200.26
20
-108.08
11
198.76
21
-108.08
0
LINE
8
BLACK
6
CONTINUOUS
10
198.76
20
-108.08
11
198.76
21
-106.78
0
LINE
8
BLACK
6
CONTINUOUS
10
198.76
20
-106.78
11
200.26
21
-106.78
0
LINE
8
BLACK
6
CONTINUOUS
10
200.26
20
-106.78
11
200.26
21
-108.08
0
LINE
8
BLACK
6
CONTINUOUS
10
118.808
20
-104.221
11
117.508
21
-104.221
0
LINE
8
BLACK
6
CONTINUOUS
10
117.508
20
-104.221
11
117.508
21
-102.721
0
LINE
8
BLACK
6
CONTINUOUS
10
117.508
20
-102.721
11
118.808
21
-102.721
0
LINE
8
BLACK
6
CONTINUOUS
10
118.808
20
-102.721
11
118.808
21
-104.221
0
LINE
8
BLACK
6
CONTINUOUS
10
196.271
20
-104.045
11
194.971
21
-104.045
0
LINE
8
BLACK
6
CONTINUOUS
10
194.971
20
-104.045
11
194.971
21
-102.545
0
LINE
8
BLACK
6
CONTINUOUS
10
194.971
20
-102.545
11
196.271
21
-102.545
0
LINE
8
BLACK
6
CONTINUOUS
10
196.271
20
-102.545
11
196.271
21
-104.045
0
LINE
8
BLACK
6
CONTINUOUS
10
118.808
20
-101.521
11
117.508
21
-101.521
0
LINE
8
BLACK
6
CONTINUOUS
10
117.508
20
-101.521
11
117.508
21
-100.021
0
LINE
8
BLACK
6
CONTINUOUS
10
117.508
20
-100.021
11
118.808
21
-100.021
0
LINE
8
BLACK
6
CONTINUOUS
10
118.808
20
-100.021
11
118.808
21
-101.521
0
LINE
8
BLACK
6
CONTINUOUS
10
196.271
20
-101.345
11
194.971
21
-101.345
0
LINE
8
BLACK
6
CONTINUOUS
10
194.971
20
-101.345
11
194.971
21
-99.8454
0
LINE
8
BLACK
6
CONTINUOUS
10
194.971
20
-99.8454
11
196.271
21
-99.8454
0
LINE
8
BLACK
6
CONTINUOUS
10
196.271
20
-99.8454
11
196.271
21
-101.345
0
LINE
8
BLACK
6
CONTINUOUS
10
123.92
20
-99.05
11
122.42
21
-99.05
0
LINE
8
BLACK
6
CONTINUOUS
10
122.42
20
-99.05
11
122.42
21
-97.8
0
LINE
8
BLACK
6
CONTINUOUS
10
122.42
20
-97.8
11
123.92
21
-97.8
0
LINE
8
BLACK
6
CONTINUOUS
10
123.92
20
-97.8
11
123.92
21
-99.05
0
LINE
8
BLACK
6
CONTINUOUS
10
121.42
20
-99.05
11
119.92
21
-99.05
0
LINE
8
BLACK
6
CONTINUOUS
10
119.92
20
-99.05
11
119.92
21
-97.8
0
LINE
8
BLACK
6
CONTINUOUS
10
119.92
20
-97.8
11
121.42
21
-97.8
0
LINE
8
BLACK
6
CONTINUOUS
10
121.42
20
-97.8
11
121.42
21
-99.05
0
LINE
8
BLACK
6
CONTINUOUS
10
115.13
20
-97.805
11
113.63
21
-97.805
0
LINE
8
BLACK
6
CONTINUOUS
10
113.63
20
-97.805
11
113.63
21
-96.505
0
LINE
8
BLACK
6
CONTINUOUS
10
113.63
20
-96.505
11
115.13
21
-96.505
0
LINE
8
BLACK
6
CONTINUOUS
10
115.13
20
-96.505
11
115.13
21
-97.805
0
LINE
8
BLACK
6
CONTINUOUS
10
112.43
20
-97.805
11
110.93
21
-97.805
0
LINE
8
BLACK
6
CONTINUOUS
10
110.93
20
-97.805
11
110.93
21
-96.505
0
LINE
8
BLACK
6
CONTINUOUS
10
110.93
20
-96.505
11
112.43
21
-96.505
0
LINE
8
BLACK
6
CONTINUOUS
10
112.43
20
-96.505
11
112.43
21
-97.805
0
LINE
8
BLACK
6
CONTINUOUS
10
129.84
20
-96.535
11
129.24
21
-96.535
0
LINE
8
BLACK
6
CONTINUOUS
10
129.24
20
-96.535
11
129.24
21
-95.235
0
LINE
8
BLACK
6
CONTINUOUS
10
129.24
20
-95.235
11
129.84
21
-95.235
0
LINE
8
BLACK
6
CONTINUOUS
10
129.84
20
-95.235
11
129.84
21
-96.535
0
LINE
8
BLACK
6
CONTINUOUS
10
122.22
20
-96.535
11
121.62
21
-96.535
0
LINE
8
BLACK
6
CONTINUOUS
10
121.62
20
-96.535
11
121.62
21
-95.235
0
LINE
8
BLACK
6
CONTINUOUS
10
121.62
20
-95.235
11
122.22
21
-95.235
0
LINE
8
BLACK
6
CONTINUOUS
10
122.22
20
-95.235
11
122.22
21
-96.535
0
LINE
8
BLACK
6
CONTINUOUS
10
123.49
20
-96.535
11
122.89
21
-96.535
0
LINE
8
BLACK
6
CONTINUOUS
10
122.89
20
-96.535
11
122.89
21
-95.235
0
LINE
8
BLACK
6
CONTINUOUS
10
122.89
20
-95.235
11
123.49
21
-95.235
0
LINE
8
BLACK
6
CONTINUOUS
10
123.49
20
-95.235
11
123.49
21
-96.535
0
LINE
8
BLACK
6
CONTINUOUS
10
124.76
20
-96.535
11
124.16
21
-96.535
0
LINE
8
BLACK
6
CONTINUOUS
10
124.16
20
-96.535
11
124.16
21
-95.235
0
LINE
8
BLACK
6
CONTINUOUS
10
124.16
20
-95.235
11
124.76
21
-95.235
0
LINE
8
BLACK
6
CONTINUOUS
10
124.76
20
-95.235
11
124.76
21
-96.535
0
LINE
8
BLACK
6
CONTINUOUS
10
126.03
20
-96.535
11
125.43
21
-96.535
0
LINE
8
BLACK
6
CONTINUOUS
10
125.43
20
-96.535
11
125.43
21
-95.235
0
LINE
8
BLACK
6
CONTINUOUS
10
125.43
20
-95.235
11
126.03
21
-95.235
0
LINE
8
BLACK
6
CONTINUOUS
10
126.03
20
-95.235
11
126.03
21
-96.535
0
LINE
8
BLACK
6
CONTINUOUS
10
127.3
20
-96.535
11
126.7
21
-96.535
0
LINE
8
BLACK
6
CONTINUOUS
10
126.7
20
-96.535
11
126.7
21
-95.235
0
LINE
8
BLACK
6
CONTINUOUS
10
126.7
20
-95.235
11
127.3
21
-95.235
0
LINE
8
BLACK
6
CONTINUOUS
10
127.3
20
-95.235
11
127.3
21
-96.535
0
LINE
8
BLACK
6
CONTINUOUS
10
128.57
20
-96.535
11
127.97
21
-96.535
0
LINE
8
BLACK
6
CONTINUOUS
10
127.97
20
-96.535
11
127.97
21
-95.235
0
LINE
8
BLACK
6
CONTINUOUS
10
127.97
20
-95.235
11
128.57
21
-95.235
0
LINE
8
BLACK
6
CONTINUOUS
10
128.57
20
-95.235
11
128.57
21
-96.535
0
LINE
8
BLACK
6
CONTINUOUS
10
131.11
20
-96.535
11
130.51
21
-96.535
0
LINE
8
BLACK
6
CONTINUOUS
10
130.51
20
-96.535
11
130.51
21
-95.235
0
LINE
8
BLACK
6
CONTINUOUS
10
130.51
20
-95.235
11
131.11
21
-95.235
0
LINE
8
BLACK
6
CONTINUOUS
10
131.11
20
-95.235
11
131.11
21
-96.535
0
LINE
8
BLACK
6
CONTINUOUS
10
192.07
20
-96.12
11
191.47
21
-96.12
0
LINE
8
BLACK
6
CONTINUOUS
10
191.47
20
-96.12
11
191.47
21
-94.82
0
LINE
8
BLACK
6
CONTINUOUS
10
191.47
20
-94.82
11
192.07
21
-94.82
0
LINE
8
BLACK
6
CONTINUOUS
10
192.07
20
-94.82
11
192.07
21
-96.12
0
LINE
8
BLACK
6
CONTINUOUS
10
190.8
20
-96.12
11
190.2
21
-96.12
0
LINE
8
BLACK
6
CONTINUOUS
10
190.2
20
-96.12
11
190.2
21
-94.82
0
LINE
8
BLACK
6
CONTINUOUS
10
190.2
20
-94.82
11
190.8
21
-94.82
0
LINE
8
BLACK
6
CONTINUOUS
10
190.8
20
-94.82
11
190.8
21
-96.12
0
LINE
8
BLACK
6
CONTINUOUS
10
189.53
20
-96.12
11
188.93
21
-96.12
0
LINE
8
BLACK
6
CONTINUOUS
10
188.93
20
-96.12
11
188.93
21
-94.82
0
LINE
8
BLACK
6
CONTINUOUS
10
188.93
20
-94.82
11
189.53
21
-94.82
0
LINE
8
BLACK
6
CONTINUOUS
10
189.53
20
-94.82
11
189.53
21
-96.12
0
LINE
8
BLACK
6
CONTINUOUS
10
183.18
20
-96.12
11
182.58
21
-96.12
0
LINE
8
BLACK
6
CONTINUOUS
10
182.58
20
-96.12
11
182.58
21
-94.82
0
LINE
8
BLACK
6
CONTINUOUS
10
182.58
20
-94.82
11
183.18
21
-94.82
0
LINE
8
BLACK
6
CONTINUOUS
10
183.18
20
-94.82
11
183.18
21
-96.12
0
LINE
8
BLACK
6
CONTINUOUS
10
184.45
20
-96.12
11
183.85
21
-96.12
0
LINE
8
BLACK
6
CONTINUOUS
10
183.85
20
-96.12
11
183.85
21
-94.82
0
LINE
8
BLACK
6
CONTINUOUS
10
183.85
20
-94.82
11
184.45
21
-94.82
0
LINE
8
BLACK
6
CONTINUOUS
10
184.45
20
-94.82
11
184.45
21
-96.12
0
LINE
8
BLACK
6
CONTINUOUS
10
185.72
20
-96.12
11
185.12
21
-96.12
0
LINE
8
BLACK
6
CONTINUOUS
10
185.12
20
-96.12
11
185.12
21
-94.82
0
LINE
8
BLACK
6
CONTINUOUS
10
185.12
20
-94.82
11
185.72
21
-94.82
0
LINE
8
BLACK
6
CONTINUOUS
10
185.72
20
-94.82
11
185.72
21
-96.12
0
LINE
8
BLACK
6
CONTINUOUS
10
186.99
20
-96.12
11
186.39
21
-96.12
0
LINE
8
BLACK
6
CONTINUOUS
10
186.39
20
-96.12
11
186.39
21
-94.82
0
LINE
8
BLACK
6
CONTINUOUS
10
186.39
20
-94.82
11
186.99
21
-94.82
0
LINE
8
BLACK
6
CONTINUOUS
10
186.99
20
-94.82
11
186.99
21
-96.12
0
LINE
8
BLACK
6
CONTINUOUS
10
188.26
20
-96.12
11
187.66
21
-96.12
0
LINE
8
BLACK
6
CONTINUOUS
10
187.66
20
-96.12
11
187.66
21
-94.82
0
LINE
8
BLACK
6
CONTINUOUS
10
187.66
20
-94.82
11
188.26
21
-94.82
0
LINE
8
BLACK
6
CONTINUOUS
10
188.26
20
-94.82
11
188.26
21
-96.12
0
LINE
8
BLACK
6
CONTINUOUS
10
204.411
20
-95.509
11
203.411
21
-95.509
0
LINE
8
BLACK
6
CONTINUOUS
10
203.411
20
-95.509
11
203.411
21
-94.409
0
LINE
8
BLACK
6
CONTINUOUS
10
203.411
20
-94.409
11
204.411
21
-94.409
0
LINE
8
BLACK
6
CONTINUOUS
10
204.411
20
-94.409
11
204.411
21
-95.509
0
LINE
8
BLACK
6
CONTINUOUS
10
202.611
20
-95.509
11
201.611
21
-95.509
0
LINE
8
BLACK
6
CONTINUOUS
10
201.611
20
-95.509
11
201.611
21
-94.409
0
LINE
8
BLACK
6
CONTINUOUS
10
201.611
20
-94.409
11
202.611
21
-94.409
0
LINE
8
BLACK
6
CONTINUOUS
10
202.611
20
-94.409
11
202.611
21
-95.509
0
LINE
8
BLACK
6
CONTINUOUS
10
112.412
20
-95.4063
11
111.412
21
-95.4063
0
LINE
8
BLACK
6
CONTINUOUS
10
111.412
20
-95.4063
11
111.412
21
-94.3063
0
LINE
8
BLACK
6
CONTINUOUS
10
111.412
20
-94.3063
11
112.412
21
-94.3063
0
LINE
8
BLACK
6
CONTINUOUS
10
112.412
20
-94.3063
11
112.412
21
-95.4063
0
LINE
8
BLACK
6
CONTINUOUS
10
110.612
20
-95.4063
11
109.612
21
-95.4063
0
LINE
8
BLACK
6
CONTINUOUS
10
109.612
20
-95.4063
11
109.612
21
-94.3063
0
LINE
8
BLACK
6
CONTINUOUS
10
109.612
20
-94.3063
11
110.612
21
-94.3063
0
LINE
8
BLACK
6
CONTINUOUS
10
110.612
20
-94.3063
11
110.612
21
-95.4063
0
LINE
8
BLACK
6
CONTINUOUS
10
204.411
20
-91.609
11
203.411
21
-91.609
0
LINE
8
BLACK
6
CONTINUOUS
10
203.411
20
-91.609
11
203.411
21
-90.509
0
LINE
8
BLACK
6
CONTINUOUS
10
203.411
20
-90.509
11
204.411
21
-90.509
0
LINE
8
BLACK
6
CONTINUOUS
10
204.411
20
-90.509
11
204.411
21
-91.609
0
LINE
8
BLACK
6
CONTINUOUS
10
202.611
20
-91.609
11
201.611
21
-91.609
0
LINE
8
BLACK
6
CONTINUOUS
10
201.611
20
-91.609
11
201.611
21
-90.509
0
LINE
8
BLACK
6
CONTINUOUS
10
201.611
20
-90.509
11
202.611
21
-90.509
0
LINE
8
BLACK
6
CONTINUOUS
10
202.611
20
-90.509
11
202.611
21
-91.609
0
LINE
8
BLACK
6
CONTINUOUS
10
110.612
20
-91.5063
11
109.612
21
-91.5063
0
LINE
8
BLACK
6
CONTINUOUS
10
109.612
20
-91.5063
11
109.612
21
-90.4063
0
LINE
8
BLACK
6
CONTINUOUS
10
109.612
20
-90.4063
11
110.612
21
-90.4063
0
LINE
8
BLACK
6
CONTINUOUS
10
110.612
20
-90.4063
11
110.612
21
-91.5063
0
LINE
8
BLACK
6
CONTINUOUS
10
112.412
20
-91.5063
11
111.412
21
-91.5063
0
LINE
8
BLACK
6
CONTINUOUS
10
111.412
20
-91.5063
11
111.412
21
-90.4063
0
LINE
8
BLACK
6
CONTINUOUS
10
111.412
20
-90.4063
11
112.412
21
-90.4063
0
LINE
8
BLACK
6
CONTINUOUS
10
112.412
20
-90.4063
11
112.412
21
-91.5063
0
LINE
8
BLACK
6
CONTINUOUS
10
131.11
20
-91.235
11
130.51
21
-91.235
0
LINE
8
BLACK
6
CONTINUOUS
10
130.51
20
-91.235
11
130.51
21
-89.935
0
LINE
8
BLACK
6
CONTINUOUS
10
130.51
20
-89.935
11
131.11
21
-89.935
0
LINE
8
BLACK
6
CONTINUOUS
10
131.11
20
-89.935
11
131.11
21
-91.235
0
LINE
8
BLACK
6
CONTINUOUS
10
129.84
20
-91.235
11
129.24
21
-91.235
0
LINE
8
BLACK
6
CONTINUOUS
10
129.24
20
-91.235
11
129.24
21
-89.935
0
LINE
8
BLACK
6
CONTINUOUS
10
129.24
20
-89.935
11
129.84
21
-89.935
0
LINE
8
BLACK
6
CONTINUOUS
10
129.84
20
-89.935
11
129.84
21
-91.235
0
LINE
8
BLACK
6
CONTINUOUS
10
128.57
20
-91.235
11
127.97
21
-91.235
0
LINE
8
BLACK
6
CONTINUOUS
10
127.97
20
-91.235
11
127.97
21
-89.935
0
LINE
8
BLACK
6
CONTINUOUS
10
127.97
20
-89.935
11
128.57
21
-89.935
0
LINE
8
BLACK
6
CONTINUOUS
10
128.57
20
-89.935
11
128.57
21
-91.235
0
LINE
8
BLACK
6
CONTINUOUS
10
127.3
20
-91.235
11
126.7
21
-91.235
0
LINE
8
BLACK
6
CONTINUOUS
10
126.7
20
-91.235
11
126.7
21
-89.935
0
LINE
8
BLACK
6
CONTINUOUS
10
126.7
20
-89.935
11
127.3
21
-89.935
0
LINE
8
BLACK
6
CONTINUOUS
10
127.3
20
-89.935
11
127.3
21
-91.235
0
LINE
8
BLACK
6
CONTINUOUS
10
126.03
20
-91.235
11
125.43
21
-91.235
0
LINE
8
BLACK
6
CONTINUOUS
10
125.43
20
-91.235
11
125.43
21
-89.935
0
LINE
8
BLACK
6
CONTINUOUS
10
125.43
20
-89.935
11
126.03
21
-89.935
0
LINE
8
BLACK
6
CONTINUOUS
10
126.03
20
-89.935
11
126.03
21
-91.235
0
LINE
8
BLACK
6
CONTINUOUS
10
124.76
20
-91.235
11
124.16
21
-91.235
0
LINE
8
BLACK
6
CONTINUOUS
10
124.16
20
-91.235
11
124.16
21
-89.935
0
LINE
8
BLACK
6
CONTINUOUS
10
124.16
20
-89.935
11
124.76
21
-89.935
0
LINE
8
BLACK
6
CONTINUOUS
10
124.76
20
-89.935
11
124.76
21
-91.235
0
LINE
8
BLACK
6
CONTINUOUS
10
123.49
20
-91.235
11
122.89
21
-91.235
0
LINE
8
BLACK
6
CONTINUOUS
10
122.89
20
-91.235
11
122.89
21
-89.935
0
LINE
8
BLACK
6
CONTINUOUS
10
122.89
20
-89.935
11
123.49
21
-89.935
0
LINE
8
BLACK
6
CONTINUOUS
10
123.49
20
-89.935
11
123.49
21
-91.235
0
LINE
8
BLACK
6
CONTINUOUS
10
122.22
20
-91.235
11
121.62
21
-91.235
0
LINE
8
BLACK
6
CONTINUOUS
10
121.62
20
-91.235
11
121.62
21
-89.935
0
LINE
8
BLACK
6
CONTINUOUS
10
121.62
20
-89.935
11
122.22
21
-89.935
0
LINE
8
BLACK
6
CONTINUOUS
10
122.22
20
-89.935
11
122.22
21
-91.235
0
LINE
8
BLACK
6
CONTINUOUS
10
184.45
20
-90.82
11
183.85
21
-90.82
0
LINE
8
BLACK
6
CONTINUOUS
10
183.85
20
-90.82
11
183.85
21
-89.52
0
LINE
8
BLACK
6
CONTINUOUS
10
183.85
20
-89.52
11
184.45
21
-89.52
0
LINE
8
BLACK
6
CONTINUOUS
10
184.45
20
-89.52
11
184.45
21
-90.82
0
LINE
8
BLACK
6
CONTINUOUS
10
183.18
20
-90.82
11
182.58
21
-90.82
0
LINE
8
BLACK
6
CONTINUOUS
10
182.58
20
-90.82
11
182.58
21
-89.52
0
LINE
8
BLACK
6
CONTINUOUS
10
182.58
20
-89.52
11
183.18
21
-89.52
0
LINE
8
BLACK
6
CONTINUOUS
10
183.18
20
-89.52
11
183.18
21
-90.82
0
LINE
8
BLACK
6
CONTINUOUS
10
185.72
20
-90.82
11
185.12
21
-90.82
0
LINE
8
BLACK
6
CONTINUOUS
10
185.12
20
-90.82
11
185.12
21
-89.52
0
LINE
8
BLACK
6
CONTINUOUS
10
185.12
20
-89.52
11
185.72
21
-89.52
0
LINE
8
BLACK
6
CONTINUOUS
10
185.72
20
-89.52
11
185.72
21
-90.82
0
LINE
8
BLACK
6
CONTINUOUS
10
186.99
20
-90.82
11
186.39
21
-90.82
0
LINE
8
BLACK
6
CONTINUOUS
10
186.39
20
-90.82
11
186.39
21
-89.52
0
LINE
8
BLACK
6
CONTINUOUS
10
186.39
20
-89.52
11
186.99
21
-89.52
0
LINE
8
BLACK
6
CONTINUOUS
10
186.99
20
-89.52
11
186.99
21
-90.82
0
LINE
8
BLACK
6
CONTINUOUS
10
188.26
20
-90.82
11
187.66
21
-90.82
0
LINE
8
BLACK
6
CONTINUOUS
10
187.66
20
-90.82
11
187.66
21
-89.52
0
LINE
8
BLACK
6
CONTINUOUS
10
187.66
20
-89.52
11
188.26
21
-89.52
0
LINE
8
BLACK
6
CONTINUOUS
10
188.26
20
-89.52
11
188.26
21
-90.82
0
LINE
8
BLACK
6
CONTINUOUS
10
189.53
20
-90.82
11
188.93
21
-90.82
0
LINE
8
BLACK
6
CONTINUOUS
10
188.93
20
-90.82
11
188.93
21
-89.52
0
LINE
8
BLACK
6
CONTINUOUS
10
188.93
20
-89.52
11
189.53
21
-89.52
0
LINE
8
BLACK
6
CONTINUOUS
10
189.53
20
-89.52
11
189.53
21
-90.82
0
LINE
8
BLACK
6
CONTINUOUS
10
190.8
20
-90.82
11
190.2
21
-90.82
0
LINE
8
BLACK
6
CONTINUOUS
10
190.2
20
-90.82
11
190.2
21
-89.52
0
LINE
8
BLACK
6
CONTINUOUS
10
190.2
20
-89.52
11
190.8
21
-89.52
0
LINE
8
BLACK
6
CONTINUOUS
10
190.8
20
-89.52
11
190.8
21
-90.82
0
LINE
8
BLACK
6
CONTINUOUS
10
192.07
20
-90.82
11
191.47
21
-90.82
0
LINE
8
BLACK
6
CONTINUOUS
10
191.47
20
-90.82
11
191.47
21
-89.52
0
LINE
8
BLACK
6
CONTINUOUS
10
191.47
20
-89.52
11
192.07
21
-89.52
0
LINE
8
BLACK
6
CONTINUOUS
10
192.07
20
-89.52
11
192.07
21
-90.82
0
LINE
8
BLACK
6
CONTINUOUS
10
199.842
20
-88.9963
11
198.342
21
-88.9963
0
LINE
8
BLACK
6
CONTINUOUS
10
198.342
20
-88.9963
11
198.342
21
-87.6963
0
LINE
8
BLACK
6
CONTINUOUS
10
198.342
20
-87.6963
11
199.842
21
-87.6963
0
LINE
8
BLACK
6
CONTINUOUS
10
199.842
20
-87.6963
11
199.842
21
-88.9963
0
LINE
8
BLACK
6
CONTINUOUS
10
202.542
20
-88.9963
11
201.042
21
-88.9963
0
LINE
8
BLACK
6
CONTINUOUS
10
201.042
20
-88.9963
11
201.042
21
-87.6963
0
LINE
8
BLACK
6
CONTINUOUS
10
201.042
20
-87.6963
11
202.542
21
-87.6963
0
LINE
8
BLACK
6
CONTINUOUS
10
202.542
20
-87.6963
11
202.542
21
-88.9963
0
LINE
8
BLACK
6
CONTINUOUS
10
193.76
20
-88.285
11
192.26
21
-88.285
0
LINE
8
BLACK
6
CONTINUOUS
10
192.26
20
-88.285
11
192.26
21
-87.035
0
LINE
8
BLACK
6
CONTINUOUS
10
192.26
20
-87.035
11
193.76
21
-87.035
0
LINE
8
BLACK
6
CONTINUOUS
10
193.76
20
-87.035
11
193.76
21
-88.285
0
LINE
8
BLACK
6
CONTINUOUS
10
191.26
20
-88.285
11
189.76
21
-88.285
0
LINE
8
BLACK
6
CONTINUOUS
10
189.76
20
-88.285
11
189.76
21
-87.035
0
LINE
8
BLACK
6
CONTINUOUS
10
189.76
20
-87.035
11
191.26
21
-87.035
0
LINE
8
BLACK
6
CONTINUOUS
10
191.26
20
-87.035
11
191.26
21
-88.285
0
LINE
8
BLACK
6
CONTINUOUS
10
119.522
20
-86.1486
11
118.222
21
-86.1486
0
LINE
8
BLACK
6
CONTINUOUS
10
118.222
20
-86.1486
11
118.222
21
-84.6486
0
LINE
8
BLACK
6
CONTINUOUS
10
118.222
20
-84.6486
11
119.522
21
-84.6486
0
LINE
8
BLACK
6
CONTINUOUS
10
119.522
20
-84.6486
11
119.522
21
-86.1486
0
LINE
8
BLACK
6
CONTINUOUS
10
196.258
20
-86.0038
11
194.958
21
-86.0038
0
LINE
8
BLACK
6
CONTINUOUS
10
194.958
20
-86.0038
11
194.958
21
-84.5038
0
LINE
8
BLACK
6
CONTINUOUS
10
194.958
20
-84.5038
11
196.258
21
-84.5038
0
LINE
8
BLACK
6
CONTINUOUS
10
196.258
20
-84.5038
11
196.258
21
-86.0038
0
LINE
8
BLACK
6
CONTINUOUS
10
182.22
20
-85.91
11
181
21
-85.91
0
LINE
8
BLACK
6
CONTINUOUS
10
181
20
-85.91
11
181
21
-85
0
LINE
8
BLACK
6
CONTINUOUS
10
181
20
-85
11
182.22
21
-85
0
LINE
8
BLACK
6
CONTINUOUS
10
182.22
20
-85
11
182.22
21
-85.91
0
LINE
8
BLACK
6
CONTINUOUS
10
119.522
20
-83.4486
11
118.222
21
-83.4486
0
LINE
8
BLACK
6
CONTINUOUS
10
118.222
20
-83.4486
11
118.222
21
-81.9486
0
LINE
8
BLACK
6
CONTINUOUS
10
118.222
20
-81.9486
11
119.522
21
-81.9486
0
LINE
8
BLACK
6
CONTINUOUS
10
119.522
20
-81.9486
11
119.522
21
-83.4486
0
LINE
8
BLACK
6
CONTINUOUS
10
196.258
20
-83.3038
11
194.958
21
-83.3038
0
LINE
8
BLACK
6
CONTINUOUS
10
194.958
20
-83.3038
11
194.958
21
-81.8038
0
LINE
8
BLACK
6
CONTINUOUS
10
194.958
20
-81.8038
11
196.258
21
-81.8038
0
LINE
8
BLACK
6
CONTINUOUS
10
196.258
20
-81.8038
11
196.258
21
-83.3038
0
LINE
8
BLACK
6
CONTINUOUS
10
182.22
20
-82.64
11
181
21
-82.64
0
LINE
8
BLACK
6
CONTINUOUS
10
181
20
-82.64
11
181
21
-81.73
0
LINE
8
BLACK
6
CONTINUOUS
10
181
20
-81.73
11
182.22
21
-81.73
0
LINE
8
BLACK
6
CONTINUOUS
10
182.22
20
-81.73
11
182.22
21
-82.64
0
LINE
8
BLACK
6
CONTINUOUS
10
115.402
20
-80.7108
11
113.902
21
-80.7108
0
LINE
8
BLACK
6
CONTINUOUS
10
113.902
20
-80.7108
11
113.902
21
-79.4108
0
LINE
8
BLACK
6
CONTINUOUS
10
113.902
20
-79.4108
11
115.402
21
-79.4108
0
LINE
8
BLACK
6
CONTINUOUS
10
115.402
20
-79.4108
11
115.402
21
-80.7108
0
LINE
8
BLACK
6
CONTINUOUS
10
118.102
20
-80.7108
11
116.602
21
-80.7108
0
LINE
8
BLACK
6
CONTINUOUS
10
116.602
20
-80.7108
11
116.602
21
-79.4108
0
LINE
8
BLACK
6
CONTINUOUS
10
116.602
20
-79.4108
11
118.102
21
-79.4108
0
LINE
8
BLACK
6
CONTINUOUS
10
118.102
20
-79.4108
11
118.102
21
-80.7108
0
LINE
8
BLACK
6
CONTINUOUS
10
155.69
20
-77.841
11
154.19
21
-77.841
0
LINE
8
BLACK
6
CONTINUOUS
10
154.19
20
-77.841
11
154.19
21
-76.591
0
LINE
8
BLACK
6
CONTINUOUS
10
154.19
20
-76.591
11
155.69
21
-76.591
0
LINE
8
BLACK
6
CONTINUOUS
10
155.69
20
-76.591
11
155.69
21
-77.841
0
LINE
8
BLACK
6
CONTINUOUS
10
153.19
20
-77.841
11
151.69
21
-77.841
0
LINE
8
BLACK
6
CONTINUOUS
10
151.69
20
-77.841
11
151.69
21
-76.591
0
LINE
8
BLACK
6
CONTINUOUS
10
151.69
20
-76.591
11
153.19
21
-76.591
0
LINE
8
BLACK
6
CONTINUOUS
10
153.19
20
-76.591
11
153.19
21
-77.841
0
LINE
8
BLACK
6
CONTINUOUS
10
168.68
20
-77.83
11
167.38
21
-77.83
0
LINE
8
BLACK
6
CONTINUOUS
10
167.38
20
-77.83
11
167.38
21
-76.33
0
LINE
8
BLACK
6
CONTINUOUS
10
167.38
20
-76.33
11
168.68
21
-76.33
0
LINE
8
BLACK
6
CONTINUOUS
10
168.68
20
-76.33
11
168.68
21
-77.83
0
LINE
8
BLACK
6
CONTINUOUS
10
198.573
20
-76.6495
11
197.573
21
-76.6495
0
LINE
8
BLACK
6
CONTINUOUS
10
197.573
20
-76.6495
11
197.573
21
-75.5495
0
LINE
8
BLACK
6
CONTINUOUS
10
197.573
20
-75.5495
11
198.573
21
-75.5495
0
LINE
8
BLACK
6
CONTINUOUS
10
198.573
20
-75.5495
11
198.573
21
-76.6495
0
LINE
8
BLACK
6
CONTINUOUS
10
200.373
20
-76.6495
11
199.373
21
-76.6495
0
LINE
8
BLACK
6
CONTINUOUS
10
199.373
20
-76.6495
11
199.373
21
-75.5495
0
LINE
8
BLACK
6
CONTINUOUS
10
199.373
20
-75.5495
11
200.373
21
-75.5495
0
LINE
8
BLACK
6
CONTINUOUS
10
200.373
20
-75.5495
11
200.373
21
-76.6495
0
LINE
8
BLACK
6
CONTINUOUS
10
116.491
20
-76.435
11
115.491
21
-76.435
0
LINE
8
BLACK
6
CONTINUOUS
10
115.491
20
-76.435
11
115.491
21
-75.335
0
LINE
8
BLACK
6
CONTINUOUS
10
115.491
20
-75.335
11
116.491
21
-75.335
0
LINE
8
BLACK
6
CONTINUOUS
10
116.491
20
-75.335
11
116.491
21
-76.435
0
LINE
8
BLACK
6
CONTINUOUS
10
114.691
20
-76.435
11
113.691
21
-76.435
0
LINE
8
BLACK
6
CONTINUOUS
10
113.691
20
-76.435
11
113.691
21
-75.335
0
LINE
8
BLACK
6
CONTINUOUS
10
113.691
20
-75.335
11
114.691
21
-75.335
0
LINE
8
BLACK
6
CONTINUOUS
10
114.691
20
-75.335
11
114.691
21
-76.435
0
LINE
8
BLACK
6
CONTINUOUS
10
151.9
20
-75.301
11
150.4
21
-75.301
0
LINE
8
BLACK
6
CONTINUOUS
10
150.4
20
-75.301
11
150.4
21
-74.051
0
LINE
8
BLACK
6
CONTINUOUS
10
150.4
20
-74.051
11
151.9
21
-74.051
0
LINE
8
BLACK
6
CONTINUOUS
10
151.9
20
-74.051
11
151.9
21
-75.301
0
LINE
8
BLACK
6
CONTINUOUS
10
154.4
20
-75.301
11
152.9
21
-75.301
0
LINE
8
BLACK
6
CONTINUOUS
10
152.9
20
-75.301
11
152.9
21
-74.051
0
LINE
8
BLACK
6
CONTINUOUS
10
152.9
20
-74.051
11
154.4
21
-74.051
0
LINE
8
BLACK
6
CONTINUOUS
10
154.4
20
-74.051
11
154.4
21
-75.301
0
LINE
8
BLACK
6
CONTINUOUS
10
168.68
20
-75.13
11
167.38
21
-75.13
0
LINE
8
BLACK
6
CONTINUOUS
10
167.38
20
-75.13
11
167.38
21
-73.63
0
LINE
8
BLACK
6
CONTINUOUS
10
167.38
20
-73.63
11
168.68
21
-73.63
0
LINE
8
BLACK
6
CONTINUOUS
10
168.68
20
-73.63
11
168.68
21
-75.13
0
LINE
8
BLACK
6
CONTINUOUS
10
191.15
20
-75.05
11
189.85
21
-75.05
0
LINE
8
BLACK
6
CONTINUOUS
10
189.85
20
-75.05
11
189.85
21
-73.55
0
LINE
8
BLACK
6
CONTINUOUS
10
189.85
20
-73.55
11
191.15
21
-73.55
0
LINE
8
BLACK
6
CONTINUOUS
10
191.15
20
-73.55
11
191.15
21
-75.05
0
LINE
8
BLACK
6
CONTINUOUS
10
120.538
20
-74.744
11
119.238
21
-74.744
0
LINE
8
BLACK
6
CONTINUOUS
10
119.238
20
-74.744
11
119.238
21
-73.244
0
LINE
8
BLACK
6
CONTINUOUS
10
119.238
20
-73.244
11
120.538
21
-73.244
0
LINE
8
BLACK
6
CONTINUOUS
10
120.538
20
-73.244
11
120.538
21
-74.744
0
LINE
8
BLACK
6
CONTINUOUS
10
140.35
20
-73.728
11
139.05
21
-73.728
0
LINE
8
BLACK
6
CONTINUOUS
10
139.05
20
-73.728
11
139.05
21
-72.228
0
LINE
8
BLACK
6
CONTINUOUS
10
139.05
20
-72.228
11
140.35
21
-72.228
0
LINE
8
BLACK
6
CONTINUOUS
10
140.35
20
-72.228
11
140.35
21
-73.728
0
LINE
8
BLACK
6
CONTINUOUS
10
200.373
20
-72.7495
11
199.373
21
-72.7495
0
LINE
8
BLACK
6
CONTINUOUS
10
199.373
20
-72.7495
11
199.373
21
-71.6495
0
LINE
8
BLACK
6
CONTINUOUS
10
199.373
20
-71.6495
11
200.373
21
-71.6495
0
LINE
8
BLACK
6
CONTINUOUS
10
200.373
20
-71.6495
11
200.373
21
-72.7495
0
LINE
8
BLACK
6
CONTINUOUS
10
198.573
20
-72.7495
11
197.573
21
-72.7495
0
LINE
8
BLACK
6
CONTINUOUS
10
197.573
20
-72.7495
11
197.573
21
-71.6495
0
LINE
8
BLACK
6
CONTINUOUS
10
197.573
20
-71.6495
11
198.573
21
-71.6495
0
LINE
8
BLACK
6
CONTINUOUS
10
198.573
20
-71.6495
11
198.573
21
-72.7495
0
LINE
8
BLACK
6
CONTINUOUS
10
116.491
20
-72.535
11
115.491
21
-72.535
0
LINE
8
BLACK
6
CONTINUOUS
10
115.491
20
-72.535
11
115.491
21
-71.435
0
LINE
8
BLACK
6
CONTINUOUS
10
115.491
20
-71.435
11
116.491
21
-71.435
0
LINE
8
BLACK
6
CONTINUOUS
10
116.491
20
-71.435
11
116.491
21
-72.535
0
LINE
8
BLACK
6
CONTINUOUS
10
114.691
20
-72.535
11
113.691
21
-72.535
0
LINE
8
BLACK
6
CONTINUOUS
10
113.691
20
-72.535
11
113.691
21
-71.435
0
LINE
8
BLACK
6
CONTINUOUS
10
113.691
20
-71.435
11
114.691
21
-71.435
0
LINE
8
BLACK
6
CONTINUOUS
10
114.691
20
-71.435
11
114.691
21
-72.535
0
LINE
8
BLACK
6
CONTINUOUS
10
155.475
20
-72.36
11
154.925
21
-72.36
0
LINE
8
BLACK
6
CONTINUOUS
10
154.925
20
-72.36
11
154.925
21
-70.76
0
LINE
8
BLACK
6
CONTINUOUS
10
154.925
20
-70.76
11
155.475
21
-70.76
0
LINE
8
BLACK
6
CONTINUOUS
10
155.475
20
-70.76
11
155.475
21
-72.36
0
LINE
8
BLACK
6
CONTINUOUS
10
154.675
20
-72.36
11
154.125
21
-72.36
0
LINE
8
BLACK
6
CONTINUOUS
10
154.125
20
-72.36
11
154.125
21
-70.76
0
LINE
8
BLACK
6
CONTINUOUS
10
154.125
20
-70.76
11
154.675
21
-70.76
0
LINE
8
BLACK
6
CONTINUOUS
10
154.675
20
-70.76
11
154.675
21
-72.36
0
LINE
8
BLACK
6
CONTINUOUS
10
153.875
20
-72.36
11
153.325
21
-72.36
0
LINE
8
BLACK
6
CONTINUOUS
10
153.325
20
-72.36
11
153.325
21
-70.76
0
LINE
8
BLACK
6
CONTINUOUS
10
153.325
20
-70.76
11
153.875
21
-70.76
0
LINE
8
BLACK
6
CONTINUOUS
10
153.875
20
-70.76
11
153.875
21
-72.36
0
LINE
8
BLACK
6
CONTINUOUS
10
149.875
20
-72.36
11
149.325
21
-72.36
0
LINE
8
BLACK
6
CONTINUOUS
10
149.325
20
-72.36
11
149.325
21
-70.76
0
LINE
8
BLACK
6
CONTINUOUS
10
149.325
20
-70.76
11
149.875
21
-70.76
0
LINE
8
BLACK
6
CONTINUOUS
10
149.875
20
-70.76
11
149.875
21
-72.36
0
LINE
8
BLACK
6
CONTINUOUS
10
150.675
20
-72.36
11
150.125
21
-72.36
0
LINE
8
BLACK
6
CONTINUOUS
10
150.125
20
-72.36
11
150.125
21
-70.76
0
LINE
8
BLACK
6
CONTINUOUS
10
150.125
20
-70.76
11
150.675
21
-70.76
0
LINE
8
BLACK
6
CONTINUOUS
10
150.675
20
-70.76
11
150.675
21
-72.36
0
LINE
8
BLACK
6
CONTINUOUS
10
151.475
20
-72.36
11
150.925
21
-72.36
0
LINE
8
BLACK
6
CONTINUOUS
10
150.925
20
-72.36
11
150.925
21
-70.76
0
LINE
8
BLACK
6
CONTINUOUS
10
150.925
20
-70.76
11
151.475
21
-70.76
0
LINE
8
BLACK
6
CONTINUOUS
10
151.475
20
-70.76
11
151.475
21
-72.36
0
LINE
8
BLACK
6
CONTINUOUS
10
152.275
20
-72.36
11
151.725
21
-72.36
0
LINE
8
BLACK
6
CONTINUOUS
10
151.725
20
-72.36
11
151.725
21
-70.76
0
LINE
8
BLACK
6
CONTINUOUS
10
151.725
20
-70.76
11
152.275
21
-70.76
0
LINE
8
BLACK
6
CONTINUOUS
10
152.275
20
-70.76
11
152.275
21
-72.36
0
LINE
8
BLACK
6
CONTINUOUS
10
153.075
20
-72.36
11
152.525
21
-72.36
0
LINE
8
BLACK
6
CONTINUOUS
10
152.525
20
-72.36
11
152.525
21
-70.76
0
LINE
8
BLACK
6
CONTINUOUS
10
152.525
20
-70.76
11
153.075
21
-70.76
0
LINE
8
BLACK
6
CONTINUOUS
10
153.075
20
-70.76
11
153.075
21
-72.36
0
LINE
8
BLACK
6
CONTINUOUS
10
191.15
20
-72.35
11
189.85
21
-72.35
0
LINE
8
BLACK
6
CONTINUOUS
10
189.85
20
-72.35
11
189.85
21
-70.85
0
LINE
8
BLACK
6
CONTINUOUS
10
189.85
20
-70.85
11
191.15
21
-70.85
0
LINE
8
BLACK
6
CONTINUOUS
10
191.15
20
-70.85
11
191.15
21
-72.35
0
LINE
8
BLACK
6
CONTINUOUS
10
120.538
20
-72.044
11
119.238
21
-72.044
0
LINE
8
BLACK
6
CONTINUOUS
10
119.238
20
-72.044
11
119.238
21
-70.544
0
LINE
8
BLACK
6
CONTINUOUS
10
119.238
20
-70.544
11
120.538
21
-70.544
0
LINE
8
BLACK
6
CONTINUOUS
10
120.538
20
-70.544
11
120.538
21
-72.044
0
LINE
8
BLACK
6
CONTINUOUS
10
140.35
20
-71.028
11
139.05
21
-71.028
0
LINE
8
BLACK
6
CONTINUOUS
10
139.05
20
-71.028
11
139.05
21
-69.528
0
LINE
8
BLACK
6
CONTINUOUS
10
139.05
20
-69.528
11
140.35
21
-69.528
0
LINE
8
BLACK
6
CONTINUOUS
10
140.35
20
-69.528
11
140.35
21
-71.028
0
LINE
8
BLACK
6
CONTINUOUS
10
196.143
20
-71.0207
11
194.643
21
-71.0207
0
LINE
8
BLACK
6
CONTINUOUS
10
194.643
20
-71.0207
11
194.643
21
-69.7207
0
LINE
8
BLACK
6
CONTINUOUS
10
194.643
20
-69.7207
11
196.143
21
-69.7207
0
LINE
8
BLACK
6
CONTINUOUS
10
196.143
20
-69.7207
11
196.143
21
-71.0207
0
LINE
8
BLACK
6
CONTINUOUS
10
193.443
20
-71.0207
11
191.943
21
-71.0207
0
LINE
8
BLACK
6
CONTINUOUS
10
191.943
20
-71.0207
11
191.943
21
-69.7207
0
LINE
8
BLACK
6
CONTINUOUS
10
191.943
20
-69.7207
11
193.443
21
-69.7207
0
LINE
8
BLACK
6
CONTINUOUS
10
193.443
20
-69.7207
11
193.443
21
-71.0207
0
LINE
8
BLACK
6
CONTINUOUS
10
148.95
20
-70.385
11
147.35
21
-70.385
0
LINE
8
BLACK
6
CONTINUOUS
10
147.35
20
-70.385
11
147.35
21
-69.835
0
LINE
8
BLACK
6
CONTINUOUS
10
147.35
20
-69.835
11
148.95
21
-69.835
0
LINE
8
BLACK
6
CONTINUOUS
10
148.95
20
-69.835
11
148.95
21
-70.385
0
LINE
8
BLACK
6
CONTINUOUS
10
157.45
20
-70.385
11
155.85
21
-70.385
0
LINE
8
BLACK
6
CONTINUOUS
10
155.85
20
-70.385
11
155.85
21
-69.835
0
LINE
8
BLACK
6
CONTINUOUS
10
155.85
20
-69.835
11
157.45
21
-69.835
0
LINE
8
BLACK
6
CONTINUOUS
10
157.45
20
-69.835
11
157.45
21
-70.385
0
LINE
8
BLACK
6
CONTINUOUS
10
124.475
20
-70.045
11
123.175
21
-70.045
0
LINE
8
BLACK
6
CONTINUOUS
10
123.175
20
-70.045
11
123.175
21
-68.545
0
LINE
8
BLACK
6
CONTINUOUS
10
123.175
20
-68.545
11
124.475
21
-68.545
0
LINE
8
BLACK
6
CONTINUOUS
10
124.475
20
-68.545
11
124.475
21
-70.045
0
LINE
8
BLACK
6
CONTINUOUS
10
143.672
20
-69.738
11
142.172
21
-69.738
0
LINE
8
BLACK
6
CONTINUOUS
10
142.172
20
-69.738
11
142.172
21
-68.438
0
LINE
8
BLACK
6
CONTINUOUS
10
142.172
20
-68.438
11
143.672
21
-68.438
0
LINE
8
BLACK
6
CONTINUOUS
10
143.672
20
-68.438
11
143.672
21
-69.738
0
LINE
8
BLACK
6
CONTINUOUS
10
146.372
20
-69.738
11
144.872
21
-69.738
0
LINE
8
BLACK
6
CONTINUOUS
10
144.872
20
-69.738
11
144.872
21
-68.438
0
LINE
8
BLACK
6
CONTINUOUS
10
144.872
20
-68.438
11
146.372
21
-68.438
0
LINE
8
BLACK
6
CONTINUOUS
10
146.372
20
-68.438
11
146.372
21
-69.738
0
LINE
8
BLACK
6
CONTINUOUS
10
148.95
20
-69.585
11
147.35
21
-69.585
0
LINE
8
BLACK
6
CONTINUOUS
10
147.35
20
-69.585
11
147.35
21
-69.035
0
LINE
8
BLACK
6
CONTINUOUS
10
147.35
20
-69.035
11
148.95
21
-69.035
0
LINE
8
BLACK
6
CONTINUOUS
10
148.95
20
-69.035
11
148.95
21
-69.585
0
LINE
8
BLACK
6
CONTINUOUS
10
157.45
20
-69.585
11
155.85
21
-69.585
0
LINE
8
BLACK
6
CONTINUOUS
10
155.85
20
-69.585
11
155.85
21
-69.035
0
LINE
8
BLACK
6
CONTINUOUS
10
155.85
20
-69.035
11
157.45
21
-69.035
0
LINE
8
BLACK
6
CONTINUOUS
10
157.45
20
-69.035
11
157.45
21
-69.585
0
LINE
8
BLACK
6
CONTINUOUS
10
148.95
20
-68.785
11
147.35
21
-68.785
0
LINE
8
BLACK
6
CONTINUOUS
10
147.35
20
-68.785
11
147.35
21
-68.235
0
LINE
8
BLACK
6
CONTINUOUS
10
147.35
20
-68.235
11
148.95
21
-68.235
0
LINE
8
BLACK
6
CONTINUOUS
10
148.95
20
-68.235
11
148.95
21
-68.785
0
LINE
8
BLACK
6
CONTINUOUS
10
157.45
20
-68.785
11
155.85
21
-68.785
0
LINE
8
BLACK
6
CONTINUOUS
10
155.85
20
-68.785
11
155.85
21
-68.235
0
LINE
8
BLACK
6
CONTINUOUS
10
155.85
20
-68.235
11
157.45
21
-68.235
0
LINE
8
BLACK
6
CONTINUOUS
10
157.45
20
-68.235
11
157.45
21
-68.785
0
LINE
8
BLACK
6
CONTINUOUS
10
140.858
20
-68.648
11
139.558
21
-68.648
0
LINE
8
BLACK
6
CONTINUOUS
10
139.558
20
-68.648
11
139.558
21
-67.148
0
LINE
8
BLACK
6
CONTINUOUS
10
139.558
20
-67.148
11
140.858
21
-67.148
0
LINE
8
BLACK
6
CONTINUOUS
10
140.858
20
-67.148
11
140.858
21
-68.648
0
LINE
8
BLACK
6
CONTINUOUS
10
148.95
20
-67.985
11
147.35
21
-67.985
0
LINE
8
BLACK
6
CONTINUOUS
10
147.35
20
-67.985
11
147.35
21
-67.435
0
LINE
8
BLACK
6
CONTINUOUS
10
147.35
20
-67.435
11
148.95
21
-67.435
0
LINE
8
BLACK
6
CONTINUOUS
10
148.95
20
-67.435
11
148.95
21
-67.985
0
LINE
8
BLACK
6
CONTINUOUS
10
157.45
20
-67.985
11
155.85
21
-67.985
0
LINE
8
BLACK
6
CONTINUOUS
10
155.85
20
-67.985
11
155.85
21
-67.435
0
LINE
8
BLACK
6
CONTINUOUS
10
155.85
20
-67.435
11
157.45
21
-67.435
0
LINE
8
BLACK
6
CONTINUOUS
10
157.45
20
-67.435
11
157.45
21
-67.985
0
LINE
8
BLACK
6
CONTINUOUS
10
124.475
20
-67.345
11
123.175
21
-67.345
0
LINE
8
BLACK
6
CONTINUOUS
10
123.175
20
-67.345
11
123.175
21
-65.845
0
LINE
8
BLACK
6
CONTINUOUS
10
123.175
20
-65.845
11
124.475
21
-65.845
0
LINE
8
BLACK
6
CONTINUOUS
10
124.475
20
-65.845
11
124.475
21
-67.345
0
LINE
8
BLACK
6
CONTINUOUS
10
146.372
20
-67.198
11
144.872
21
-67.198
0
LINE
8
BLACK
6
CONTINUOUS
10
144.872
20
-67.198
11
144.872
21
-65.898
0
LINE
8
BLACK
6
CONTINUOUS
10
144.872
20
-65.898
11
146.372
21
-65.898
0
LINE
8
BLACK
6
CONTINUOUS
10
146.372
20
-65.898
11
146.372
21
-67.198
0
LINE
8
BLACK
6
CONTINUOUS
10
143.672
20
-67.198
11
142.172
21
-67.198
0
LINE
8
BLACK
6
CONTINUOUS
10
142.172
20
-67.198
11
142.172
21
-65.898
0
LINE
8
BLACK
6
CONTINUOUS
10
142.172
20
-65.898
11
143.672
21
-65.898
0
LINE
8
BLACK
6
CONTINUOUS
10
143.672
20
-65.898
11
143.672
21
-67.198
0
LINE
8
BLACK
6
CONTINUOUS
10
148.95
20
-67.185
11
147.35
21
-67.185
0
LINE
8
BLACK
6
CONTINUOUS
10
147.35
20
-67.185
11
147.35
21
-66.635
0
LINE
8
BLACK
6
CONTINUOUS
10
147.35
20
-66.635
11
148.95
21
-66.635
0
LINE
8
BLACK
6
CONTINUOUS
10
148.95
20
-66.635
11
148.95
21
-67.185
0
LINE
8
BLACK
6
CONTINUOUS
10
157.45
20
-67.185
11
155.85
21
-67.185
0
LINE
8
BLACK
6
CONTINUOUS
10
155.85
20
-67.185
11
155.85
21
-66.635
0
LINE
8
BLACK
6
CONTINUOUS
10
155.85
20
-66.635
11
157.45
21
-66.635
0
LINE
8
BLACK
6
CONTINUOUS
10
157.45
20
-66.635
11
157.45
21
-67.185
0
LINE
8
BLACK
6
CONTINUOUS
10
148.95
20
-66.385
11
147.35
21
-66.385
0
LINE
8
BLACK
6
CONTINUOUS
10
147.35
20
-66.385
11
147.35
21
-65.835
0
LINE
8
BLACK
6
CONTINUOUS
10
147.35
20
-65.835
11
148.95
21
-65.835
0
LINE
8
BLACK
6
CONTINUOUS
10
148.95
20
-65.835
11
148.95
21
-66.385
0
LINE
8
BLACK
6
CONTINUOUS
10
157.45
20
-66.385
11
155.85
21
-66.385
0
LINE
8
BLACK
6
CONTINUOUS
10
155.85
20
-66.385
11
155.85
21
-65.835
0
LINE
8
BLACK
6
CONTINUOUS
10
155.85
20
-65.835
11
157.45
21
-65.835
0
LINE
8
BLACK
6
CONTINUOUS
10
157.45
20
-65.835
11
157.45
21
-66.385
0
LINE
8
BLACK
6
CONTINUOUS
10
140.858
20
-65.948
11
139.558
21
-65.948
0
LINE
8
BLACK
6
CONTINUOUS
10
139.558
20
-65.948
11
139.558
21
-64.448
0
LINE
8
BLACK
6
CONTINUOUS
10
139.558
20
-64.448
11
140.858
21
-64.448
0
LINE
8
BLACK
6
CONTINUOUS
10
140.858
20
-64.448
11
140.858
21
-65.948
0
LINE
8
BLACK
6
CONTINUOUS
10
161.138
20
-65.59
11
159.918
21
-65.59
0
LINE
8
BLACK
6
CONTINUOUS
10
159.918
20
-65.59
11
159.918
21
-64.68
0
LINE
8
BLACK
6
CONTINUOUS
10
159.918
20
-64.68
11
161.138
21
-64.68
0
LINE
8
BLACK
6
CONTINUOUS
10
161.138
20
-64.68
11
161.138
21
-65.59
0
LINE
8
BLACK
6
CONTINUOUS
10
163.678
20
-65.59
11
162.458
21
-65.59
0
LINE
8
BLACK
6
CONTINUOUS
10
162.458
20
-65.59
11
162.458
21
-64.68
0
LINE
8
BLACK
6
CONTINUOUS
10
162.458
20
-64.68
11
163.678
21
-64.68
0
LINE
8
BLACK
6
CONTINUOUS
10
163.678
20
-64.68
11
163.678
21
-65.59
0
LINE
8
BLACK
6
CONTINUOUS
10
168.758
20
-65.59
11
167.538
21
-65.59
0
LINE
8
BLACK
6
CONTINUOUS
10
167.538
20
-65.59
11
167.538
21
-64.68
0
LINE
8
BLACK
6
CONTINUOUS
10
167.538
20
-64.68
11
168.758
21
-64.68
0
LINE
8
BLACK
6
CONTINUOUS
10
168.758
20
-64.68
11
168.758
21
-65.59
0
LINE
8
BLACK
6
CONTINUOUS
10
166.218
20
-65.59
11
164.998
21
-65.59
0
LINE
8
BLACK
6
CONTINUOUS
10
164.998
20
-65.59
11
164.998
21
-64.68
0
LINE
8
BLACK
6
CONTINUOUS
10
164.998
20
-64.68
11
166.218
21
-64.68
0
LINE
8
BLACK
6
CONTINUOUS
10
166.218
20
-64.68
11
166.218
21
-65.59
0
LINE
8
BLACK
6
CONTINUOUS
10
148.95
20
-65.585
11
147.35
21
-65.585
0
LINE
8
BLACK
6
CONTINUOUS
10
147.35
20
-65.585
11
147.35
21
-65.035
0
LINE
8
BLACK
6
CONTINUOUS
10
147.35
20
-65.035
11
148.95
21
-65.035
0
LINE
8
BLACK
6
CONTINUOUS
10
148.95
20
-65.035
11
148.95
21
-65.585
0
LINE
8
BLACK
6
CONTINUOUS
10
157.45
20
-65.585
11
155.85
21
-65.585
0
LINE
8
BLACK
6
CONTINUOUS
10
155.85
20
-65.585
11
155.85
21
-65.035
0
LINE
8
BLACK
6
CONTINUOUS
10
155.85
20
-65.035
11
157.45
21
-65.035
0
LINE
8
BLACK
6
CONTINUOUS
10
157.45
20
-65.035
11
157.45
21
-65.585
0
LINE
8
BLACK
6
CONTINUOUS
10
148.95
20
-64.785
11
147.35
21
-64.785
0
LINE
8
BLACK
6
CONTINUOUS
10
147.35
20
-64.785
11
147.35
21
-64.235
0
LINE
8
BLACK
6
CONTINUOUS
10
147.35
20
-64.235
11
148.95
21
-64.235
0
LINE
8
BLACK
6
CONTINUOUS
10
148.95
20
-64.235
11
148.95
21
-64.785
0
LINE
8
BLACK
6
CONTINUOUS
10
157.45
20
-64.785
11
155.85
21
-64.785
0
LINE
8
BLACK
6
CONTINUOUS
10
155.85
20
-64.785
11
155.85
21
-64.235
0
LINE
8
BLACK
6
CONTINUOUS
10
155.85
20
-64.235
11
157.45
21
-64.235
0
LINE
8
BLACK
6
CONTINUOUS
10
157.45
20
-64.235
11
157.45
21
-64.785
0
LINE
8
BLACK
6
CONTINUOUS
10
149.875
20
-63.86
11
149.325
21
-63.86
0
LINE
8
BLACK
6
CONTINUOUS
10
149.325
20
-63.86
11
149.325
21
-62.26
0
LINE
8
BLACK
6
CONTINUOUS
10
149.325
20
-62.26
11
149.875
21
-62.26
0
LINE
8
BLACK
6
CONTINUOUS
10
149.875
20
-62.26
11
149.875
21
-63.86
0
LINE
8
BLACK
6
CONTINUOUS
10
150.675
20
-63.86
11
150.125
21
-63.86
0
LINE
8
BLACK
6
CONTINUOUS
10
150.125
20
-63.86
11
150.125
21
-62.26
0
LINE
8
BLACK
6
CONTINUOUS
10
150.125
20
-62.26
11
150.675
21
-62.26
0
LINE
8
BLACK
6
CONTINUOUS
10
150.675
20
-62.26
11
150.675
21
-63.86
0
LINE
8
BLACK
6
CONTINUOUS
10
151.475
20
-63.86
11
150.925
21
-63.86
0
LINE
8
BLACK
6
CONTINUOUS
10
150.925
20
-63.86
11
150.925
21
-62.26
0
LINE
8
BLACK
6
CONTINUOUS
10
150.925
20
-62.26
11
151.475
21
-62.26
0
LINE
8
BLACK
6
CONTINUOUS
10
151.475
20
-62.26
11
151.475
21
-63.86
0
LINE
8
BLACK
6
CONTINUOUS
10
152.275
20
-63.86
11
151.725
21
-63.86
0
LINE
8
BLACK
6
CONTINUOUS
10
151.725
20
-63.86
11
151.725
21
-62.26
0
LINE
8
BLACK
6
CONTINUOUS
10
151.725
20
-62.26
11
152.275
21
-62.26
0
LINE
8
BLACK
6
CONTINUOUS
10
152.275
20
-62.26
11
152.275
21
-63.86
0
LINE
8
BLACK
6
CONTINUOUS
10
153.075
20
-63.86
11
152.525
21
-63.86
0
LINE
8
BLACK
6
CONTINUOUS
10
152.525
20
-63.86
11
152.525
21
-62.26
0
LINE
8
BLACK
6
CONTINUOUS
10
152.525
20
-62.26
11
153.075
21
-62.26
0
LINE
8
BLACK
6
CONTINUOUS
10
153.075
20
-62.26
11
153.075
21
-63.86
0
LINE
8
BLACK
6
CONTINUOUS
10
155.475
20
-63.86
11
154.925
21
-63.86
0
LINE
8
BLACK
6
CONTINUOUS
10
154.925
20
-63.86
11
154.925
21
-62.26
0
LINE
8
BLACK
6
CONTINUOUS
10
154.925
20
-62.26
11
155.475
21
-62.26
0
LINE
8
BLACK
6
CONTINUOUS
10
155.475
20
-62.26
11
155.475
21
-63.86
0
LINE
8
BLACK
6
CONTINUOUS
10
154.675
20
-63.86
11
154.125
21
-63.86
0
LINE
8
BLACK
6
CONTINUOUS
10
154.125
20
-63.86
11
154.125
21
-62.26
0
LINE
8
BLACK
6
CONTINUOUS
10
154.125
20
-62.26
11
154.675
21
-62.26
0
LINE
8
BLACK
6
CONTINUOUS
10
154.675
20
-62.26
11
154.675
21
-63.86
0
LINE
8
BLACK
6
CONTINUOUS
10
153.875
20
-63.86
11
153.325
21
-63.86
0
LINE
8
BLACK
6
CONTINUOUS
10
153.325
20
-63.86
11
153.325
21
-62.26
0
LINE
8
BLACK
6
CONTINUOUS
10
153.325
20
-62.26
11
153.875
21
-62.26
0
LINE
8
BLACK
6
CONTINUOUS
10
153.875
20
-62.26
11
153.875
21
-63.86
0
LINE
8
BLACK
6
CONTINUOUS
10
168.758
20
-62.32
11
167.538
21
-62.32
0
LINE
8
BLACK
6
CONTINUOUS
10
167.538
20
-62.32
11
167.538
21
-61.41
0
LINE
8
BLACK
6
CONTINUOUS
10
167.538
20
-61.41
11
168.758
21
-61.41
0
LINE
8
BLACK
6
CONTINUOUS
10
168.758
20
-61.41
11
168.758
21
-62.32
0
LINE
8
BLACK
6
CONTINUOUS
10
166.218
20
-62.32
11
164.998
21
-62.32
0
LINE
8
BLACK
6
CONTINUOUS
10
164.998
20
-62.32
11
164.998
21
-61.41
0
LINE
8
BLACK
6
CONTINUOUS
10
164.998
20
-61.41
11
166.218
21
-61.41
0
LINE
8
BLACK
6
CONTINUOUS
10
166.218
20
-61.41
11
166.218
21
-62.32
0
LINE
8
BLACK
6
CONTINUOUS
10
163.678
20
-62.32
11
162.458
21
-62.32
0
LINE
8
BLACK
6
CONTINUOUS
10
162.458
20
-62.32
11
162.458
21
-61.41
0
LINE
8
BLACK
6
CONTINUOUS
10
162.458
20
-61.41
11
163.678
21
-61.41
0
LINE
8
BLACK
6
CONTINUOUS
10
163.678
20
-61.41
11
163.678
21
-62.32
0
LINE
8
BLACK
6
CONTINUOUS
10
161.138
20
-62.32
11
159.918
21
-62.32
0
LINE
8
BLACK
6
CONTINUOUS
10
159.918
20
-62.32
11
159.918
21
-61.41
0
LINE
8
BLACK
6
CONTINUOUS
10
159.918
20
-61.41
11
161.138
21
-61.41
0
LINE
8
BLACK
6
CONTINUOUS
10
161.138
20
-61.41
11
161.138
21
-62.32
0
LINE
8
BLACK
6
CONTINUOUS
10
135.45
20
-61.61
11
133.95
21
-61.61
0
LINE
8
BLACK
6
CONTINUOUS
10
133.95
20
-61.61
11
133.95
21
-60.31
0
LINE
8
BLACK
6
CONTINUOUS
10
133.95
20
-60.31
11
135.45
21
-60.31
0
LINE
8
BLACK
6
CONTINUOUS
10
135.45
20
-60.31
11
135.45
21
-61.61
0
LINE
8
BLACK
6
CONTINUOUS
10
132.75
20
-61.61
11
131.25
21
-61.61
0
LINE
8
BLACK
6
CONTINUOUS
10
131.25
20
-61.61
11
131.25
21
-60.31
0
LINE
8
BLACK
6
CONTINUOUS
10
131.25
20
-60.31
11
132.75
21
-60.31
0
LINE
8
BLACK
6
CONTINUOUS
10
132.75
20
-60.31
11
132.75
21
-61.61
0
LINE
8
BLACK
6
CONTINUOUS
10
180.358
20
-61.1528
11
178.858
21
-61.1528
0
LINE
8
BLACK
6
CONTINUOUS
10
178.858
20
-61.1528
11
178.858
21
-59.8528
0
LINE
8
BLACK
6
CONTINUOUS
10
178.858
20
-59.8528
11
180.358
21
-59.8528
0
LINE
8
BLACK
6
CONTINUOUS
10
180.358
20
-59.8528
11
180.358
21
-61.1528
0
LINE
8
BLACK
6
CONTINUOUS
10
183.058
20
-61.1528
11
181.558
21
-61.1528
0
LINE
8
BLACK
6
CONTINUOUS
10
181.558
20
-61.1528
11
181.558
21
-59.8528
0
LINE
8
BLACK
6
CONTINUOUS
10
181.558
20
-59.8528
11
183.058
21
-59.8528
0
LINE
8
BLACK
6
CONTINUOUS
10
183.058
20
-59.8528
11
183.058
21
-61.1528
0
LINE
8
BLACK
6
CONTINUOUS
10
193.477
20
-60.0659
11
192.77
21
-60.773
0
LINE
8
BLACK
6
CONTINUOUS
10
192.77
20
-60.773
11
191.992
21
-59.9952
0
LINE
8
BLACK
6
CONTINUOUS
10
191.992
20
-59.9952
11
192.7
21
-59.288
0
LINE
8
BLACK
6
CONTINUOUS
10
192.7
20
-59.288
11
193.477
21
-60.0659
0
LINE
8
BLACK
6
CONTINUOUS
10
121.765
20
-59.9874
11
120.987
21
-60.7653
0
LINE
8
BLACK
6
CONTINUOUS
10
120.987
20
-60.7653
11
120.28
21
-60.0581
0
LINE
8
BLACK
6
CONTINUOUS
10
120.28
20
-60.0581
11
121.058
21
-59.2803
0
LINE
8
BLACK
6
CONTINUOUS
10
121.058
20
-59.2803
11
121.765
21
-59.9874
0
LINE
8
BLACK
6
CONTINUOUS
10
194.75
20
-58.7931
11
194.043
21
-59.5002
0
LINE
8
BLACK
6
CONTINUOUS
10
194.043
20
-59.5002
11
193.265
21
-58.7224
0
LINE
8
BLACK
6
CONTINUOUS
10
193.265
20
-58.7224
11
193.972
21
-58.0153
0
LINE
8
BLACK
6
CONTINUOUS
10
193.972
20
-58.0153
11
194.75
21
-58.7931
0
LINE
8
BLACK
6
CONTINUOUS
10
120.492
20
-58.7146
11
119.715
21
-59.4925
0
LINE
8
BLACK
6
CONTINUOUS
10
119.715
20
-59.4925
11
119.008
21
-58.7854
0
LINE
8
BLACK
6
CONTINUOUS
10
119.008
20
-58.7854
11
119.785
21
-58.0075
0
LINE
8
BLACK
6
CONTINUOUS
10
119.785
20
-58.0075
11
120.492
21
-58.7146
0
LINE
8
BLACK
6
CONTINUOUS
10
190.72
20
-57.3081
11
190.013
21
-58.0153
0
LINE
8
BLACK
6
CONTINUOUS
10
190.013
20
-58.0153
11
189.235
21
-57.2374
0
LINE
8
BLACK
6
CONTINUOUS
10
189.235
20
-57.2374
11
189.942
21
-56.5303
0
LINE
8
BLACK
6
CONTINUOUS
10
189.942
20
-56.5303
11
190.72
21
-57.3081
0
LINE
8
BLACK
6
CONTINUOUS
10
124.523
20
-57.2297
11
123.745
21
-58.0075
0
LINE
8
BLACK
6
CONTINUOUS
10
123.745
20
-58.0075
11
123.038
21
-57.3004
0
LINE
8
BLACK
6
CONTINUOUS
10
123.038
20
-57.3004
11
123.816
21
-56.5226
0
LINE
8
BLACK
6
CONTINUOUS
10
123.816
20
-56.5226
11
124.523
21
-57.2297
0
LINE
8
BLACK
6
CONTINUOUS
10
187.9
20
-56.85
11
186.6
21
-56.85
0
LINE
8
BLACK
6
CONTINUOUS
10
186.6
20
-56.85
11
186.6
21
-55.35
0
LINE
8
BLACK
6
CONTINUOUS
10
186.6
20
-55.35
11
187.9
21
-55.35
0
LINE
8
BLACK
6
CONTINUOUS
10
187.9
20
-55.35
11
187.9
21
-56.85
0
LINE
8
BLACK
6
CONTINUOUS
10
191.992
20
-56.0354
11
191.285
21
-56.7425
0
LINE
8
BLACK
6
CONTINUOUS
10
191.285
20
-56.7425
11
190.508
21
-55.9646
0
LINE
8
BLACK
6
CONTINUOUS
10
190.508
20
-55.9646
11
191.215
21
-55.2575
0
LINE
8
BLACK
6
CONTINUOUS
10
191.215
20
-55.2575
11
191.992
21
-56.0354
0
LINE
8
BLACK
6
CONTINUOUS
10
123.25
20
-55.9569
11
122.472
21
-56.7347
0
LINE
8
BLACK
6
CONTINUOUS
10
122.472
20
-56.7347
11
121.765
21
-56.0276
0
LINE
8
BLACK
6
CONTINUOUS
10
121.765
20
-56.0276
11
122.543
21
-55.2498
0
LINE
8
BLACK
6
CONTINUOUS
10
122.543
20
-55.2498
11
123.25
21
-55.9569
0
LINE
8
BLACK
6
CONTINUOUS
10
136.885
20
-56.6948
11
135.585
21
-56.6948
0
LINE
8
BLACK
6
CONTINUOUS
10
135.585
20
-56.6948
11
135.585
21
-55.1948
0
LINE
8
BLACK
6
CONTINUOUS
10
135.585
20
-55.1948
11
136.885
21
-55.1948
0
LINE
8
BLACK
6
CONTINUOUS
10
136.885
20
-55.1948
11
136.885
21
-56.6948
0
LINE
8
BLACK
6
CONTINUOUS
10
168.33
20
-54.8663
11
166.83
21
-54.8663
0
LINE
8
BLACK
6
CONTINUOUS
10
166.83
20
-54.8663
11
166.83
21
-53.5663
0
LINE
8
BLACK
6
CONTINUOUS
10
166.83
20
-53.5663
11
168.33
21
-53.5663
0
LINE
8
BLACK
6
CONTINUOUS
10
168.33
20
-53.5663
11
168.33
21
-54.8663
0
LINE
8
BLACK
6
CONTINUOUS
10
165.63
20
-54.8663
11
164.13
21
-54.8663
0
LINE
8
BLACK
6
CONTINUOUS
10
164.13
20
-54.8663
11
164.13
21
-53.5663
0
LINE
8
BLACK
6
CONTINUOUS
10
164.13
20
-53.5663
11
165.63
21
-53.5663
0
LINE
8
BLACK
6
CONTINUOUS
10
165.63
20
-53.5663
11
165.63
21
-54.8663
0
LINE
8
BLACK
6
CONTINUOUS
10
150.195
20
-54.4472
11
148.695
21
-54.4472
0
LINE
8
BLACK
6
CONTINUOUS
10
148.695
20
-54.4472
11
148.695
21
-53.1472
0
LINE
8
BLACK
6
CONTINUOUS
10
148.695
20
-53.1472
11
150.195
21
-53.1472
0
LINE
8
BLACK
6
CONTINUOUS
10
150.195
20
-53.1472
11
150.195
21
-54.4472
0
LINE
8
BLACK
6
CONTINUOUS
10
147.495
20
-54.4472
11
145.995
21
-54.4472
0
LINE
8
BLACK
6
CONTINUOUS
10
145.995
20
-54.4472
11
145.995
21
-53.1472
0
LINE
8
BLACK
6
CONTINUOUS
10
145.995
20
-53.1472
11
147.495
21
-53.1472
0
LINE
8
BLACK
6
CONTINUOUS
10
147.495
20
-53.1472
11
147.495
21
-54.4472
0
LINE
8
BLACK
6
CONTINUOUS
10
170.843
20
-54.4113
11
169.543
21
-54.4113
0
LINE
8
BLACK
6
CONTINUOUS
10
169.543
20
-54.4113
11
169.543
21
-52.9113
0
LINE
8
BLACK
6
CONTINUOUS
10
169.543
20
-52.9113
11
170.843
21
-52.9113
0
LINE
8
BLACK
6
CONTINUOUS
10
170.843
20
-52.9113
11
170.843
21
-54.4113
0
LINE
8
BLACK
6
CONTINUOUS
10
187.9
20
-54.15
11
186.6
21
-54.15
0
LINE
8
BLACK
6
CONTINUOUS
10
186.6
20
-54.15
11
186.6
21
-52.65
0
LINE
8
BLACK
6
CONTINUOUS
10
186.6
20
-52.65
11
187.9
21
-52.65
0
LINE
8
BLACK
6
CONTINUOUS
10
187.9
20
-52.65
11
187.9
21
-54.15
0
LINE
8
BLACK
6
CONTINUOUS
10
136.885
20
-53.9948
11
135.585
21
-53.9948
0
LINE
8
BLACK
6
CONTINUOUS
10
135.585
20
-53.9948
11
135.585
21
-52.4948
0
LINE
8
BLACK
6
CONTINUOUS
10
135.585
20
-52.4948
11
136.885
21
-52.4948
0
LINE
8
BLACK
6
CONTINUOUS
10
136.885
20
-52.4948
11
136.885
21
-53.9948
0
LINE
8
BLACK
6
CONTINUOUS
10
142.306
20
-51.7538
11
141.206
21
-51.7538
0
LINE
8
BLACK
6
CONTINUOUS
10
141.206
20
-51.7538
11
141.206
21
-50.7538
0
LINE
8
BLACK
6
CONTINUOUS
10
141.206
20
-50.7538
11
142.306
21
-50.7538
0
LINE
8
BLACK
6
CONTINUOUS
10
142.306
20
-50.7538
11
142.306
21
-51.7538
0
LINE
8
BLACK
6
CONTINUOUS
10
138.406
20
-51.7538
11
137.306
21
-51.7538
0
LINE
8
BLACK
6
CONTINUOUS
10
137.306
20
-51.7538
11
137.306
21
-50.7538
0
LINE
8
BLACK
6
CONTINUOUS
10
137.306
20
-50.7538
11
138.406
21
-50.7538
0
LINE
8
BLACK
6
CONTINUOUS
10
138.406
20
-50.7538
11
138.406
21
-51.7538
0
LINE
8
BLACK
6
CONTINUOUS
10
170.843
20
-51.7113
11
169.543
21
-51.7113
0
LINE
8
BLACK
6
CONTINUOUS
10
169.543
20
-51.7113
11
169.543
21
-50.2113
0
LINE
8
BLACK
6
CONTINUOUS
10
169.543
20
-50.2113
11
170.843
21
-50.2113
0
LINE
8
BLACK
6
CONTINUOUS
10
170.843
20
-50.2113
11
170.843
21
-51.7113
0
LINE
8
BLACK
6
CONTINUOUS
10
176.784
20
-51.5862
11
175.684
21
-51.5862
0
LINE
8
BLACK
6
CONTINUOUS
10
175.684
20
-51.5862
11
175.684
21
-50.5862
0
LINE
8
BLACK
6
CONTINUOUS
10
175.684
20
-50.5862
11
176.784
21
-50.5862
0
LINE
8
BLACK
6
CONTINUOUS
10
176.784
20
-50.5862
11
176.784
21
-51.5862
0
LINE
8
BLACK
6
CONTINUOUS
10
172.884
20
-51.5862
11
171.784
21
-51.5862
0
LINE
8
BLACK
6
CONTINUOUS
10
171.784
20
-51.5862
11
171.784
21
-50.5862
0
LINE
8
BLACK
6
CONTINUOUS
10
171.784
20
-50.5862
11
172.884
21
-50.5862
0
LINE
8
BLACK
6
CONTINUOUS
10
172.884
20
-50.5862
11
172.884
21
-51.5862
0
LINE
8
BLACK
6
CONTINUOUS
10
153.164
20
-51.0966
11
151.864
21
-51.0966
0
LINE
8
BLACK
6
CONTINUOUS
10
151.864
20
-51.0966
11
151.864
21
-49.5966
0
LINE
8
BLACK
6
CONTINUOUS
10
151.864
20
-49.5966
11
153.164
21
-49.5966
0
LINE
8
BLACK
6
CONTINUOUS
10
153.164
20
-49.5966
11
153.164
21
-51.0966
0
LINE
8
BLACK
6
CONTINUOUS
10
142.306
20
-49.9538
11
141.206
21
-49.9538
0
LINE
8
BLACK
6
CONTINUOUS
10
141.206
20
-49.9538
11
141.206
21
-48.9538
0
LINE
8
BLACK
6
CONTINUOUS
10
141.206
20
-48.9538
11
142.306
21
-48.9538
0
LINE
8
BLACK
6
CONTINUOUS
10
142.306
20
-48.9538
11
142.306
21
-49.9538
0
LINE
8
BLACK
6
CONTINUOUS
10
138.406
20
-49.9538
11
137.306
21
-49.9538
0
LINE
8
BLACK
6
CONTINUOUS
10
137.306
20
-49.9538
11
137.306
21
-48.9538
0
LINE
8
BLACK
6
CONTINUOUS
10
137.306
20
-48.9538
11
138.406
21
-48.9538
0
LINE
8
BLACK
6
CONTINUOUS
10
138.406
20
-48.9538
11
138.406
21
-49.9538
0
LINE
8
BLACK
6
CONTINUOUS
10
172.884
20
-49.7862
11
171.784
21
-49.7862
0
LINE
8
BLACK
6
CONTINUOUS
10
171.784
20
-49.7862
11
171.784
21
-48.7862
0
LINE
8
BLACK
6
CONTINUOUS
10
171.784
20
-48.7862
11
172.884
21
-48.7862
0
LINE
8
BLACK
6
CONTINUOUS
10
172.884
20
-48.7862
11
172.884
21
-49.7862
0
LINE
8
BLACK
6
CONTINUOUS
10
176.784
20
-49.7862
11
175.684
21
-49.7862
0
LINE
8
BLACK
6
CONTINUOUS
10
175.684
20
-49.7862
11
175.684
21
-48.7862
0
LINE
8
BLACK
6
CONTINUOUS
10
175.684
20
-48.7862
11
176.784
21
-48.7862
0
LINE
8
BLACK
6
CONTINUOUS
10
176.784
20
-48.7862
11
176.784
21
-49.7862
0
LINE
8
BLACK
6
CONTINUOUS
10
153.164
20
-48.3966
11
151.864
21
-48.3966
0
LINE
8
BLACK
6
CONTINUOUS
10
151.864
20
-48.3966
11
151.864
21
-46.8966
0
LINE
8
BLACK
6
CONTINUOUS
10
151.864
20
-46.8966
11
153.164
21
-46.8966
0
LINE
8
BLACK
6
CONTINUOUS
10
153.164
20
-46.8966
11
153.164
21
-48.3966
0
LINE
8
BLACK
6
CONTINUOUS
10
159.593
20
-48.2867
11
158.493
21
-48.2867
0
LINE
8
BLACK
6
CONTINUOUS
10
158.493
20
-48.2867
11
158.493
21
-47.2867
0
LINE
8
BLACK
6
CONTINUOUS
10
158.493
20
-47.2867
11
159.593
21
-47.2867
0
LINE
8
BLACK
6
CONTINUOUS
10
159.593
20
-47.2867
11
159.593
21
-48.2867
0
LINE
8
BLACK
6
CONTINUOUS
10
155.693
20
-48.2867
11
154.593
21
-48.2867
0
LINE
8
BLACK
6
CONTINUOUS
10
154.593
20
-48.2867
11
154.593
21
-47.2867
0
LINE
8
BLACK
6
CONTINUOUS
10
154.593
20
-47.2867
11
155.693
21
-47.2867
0
LINE
8
BLACK
6
CONTINUOUS
10
155.693
20
-47.2867
11
155.693
21
-48.2867
0
LINE
8
BLACK
6
CONTINUOUS
10
155.693
20
-46.4867
11
154.593
21
-46.4867
0
LINE
8
BLACK
6
CONTINUOUS
10
154.593
20
-46.4867
11
154.593
21
-45.4867
0
LINE
8
BLACK
6
CONTINUOUS
10
154.593
20
-45.4867
11
155.693
21
-45.4867
0
LINE
8
BLACK
6
CONTINUOUS
10
155.693
20
-45.4867
11
155.693
21
-46.4867
0
LINE
8
BLACK
6
CONTINUOUS
10
159.593
20
-46.4867
11
158.493
21
-46.4867
0
LINE
8
BLACK
6
CONTINUOUS
10
158.493
20
-46.4867
11
158.493
21
-45.4867
0
LINE
8
BLACK
6
CONTINUOUS
10
158.493
20
-45.4867
11
159.593
21
-45.4867
0
LINE
8
BLACK
6
CONTINUOUS
10
159.593
20
-45.4867
11
159.593
21
-46.4867
0
LINE
8
BLACK
6
CONTINUOUS
10
182.016
20
-42.9267
11
182.026
21
-42.9284
0
LINE
8
BLACK
6
CONTINUOUS
10
182.026
20
-42.9284
11
182.029
21
-42.9301
0
LINE
8
BLACK
6
CONTINUOUS
10
182.029
20
-42.9301
11
182.032
21
-42.931
0
LINE
8
BLACK
6
CONTINUOUS
10
182.032
20
-42.931
11
182.04
21
-42.9367
0
LINE
8
BLACK
6
CONTINUOUS
10
182.04
20
-42.9367
11
182.049
21
-42.9417
0
LINE
8
BLACK
6
CONTINUOUS
10
182.049
20
-42.9417
11
182.055
21
-42.9493
0
LINE
8
BLACK
6
CONTINUOUS
10
182.055
20
-42.9493
11
207.051
21
-67.9447
0
LINE
8
BLACK
6
CONTINUOUS
10
207.051
20
-67.9447
11
207.058
21
-67.951
0
LINE
8
BLACK
6
CONTINUOUS
10
207.058
20
-67.951
11
207.063
21
-67.9597
0
LINE
8
BLACK
6
CONTINUOUS
10
207.063
20
-67.9597
11
207.069
21
-67.9678
0
LINE
8
BLACK
6
CONTINUOUS
10
207.069
20
-67.9678
11
207.07
21
-67.971
0
LINE
8
BLACK
6
CONTINUOUS
10
207.07
20
-67.971
11
207.072
21
-67.974
0
LINE
8
BLACK
6
CONTINUOUS
10
207.072
20
-67.974
11
207.073
21
-67.9838
0
LINE
8
BLACK
6
CONTINUOUS
10
207.073
20
-67.9838
11
207.076
21
-67.9934
0
LINE
8
BLACK
6
CONTINUOUS
10
207.076
20
-67.9934
11
207.075
21
-68.0033
0
LINE
8
BLACK
6
CONTINUOUS
10
207.075
20
-68.0033
11
207.075
21
-117.997
0
LINE
8
BLACK
6
CONTINUOUS
10
207.075
20
-117.997
11
207.076
21
-118.007
0
LINE
8
BLACK
6
CONTINUOUS
10
207.076
20
-118.007
11
207.073
21
-118.016
0
LINE
8
BLACK
6
CONTINUOUS
10
207.073
20
-118.016
11
207.072
21
-118.026
0
LINE
8
BLACK
6
CONTINUOUS
10
207.072
20
-118.026
11
207.07
21
-118.029
0
LINE
8
BLACK
6
CONTINUOUS
10
207.07
20
-118.029
11
207.069
21
-118.032
0
LINE
8
BLACK
6
CONTINUOUS
10
207.069
20
-118.032
11
207.063
21
-118.04
0
LINE
8
BLACK
6
CONTINUOUS
10
207.063
20
-118.04
11
207.058
21
-118.049
0
LINE
8
BLACK
6
CONTINUOUS
10
207.058
20
-118.049
11
207.051
21
-118.055
0
LINE
8
BLACK
6
CONTINUOUS
10
207.051
20
-118.055
11
182.055
21
-143.051
0
LINE
8
BLACK
6
CONTINUOUS
10
182.055
20
-143.051
11
182.049
21
-143.058
0
LINE
8
BLACK
6
CONTINUOUS
10
182.049
20
-143.058
11
182.04
21
-143.063
0
LINE
8
BLACK
6
CONTINUOUS
10
182.04
20
-143.063
11
182.032
21
-143.069
0
LINE
8
BLACK
6
CONTINUOUS
10
182.032
20
-143.069
11
182.029
21
-143.07
0
LINE
8
BLACK
6
CONTINUOUS
10
182.029
20
-143.07
11
182.026
21
-143.072
0
LINE
8
BLACK
6
CONTINUOUS
10
182.026
20
-143.072
11
182.016
21
-143.073
0
LINE
8
BLACK
6
CONTINUOUS
10
182.016
20
-143.073
11
182.007
21
-143.076
0
LINE
8
BLACK
6
CONTINUOUS
10
182.007
20
-143.076
11
181.997
21
-143.075
0
LINE
8
BLACK
6
CONTINUOUS
10
181.997
20
-143.075
11
132.003
21
-143.075
0
LINE
8
BLACK
6
CONTINUOUS
10
132.003
20
-143.075
11
131.993
21
-143.076
0
LINE
8
BLACK
6
CONTINUOUS
10
131.993
20
-143.076
11
131.984
21
-143.073
0
LINE
8
BLACK
6
CONTINUOUS
10
131.984
20
-143.073
11
131.974
21
-143.072
0
LINE
8
BLACK
6
CONTINUOUS
10
131.974
20
-143.072
11
131.971
21
-143.07
0
LINE
8
BLACK
6
CONTINUOUS
10
131.971
20
-143.07
11
131.968
21
-143.069
0
LINE
8
BLACK
6
CONTINUOUS
10
131.968
20
-143.069
11
131.96
21
-143.063
0
LINE
8
BLACK
6
CONTINUOUS
10
131.96
20
-143.063
11
131.951
21
-143.058
0
LINE
8
BLACK
6
CONTINUOUS
10
131.951
20
-143.058
11
131.945
21
-143.051
0
LINE
8
BLACK
6
CONTINUOUS
10
131.945
20
-143.051
11
106.949
21
-118.055
0
LINE
8
BLACK
6
CONTINUOUS
10
106.949
20
-118.055
11
106.942
21
-118.049
0
LINE
8
BLACK
6
CONTINUOUS
10
106.942
20
-118.049
11
106.937
21
-118.04
0
LINE
8
BLACK
6
CONTINUOUS
10
106.937
20
-118.04
11
106.931
21
-118.032
0
LINE
8
BLACK
6
CONTINUOUS
10
106.931
20
-118.032
11
106.93
21
-118.029
0
LINE
8
BLACK
6
CONTINUOUS
10
106.93
20
-118.029
11
106.928
21
-118.026
0
LINE
8
BLACK
6
CONTINUOUS
10
106.928
20
-118.026
11
106.927
21
-118.016
0
LINE
8
BLACK
6
CONTINUOUS
10
106.927
20
-118.016
11
106.924
21
-118.007
0
LINE
8
BLACK
6
CONTINUOUS
10
106.924
20
-118.007
11
106.925
21
-117.997
0
LINE
8
BLACK
6
CONTINUOUS
10
106.925
20
-117.997
11
106.925
21
-68.0033
0
LINE
8
BLACK
6
CONTINUOUS
10
106.925
20
-68.0033
11
106.924
21
-67.9934
0
LINE
8
BLACK
6
CONTINUOUS
10
106.924
20
-67.9934
11
106.927
21
-67.9837
0
LINE
8
BLACK
6
CONTINUOUS
10
106.927
20
-67.9837
11
106.928
21
-67.974
0
LINE
8
BLACK
6
CONTINUOUS
10
106.928
20
-67.974
11
106.93
21
-67.9711
0
LINE
8
BLACK
6
CONTINUOUS
10
106.93
20
-67.9711
11
106.931
21
-67.9678
0
LINE
8
BLACK
6
CONTINUOUS
10
106.931
20
-67.9678
11
106.937
21
-67.9597
0
LINE
8
BLACK
6
CONTINUOUS
10
106.937
20
-67.9597
11
106.942
21
-67.951
0
LINE
8
BLACK
6
CONTINUOUS
10
106.942
20
-67.951
11
106.949
21
-67.9447
0
LINE
8
BLACK
6
CONTINUOUS
10
106.949
20
-67.9447
11
131.945
21
-42.9493
0
LINE
8
BLACK
6
CONTINUOUS
10
131.945
20
-42.9493
11
131.951
21
-42.9417
0
LINE
8
BLACK
6
CONTINUOUS
10
131.951
20
-42.9417
11
131.96
21
-42.9367
0
LINE
8
BLACK
6
CONTINUOUS
10
131.96
20
-42.9367
11
131.968
21
-42.931
0
LINE
8
BLACK
6
CONTINUOUS
10
131.968
20
-42.931
11
131.971
21
-42.9301
0
LINE
8
BLACK
6
CONTINUOUS
10
131.971
20
-42.9301
11
131.974
21
-42.9284
0
LINE
8
BLACK
6
CONTINUOUS
10
131.974
20
-42.9284
11
131.984
21
-42.9267
0
LINE
8
BLACK
6
CONTINUOUS
10
131.984
20
-42.9267
11
131.993
21
-42.9241
0
LINE
8
BLACK
6
CONTINUOUS
10
131.993
20
-42.9241
11
132.003
21
-42.925
0
LINE
8
BLACK
6
CONTINUOUS
10
132.003
20
-42.925
11
181.997
21
-42.925
0
LINE
8
BLACK
6
CONTINUOUS
10
181.997
20
-42.925
11
182.007
21
-42.9241
0
LINE
8
BLACK
6
CONTINUOUS
10
182.007
20
-42.9241
11
182.016
21
-42.9267
0
LINE
8
BLACK
6
CONTINUOUS
10
132.031
20
-43.075
11
107.075
21
-68.0311
0
LINE
8
BLACK
6
CONTINUOUS
10
107.075
20
-68.0311
11
107.075
21
-117.969
0
LINE
8
BLACK
6
CONTINUOUS
10
107.075
20
-117.969
11
132.031
21
-142.925
0
LINE
8
BLACK
6
CONTINUOUS
10
132.031
20
-142.925
11
181.969
21
-142.925
0
LINE
8
BLACK
6
CONTINUOUS
10
181.969
20
-142.925
11
206.925
21
-117.969
0
LINE
8
BLACK
6
CONTINUOUS
10
206.925
20
-117.969
11
206.925
21
-68.0311
0
LINE
8
BLACK
6
CONTINUOUS
10
206.925
20
-68.0311
11
181.969
21
-43.075
0
LINE
8
BLACK
6
CONTINUOUS
10
181.969
20
-43.075
11
132.031
21
-43.075
0
LINE
8
BLACK
6
CONTINUOUS
10
141.493
20
-117.575
11
141.487
21
-117.575
0
LINE
8
BLACK
6
CONTINUOUS
10
141.487
20
-117.575
11
141.481
21
-117.573
0
LINE
8
BLACK
6
CONTINUOUS
10
141.481
20
-117.573
11
141.474
21
-117.572
0
LINE
8
BLACK
6
CONTINUOUS
10
141.474
20
-117.572
11
141.468
21
-117.568
0
LINE
8
BLACK
6
CONTINUOUS
10
141.468
20
-117.568
11
141.462
21
-117.566
0
LINE
8
BLACK
6
CONTINUOUS
10
141.462
20
-117.566
11
141.457
21
-117.562
0
LINE
8
BLACK
6
CONTINUOUS
10
141.457
20
-117.562
11
141.451
21
-117.558
0
LINE
8
BLACK
6
CONTINUOUS
10
141.451
20
-117.558
11
141.447
21
-117.553
0
LINE
8
BLACK
6
CONTINUOUS
10
141.447
20
-117.553
11
141.442
21
-117.549
0
LINE
8
BLACK
6
CONTINUOUS
10
141.442
20
-117.549
11
141.438
21
-117.543
0
LINE
8
BLACK
6
CONTINUOUS
10
141.438
20
-117.543
11
141.434
21
-117.538
0
LINE
8
BLACK
6
CONTINUOUS
10
141.434
20
-117.538
11
141.432
21
-117.532
0
LINE
8
BLACK
6
CONTINUOUS
10
141.432
20
-117.532
11
141.428
21
-117.526
0
LINE
8
BLACK
6
CONTINUOUS
10
141.428
20
-117.526
11
141.427
21
-117.519
0
LINE
8
BLACK
6
CONTINUOUS
10
141.427
20
-117.519
11
141.425
21
-117.513
0
LINE
8
BLACK
6
CONTINUOUS
10
141.425
20
-117.513
11
141.425
21
-117.487
0
LINE
8
BLACK
6
CONTINUOUS
10
141.425
20
-117.487
11
141.425
21
-79.9934
0
LINE
8
BLACK
6
CONTINUOUS
10
141.425
20
-79.9934
11
141.425
21
-79.9934
0
LINE
8
BLACK
6
CONTINUOUS
10
141.425
20
-79.9934
11
141.425
21
-79.9868
0
LINE
8
BLACK
6
CONTINUOUS
10
141.425
20
-79.9868
11
141.427
21
-79.9805
0
LINE
8
BLACK
6
CONTINUOUS
10
141.427
20
-79.9805
11
141.428
21
-79.974
0
LINE
8
BLACK
6
CONTINUOUS
10
141.428
20
-79.974
11
141.432
21
-79.9682
0
LINE
8
BLACK
6
CONTINUOUS
10
141.432
20
-79.9682
11
141.434
21
-79.9619
0
LINE
8
BLACK
6
CONTINUOUS
10
141.434
20
-79.9619
11
141.438
21
-79.9568
0
LINE
8
BLACK
6
CONTINUOUS
10
141.438
20
-79.9568
11
141.442
21
-79.951
0
LINE
8
BLACK
6
CONTINUOUS
10
141.442
20
-79.951
11
141.447
21
-79.9468
0
LINE
8
BLACK
6
CONTINUOUS
10
141.447
20
-79.9468
11
141.451
21
-79.9417
0
LINE
8
BLACK
6
CONTINUOUS
10
141.451
20
-79.9417
11
141.457
21
-79.9383
0
LINE
8
BLACK
6
CONTINUOUS
10
141.457
20
-79.9383
11
141.462
21
-79.934
0
LINE
8
BLACK
6
CONTINUOUS
10
141.462
20
-79.934
11
141.468
21
-79.9318
0
LINE
8
BLACK
6
CONTINUOUS
10
141.468
20
-79.9318
11
141.474
21
-79.9284
0
LINE
8
BLACK
6
CONTINUOUS
10
141.474
20
-79.9284
11
141.481
21
-79.9273
0
LINE
8
BLACK
6
CONTINUOUS
10
141.481
20
-79.9273
11
141.487
21
-79.925
0
LINE
8
BLACK
6
CONTINUOUS
10
141.487
20
-79.925
11
141.493
21
-79.925
0
LINE
8
BLACK
6
CONTINUOUS
10
141.493
20
-79.925
11
141.493
21
-79.925
0
LINE
8
BLACK
6
CONTINUOUS
10
141.493
20
-79.925
11
172.507
21
-79.925
0
LINE
8
BLACK
6
CONTINUOUS
10
172.507
20
-79.925
11
172.507
21
-79.925
0
LINE
8
BLACK
6
CONTINUOUS
10
172.507
20
-79.925
11
172.513
21
-79.925
0
LINE
8
BLACK
6
CONTINUOUS
10
172.513
20
-79.925
11
172.519
21
-79.9273
0
LINE
8
BLACK
6
CONTINUOUS
10
172.519
20
-79.9273
11
172.526
21
-79.9284
0
LINE
8
BLACK
6
CONTINUOUS
10
172.526
20
-79.9284
11
172.532
21
-79.9318
0
LINE
8
BLACK
6
CONTINUOUS
10
172.532
20
-79.9318
11
172.538
21
-79.934
0
LINE
8
BLACK
6
CONTINUOUS
10
172.538
20
-79.934
11
172.543
21
-79.9383
0
LINE
8
BLACK
6
CONTINUOUS
10
172.543
20
-79.9383
11
172.549
21
-79.9417
0
LINE
8
BLACK
6
CONTINUOUS
10
172.549
20
-79.9417
11
172.553
21
-79.9468
0
LINE
8
BLACK
6
CONTINUOUS
10
172.553
20
-79.9468
11
172.558
21
-79.951
0
LINE
8
BLACK
6
CONTINUOUS
10
172.558
20
-79.951
11
172.562
21
-79.9568
0
LINE
8
BLACK
6
CONTINUOUS
10
172.562
20
-79.9568
11
172.566
21
-79.9619
0
LINE
8
BLACK
6
CONTINUOUS
10
172.566
20
-79.9619
11
172.568
21
-79.9682
0
LINE
8
BLACK
6
CONTINUOUS
10
172.568
20
-79.9682
11
172.572
21
-79.974
0
LINE
8
BLACK
6
CONTINUOUS
10
172.572
20
-79.974
11
172.573
21
-79.9805
0
LINE
8
BLACK
6
CONTINUOUS
10
172.573
20
-79.9805
11
172.575
21
-79.9868
0
LINE
8
BLACK
6
CONTINUOUS
10
172.575
20
-79.9868
11
172.575
21
-79.9934
0
LINE
8
BLACK
6
CONTINUOUS
10
172.575
20
-79.9934
11
172.575
21
-79.9934
0
LINE
8
BLACK
6
CONTINUOUS
10
172.575
20
-79.9934
11
172.575
21
-117.507
0
LINE
8
BLACK
6
CONTINUOUS
10
172.575
20
-117.507
11
172.575
21
-117.507
0
LINE
8
BLACK
6
CONTINUOUS
10
172.575
20
-117.507
11
172.575
21
-117.513
0
LINE
8
BLACK
6
CONTINUOUS
10
172.575
20
-117.513
11
172.573
21
-117.519
0
LINE
8
BLACK
6
CONTINUOUS
10
172.573
20
-117.519
11
172.572
21
-117.526
0
LINE
8
BLACK
6
CONTINUOUS
10
172.572
20
-117.526
11
172.568
21
-117.532
0
LINE
8
BLACK
6
CONTINUOUS
10
172.568
20
-117.532
11
172.566
21
-117.538
0
LINE
8
BLACK
6
CONTINUOUS
10
172.566
20
-117.538
11
172.562
21
-117.543
0
LINE
8
BLACK
6
CONTINUOUS
10
172.562
20
-117.543
11
172.558
21
-117.549
0
LINE
8
BLACK
6
CONTINUOUS
10
172.558
20
-117.549
11
172.553
21
-117.553
0
LINE
8
BLACK
6
CONTINUOUS
10
172.553
20
-117.553
11
172.549
21
-117.558
0
LINE
8
BLACK
6
CONTINUOUS
10
172.549
20
-117.558
11
172.543
21
-117.562
0
LINE
8
BLACK
6
CONTINUOUS
10
172.543
20
-117.562
11
172.538
21
-117.566
0
LINE
8
BLACK
6
CONTINUOUS
10
172.538
20
-117.566
11
172.532
21
-117.568
0
LINE
8
BLACK
6
CONTINUOUS
10
172.532
20
-117.568
11
172.526
21
-117.572
0
LINE
8
BLACK
6
CONTINUOUS
10
172.526
20
-117.572
11
172.519
21
-117.573
0
LINE
8
BLACK
6
CONTINUOUS
10
172.519
20
-117.573
11
172.513
21
-117.575
0
LINE
8
BLACK
6
CONTINUOUS
10
172.513
20
-117.575
11
172.507
21
-117.575
0
LINE
8
BLACK
6
CONTINUOUS
10
172.507
20
-117.575
11
172.507
21
-117.575
0
LINE
8
BLACK
6
CONTINUOUS
10
172.507
20
-117.575
11
141.493
21
-117.575
0
LINE
8
BLACK
6
CONTINUOUS
10
141.493
20
-117.575
11
141.493
21
-117.575
0
LINE
8
BLACK
6
CONTINUOUS
10
172.425
20
-80.075
11
141.575
21
-80.075
0
LINE
8
BLACK
6
CONTINUOUS
10
141.575
20
-80.075
11
141.575
21
-117.425
0
LINE
8
BLACK
6
CONTINUOUS
10
141.575
20
-117.425
11
172.425
21
-117.425
0
LINE
8
BLACK
6
CONTINUOUS
10
172.425
20
-117.425
11
172.425
21
-80.075
  0
ENDSEC
  0
EOF
