<?xml version="1.0" encoding="UTF-8" standalone="no"?>
<svg
   xmlns:dc="http://purl.org/dc/elements/1.1/"
   xmlns:cc="http://creativecommons.org/ns#"
   xmlns:rdf="http://www.w3.org/1999/02/22-rdf-syntax-ns#"
   xmlns:svg="http://www.w3.org/2000/svg"
   xmlns="http://www.w3.org/2000/svg"
   xmlns:sodipodi="http://sodipodi.sourceforge.net/DTD/sodipodi-0.dtd"
   xmlns:inkscape="http://www.inkscape.org/namespaces/inkscape"
   version="1.1"
   width="44.0563cm"
   height="15.1206cm"
   viewBox="0 0 173450 59530 "
   id="svg2"
   inkscape:version="0.91 r13725"
   sodipodi:docname="usring-brd.svg">
  <metadata
     id="metadata1006">
    <rdf:RDF>
      <cc:Work
         rdf:about="">
        <dc:format>image/svg+xml</dc:format>
        <dc:type
           rdf:resource="http://purl.org/dc/dcmitype/StillImage" />
      </cc:Work>
    </rdf:RDF>
  </metadata>
  <defs
     id="defs1004" />
  <sodipodi:namedview
     pagecolor="#ffffff"
     bordercolor="#666666"
     borderopacity="1"
     objecttolerance="10"
     gridtolerance="10"
     guidetolerance="10"
     inkscape:pageopacity="0"
     inkscape:pageshadow="2"
     inkscape:window-width="1024"
     inkscape:window-height="714"
     id="namedview1002"
     showgrid="false"
     inkscape:zoom="0.97370357"
     inkscape:cx="372.35999"
     inkscape:cy="245.75038"
     inkscape:window-x="0"
     inkscape:window-y="25"
     inkscape:window-maximized="1"
     inkscape:current-layer="svg2" />
  <title
     id="title4">SVG Picture created as usring-brd.svg date 2018/03/06 08:35:06 </title>
  <desc
     id="desc6">Picture generated by PCBNEW </desc>
  <g
     style="fill:#000000; fill-opacity:1;stroke:#000000; stroke-opacity:1; stroke-linecap:round; stroke-linejoin:round; "
     transform="translate(0 0) scale(1 1)"
     id="g8" />
  <g
     style="fill:#000000; fill-opacity:0.0;  stroke:#000000; stroke-width:-0.000393701; stroke-opacity:1;  stroke-linecap:round; stroke-linejoin:round;"
     id="g10" />
  <g
     style="fill:#000000; fill-opacity:1.0;  stroke:#000000; stroke-width:0; stroke-opacity:1;  stroke-linecap:round; stroke-linejoin:round;"
     id="g12">
    <circle
       cx="20177.2"
       cy="45564.6"
       r="1062.99"
       id="circle14" />
  </g>
  <g
     style="fill:#000000; fill-opacity:1.0;  stroke:#000000; stroke-width:39.3701; stroke-opacity:1;  stroke-linecap:round; stroke-linejoin:round;"
     id="g16" />
  <g
     style="fill:#000000; fill-opacity:1.0;  stroke:#000000; stroke-width:0; stroke-opacity:1;  stroke-linecap:round; stroke-linejoin:round;"
     id="g18">
    <polyline
       style="fill-rule:evenodd;"
       points="39951,28140 39951,27303 40788,27303 40788,28140 39951,28140 "
       id="polyline20" />
  </g>
  <g
     style="fill:#000000; fill-opacity:1.0;  stroke:#000000; stroke-width:837.48; stroke-opacity:1;  stroke-linecap:round; stroke-linejoin:round;"
     id="g22" />
  <g
     style="fill:#000000; fill-opacity:0.0;  stroke:#000000; stroke-width:837.48; stroke-opacity:1;  stroke-linecap:round; stroke-linejoin:round;"
     id="g24">
    <path
       d="M41370 27722 L41370 27722 "
       id="path26" />
    <path
       d="M40370 28722 L40370 28722 "
       id="path28" />
    <path
       d="M41370 28722 L41370 28722 "
       id="path30" />
    <path
       d="M40370 29722 L40370 29722 "
       id="path32" />
    <path
       d="M41370 29722 L41370 29722 "
       id="path34" />
    <path
       d="M40370 30722 L40370 30722 "
       id="path36" />
    <path
       d="M41370 30722 L41370 30722 "
       id="path38" />
    <path
       d="M40370 31722 L40370 31722 "
       id="path40" />
    <path
       d="M41370 31722 L41370 31722 "
       id="path42" />
  </g>
  <g
     style="fill:#000000; fill-opacity:0.0;  stroke:#000000; stroke-width:0; stroke-opacity:1;  stroke-linecap:round; stroke-linejoin:round;"
     id="g44" />
  <g
     style="fill:#000000; fill-opacity:1.0;  stroke:#000000; stroke-width:0; stroke-opacity:1;  stroke-linecap:round; stroke-linejoin:round;"
     id="g46">
    <polyline
       style="fill-rule:evenodd;"
       points="33447,25869 33447,25031 34284,25031 34284,25869 33447,25869 "
       id="polyline48" />
  </g>
  <g
     style="fill:#000000; fill-opacity:1.0;  stroke:#000000; stroke-width:837.48; stroke-opacity:1;  stroke-linecap:round; stroke-linejoin:round;"
     id="g50" />
  <g
     style="fill:#000000; fill-opacity:0.0;  stroke:#000000; stroke-width:837.48; stroke-opacity:1;  stroke-linecap:round; stroke-linejoin:round;"
     id="g52">
    <path
       d="M33866 26450 L33866 26450 "
       id="path54" />
    <path
       d="M34866 25450 L34866 25450 "
       id="path56" />
    <path
       d="M34866 26450 L34866 26450 "
       id="path58" />
    <path
       d="M35866 25450 L35866 25450 "
       id="path60" />
    <path
       d="M35866 26450 L35866 26450 "
       id="path62" />
  </g>
  <g
     style="fill:#000000; fill-opacity:1.0;  stroke:#000000; stroke-width:0; stroke-opacity:1;  stroke-linecap:round; stroke-linejoin:round;"
     id="g64">
    <circle
       cx="39066.1"
       cy="23336.2"
       r="413.24"
       id="circle66" />
  </g>
  <g
     style="fill:#000000; fill-opacity:1.0;  stroke:#000000; stroke-width:39.3701; stroke-opacity:1;  stroke-linecap:round; stroke-linejoin:round;"
     id="g68" />
  <g
     style="fill:#000000; fill-opacity:1.0;  stroke:#000000; stroke-width:0; stroke-opacity:1;  stroke-linecap:round; stroke-linejoin:round;"
     id="g70">
    <polyline
       style="fill-rule:evenodd;"
       points="39479,19749 38652,19749 38652,18922 39479,18922 39479,19749 "
       id="polyline72" />
    <circle
       cx="37858.3"
       cy="23336.2"
       r="413.24"
       id="circle74" />
  </g>
  <g
     style="fill:#000000; fill-opacity:1.0;  stroke:#000000; stroke-width:39.3701; stroke-opacity:1;  stroke-linecap:round; stroke-linejoin:round;"
     id="g76" />
  <g
     style="fill:#000000; fill-opacity:1.0;  stroke:#000000; stroke-width:0; stroke-opacity:1;  stroke-linecap:round; stroke-linejoin:round;"
     id="g78">
    <polyline
       style="fill-rule:evenodd;"
       points="38271,19749 37445,19749 37445,18922 38271,18922 38271,19749 "
       id="polyline80" />
    <circle
       cx="30805.5"
       cy="19450.4"
       r="378.74"
       id="circle82" />
  </g>
  <g
     style="fill:#000000; fill-opacity:1.0;  stroke:#000000; stroke-width:39.3701; stroke-opacity:1;  stroke-linecap:round; stroke-linejoin:round;"
     id="g84" />
  <g
     style="fill:#000000; fill-opacity:1.0;  stroke:#000000; stroke-width:0; stroke-opacity:1;  stroke-linecap:round; stroke-linejoin:round;"
     id="g86">
    <circle
       cx="32726.8"
       cy="19450.4"
       r="378.74"
       id="circle88" />
  </g>
  <g
     style="fill:#000000; fill-opacity:1.0;  stroke:#000000; stroke-width:39.3701; stroke-opacity:1;  stroke-linecap:round; stroke-linejoin:round;"
     id="g90" />
  <g
     style="fill:#000000; fill-opacity:1.0;  stroke:#000000; stroke-width:0; stroke-opacity:1;  stroke-linecap:round; stroke-linejoin:round;"
     id="g92">
    <circle
       cx="42519.7"
       cy="23222"
       r="1062.99"
       id="circle94" />
  </g>
  <g
     style="fill:#000000; fill-opacity:1.0;  stroke:#000000; stroke-width:39.3701; stroke-opacity:1;  stroke-linecap:round; stroke-linejoin:round;"
     id="g96" />
  <g
     style="fill:#000000; fill-opacity:1.0;  stroke:#000000; stroke-width:0; stroke-opacity:1;  stroke-linecap:round; stroke-linejoin:round;"
     id="g98">
    <circle
       cx="22834.6"
       cy="23222"
       r="1062.99"
       id="circle100" />
  </g>
  <g
     style="fill:#000000; fill-opacity:1.0;  stroke:#000000; stroke-width:39.3701; stroke-opacity:1;  stroke-linecap:round; stroke-linejoin:round;"
     id="g102" />
  <g
     style="fill:#000000; fill-opacity:1.0;  stroke:#000000; stroke-width:0; stroke-opacity:1;  stroke-linecap:round; stroke-linejoin:round;"
     id="g104">
    <circle
       cx="42519.7"
       cy="42907.1"
       r="1062.99"
       id="circle106" />
  </g>
  <g
     style="fill:#000000; fill-opacity:1.0;  stroke:#000000; stroke-width:39.3701; stroke-opacity:1;  stroke-linecap:round; stroke-linejoin:round;"
     id="g108" />
  <g
     style="fill:#000000; fill-opacity:1.0;  stroke:#000000; stroke-width:0; stroke-opacity:1;  stroke-linecap:round; stroke-linejoin:round;"
     id="g110">
    <circle
       cx="22834.6"
       cy="42907.1"
       r="1062.99"
       id="circle112" />
  </g>
  <g
     style="fill:#000000; fill-opacity:1.0;  stroke:#000000; stroke-width:39.3701; stroke-opacity:1;  stroke-linecap:round; stroke-linejoin:round;"
     id="g114" />
  <g
     style="fill:#000000; fill-opacity:1.0;  stroke:#000000; stroke-width:0; stroke-opacity:1;  stroke-linecap:round; stroke-linejoin:round;"
     id="g116">
    <circle
       cx="45177.2"
       cy="20564.6"
       r="1062.99"
       id="circle118" />
  </g>
  <g
     style="fill:#000000; fill-opacity:1.0;  stroke:#000000; stroke-width:39.3701; stroke-opacity:1;  stroke-linecap:round; stroke-linejoin:round;"
     id="g120" />
  <g
     style="fill:#000000; fill-opacity:1.0;  stroke:#000000; stroke-width:0; stroke-opacity:1;  stroke-linecap:round; stroke-linejoin:round;"
     id="g122">
    <circle
       cx="20177.2"
       cy="20564.6"
       r="1062.99"
       id="circle124" />
  </g>
  <g
     style="fill:#000000; fill-opacity:1.0;  stroke:#000000; stroke-width:39.3701; stroke-opacity:1;  stroke-linecap:round; stroke-linejoin:round;"
     id="g126" />
  <g
     style="fill:#000000; fill-opacity:1.0;  stroke:#000000; stroke-width:0; stroke-opacity:1;  stroke-linecap:round; stroke-linejoin:round;"
     id="g128">
    <circle
       cx="45177.2"
       cy="45564.6"
       r="1062.99"
       id="circle130" />
  </g>
  <g
     style="fill:#000000; fill-opacity:1.0;  stroke:#000000; stroke-width:39.3701; stroke-opacity:1;  stroke-linecap:round; stroke-linejoin:round;"
     id="g132" />
  <g
     style="fill:#000000; fill-opacity:1.0;  stroke:#000000; stroke-width:750.48; stroke-opacity:1;  stroke-linecap:round; stroke-linejoin:round;"
     id="g134" />
  <g
     style="fill:#000000; fill-opacity:0.0;  stroke:#000000; stroke-width:750.48; stroke-opacity:1;  stroke-linecap:round; stroke-linejoin:round;"
     id="g136">
    <path
       d="M25755 19362 L25755 19956 "
       id="path138" />
    <path
       d="M26755 19362 L26755 19956 "
       id="path140" />
    <path
       d="M27755 19362 L27755 19956 "
       id="path142" />
  </g>
  <g
     style="fill:#000000; fill-opacity:0.0;  stroke:#000000; stroke-width:0; stroke-opacity:1;  stroke-linecap:round; stroke-linejoin:round;"
     id="g144" />
  <g
     style="fill:#000000; fill-opacity:1.0;  stroke:#000000; stroke-width:0; stroke-opacity:1;  stroke-linecap:round; stroke-linejoin:round;"
     id="g146">
    <polyline
       style="fill-rule:evenodd;"
       points="28137,22720 28137,22180 28794,22180 28794,22720 28137,22720 "
       id="polyline148" />
    <polyline
       style="fill-rule:evenodd;"
       points="28137,23220 28137,22680 28794,22680 28794,23220 28137,23220 "
       id="polyline150" />
    <polyline
       style="fill-rule:evenodd;"
       points="28137,23720 28137,23180 28794,23180 28794,23720 28137,23720 "
       id="polyline152" />
    <polyline
       style="fill-rule:evenodd;"
       points="27794,23180 27794,23720 27137,23720 27137,23180 27794,23180 "
       id="polyline154" />
    <polyline
       style="fill-rule:evenodd;"
       points="27794,22680 27794,23220 27137,23220 27137,22680 27794,22680 "
       id="polyline156" />
    <polyline
       style="fill-rule:evenodd;"
       points="27794,22180 27794,22720 27137,22720 27137,22180 27794,22180 "
       id="polyline158" />
    <polyline
       style="fill-rule:evenodd;"
       points="41929,37100 41929,37887 41141,37887 41141,37100 41929,37100 "
       id="polyline160" />
    <circle
       cx="40551.2"
       cy="37493.7"
       r="393.701"
       id="circle162" />
  </g>
  <g
     style="fill:#000000; fill-opacity:1.0;  stroke:#000000; stroke-width:39.3701; stroke-opacity:1;  stroke-linecap:round; stroke-linejoin:round;"
     id="g164" />
  <g
     style="fill:#000000; fill-opacity:1.0;  stroke:#000000; stroke-width:78.7402; stroke-opacity:1;  stroke-linecap:round; stroke-linejoin:round;"
     id="g166" />
  <g
     style="fill:#000000; fill-opacity:0.0;  stroke:#000000; stroke-width:78.7402; stroke-opacity:1;  stroke-linecap:round; stroke-linejoin:round;"
     id="g168">
    <path
       d="M23766 27294 L23016 26544 "
       id="path170" />
    <path
       d="M23416 27294 L23766 27294 "
       id="path172" />
    <path
       d="M22266 27294 L23416 27294 "
       id="path174" />
    <path
       d="M23016 26544 L22266 27294 "
       id="path176" />
    <path
       d="M23016 30194 L23016 26544 "
       id="path178" />
  </g>
  <g
     style="fill:#000000; fill-opacity:0.0;  stroke:#000000; stroke-width:118.11; stroke-opacity:1;  stroke-linecap:round; stroke-linejoin:round;"
     id="g180">
    <path
       d="M25599 21739 L25683 21767 L25824 21767 L25880 21739 L25908 21711 L25936 21655 L25936 21598 L25908 21542 L25880 21514 L25824 21486 L25711 21458 L25655 21430 L25627 21401 L25599 21345 L25599 21289 L25627 21233 L25655 21205 L25711 21176 L25852 21176 L25936 21205 "
       id="path182" />
    <path
       d="M26414 21739 L26358 21767 L26245 21767 L26189 21739 L26161 21683 L26161 21458 L26189 21401 L26245 21373 L26358 21373 L26414 21401 L26442 21458 L26442 21514 L26161 21570 "
       id="path184" />
    <path
       d="M26695 21767 L26695 21373 "
       id="path186" />
    <path
       d="M26695 21486 L26723 21430 L26752 21401 L26808 21373 L26864 21373 "
       id="path188" />
    <path
       d="M27061 21767 L27061 21373 "
       id="path190" />
    <path
       d="M27061 21176 L27033 21205 L27061 21233 L27089 21205 L27061 21176 L27061 21233 "
       id="path192" />
    <path
       d="M27595 21767 L27595 21458 L27567 21401 L27511 21373 L27398 21373 L27342 21401 "
       id="path194" />
    <path
       d="M27595 21739 L27539 21767 L27398 21767 L27342 21739 L27314 21683 L27314 21626 L27342 21570 L27398 21542 L27539 21542 L27595 21514 "
       id="path196" />
    <path
       d="M27961 21767 L27905 21739 L27876 21683 L27876 21176 "
       id="path198" />
    <path
       d="M42786 30196 L42393 30196 "
       id="path200" />
    <path
       d="M42196 30196 L42224 30224 L42252 30196 L42224 30168 L42196 30196 L42252 30196 "
       id="path202" />
    <path
       d="M42252 29943 L42224 29914 L42196 29858 L42196 29718 L42224 29661 L42252 29633 L42308 29605 L42365 29605 L42449 29633 L42786 29971 L42786 29605 "
       id="path204" />
    <path
       d="M42730 29015 L42758 29043 L42786 29127 L42786 29183 L42758 29268 L42702 29324 L42646 29352 L42533 29380 L42449 29380 L42336 29352 L42280 29324 L42224 29268 L42196 29183 L42196 29127 L42224 29043 L42252 29015 "
       id="path206" />
  </g>
  <g
     style="fill:#000000; fill-opacity:0.0;  stroke:#000000; stroke-width:59.0551; stroke-opacity:1;  stroke-linecap:round; stroke-linejoin:round;"
     id="g208">
    <path
       d="M41870 27222 L41870 32222 "
       id="path210" />
    <path
       d="M41870 32222 L39870 32222 "
       id="path212" />
    <path
       d="M39870 32222 L39870 28222 "
       id="path214" />
    <path
       d="M41870 27222 L40870 27222 "
       id="path216" />
    <path
       d="M40370 27111 L39759 27111 "
       id="path218" />
    <path
       d="M40870 27222 L40870 28222 "
       id="path220" />
    <path
       d="M40870 28222 L39870 28222 "
       id="path222" />
    <path
       d="M39759 27111 L39759 27722 "
       id="path224" />
    <path
       d="M36366 24950 L34366 24950 "
       id="path226" />
    <path
       d="M33255 24840 L33866 24840 "
       id="path228" />
    <path
       d="M33366 25950 L34366 25950 "
       id="path230" />
    <path
       d="M34366 25950 L34366 24950 "
       id="path232" />
    <path
       d="M36366 24950 L36366 26950 "
       id="path234" />
    <path
       d="M36366 26950 L34366 26950 "
       id="path236" />
    <path
       d="M33255 24840 L33255 25450 "
       id="path238" />
    <path
       d="M33366 26950 L33366 25950 "
       id="path240" />
    <path
       d="M34366 26950 L33366 26950 "
       id="path242" />
    <path
       d="M39066 22236 L39066 22786 "
       id="path244" />
    <path
       d="M39066 20486 L39066 19886 "
       id="path246" />
    <path
       d="M39366 20636 L38766 20636 "
       id="path248" />
    <path
       d="M39366 20536 L38766 20536 "
       id="path250" />
    <path
       d="M39066 20436 L38766 20436 "
       id="path252" />
    <path
       d="M38766 20436 L38766 22236 "
       id="path254" />
    <path
       d="M38766 22236 L39366 22236 "
       id="path256" />
    <path
       d="M39366 22236 L39366 20436 "
       id="path258" />
    <path
       d="M39366 20436 L39066 20436 "
       id="path260" />
    <path
       d="M37858 22236 L37858 22786 "
       id="path262" />
    <path
       d="M37858 20486 L37858 19886 "
       id="path264" />
    <path
       d="M38158 20636 L37558 20636 "
       id="path266" />
    <path
       d="M38158 20536 L37558 20536 "
       id="path268" />
    <path
       d="M37858 20436 L37558 20436 "
       id="path270" />
    <path
       d="M37558 20436 L37558 22236 "
       id="path272" />
    <path
       d="M37558 22236 L38158 22236 "
       id="path274" />
    <path
       d="M38158 22236 L38158 20436 "
       id="path276" />
    <path
       d="M38158 20436 L37858 20436 "
       id="path278" />
    <path
       d="M30490 20375 L32340 20375 "
       id="path280" />
    <path
       d="M30490 18525 L32340 18525 "
       id="path282" />
    <path
       d="M33041 20375 L32116 20375 "
       id="path284" />
    <path
       d="M33041 18525 L32116 18525 "
       id="path286" />
    <path
       d="M33966.9 19450.4 A925.197 925.197 0.0 0 0 33041.7 18525.2 "
       id="path288" />
    <path
       d="M33041.7 20375.6 A925.197 925.197 0.0 0 0 33966.9 19450.4 "
       id="path290" />
    <path
       d="M29565.4 19450.4 A925.197 925.197 0.0 0 0 30490.6 20375.6 "
       id="path292" />
    <path
       d="M30490.6 18525.2 A925.197 925.197 0.0 0 0 29565.4 19450.4 "
       id="path294" />
    <path
       d="M25255 18409 L25255 20909 "
       id="path296" />
    <path
       d="M28255 18409 L28255 20909 "
       id="path298" />
    <path
       d="M28255 19159 L25255 19159 "
       id="path300" />
    <path
       d="M25255 18409 L28255 18409 "
       id="path302" />
    <path
       d="M28255 20909 L25255 20909 "
       id="path304" />
  </g>
  <g
     style="fill:#000000; fill-opacity:0.0;  stroke:#000000; stroke-width:47.2441; stroke-opacity:1;  stroke-linecap:round; stroke-linejoin:round;"
     id="g306">
    <path
       d="M28115 22198 L28115 23702 "
       id="path308" />
    <path
       d="M28115 23702 L28816 23702 "
       id="path310" />
    <path
       d="M28816 23702 L28816 22198 "
       id="path312" />
    <path
       d="M28115 22198 L28816 22198 "
       id="path314" />
    <path
       d="M27816 23702 L27816 22198 "
       id="path316" />
    <path
       d="M27816 22198 L27115 22198 "
       id="path318" />
    <path
       d="M27115 22198 L27115 23702 "
       id="path320" />
    <path
       d="M27816 23702 L27115 23702 "
       id="path322" />
    <circle
       cx="41043.3"
       cy="37493.7"
       r="1610.24"
       id="circle324" />
    <path
       d="M42401 37493 L41929 37493 "
       id="path326" />
    <path
       d="M42165 37749 L42165 37237 "
       id="path328" />
  </g>
  <g
     style="fill:#000000; fill-opacity:0.0;  stroke:#000000; stroke-width:118.11; stroke-opacity:1;  stroke-linecap:round; stroke-linejoin:round;"
     id="g582">
    <path
       d="M46130 30899 L46130 30786 L46102 30730 L46074 30702 L45989 30646 L45877 30617 L45652 30617 L45596 30646 L45568 30674 L45539 30730 L45539 30842 L45568 30899 L45596 30927 L45652 30955 L45793 30955 L45849 30927 L45877 30899 L45905 30842 L45905 30730 L45877 30674 L45849 30646 L45793 30617 "
       id="path584" />
    <path
       d="M46130 31152 L46130 31517 L45905 31321 L45905 31405 L45877 31461 L45849 31489 L45793 31517 L45652 31517 L45596 31489 L45568 31461 L45539 31405 L45539 31236 L45568 31180 L45596 31152 "
       id="path586" />
    <path
       d="M45568 31799 L45539 31799 L45483 31770 L45455 31742 "
       id="path588" />
    <path
       d="M46130 32333 L46130 32052 L45849 32024 L45877 32052 L45905 32108 L45905 32249 L45877 32305 L45849 32333 L45793 32361 L45652 32361 L45596 32333 L45568 32305 L45539 32249 L45539 32108 L45568 32052 L45596 32024 "
       id="path590" />
    <path
       d="M46130 32727 L46130 32783 L46102 32839 L46074 32867 L46017 32895 L45905 32923 L45764 32923 L45652 32895 L45596 32867 L45568 32839 L45539 32783 L45539 32727 L45568 32670 L45596 32642 L45652 32614 L45764 32586 L45905 32586 L46017 32614 L46074 32642 L46102 32670 L46130 32727 "
       id="path592" />
    <path
       d="M46130 33289 L46130 33345 L46102 33402 L46074 33430 L46017 33458 L45905 33486 L45764 33486 L45652 33458 L45596 33430 L45568 33402 L45539 33345 L45539 33289 L45568 33233 L45596 33205 L45652 33177 L45764 33148 L45905 33148 L46017 33177 L46074 33205 L46102 33233 L46130 33289 "
       id="path594" />
    <path
       d="M45539 34189 L45933 34189 "
       id="path596" />
    <path
       d="M45877 34189 L45905 34217 L45933 34273 L45933 34358 L45905 34414 L45849 34442 L45539 34442 "
       id="path598" />
    <path
       d="M45849 34442 L45905 34470 L45933 34526 L45933 34611 L45905 34667 L45849 34695 L45539 34695 "
       id="path600" />
    <path
       d="M45539 34976 L45933 34976 "
       id="path602" />
    <path
       d="M45877 34976 L45905 35004 L45933 35061 L45933 35145 L45905 35201 L45849 35229 L45539 35229 "
       id="path604" />
    <path
       d="M45849 35229 L45905 35258 L45933 35314 L45933 35398 L45905 35454 L45849 35483 L45539 35483 "
       id="path606" />
    <path
       d="M45275 20564 L45275 45564 "
       id="path608" />
    <path
       d="M45177 20564 L46338 20564 "
       id="path610" />
    <path
       d="M45177 45564 L46338 45564 "
       id="path612" />
    <path
       d="M45275 45564 L45044 45121 "
       id="path614" />
    <path
       d="M45275 45564 L45506 45121 "
       id="path616" />
    <path
       d="M45275 20564 L45044 21008 "
       id="path618" />
    <path
       d="M45275 20564 L45506 21008 "
       id="path620" />
    <path
       d="M44555 30927 L44555 30646 L44274 30617 L44302 30646 L44330 30702 L44330 30842 L44302 30899 L44274 30927 L44218 30955 L44077 30955 L44021 30927 L43993 30899 L43965 30842 L43965 30702 L43993 30646 L44021 30617 "
       id="path622" />
    <path
       d="M44555 31321 L44555 31377 L44527 31433 L44499 31461 L44443 31489 L44330 31517 L44190 31517 L44077 31489 L44021 31461 L43993 31433 L43965 31377 L43965 31321 L43993 31264 L44021 31236 L44077 31208 L44190 31180 L44330 31180 L44443 31208 L44499 31236 L44527 31264 L44555 31321 "
       id="path624" />
    <path
       d="M43993 31799 L43965 31799 L43908 31770 L43880 31742 "
       id="path626" />
    <path
       d="M44555 32164 L44555 32220 L44527 32277 L44499 32305 L44443 32333 L44330 32361 L44190 32361 L44077 32333 L44021 32305 L43993 32277 L43965 32220 L43965 32164 L43993 32108 L44021 32080 L44077 32052 L44190 32024 L44330 32024 L44443 32052 L44499 32080 L44527 32108 L44555 32164 "
       id="path628" />
    <path
       d="M44555 32727 L44555 32783 L44527 32839 L44499 32867 L44443 32895 L44330 32923 L44190 32923 L44077 32895 L44021 32867 L43993 32839 L43965 32783 L43965 32727 L43993 32670 L44021 32642 L44077 32614 L44190 32586 L44330 32586 L44443 32614 L44499 32642 L44527 32670 L44555 32727 "
       id="path630" />
    <path
       d="M44555 33289 L44555 33345 L44527 33402 L44499 33430 L44443 33458 L44330 33486 L44190 33486 L44077 33458 L44021 33430 L43993 33402 L43965 33345 L43965 33289 L43993 33233 L44021 33205 L44077 33177 L44190 33148 L44330 33148 L44443 33177 L44499 33205 L44527 33233 L44555 33289 "
       id="path632" />
    <path
       d="M43965 34189 L44358 34189 "
       id="path634" />
    <path
       d="M44302 34189 L44330 34217 L44358 34273 L44358 34358 L44330 34414 L44274 34442 L43965 34442 "
       id="path636" />
    <path
       d="M44274 34442 L44330 34470 L44358 34526 L44358 34611 L44330 34667 L44274 34695 L43965 34695 "
       id="path638" />
    <path
       d="M43965 34976 L44358 34976 "
       id="path640" />
    <path
       d="M44302 34976 L44330 35004 L44358 35061 L44358 35145 L44330 35201 L44274 35229 L43965 35229 "
       id="path642" />
    <path
       d="M44274 35229 L44330 35258 L44358 35314 L44358 35398 L44330 35454 L44274 35483 L43965 35483 "
       id="path644" />
    <path
       d="M43700 23222 L43700 42907 "
       id="path646" />
    <path
       d="M42519 23222 L44763 23222 "
       id="path648" />
    <path
       d="M42519 42907 L44763 42907 "
       id="path650" />
    <path
       d="M43700 42907 L43469 42463 "
       id="path652" />
    <path
       d="M43700 42907 L43931 42463 "
       id="path654" />
    <path
       d="M43700 23222 L43469 23665 "
       id="path656" />
    <path
       d="M43700 23222 L43931 23665 "
       id="path658" />
    <path
       d="M17308 58666 L17674 58666 L17477 58891 L17561 58891 L17618 58919 L17646 58947 L17674 59003 L17674 59144 L17646 59200 L17618 59228 L17561 59256 L17393 59256 L17336 59228 L17308 59200 "
       id="path660" />
    <path
       d="M18180 58863 L18180 59256 "
       id="path662" />
    <path
       d="M18039 58638 L17899 59060 L18264 59060 "
       id="path664" />
    <path
       d="M18517 59228 L18517 59256 L18489 59313 L18461 59341 "
       id="path666" />
    <path
       d="M19052 58666 L18771 58666 L18742 58947 L18771 58919 L18827 58891 L18967 58891 L19024 58919 L19052 58947 L19080 59003 L19080 59144 L19052 59200 L19024 59228 L18967 59256 L18827 59256 L18771 59228 L18742 59200 "
       id="path668" />
    <path
       d="M19446 58666 L19502 58666 L19558 58694 L19586 58722 L19614 58778 L19642 58891 L19642 59031 L19614 59144 L19586 59200 L19558 59228 L19502 59256 L19446 59256 L19389 59228 L19361 59200 L19333 59144 L19305 59031 L19305 58891 L19333 58778 L19361 58722 L19389 58694 L19446 58666 "
       id="path670" />
    <path
       d="M20008 58666 L20064 58666 L20120 58694 L20149 58722 L20177 58778 L20205 58891 L20205 59031 L20177 59144 L20149 59200 L20120 59228 L20064 59256 L20008 59256 L19952 59228 L19924 59200 L19895 59144 L19867 59031 L19867 58891 L19895 58778 L19924 58722 L19952 58694 L20008 58666 "
       id="path672" />
    <path
       d="M20908 59256 L20908 58863 "
       id="path674" />
    <path
       d="M20908 58919 L20936 58891 L20992 58863 L21077 58863 L21133 58891 L21161 58947 L21161 59256 "
       id="path676" />
    <path
       d="M21161 58947 L21189 58891 L21245 58863 L21330 58863 L21386 58891 L21414 58947 L21414 59256 "
       id="path678" />
    <path
       d="M21695 59256 L21695 58863 "
       id="path680" />
    <path
       d="M21695 58919 L21723 58891 L21780 58863 L21864 58863 L21920 58891 L21948 58947 L21948 59256 "
       id="path682" />
    <path
       d="M21948 58947 L21976 58891 L22033 58863 L22117 58863 L22173 58891 L22201 58947 L22201 59256 "
       id="path684" />
    <path
       d="M26574 58458 L12992 58458 "
       id="path686" />
    <path
       d="M26574 38576 L26574 59521 "
       id="path688" />
    <path
       d="M12992 38576 L12992 59521 "
       id="path690" />
    <path
       d="M12992 58458 L13435 58227 "
       id="path692" />
    <path
       d="M12992 58458 L13435 58689 "
       id="path694" />
    <path
       d="M26574 58458 L26131 58227 "
       id="path696" />
    <path
       d="M26574 58458 L26131 58689 "
       id="path698" />
    <path
       d="M43096 58666 L43461 58666 L43264 58891 L43349 58891 L43405 58919 L43433 58947 L43461 59003 L43461 59144 L43433 59200 L43405 59228 L43349 59256 L43180 59256 L43124 59228 L43096 59200 "
       id="path700" />
    <path
       d="M43967 58863 L43967 59256 "
       id="path702" />
    <path
       d="M43827 58638 L43686 59060 L44052 59060 "
       id="path704" />
    <path
       d="M44305 59228 L44305 59256 L44277 59313 L44249 59341 "
       id="path706" />
    <path
       d="M44839 58666 L44558 58666 L44530 58947 L44558 58919 L44614 58891 L44755 58891 L44811 58919 L44839 58947 L44867 59003 L44867 59144 L44839 59200 L44811 59228 L44755 59256 L44614 59256 L44558 59228 L44530 59200 "
       id="path708" />
    <path
       d="M45233 58666 L45289 58666 L45345 58694 L45374 58722 L45402 58778 L45430 58891 L45430 59031 L45402 59144 L45374 59200 L45345 59228 L45289 59256 L45233 59256 L45177 59228 L45149 59200 L45120 59144 L45092 59031 L45092 58891 L45120 58778 L45149 58722 L45177 58694 L45233 58666 "
       id="path710" />
    <path
       d="M45795 58666 L45852 58666 L45908 58694 L45936 58722 L45964 58778 L45992 58891 L45992 59031 L45964 59144 L45936 59200 L45908 59228 L45852 59256 L45795 59256 L45739 59228 L45711 59200 L45683 59144 L45655 59031 L45655 58891 L45683 58778 L45711 58722 L45739 58694 L45795 58666 "
       id="path712" />
    <path
       d="M46695 59256 L46695 58863 "
       id="path714" />
    <path
       d="M46695 58919 L46723 58891 L46780 58863 L46864 58863 L46920 58891 L46948 58947 L46948 59256 "
       id="path716" />
    <path
       d="M46948 58947 L46976 58891 L47033 58863 L47117 58863 L47173 58891 L47201 58947 L47201 59256 "
       id="path718" />
    <path
       d="M47483 59256 L47483 58863 "
       id="path720" />
    <path
       d="M47483 58919 L47511 58891 L47567 58863 L47651 58863 L47708 58891 L47736 58947 L47736 59256 "
       id="path722" />
    <path
       d="M47736 58947 L47764 58891 L47820 58863 L47904 58863 L47961 58891 L47989 58947 L47989 59256 "
       id="path724" />
    <path
       d="M38779 58458 L52362 58458 "
       id="path726" />
    <path
       d="M38779 36214 L38779 59521 "
       id="path728" />
    <path
       d="M52362 36214 L52362 59521 "
       id="path730" />
    <path
       d="M52362 58458 L51918 58689 "
       id="path732" />
    <path
       d="M52362 58458 L51918 58227 "
       id="path734" />
    <path
       d="M38779 58458 L39223 58689 "
       id="path736" />
    <path
       d="M38779 58458 L39223 58227 "
       id="path738" />
    <path
       d="M2294 23137 L2294 22772 L2519 22968 L2519 22884 L2547 22828 L2575 22800 L2632 22772 L2772 22772 L2829 22800 L2857 22828 L2885 22884 L2885 23053 L2857 23109 L2829 23137 "
       id="path740" />
    <path
       d="M2294 22575 L2294 22181 L2885 22434 "
       id="path742" />
    <path
       d="M2857 21928 L2885 21928 L2941 21956 L2969 21984 "
       id="path744" />
    <path
       d="M2294 21562 L2294 21506 L2322 21450 L2350 21422 L2407 21394 L2519 21366 L2660 21366 L2772 21394 L2829 21422 L2857 21450 L2885 21506 L2885 21562 L2857 21619 L2829 21647 L2772 21675 L2660 21703 L2519 21703 L2407 21675 L2350 21647 L2322 21619 L2294 21562 "
       id="path746" />
    <path
       d="M2294 21000 L2294 20944 L2322 20887 L2350 20859 L2407 20831 L2519 20803 L2660 20803 L2772 20831 L2829 20859 L2857 20887 L2885 20944 L2885 21000 L2857 21056 L2829 21084 L2772 21112 L2660 21141 L2519 21141 L2407 21112 L2350 21084 L2322 21056 L2294 21000 "
       id="path748" />
    <path
       d="M2294 20438 L2294 20381 L2322 20325 L2350 20297 L2407 20269 L2519 20241 L2660 20241 L2772 20269 L2829 20297 L2857 20325 L2885 20381 L2885 20438 L2857 20494 L2829 20522 L2772 20550 L2660 20578 L2519 20578 L2407 20550 L2350 20522 L2322 20494 L2294 20438 "
       id="path750" />
    <path
       d="M2885 19538 L2491 19538 "
       id="path752" />
    <path
       d="M2547 19538 L2519 19510 L2491 19453 L2491 19369 L2519 19313 L2575 19285 L2885 19285 "
       id="path754" />
    <path
       d="M2575 19285 L2519 19256 L2491 19200 L2491 19116 L2519 19060 L2575 19031 L2885 19031 "
       id="path756" />
    <path
       d="M2885 18750 L2491 18750 "
       id="path758" />
    <path
       d="M2547 18750 L2519 18722 L2491 18666 L2491 18582 L2519 18525 L2575 18497 L2885 18497 "
       id="path760" />
    <path
       d="M2575 18497 L2519 18469 L2491 18413 L2491 18328 L2519 18272 L2575 18244 L2885 18244 "
       id="path762" />
    <path
       d="M3149 27946 L3149 13379 "
       id="path764" />
    <path
       d="M33267 27946 L2086 27946 "
       id="path766" />
    <path
       d="M33267 13379 L2086 13379 "
       id="path768" />
    <path
       d="M3149 13379 L3380 13823 "
       id="path770" />
    <path
       d="M3149 13379 L2918 13823 "
       id="path772" />
    <path
       d="M3149 27946 L3380 27502 "
       id="path774" />
    <path
       d="M3149 27946 L2918 27502 "
       id="path776" />
    <path
       d="M7019 45283 L7047 45311 L7075 45367 L7075 45508 L7047 45564 L7019 45592 L6962 45620 L6906 45620 L6822 45592 L6484 45255 L6484 45620 "
       id="path778" />
    <path
       d="M7075 46155 L7075 45873 L6794 45845 L6822 45873 L6850 45930 L6850 46070 L6822 46126 L6794 46155 L6737 46183 L6597 46183 L6541 46155 L6512 46126 L6484 46070 L6484 45930 L6512 45873 L6541 45845 "
       id="path780" />
    <path
       d="M6512 46464 L6484 46464 L6428 46436 L6400 46408 "
       id="path782" />
    <path
       d="M7075 46998 L7075 46717 L6794 46689 L6822 46717 L6850 46773 L6850 46914 L6822 46970 L6794 46998 L6737 47026 L6597 47026 L6541 46998 L6512 46970 L6484 46914 L6484 46773 L6512 46717 L6541 46689 "
       id="path784" />
    <path
       d="M7075 47392 L7075 47448 L7047 47504 L7019 47533 L6962 47561 L6850 47589 L6709 47589 L6597 47561 L6541 47533 L6512 47504 L6484 47448 L6484 47392 L6512 47336 L6541 47308 L6597 47279 L6709 47251 L6850 47251 L6962 47279 L7019 47308 L7047 47336 L7075 47392 "
       id="path786" />
    <path
       d="M7075 47954 L7075 48011 L7047 48067 L7019 48095 L6962 48123 L6850 48151 L6709 48151 L6597 48123 L6541 48095 L6512 48067 L6484 48011 L6484 47954 L6512 47898 L6541 47870 L6597 47842 L6709 47814 L6850 47814 L6962 47842 L7019 47870 L7047 47898 L7075 47954 "
       id="path788" />
    <path
       d="M6484 48854 L6878 48854 "
       id="path790" />
    <path
       d="M6822 48854 L6850 48882 L6878 48939 L6878 49023 L6850 49079 L6794 49107 L6484 49107 "
       id="path792" />
    <path
       d="M6794 49107 L6850 49135 L6878 49192 L6878 49276 L6850 49332 L6794 49360 L6484 49360 "
       id="path794" />
    <path
       d="M6484 49642 L6878 49642 "
       id="path796" />
    <path
       d="M6822 49642 L6850 49670 L6878 49726 L6878 49810 L6850 49867 L6794 49895 L6484 49895 "
       id="path798" />
    <path
       d="M6794 49895 L6850 49923 L6878 49979 L6878 50064 L6850 50120 L6794 50148 L6484 50148 "
       id="path800" />
    <path
       d="M7283 42710 L7283 52749 "
       id="path802" />
    <path
       d="M33464 42710 L6220 42710 "
       id="path804" />
    <path
       d="M33464 52749 L6220 52749 "
       id="path806" />
    <path
       d="M7283 52749 L7052 52306 "
       id="path808" />
    <path
       d="M7283 52749 L7514 52306 "
       id="path810" />
    <path
       d="M7283 42710 L7052 43153 "
       id="path812" />
    <path
       d="M7283 42710 L7514 43153 "
       id="path814" />
    <path
       d="M30511 5438 L30399 5438 L30343 5466 L30314 5494 L30258 5578 L30230 5691 L30230 5916 L30258 5972 L30286 6000 L30343 6028 L30455 6028 L30511 6000 L30539 5972 L30568 5916 L30568 5775 L30539 5719 L30511 5691 L30455 5662 L30343 5662 L30286 5691 L30258 5719 L30230 5775 "
       id="path816" />
    <path
       d="M30764 5438 L31130 5438 L30933 5662 L31017 5662 L31074 5691 L31102 5719 L31130 5775 L31130 5916 L31102 5972 L31074 6000 L31017 6028 L30849 6028 L30793 6000 L30764 5972 "
       id="path818" />
    <path
       d="M31411 6000 L31411 6028 L31383 6084 L31355 6112 "
       id="path820" />
    <path
       d="M31946 5438 L31664 5438 L31636 5719 L31664 5691 L31721 5662 L31861 5662 L31917 5691 L31946 5719 L31974 5775 L31974 5916 L31946 5972 L31917 6000 L31861 6028 L31721 6028 L31664 6000 L31636 5972 "
       id="path822" />
    <path
       d="M32339 5438 L32395 5438 L32452 5466 L32480 5494 L32508 5550 L32536 5662 L32536 5803 L32508 5916 L32480 5972 L32452 6000 L32395 6028 L32339 6028 L32283 6000 L32255 5972 L32227 5916 L32199 5803 L32199 5662 L32227 5550 L32255 5494 L32283 5466 L32339 5438 "
       id="path824" />
    <path
       d="M32902 5438 L32958 5438 L33014 5466 L33042 5494 L33070 5550 L33098 5662 L33098 5803 L33070 5916 L33042 5972 L33014 6000 L32958 6028 L32902 6028 L32845 6000 L32817 5972 L32789 5916 L32761 5803 L32761 5662 L32789 5550 L32817 5494 L32845 5466 L32902 5438 "
       id="path826" />
    <path
       d="M33802 6028 L33802 5634 "
       id="path828" />
    <path
       d="M33802 5691 L33830 5662 L33886 5634 L33970 5634 L34026 5662 L34055 5719 L34055 6028 "
       id="path830" />
    <path
       d="M34055 5719 L34083 5662 L34139 5634 L34223 5634 L34280 5662 L34308 5719 L34308 6028 "
       id="path832" />
    <path
       d="M34589 6028 L34589 5634 "
       id="path834" />
    <path
       d="M34589 5691 L34617 5662 L34673 5634 L34758 5634 L34814 5662 L34842 5719 L34842 6028 "
       id="path836" />
    <path
       d="M34842 5719 L34870 5662 L34926 5634 L35011 5634 L35067 5662 L35095 5719 L35095 6028 "
       id="path838" />
    <path
       d="M20177 6292 L45177 6292 "
       id="path840" />
    <path
       d="M20177 20564 L20177 5229 "
       id="path842" />
    <path
       d="M45177 20564 L45177 5229 "
       id="path844" />
    <path
       d="M45177 6292 L44733 6523 "
       id="path846" />
    <path
       d="M45177 6292 L44733 6062 "
       id="path848" />
    <path
       d="M20177 6292 L20620 6523 "
       id="path850" />
    <path
       d="M20177 6292 L20620 6062 "
       id="path852" />
    <path
       d="M65618 30674 L65618 30336 "
       id="path854" />
    <path
       d="M65618 30505 L66209 30505 L66124 30449 L66068 30393 L66040 30336 "
       id="path856" />
    <path
       d="M66209 31039 L66209 31096 L66181 31152 L66152 31180 L66096 31208 L65984 31236 L65843 31236 L65731 31208 L65674 31180 L65646 31152 L65618 31096 L65618 31039 L65646 30983 L65674 30955 L65731 30927 L65843 30899 L65984 30899 L66096 30927 L66152 30955 L66181 30983 L66209 31039 "
       id="path858" />
    <path
       d="M66209 31602 L66209 31658 L66181 31714 L66152 31742 L66096 31770 L65984 31799 L65843 31799 L65731 31770 L65674 31742 L65646 31714 L65618 31658 L65618 31602 L65646 31546 L65674 31517 L65731 31489 L65843 31461 L65984 31461 L66096 31489 L66152 31517 L66181 31546 L66209 31602 "
       id="path860" />
    <path
       d="M65646 32080 L65618 32080 L65562 32052 L65534 32024 "
       id="path862" />
    <path
       d="M66209 32445 L66209 32502 L66181 32558 L66152 32586 L66096 32614 L65984 32642 L65843 32642 L65731 32614 L65674 32586 L65646 32558 L65618 32502 L65618 32445 L65646 32389 L65674 32361 L65731 32333 L65843 32305 L65984 32305 L66096 32333 L66152 32361 L66181 32389 L66209 32445 "
       id="path864" />
    <path
       d="M66209 33008 L66209 33064 L66181 33120 L66152 33148 L66096 33177 L65984 33205 L65843 33205 L65731 33177 L65674 33148 L65646 33120 L65618 33064 L65618 33008 L65646 32952 L65674 32923 L65731 32895 L65843 32867 L65984 32867 L66096 32895 L66152 32923 L66181 32952 L66209 33008 "
       id="path866" />
    <path
       d="M66209 33570 L66209 33626 L66181 33683 L66152 33711 L66096 33739 L65984 33767 L65843 33767 L65731 33739 L65674 33711 L65646 33683 L65618 33626 L65618 33570 L65646 33514 L65674 33486 L65731 33458 L65843 33430 L65984 33430 L66096 33458 L66152 33486 L66181 33514 L66209 33570 "
       id="path868" />
    <path
       d="M65618 34470 L66012 34470 "
       id="path870" />
    <path
       d="M65956 34470 L65984 34498 L66012 34555 L66012 34639 L65984 34695 L65928 34723 L65618 34723 "
       id="path872" />
    <path
       d="M65928 34723 L65984 34751 L66012 34808 L66012 34892 L65984 34948 L65928 34976 L65618 34976 "
       id="path874" />
    <path
       d="M65618 35258 L66012 35258 "
       id="path876" />
    <path
       d="M65956 35258 L65984 35286 L66012 35342 L66012 35426 L65984 35483 L65928 35511 L65618 35511 "
       id="path878" />
    <path
       d="M65928 35511 L65984 35539 L66012 35595 L66012 35679 L65984 35736 L65928 35764 L65618 35764 "
       id="path880" />
    <path
       d="M65354 13379 L65354 52749 "
       id="path882" />
    <path
       d="M42519 13379 L66417 13379 "
       id="path884" />
    <path
       d="M42519 52749 L66417 52749 "
       id="path886" />
    <path
       d="M65354 52749 L65123 52306 "
       id="path888" />
    <path
       d="M65354 52749 L65585 52306 "
       id="path890" />
    <path
       d="M65354 13379 L65123 13823 "
       id="path892" />
    <path
       d="M65354 13379 L65585 13823 "
       id="path894" />
    <path
       d="M61091 30927 L61091 30646 L60809 30617 L60838 30646 L60866 30702 L60866 30842 L60838 30899 L60809 30927 L60753 30955 L60613 30955 L60556 30927 L60528 30899 L60500 30842 L60500 30702 L60528 30646 L60556 30617 "
       id="path896" />
    <path
       d="M61091 31321 L61091 31377 L61062 31433 L61034 31461 L60978 31489 L60866 31517 L60725 31517 L60613 31489 L60556 31461 L60528 31433 L60500 31377 L60500 31321 L60528 31264 L60556 31236 L60613 31208 L60725 31180 L60866 31180 L60978 31208 L61034 31236 L61062 31264 L61091 31321 "
       id="path898" />
    <path
       d="M60528 31799 L60500 31799 L60444 31770 L60416 31742 "
       id="path900" />
    <path
       d="M61091 32164 L61091 32220 L61062 32277 L61034 32305 L60978 32333 L60866 32361 L60725 32361 L60613 32333 L60556 32305 L60528 32277 L60500 32220 L60500 32164 L60528 32108 L60556 32080 L60613 32052 L60725 32024 L60866 32024 L60978 32052 L61034 32080 L61062 32108 L61091 32164 "
       id="path902" />
    <path
       d="M61091 32727 L61091 32783 L61062 32839 L61034 32867 L60978 32895 L60866 32923 L60725 32923 L60613 32895 L60556 32867 L60528 32839 L60500 32783 L60500 32727 L60528 32670 L60556 32642 L60613 32614 L60725 32586 L60866 32586 L60978 32614 L61034 32642 L61062 32670 L61091 32727 "
       id="path904" />
    <path
       d="M61091 33289 L61091 33345 L61062 33402 L61034 33430 L60978 33458 L60866 33486 L60725 33486 L60613 33458 L60556 33430 L60528 33402 L60500 33345 L60500 33289 L60528 33233 L60556 33205 L60613 33177 L60725 33148 L60866 33148 L60978 33177 L61034 33205 L61062 33233 L61091 33289 "
       id="path906" />
    <path
       d="M60500 34189 L60894 34189 "
       id="path908" />
    <path
       d="M60838 34189 L60866 34217 L60894 34273 L60894 34358 L60866 34414 L60809 34442 L60500 34442 "
       id="path910" />
    <path
       d="M60809 34442 L60866 34470 L60894 34526 L60894 34611 L60866 34667 L60809 34695 L60500 34695 "
       id="path912" />
    <path
       d="M60500 34976 L60894 34976 "
       id="path914" />
    <path
       d="M60838 34976 L60866 35004 L60894 35061 L60894 35145 L60866 35201 L60809 35229 L60500 35229 "
       id="path916" />
    <path
       d="M60809 35229 L60866 35258 L60894 35314 L60894 35398 L60866 35454 L60809 35483 L60500 35483 "
       id="path918" />
    <path
       d="M60236 23222 L60236 42907 "
       id="path920" />
    <path
       d="M52362 23222 L61299 23222 "
       id="path922" />
    <path
       d="M52362 42907 L61299 42907 "
       id="path924" />
    <path
       d="M60236 42907 L60005 42463 "
       id="path926" />
    <path
       d="M60236 42907 L60467 42463 "
       id="path928" />
    <path
       d="M60236 23222 L60005 23665 "
       id="path930" />
    <path
       d="M60236 23222 L60467 23665 "
       id="path932" />
    <path
       d="M30539 10556 L30258 10556 L30230 10837 L30258 10809 L30314 10781 L30455 10781 L30511 10809 L30539 10837 L30568 10893 L30568 11034 L30539 11090 L30511 11118 L30455 11146 L30314 11146 L30258 11118 L30230 11090 "
       id="path934" />
    <path
       d="M30933 10556 L30989 10556 L31046 10584 L31074 10612 L31102 10668 L31130 10781 L31130 10921 L31102 11034 L31074 11090 L31046 11118 L30989 11146 L30933 11146 L30877 11118 L30849 11090 L30821 11034 L30793 10921 L30793 10781 L30821 10668 L30849 10612 L30877 10584 L30933 10556 "
       id="path936" />
    <path
       d="M31411 11118 L31411 11146 L31383 11202 L31355 11231 "
       id="path938" />
    <path
       d="M31777 10556 L31833 10556 L31889 10584 L31917 10612 L31946 10668 L31974 10781 L31974 10921 L31946 11034 L31917 11090 L31889 11118 L31833 11146 L31777 11146 L31721 11118 L31692 11090 L31664 11034 L31636 10921 L31636 10781 L31664 10668 L31692 10612 L31721 10584 L31777 10556 "
       id="path940" />
    <path
       d="M32339 10556 L32395 10556 L32452 10584 L32480 10612 L32508 10668 L32536 10781 L32536 10921 L32508 11034 L32480 11090 L32452 11118 L32395 11146 L32339 11146 L32283 11118 L32255 11090 L32227 11034 L32199 10921 L32199 10781 L32227 10668 L32255 10612 L32283 10584 L32339 10556 "
       id="path942" />
    <path
       d="M32902 10556 L32958 10556 L33014 10584 L33042 10612 L33070 10668 L33098 10781 L33098 10921 L33070 11034 L33042 11090 L33014 11118 L32958 11146 L32902 11146 L32845 11118 L32817 11090 L32789 11034 L32761 10921 L32761 10781 L32789 10668 L32817 10612 L32845 10584 L32902 10556 "
       id="path944" />
    <path
       d="M33802 11146 L33802 10752 "
       id="path946" />
    <path
       d="M33802 10809 L33830 10781 L33886 10752 L33970 10752 L34026 10781 L34055 10837 L34055 11146 "
       id="path948" />
    <path
       d="M34055 10837 L34083 10781 L34139 10752 L34223 10752 L34280 10781 L34308 10837 L34308 11146 "
       id="path950" />
    <path
       d="M34589 11146 L34589 10752 "
       id="path952" />
    <path
       d="M34589 10809 L34617 10781 L34673 10752 L34758 10752 L34814 10781 L34842 10837 L34842 11146 "
       id="path954" />
    <path
       d="M34842 10837 L34870 10781 L34926 10752 L35011 10752 L35067 10781 L35095 10837 L35095 11146 "
       id="path956" />
    <path
       d="M22834 11411 L42519 11411 "
       id="path958" />
    <path
       d="M22834 23222 L22834 10348 "
       id="path960" />
    <path
       d="M42519 23222 L42519 10348 "
       id="path962" />
    <path
       d="M42519 11411 L42076 11641 "
       id="path964" />
    <path
       d="M42519 11411 L42076 11180 "
       id="path966" />
    <path
       d="M22834 11411 L23278 11641 "
       id="path968" />
    <path
       d="M22834 11411 L23278 11180 "
       id="path970" />
  </g>
  <g
     style="fill:#000000; fill-opacity:0.0;  stroke:#000000; stroke-width:59.0551; stroke-opacity:1;  stroke-linecap:round; stroke-linejoin:round;"
     id="g972">
    <path
       d="M26574 42710 L27362 42710 "
       id="path974" />
    <path
       d="M26574 27946 L26574 42710 "
       id="path976" />
    <path
       d="M27362 27946 L26574 27946 "
       id="path978" />
    <path
       d="M27362 42710 L38779 42710 "
       id="path980" />
    <path
       d="M38779 27946 L27362 27946 "
       id="path982" />
    <path
       d="M38779 27946 L38779 42710 "
       id="path984" />
    <path
       d="M42519 52749 L22834 52749 "
       id="path986" />
    <path
       d="M52362 42907 L52362 23222 "
       id="path988" />
    <path
       d="M22834 13379 L42519 13379 "
       id="path990" />
    <path
       d="M12992 42907 L12992 23222 "
       id="path992" />
    <path
       d="M12992 23222 L22834 13379 "
       id="path994" />
    <path
       d="M52362 23222 L42519 13379 "
       id="path996" />
    <path
       d="M42519 52749 L52362 42907 "
       id="path998" />
    <path
       d="M22834 52749 L12992 42907 "
       id="path1000" />
  </g>
</svg>
