G04 #@! TF.FileFunction,Copper,L1,Top,Signal*
%FSLAX46Y46*%
G04 Gerber Fmt 4.6, Leading zero omitted, Abs format (unit mm)*
G04 Created by KiCad (PCBNEW 4.0.6-e0-6349~53~ubuntu16.04.1) date Thu Mar  2 14:53:25 2017*
%MOMM*%
%LPD*%
G01*
G04 APERTURE LIST*
%ADD10C,0.100000*%
%ADD11C,0.300000*%
%ADD12C,5.000000*%
%ADD13R,1.727200X1.727200*%
%ADD14O,1.727200X1.727200*%
%ADD15C,1.699260*%
%ADD16R,1.699260X1.699260*%
%ADD17C,1.524000*%
%ADD18O,1.506220X3.014980*%
%ADD19R,1.270000X0.970000*%
%ADD20R,1.600000X1.600000*%
%ADD21C,1.600000*%
%ADD22C,0.609600*%
%ADD23C,0.304800*%
%ADD24C,0.406400*%
G04 APERTURE END LIST*
D10*
D11*
X146035715Y-119428571D02*
X146035715Y-120642857D01*
X146107143Y-120785714D01*
X146178572Y-120857143D01*
X146321429Y-120928571D01*
X146607143Y-120928571D01*
X146750001Y-120857143D01*
X146821429Y-120785714D01*
X146892858Y-120642857D01*
X146892858Y-119428571D01*
X147678572Y-119428571D02*
X147535715Y-119714286D01*
X148250001Y-120857143D02*
X148392858Y-120928571D01*
X148678573Y-120928571D01*
X148821430Y-120857143D01*
X148892858Y-120714286D01*
X148892858Y-120642857D01*
X148821430Y-120500000D01*
X148678573Y-120428571D01*
X148464287Y-120428571D01*
X148321430Y-120357143D01*
X148250001Y-120214286D01*
X148250001Y-120142857D01*
X148321430Y-120000000D01*
X148464287Y-119928571D01*
X148678573Y-119928571D01*
X148821430Y-120000000D01*
X150607144Y-120857143D02*
X150821430Y-120928571D01*
X151178573Y-120928571D01*
X151321430Y-120857143D01*
X151392859Y-120785714D01*
X151464287Y-120642857D01*
X151464287Y-120500000D01*
X151392859Y-120357143D01*
X151321430Y-120285714D01*
X151178573Y-120214286D01*
X150892859Y-120142857D01*
X150750001Y-120071429D01*
X150678573Y-120000000D01*
X150607144Y-119857143D01*
X150607144Y-119714286D01*
X150678573Y-119571429D01*
X150750001Y-119500000D01*
X150892859Y-119428571D01*
X151250001Y-119428571D01*
X151464287Y-119500000D01*
X152678572Y-120857143D02*
X152535715Y-120928571D01*
X152250001Y-120928571D01*
X152107144Y-120857143D01*
X152035715Y-120714286D01*
X152035715Y-120142857D01*
X152107144Y-120000000D01*
X152250001Y-119928571D01*
X152535715Y-119928571D01*
X152678572Y-120000000D01*
X152750001Y-120142857D01*
X152750001Y-120285714D01*
X152035715Y-120428571D01*
X153392858Y-119928571D02*
X153392858Y-120928571D01*
X153392858Y-120071429D02*
X153464286Y-120000000D01*
X153607144Y-119928571D01*
X153821429Y-119928571D01*
X153964286Y-120000000D01*
X154035715Y-120142857D01*
X154035715Y-120928571D01*
X154678572Y-120857143D02*
X154821429Y-120928571D01*
X155107144Y-120928571D01*
X155250001Y-120857143D01*
X155321429Y-120714286D01*
X155321429Y-120642857D01*
X155250001Y-120500000D01*
X155107144Y-120428571D01*
X154892858Y-120428571D01*
X154750001Y-120357143D01*
X154678572Y-120214286D01*
X154678572Y-120142857D01*
X154750001Y-120000000D01*
X154892858Y-119928571D01*
X155107144Y-119928571D01*
X155250001Y-120000000D01*
X156178573Y-120928571D02*
X156035715Y-120857143D01*
X155964287Y-120785714D01*
X155892858Y-120642857D01*
X155892858Y-120214286D01*
X155964287Y-120071429D01*
X156035715Y-120000000D01*
X156178573Y-119928571D01*
X156392858Y-119928571D01*
X156535715Y-120000000D01*
X156607144Y-120071429D01*
X156678573Y-120214286D01*
X156678573Y-120642857D01*
X156607144Y-120785714D01*
X156535715Y-120857143D01*
X156392858Y-120928571D01*
X156178573Y-120928571D01*
X157321430Y-120928571D02*
X157321430Y-119928571D01*
X157321430Y-120214286D02*
X157392858Y-120071429D01*
X157464287Y-120000000D01*
X157607144Y-119928571D01*
X157750001Y-119928571D01*
X158250001Y-120928571D02*
X158250001Y-119928571D01*
X158250001Y-119428571D02*
X158178572Y-119500000D01*
X158250001Y-119571429D01*
X158321429Y-119500000D01*
X158250001Y-119428571D01*
X158250001Y-119571429D01*
X158964287Y-119928571D02*
X158964287Y-120928571D01*
X158964287Y-120071429D02*
X159035715Y-120000000D01*
X159178573Y-119928571D01*
X159392858Y-119928571D01*
X159535715Y-120000000D01*
X159607144Y-120142857D01*
X159607144Y-120928571D01*
X160964287Y-119928571D02*
X160964287Y-121142857D01*
X160892858Y-121285714D01*
X160821430Y-121357143D01*
X160678573Y-121428571D01*
X160464287Y-121428571D01*
X160321430Y-121357143D01*
X160964287Y-120857143D02*
X160821430Y-120928571D01*
X160535716Y-120928571D01*
X160392858Y-120857143D01*
X160321430Y-120785714D01*
X160250001Y-120642857D01*
X160250001Y-120214286D01*
X160321430Y-120071429D01*
X160392858Y-120000000D01*
X160535716Y-119928571D01*
X160821430Y-119928571D01*
X160964287Y-120000000D01*
X162607144Y-119428571D02*
X163107144Y-120928571D01*
X163607144Y-119428571D01*
X164035715Y-119571429D02*
X164107144Y-119500000D01*
X164250001Y-119428571D01*
X164607144Y-119428571D01*
X164750001Y-119500000D01*
X164821430Y-119571429D01*
X164892858Y-119714286D01*
X164892858Y-119857143D01*
X164821430Y-120071429D01*
X163964287Y-120928571D01*
X164892858Y-120928571D01*
X165535715Y-120785714D02*
X165607143Y-120857143D01*
X165535715Y-120928571D01*
X165464286Y-120857143D01*
X165535715Y-120785714D01*
X165535715Y-120928571D01*
X167035715Y-120928571D02*
X166178572Y-120928571D01*
X166607144Y-120928571D02*
X166607144Y-119428571D01*
X166464287Y-119642857D01*
X166321429Y-119785714D01*
X166178572Y-119857143D01*
D12*
X125250000Y-124750000D03*
D13*
X176540000Y-79430000D03*
D14*
X179080000Y-79430000D03*
X176540000Y-81970000D03*
X179080000Y-81970000D03*
X176540000Y-84510000D03*
X179080000Y-84510000D03*
X176540000Y-87050000D03*
X179080000Y-87050000D03*
X176540000Y-89590000D03*
X179080000Y-89590000D03*
D13*
X160020000Y-73660000D03*
D14*
X160020000Y-76200000D03*
X162560000Y-73660000D03*
X162560000Y-76200000D03*
X165100000Y-73660000D03*
X165100000Y-76200000D03*
D15*
X173228000Y-68290000D03*
D16*
X173228000Y-58130000D03*
D15*
X170160000Y-68290000D03*
D16*
X170160000Y-58130000D03*
D17*
X152246000Y-58420000D03*
X157126000Y-58420000D03*
D12*
X182000000Y-68000000D03*
X132000000Y-68000000D03*
X182000000Y-118000000D03*
X132000000Y-118000000D03*
X188750000Y-61250000D03*
X125250000Y-61250000D03*
X188750000Y-124750000D03*
D18*
X139420000Y-58950000D03*
X141960000Y-58950000D03*
X144500000Y-58950000D03*
D19*
X146304000Y-66040000D03*
X146304000Y-67310000D03*
X146304000Y-68580000D03*
X143764000Y-68580000D03*
X143764000Y-67310000D03*
X143764000Y-66040000D03*
D20*
X179500000Y-104250000D03*
D21*
X177000000Y-104250000D03*
D22*
X151384000Y-69596000D03*
X189423005Y-54932995D03*
X127570000Y-133903730D03*
X171876438Y-132181083D03*
X116125640Y-69592192D03*
X116189300Y-111632574D03*
X135927444Y-133575129D03*
X197520000Y-123444000D03*
X197520000Y-107430000D03*
X197520000Y-88300000D03*
X197520000Y-74410000D03*
X174110000Y-52490000D03*
X152510000Y-52490000D03*
X141330000Y-52490000D03*
X116160000Y-97150000D03*
X158950000Y-133610000D03*
X158911807Y-64426880D03*
X160529360Y-64091042D03*
X146306519Y-64067133D03*
X144676153Y-64127311D03*
X188414112Y-130278351D03*
X163464912Y-56921441D03*
X182880000Y-97536000D03*
X130556000Y-86868000D03*
X138176000Y-66548000D03*
X151892000Y-60960000D03*
X196275530Y-98564470D03*
X196275530Y-80518000D03*
X196277853Y-75191210D03*
X166550000Y-56924769D03*
X146770000Y-56924769D03*
X127915231Y-56924769D03*
X121780000Y-70980000D03*
X121780000Y-86700000D03*
X121783760Y-100800000D03*
X121780000Y-109460000D03*
X136520000Y-130100000D03*
X149120000Y-130100000D03*
X167425360Y-130275360D03*
X153844043Y-65380959D03*
X147320000Y-72644000D03*
X187452000Y-91694000D03*
X154983527Y-65517881D03*
X186563000Y-91694000D03*
X148336000Y-71628000D03*
X144622916Y-72624781D03*
X151892000Y-128016000D03*
X145016707Y-67765575D03*
X141511702Y-66609600D03*
D23*
X165100000Y-73660000D02*
X163842001Y-74917999D01*
X163842001Y-74917999D02*
X156705999Y-74917999D01*
X156705999Y-74917999D02*
X151384000Y-69596000D01*
D24*
X197520000Y-63029990D02*
X189423005Y-54932995D01*
X197520000Y-74410000D02*
X197520000Y-63029990D01*
X116189300Y-111632574D02*
X116189300Y-123766943D01*
X116189300Y-123766943D02*
X126371867Y-133949510D01*
X126371867Y-133949510D02*
X127524220Y-133949510D01*
X127524220Y-133949510D02*
X127570000Y-133903730D01*
X186980010Y-52490000D02*
X189423005Y-54932995D01*
X174110000Y-52490000D02*
X186980010Y-52490000D01*
X135927444Y-133575129D02*
X135598843Y-133903730D01*
X135598843Y-133903730D02*
X127570000Y-133903730D01*
X188782917Y-132181083D02*
X171876438Y-132181083D01*
X197520000Y-123444000D02*
X188782917Y-132181083D01*
X116125640Y-61774258D02*
X116125640Y-69592192D01*
X116160000Y-69626552D02*
X116125640Y-69592192D01*
X116160000Y-97150000D02*
X116160000Y-69626552D01*
X125409898Y-52490000D02*
X116125640Y-61774258D01*
X141330000Y-52490000D02*
X125409898Y-52490000D01*
X116160000Y-111603274D02*
X116189300Y-111632574D01*
X116160000Y-97150000D02*
X116160000Y-111603274D01*
X135962315Y-133610000D02*
X135927444Y-133575129D01*
X158950000Y-133610000D02*
X135962315Y-133610000D01*
X197520000Y-107430000D02*
X197520000Y-123444000D01*
X197520000Y-107430000D02*
X197520000Y-88300000D01*
X197520000Y-88300000D02*
X197520000Y-74410000D01*
X174110000Y-52490000D02*
X152510000Y-52490000D01*
X152510000Y-52490000D02*
X141330000Y-52490000D01*
D23*
X158911807Y-64426880D02*
X153017279Y-64426880D01*
X153017279Y-64426880D02*
X148864159Y-68580000D01*
X148864159Y-68580000D02*
X146304000Y-68580000D01*
X143652787Y-68691213D02*
X146577491Y-68691213D01*
X146577491Y-68691213D02*
X146582416Y-68696138D01*
X146304000Y-66040000D02*
X150368000Y-66040000D01*
X150368000Y-66040000D02*
X152908000Y-63500000D01*
X152908000Y-63500000D02*
X159938318Y-63500000D01*
X159938318Y-63500000D02*
X160529360Y-64091042D01*
X143764000Y-66040000D02*
X146304000Y-66040000D01*
X141960000Y-59704380D02*
X146306519Y-64050899D01*
X141960000Y-58950000D02*
X141960000Y-59704380D01*
X146306519Y-64050899D02*
X146306519Y-64067133D01*
X141960000Y-58950000D02*
X141710000Y-58950000D01*
X143842931Y-64127311D02*
X144676153Y-64127311D01*
X139420000Y-58950000D02*
X139420000Y-59704380D01*
X139420000Y-59704380D02*
X143842931Y-64127311D01*
D24*
X179500000Y-104250000D02*
X179500000Y-100916000D01*
X179500000Y-100916000D02*
X182880000Y-97536000D01*
X196277853Y-62887985D02*
X196277853Y-75191210D01*
X190314637Y-56924769D02*
X196277853Y-62887985D01*
X172910000Y-56924769D02*
X190314637Y-56924769D01*
X127915231Y-56924769D02*
X124767971Y-56924769D01*
X124767971Y-56924769D02*
X121780000Y-59912740D01*
X121780000Y-59912740D02*
X121780000Y-70980000D01*
X121780000Y-109460000D02*
X121780000Y-126137813D01*
X121780000Y-126137813D02*
X125742187Y-130100000D01*
X125742187Y-130100000D02*
X136520000Y-130100000D01*
X188411121Y-130275360D02*
X188414112Y-130278351D01*
X167425360Y-130275360D02*
X188411121Y-130275360D01*
X196275530Y-122416933D02*
X188414112Y-130278351D01*
X196275530Y-98564470D02*
X196275530Y-122416933D01*
X154940000Y-56924769D02*
X154547402Y-56924769D01*
X153538596Y-60960000D02*
X151892000Y-60960000D01*
X154547402Y-56924769D02*
X154547402Y-59951194D01*
X154547402Y-59951194D02*
X153538596Y-60960000D01*
X163468240Y-56924769D02*
X163464912Y-56921441D01*
X166550000Y-56924769D02*
X163468240Y-56924769D01*
X154943328Y-56921441D02*
X163464912Y-56921441D01*
X154940000Y-56924769D02*
X154943328Y-56921441D01*
X172910000Y-56924769D02*
X172703296Y-56718065D01*
X172703296Y-56718065D02*
X166756704Y-56718065D01*
X166756704Y-56718065D02*
X166550000Y-56924769D01*
X196275530Y-98564470D02*
X196275530Y-97536000D01*
X196275530Y-97536000D02*
X196275530Y-80518000D01*
X182880000Y-97536000D02*
X196275530Y-97536000D01*
X130556000Y-86868000D02*
X121948000Y-86868000D01*
X121948000Y-86868000D02*
X121780000Y-86700000D01*
X138176000Y-66548000D02*
X137538462Y-66548000D01*
X137538462Y-66548000D02*
X127915231Y-56924769D01*
X154940000Y-56924769D02*
X146770000Y-56924769D01*
X196275530Y-80518000D02*
X196275530Y-75193533D01*
X196275530Y-75193533D02*
X196277853Y-75191210D01*
X172959199Y-56924769D02*
X173010000Y-56975570D01*
X172910000Y-56924769D02*
X172959199Y-56924769D01*
X173010000Y-56975570D02*
X173010000Y-58130000D01*
X146770000Y-56924769D02*
X127915231Y-56924769D01*
X121780000Y-70980000D02*
X121780000Y-86700000D01*
X121780000Y-86700000D02*
X121780000Y-109460000D01*
X121780000Y-109460000D02*
X121780000Y-100803760D01*
X121780000Y-100803760D02*
X121783760Y-100800000D01*
X136520000Y-130100000D02*
X149120000Y-130100000D01*
D23*
X153412991Y-65380959D02*
X153844043Y-65380959D01*
X147320000Y-72644000D02*
X147320000Y-71473950D01*
X147320000Y-71473950D02*
X153412991Y-65380959D01*
X187452000Y-91694000D02*
X187452000Y-82042000D01*
X154039096Y-66462312D02*
X154983527Y-65517881D01*
X153285841Y-66462312D02*
X154039096Y-66462312D01*
X151522705Y-78740000D02*
X149724451Y-76941746D01*
X149724451Y-70023702D02*
X153285841Y-66462312D01*
X149724451Y-76941746D02*
X149724451Y-70023702D01*
X170695644Y-78740000D02*
X151522705Y-78740000D01*
X172600644Y-76835000D02*
X170695644Y-78740000D01*
X182245000Y-76835000D02*
X172600644Y-76835000D01*
X187452000Y-82042000D02*
X182245000Y-76835000D01*
X186563000Y-82423000D02*
X181610000Y-77470000D01*
X186563000Y-91694000D02*
X186563000Y-82423000D01*
X148336000Y-77002480D02*
X148336000Y-71628000D01*
X181610000Y-77470000D02*
X172720000Y-77470000D01*
X150708520Y-79375000D02*
X148336000Y-77002480D01*
X172720000Y-77470000D02*
X170815000Y-79375000D01*
X170815000Y-79375000D02*
X150708520Y-79375000D01*
X151892000Y-128016000D02*
X146970086Y-128016000D01*
X137956316Y-119002230D02*
X137956316Y-79722433D01*
X146970086Y-128016000D02*
X137956316Y-119002230D01*
X137956316Y-79722433D02*
X144622916Y-73055833D01*
X144622916Y-73055833D02*
X144622916Y-72624781D01*
X146304000Y-67310000D02*
X145364200Y-67310000D01*
X145016707Y-67657493D02*
X145016707Y-67765575D01*
X145364200Y-67310000D02*
X145016707Y-67657493D01*
X142212102Y-67310000D02*
X141511702Y-66609600D01*
X143764000Y-67310000D02*
X142212102Y-67310000D01*
D24*
G36*
X206417000Y-68241486D02*
X206417000Y-117758514D01*
X181758514Y-142417000D01*
X132241486Y-142417000D01*
X107583000Y-117758514D01*
X107583000Y-69660534D01*
X115311771Y-69660534D01*
X115340546Y-69817314D01*
X115399224Y-69965519D01*
X115448800Y-70042445D01*
X115448800Y-96749951D01*
X115444291Y-96756536D01*
X115381498Y-96903045D01*
X115348357Y-97058960D01*
X115346131Y-97218342D01*
X115374906Y-97375122D01*
X115433584Y-97523327D01*
X115448800Y-97546937D01*
X115448800Y-111296953D01*
X115410798Y-111385619D01*
X115377657Y-111541534D01*
X115375431Y-111700916D01*
X115404206Y-111857696D01*
X115462884Y-112005901D01*
X115478100Y-112029511D01*
X115478100Y-123766943D01*
X115484507Y-123832289D01*
X115490236Y-123897769D01*
X115491280Y-123901364D01*
X115491645Y-123905082D01*
X115510621Y-123967933D01*
X115528961Y-124031060D01*
X115530682Y-124034381D01*
X115531763Y-124037960D01*
X115562599Y-124095955D01*
X115592837Y-124154290D01*
X115595170Y-124157213D01*
X115596926Y-124160515D01*
X115638451Y-124211430D01*
X115679433Y-124262767D01*
X115684562Y-124267967D01*
X115684653Y-124268079D01*
X115684757Y-124268165D01*
X115686406Y-124269837D01*
X125868972Y-134452404D01*
X125919692Y-134494066D01*
X125970062Y-134536331D01*
X125973344Y-134538135D01*
X125976229Y-134540505D01*
X126034087Y-134571528D01*
X126091696Y-134603199D01*
X126095260Y-134604329D01*
X126098556Y-134606097D01*
X126161371Y-134625302D01*
X126224000Y-134645169D01*
X126227718Y-134645586D01*
X126231293Y-134646679D01*
X126296639Y-134653317D01*
X126361937Y-134660641D01*
X126369244Y-134660692D01*
X126369384Y-134660706D01*
X126369515Y-134660694D01*
X126371867Y-134660710D01*
X127272344Y-134660710D01*
X127317616Y-134680489D01*
X127473296Y-134714718D01*
X127632659Y-134718056D01*
X127789636Y-134690377D01*
X127938247Y-134632734D01*
X127966301Y-134614930D01*
X135598843Y-134614930D01*
X135664189Y-134608523D01*
X135729669Y-134602794D01*
X135733264Y-134601750D01*
X135736982Y-134601385D01*
X135799833Y-134582409D01*
X135862960Y-134564069D01*
X135866281Y-134562348D01*
X135869860Y-134561267D01*
X135927855Y-134530431D01*
X135986190Y-134500193D01*
X135989113Y-134497860D01*
X135992415Y-134496104D01*
X136043330Y-134454579D01*
X136094667Y-134413597D01*
X136099867Y-134408468D01*
X136099979Y-134408377D01*
X136100065Y-134408273D01*
X136101737Y-134406624D01*
X136146479Y-134361882D01*
X136147080Y-134361776D01*
X136251690Y-134321200D01*
X158549040Y-134321200D01*
X158551549Y-134322944D01*
X158697616Y-134386759D01*
X158853296Y-134420988D01*
X159012659Y-134424326D01*
X159169636Y-134396647D01*
X159318247Y-134339004D01*
X159452831Y-134253594D01*
X159568263Y-134143670D01*
X159660145Y-134013419D01*
X159724978Y-133867801D01*
X159760293Y-133712364D01*
X159762835Y-133530301D01*
X159731874Y-133373938D01*
X159671132Y-133226567D01*
X159582923Y-133093801D01*
X159470605Y-132980696D01*
X159338458Y-132891562D01*
X159191515Y-132829793D01*
X159035372Y-132797741D01*
X158875977Y-132796628D01*
X158719402Y-132826497D01*
X158571611Y-132886208D01*
X158552368Y-132898800D01*
X136378331Y-132898800D01*
X136315902Y-132856691D01*
X136168959Y-132794922D01*
X136012816Y-132762870D01*
X135853421Y-132761757D01*
X135696846Y-132791626D01*
X135549055Y-132851337D01*
X135415676Y-132938618D01*
X135301790Y-133050143D01*
X135211735Y-133181665D01*
X135207078Y-133192530D01*
X127969189Y-133192530D01*
X127958458Y-133185292D01*
X127811515Y-133123523D01*
X127655372Y-133091471D01*
X127495977Y-133090358D01*
X127339402Y-133120227D01*
X127191611Y-133179938D01*
X127102409Y-133238310D01*
X126666456Y-133238310D01*
X116900500Y-123472355D01*
X116900500Y-112033623D01*
X116964278Y-111890375D01*
X116999593Y-111734938D01*
X117002135Y-111552875D01*
X116971174Y-111396512D01*
X116910432Y-111249141D01*
X116871200Y-111190092D01*
X116871200Y-97551049D01*
X116934978Y-97407801D01*
X116970293Y-97252364D01*
X116972835Y-97070301D01*
X116941874Y-96913938D01*
X116881132Y-96766567D01*
X116871200Y-96751618D01*
X116871200Y-69916067D01*
X116900618Y-69849993D01*
X116935933Y-69694556D01*
X116938475Y-69512493D01*
X116907514Y-69356130D01*
X116846772Y-69208759D01*
X116836840Y-69193810D01*
X116836840Y-62068846D01*
X125704487Y-53201200D01*
X140929040Y-53201200D01*
X140931549Y-53202944D01*
X141077616Y-53266759D01*
X141233296Y-53300988D01*
X141392659Y-53304326D01*
X141549636Y-53276647D01*
X141698247Y-53219004D01*
X141726301Y-53201200D01*
X152109040Y-53201200D01*
X152111549Y-53202944D01*
X152257616Y-53266759D01*
X152413296Y-53300988D01*
X152572659Y-53304326D01*
X152729636Y-53276647D01*
X152878247Y-53219004D01*
X152906301Y-53201200D01*
X173709040Y-53201200D01*
X173711549Y-53202944D01*
X173857616Y-53266759D01*
X174013296Y-53300988D01*
X174172659Y-53304326D01*
X174329636Y-53276647D01*
X174478247Y-53219004D01*
X174506301Y-53201200D01*
X186685422Y-53201200D01*
X188636916Y-55152695D01*
X188637911Y-55158117D01*
X188696589Y-55306322D01*
X188782937Y-55440307D01*
X188893664Y-55554968D01*
X189024554Y-55645939D01*
X189170621Y-55709754D01*
X189200558Y-55716336D01*
X189697791Y-56213569D01*
X173204240Y-56213569D01*
X173155468Y-56173507D01*
X173105101Y-56131244D01*
X173101822Y-56129442D01*
X173098934Y-56127069D01*
X173041038Y-56096025D01*
X172983467Y-56064376D01*
X172979904Y-56063246D01*
X172976607Y-56061478D01*
X172913792Y-56042273D01*
X172851163Y-56022406D01*
X172847445Y-56021989D01*
X172843870Y-56020896D01*
X172778524Y-56014258D01*
X172713226Y-56006934D01*
X172705919Y-56006883D01*
X172705779Y-56006869D01*
X172705648Y-56006881D01*
X172703296Y-56006865D01*
X166756704Y-56006865D01*
X166691399Y-56013268D01*
X166625878Y-56019001D01*
X166622283Y-56020045D01*
X166618565Y-56020410D01*
X166555714Y-56039386D01*
X166492587Y-56057726D01*
X166489266Y-56059447D01*
X166485687Y-56060528D01*
X166427692Y-56091364D01*
X166369357Y-56121602D01*
X166366434Y-56123935D01*
X166363132Y-56125691D01*
X166351556Y-56135132D01*
X166319402Y-56141266D01*
X166171611Y-56200977D01*
X166152368Y-56213569D01*
X163869035Y-56213569D01*
X163853370Y-56203003D01*
X163706427Y-56141234D01*
X163550284Y-56109182D01*
X163390889Y-56108069D01*
X163234314Y-56137938D01*
X163086523Y-56197649D01*
X163067280Y-56210241D01*
X154943328Y-56210241D01*
X154909387Y-56213569D01*
X147169189Y-56213569D01*
X147158458Y-56206331D01*
X147011515Y-56144562D01*
X146855372Y-56112510D01*
X146695977Y-56111397D01*
X146539402Y-56141266D01*
X146391611Y-56200977D01*
X146372368Y-56213569D01*
X128314420Y-56213569D01*
X128303689Y-56206331D01*
X128156746Y-56144562D01*
X128000603Y-56112510D01*
X127841208Y-56111397D01*
X127684633Y-56141266D01*
X127536842Y-56200977D01*
X127517599Y-56213569D01*
X124767971Y-56213569D01*
X124702625Y-56219976D01*
X124637145Y-56225705D01*
X124633550Y-56226749D01*
X124629832Y-56227114D01*
X124566981Y-56246090D01*
X124503854Y-56264430D01*
X124500533Y-56266151D01*
X124496954Y-56267232D01*
X124438979Y-56298057D01*
X124380623Y-56328306D01*
X124377698Y-56330641D01*
X124374399Y-56332395D01*
X124323506Y-56373903D01*
X124272147Y-56414902D01*
X124266947Y-56420031D01*
X124266835Y-56420122D01*
X124266749Y-56420226D01*
X124265077Y-56421875D01*
X121277106Y-59409846D01*
X121235442Y-59460568D01*
X121193179Y-59510935D01*
X121191377Y-59514214D01*
X121189004Y-59517102D01*
X121157960Y-59574998D01*
X121126311Y-59632569D01*
X121125181Y-59636132D01*
X121123413Y-59639429D01*
X121104208Y-59702244D01*
X121084341Y-59764873D01*
X121083924Y-59768591D01*
X121082831Y-59772166D01*
X121076193Y-59837512D01*
X121068869Y-59902810D01*
X121068818Y-59910117D01*
X121068804Y-59910257D01*
X121068816Y-59910388D01*
X121068800Y-59912740D01*
X121068800Y-70579951D01*
X121064291Y-70586536D01*
X121001498Y-70733045D01*
X120968357Y-70888960D01*
X120966131Y-71048342D01*
X120994906Y-71205122D01*
X121053584Y-71353327D01*
X121068800Y-71376937D01*
X121068800Y-86299951D01*
X121064291Y-86306536D01*
X121001498Y-86453045D01*
X120968357Y-86608960D01*
X120966131Y-86768342D01*
X120994906Y-86925122D01*
X121053584Y-87073327D01*
X121068800Y-87096937D01*
X121068800Y-100405442D01*
X121068051Y-100406536D01*
X121005258Y-100553045D01*
X120972117Y-100708960D01*
X120969891Y-100868342D01*
X120998666Y-101025122D01*
X121057344Y-101173327D01*
X121068800Y-101191103D01*
X121068800Y-109059951D01*
X121064291Y-109066536D01*
X121001498Y-109213045D01*
X120968357Y-109368960D01*
X120966131Y-109528342D01*
X120994906Y-109685122D01*
X121053584Y-109833327D01*
X121068800Y-109856937D01*
X121068800Y-126137813D01*
X121075207Y-126203159D01*
X121080936Y-126268639D01*
X121081980Y-126272234D01*
X121082345Y-126275952D01*
X121101321Y-126338803D01*
X121119661Y-126401930D01*
X121121382Y-126405251D01*
X121122463Y-126408830D01*
X121153299Y-126466825D01*
X121183537Y-126525160D01*
X121185870Y-126528083D01*
X121187626Y-126531385D01*
X121229151Y-126582300D01*
X121270133Y-126633637D01*
X121275262Y-126638837D01*
X121275353Y-126638949D01*
X121275457Y-126639035D01*
X121277106Y-126640707D01*
X125239293Y-130602895D01*
X125290022Y-130644564D01*
X125340382Y-130686821D01*
X125343663Y-130688625D01*
X125346550Y-130690996D01*
X125404425Y-130722028D01*
X125462016Y-130753689D01*
X125465580Y-130754819D01*
X125468876Y-130756587D01*
X125531691Y-130775792D01*
X125594320Y-130795659D01*
X125598038Y-130796076D01*
X125601613Y-130797169D01*
X125666955Y-130803806D01*
X125732257Y-130811131D01*
X125739565Y-130811182D01*
X125739705Y-130811196D01*
X125739836Y-130811184D01*
X125742187Y-130811200D01*
X136119040Y-130811200D01*
X136121549Y-130812944D01*
X136267616Y-130876759D01*
X136423296Y-130910988D01*
X136582659Y-130914326D01*
X136739636Y-130886647D01*
X136888247Y-130829004D01*
X136916301Y-130811200D01*
X148719040Y-130811200D01*
X148721549Y-130812944D01*
X148867616Y-130876759D01*
X149023296Y-130910988D01*
X149182659Y-130914326D01*
X149339636Y-130886647D01*
X149488247Y-130829004D01*
X149622831Y-130743594D01*
X149738263Y-130633670D01*
X149830145Y-130503419D01*
X149894978Y-130357801D01*
X149930293Y-130202364D01*
X149932835Y-130020301D01*
X149901874Y-129863938D01*
X149841132Y-129716567D01*
X149752923Y-129583801D01*
X149640605Y-129470696D01*
X149508458Y-129381562D01*
X149361515Y-129319793D01*
X149205372Y-129287741D01*
X149045977Y-129286628D01*
X148889402Y-129316497D01*
X148741611Y-129376208D01*
X148722368Y-129388800D01*
X136919189Y-129388800D01*
X136908458Y-129381562D01*
X136761515Y-129319793D01*
X136605372Y-129287741D01*
X136445977Y-129286628D01*
X136289402Y-129316497D01*
X136141611Y-129376208D01*
X136122368Y-129388800D01*
X126036776Y-129388800D01*
X124238936Y-127590961D01*
X124315979Y-127624620D01*
X124892118Y-127751292D01*
X125481887Y-127763646D01*
X126062825Y-127661211D01*
X126612802Y-127447889D01*
X127110870Y-127131805D01*
X127538058Y-126724999D01*
X127878095Y-126242966D01*
X128118029Y-125704066D01*
X128248720Y-125128826D01*
X128258129Y-124455050D01*
X128143550Y-123876386D01*
X127918757Y-123330997D01*
X127592312Y-122839657D01*
X127176648Y-122421082D01*
X126687600Y-122091215D01*
X126143794Y-121862620D01*
X125565943Y-121744004D01*
X124976058Y-121739886D01*
X124396608Y-121850422D01*
X123849663Y-122071402D01*
X123356056Y-122394409D01*
X122934589Y-122807140D01*
X122601316Y-123293874D01*
X122491200Y-123550794D01*
X122491200Y-118252921D01*
X128988047Y-118252921D01*
X129094535Y-118833129D01*
X129311691Y-119381603D01*
X129631244Y-119877453D01*
X130041023Y-120301791D01*
X130525418Y-120638454D01*
X131065979Y-120874620D01*
X131642118Y-121001292D01*
X132231887Y-121013646D01*
X132812825Y-120911211D01*
X133362802Y-120697889D01*
X133860870Y-120381805D01*
X134288058Y-119974999D01*
X134628095Y-119492966D01*
X134868029Y-118954066D01*
X134998720Y-118378826D01*
X135008129Y-117705050D01*
X134893550Y-117126386D01*
X134668757Y-116580997D01*
X134342312Y-116089657D01*
X133926648Y-115671082D01*
X133437600Y-115341215D01*
X132893794Y-115112620D01*
X132315943Y-114994004D01*
X131726058Y-114989886D01*
X131146608Y-115100422D01*
X130599663Y-115321402D01*
X130106056Y-115644409D01*
X129684589Y-116057140D01*
X129351316Y-116543874D01*
X129118930Y-117086071D01*
X128996283Y-117663079D01*
X128988047Y-118252921D01*
X122491200Y-118252921D01*
X122491200Y-109861049D01*
X122554978Y-109717801D01*
X122590293Y-109562364D01*
X122592835Y-109380301D01*
X122561874Y-109223938D01*
X122501132Y-109076567D01*
X122491200Y-109061618D01*
X122491200Y-101207254D01*
X122493905Y-101203419D01*
X122558738Y-101057801D01*
X122594053Y-100902364D01*
X122596595Y-100720301D01*
X122565634Y-100563938D01*
X122504892Y-100416567D01*
X122491200Y-100395959D01*
X122491200Y-87579200D01*
X130155040Y-87579200D01*
X130157549Y-87580944D01*
X130303616Y-87644759D01*
X130459296Y-87678988D01*
X130618659Y-87682326D01*
X130775636Y-87654647D01*
X130924247Y-87597004D01*
X131058831Y-87511594D01*
X131174263Y-87401670D01*
X131266145Y-87271419D01*
X131330978Y-87125801D01*
X131366293Y-86970364D01*
X131368835Y-86788301D01*
X131337874Y-86631938D01*
X131277132Y-86484567D01*
X131188923Y-86351801D01*
X131076605Y-86238696D01*
X130944458Y-86149562D01*
X130797515Y-86087793D01*
X130641372Y-86055741D01*
X130481977Y-86054628D01*
X130325402Y-86084497D01*
X130177611Y-86144208D01*
X130158368Y-86156800D01*
X122491200Y-86156800D01*
X122491200Y-79722433D01*
X137295916Y-79722433D01*
X137295916Y-119002230D01*
X137301871Y-119062964D01*
X137307186Y-119123712D01*
X137308154Y-119127044D01*
X137308493Y-119130502D01*
X137326126Y-119188906D01*
X137343144Y-119247482D01*
X137344743Y-119250567D01*
X137345746Y-119253889D01*
X137374371Y-119307726D01*
X137402458Y-119361910D01*
X137404625Y-119364625D01*
X137406255Y-119367690D01*
X137444798Y-119414948D01*
X137482868Y-119462638D01*
X137487632Y-119467468D01*
X137487715Y-119467570D01*
X137487809Y-119467648D01*
X137489343Y-119469203D01*
X146503113Y-128482973D01*
X146550228Y-128521674D01*
X146596982Y-128560905D01*
X146600024Y-128562577D01*
X146602708Y-128564782D01*
X146656466Y-128593607D01*
X146709927Y-128622997D01*
X146713238Y-128624047D01*
X146716298Y-128625688D01*
X146774595Y-128643511D01*
X146832781Y-128661969D01*
X146836236Y-128662357D01*
X146839554Y-128663371D01*
X146900203Y-128669532D01*
X146960865Y-128676336D01*
X146967653Y-128676383D01*
X146967780Y-128676396D01*
X146967898Y-128676385D01*
X146970086Y-128676400D01*
X151417948Y-128676400D01*
X151493549Y-128728944D01*
X151639616Y-128792759D01*
X151795296Y-128826988D01*
X151954659Y-128830326D01*
X152111636Y-128802647D01*
X152260247Y-128745004D01*
X152394831Y-128659594D01*
X152510263Y-128549670D01*
X152602145Y-128419419D01*
X152666978Y-128273801D01*
X152702293Y-128118364D01*
X152704835Y-127936301D01*
X152673874Y-127779938D01*
X152613132Y-127632567D01*
X152524923Y-127499801D01*
X152412605Y-127386696D01*
X152280458Y-127297562D01*
X152133515Y-127235793D01*
X151977372Y-127203741D01*
X151817977Y-127202628D01*
X151661402Y-127232497D01*
X151513611Y-127292208D01*
X151416738Y-127355600D01*
X147243632Y-127355600D01*
X138616716Y-118728684D01*
X138616716Y-118542000D01*
X145170572Y-118542000D01*
X145170572Y-122108000D01*
X167829429Y-122108000D01*
X167829429Y-118542000D01*
X145170572Y-118542000D01*
X138616716Y-118542000D01*
X138616716Y-118252921D01*
X178988047Y-118252921D01*
X179094535Y-118833129D01*
X179311691Y-119381603D01*
X179631244Y-119877453D01*
X180041023Y-120301791D01*
X180525418Y-120638454D01*
X181065979Y-120874620D01*
X181642118Y-121001292D01*
X182231887Y-121013646D01*
X182812825Y-120911211D01*
X183362802Y-120697889D01*
X183860870Y-120381805D01*
X184288058Y-119974999D01*
X184628095Y-119492966D01*
X184868029Y-118954066D01*
X184998720Y-118378826D01*
X185008129Y-117705050D01*
X184893550Y-117126386D01*
X184668757Y-116580997D01*
X184342312Y-116089657D01*
X183926648Y-115671082D01*
X183437600Y-115341215D01*
X182893794Y-115112620D01*
X182315943Y-114994004D01*
X181726058Y-114989886D01*
X181146608Y-115100422D01*
X180599663Y-115321402D01*
X180106056Y-115644409D01*
X179684589Y-116057140D01*
X179351316Y-116543874D01*
X179118930Y-117086071D01*
X178996283Y-117663079D01*
X178988047Y-118252921D01*
X138616716Y-118252921D01*
X138616716Y-79995979D01*
X145089889Y-73522806D01*
X145128590Y-73475691D01*
X145167821Y-73428937D01*
X145169493Y-73425895D01*
X145171698Y-73423211D01*
X145200523Y-73369453D01*
X145229913Y-73315992D01*
X145230963Y-73312681D01*
X145232604Y-73309621D01*
X145250431Y-73251312D01*
X145268885Y-73193138D01*
X145269272Y-73189685D01*
X145270287Y-73186366D01*
X145276448Y-73125711D01*
X145278750Y-73105191D01*
X145333061Y-73028200D01*
X145397894Y-72882582D01*
X145433209Y-72727145D01*
X145435751Y-72545082D01*
X145404790Y-72388719D01*
X145344048Y-72241348D01*
X145255839Y-72108582D01*
X145143521Y-71995477D01*
X145011374Y-71906343D01*
X144864431Y-71844574D01*
X144708288Y-71812522D01*
X144548893Y-71811409D01*
X144392318Y-71841278D01*
X144244527Y-71900989D01*
X144111148Y-71988270D01*
X143997262Y-72099795D01*
X143907207Y-72231317D01*
X143844414Y-72377826D01*
X143811273Y-72533741D01*
X143809047Y-72693123D01*
X143837822Y-72849903D01*
X143854011Y-72890792D01*
X137489343Y-79255460D01*
X137450642Y-79302575D01*
X137411411Y-79349329D01*
X137409739Y-79352371D01*
X137407534Y-79355055D01*
X137378709Y-79408813D01*
X137349319Y-79462274D01*
X137348269Y-79465585D01*
X137346628Y-79468645D01*
X137328801Y-79526954D01*
X137310347Y-79585128D01*
X137309960Y-79588581D01*
X137308945Y-79591900D01*
X137302784Y-79652555D01*
X137295980Y-79713212D01*
X137295933Y-79720000D01*
X137295920Y-79720127D01*
X137295931Y-79720245D01*
X137295916Y-79722433D01*
X122491200Y-79722433D01*
X122491200Y-71381049D01*
X122554978Y-71237801D01*
X122590293Y-71082364D01*
X122592835Y-70900301D01*
X122561874Y-70743938D01*
X122501132Y-70596567D01*
X122491200Y-70581618D01*
X122491200Y-68252921D01*
X128988047Y-68252921D01*
X129094535Y-68833129D01*
X129311691Y-69381603D01*
X129631244Y-69877453D01*
X130041023Y-70301791D01*
X130525418Y-70638454D01*
X131065979Y-70874620D01*
X131642118Y-71001292D01*
X132231887Y-71013646D01*
X132812825Y-70911211D01*
X133362802Y-70697889D01*
X133860870Y-70381805D01*
X134288058Y-69974999D01*
X134628095Y-69492966D01*
X134868029Y-68954066D01*
X134998720Y-68378826D01*
X135008129Y-67705050D01*
X134893550Y-67126386D01*
X134668757Y-66580997D01*
X134342312Y-66089657D01*
X133926648Y-65671082D01*
X133437600Y-65341215D01*
X132893794Y-65112620D01*
X132315943Y-64994004D01*
X131726058Y-64989886D01*
X131146608Y-65100422D01*
X130599663Y-65321402D01*
X130106056Y-65644409D01*
X129684589Y-66057140D01*
X129351316Y-66543874D01*
X129118930Y-67086071D01*
X128996283Y-67663079D01*
X128988047Y-68252921D01*
X122491200Y-68252921D01*
X122491200Y-62453563D01*
X122561691Y-62631603D01*
X122881244Y-63127453D01*
X123291023Y-63551791D01*
X123775418Y-63888454D01*
X124315979Y-64124620D01*
X124892118Y-64251292D01*
X125481887Y-64263646D01*
X126062825Y-64161211D01*
X126612802Y-63947889D01*
X127110870Y-63631805D01*
X127538058Y-63224999D01*
X127878095Y-62742966D01*
X128118029Y-62204066D01*
X128248720Y-61628826D01*
X128258129Y-60955050D01*
X128143550Y-60376386D01*
X127918757Y-59830997D01*
X127592312Y-59339657D01*
X127176648Y-58921082D01*
X126687600Y-58591215D01*
X126143794Y-58362620D01*
X125565943Y-58244004D01*
X124976058Y-58239886D01*
X124396608Y-58350422D01*
X124315225Y-58383303D01*
X125062559Y-57635969D01*
X127514271Y-57635969D01*
X127516780Y-57637713D01*
X127662847Y-57701528D01*
X127692784Y-57708110D01*
X137035568Y-67050894D01*
X137086268Y-67092539D01*
X137136657Y-67134821D01*
X137139938Y-67136625D01*
X137142825Y-67138996D01*
X137200700Y-67170028D01*
X137258291Y-67201689D01*
X137261855Y-67202819D01*
X137265151Y-67204587D01*
X137327966Y-67223792D01*
X137390595Y-67243659D01*
X137394313Y-67244076D01*
X137397888Y-67245169D01*
X137463234Y-67251807D01*
X137528532Y-67259131D01*
X137535839Y-67259182D01*
X137535979Y-67259196D01*
X137536110Y-67259184D01*
X137538462Y-67259200D01*
X137775040Y-67259200D01*
X137777549Y-67260944D01*
X137923616Y-67324759D01*
X138079296Y-67358988D01*
X138238659Y-67362326D01*
X138395636Y-67334647D01*
X138544247Y-67277004D01*
X138678831Y-67191594D01*
X138794263Y-67081670D01*
X138886145Y-66951419D01*
X138950978Y-66805801D01*
X138980027Y-66677942D01*
X140697833Y-66677942D01*
X140726608Y-66834722D01*
X140785286Y-66982927D01*
X140871634Y-67116912D01*
X140982361Y-67231573D01*
X141113251Y-67322544D01*
X141259318Y-67386359D01*
X141381345Y-67413189D01*
X141745129Y-67776973D01*
X141792244Y-67815674D01*
X141838998Y-67854905D01*
X141842040Y-67856577D01*
X141844724Y-67858782D01*
X141898501Y-67887617D01*
X141951943Y-67916997D01*
X141955252Y-67918047D01*
X141958313Y-67919688D01*
X142016637Y-67937520D01*
X142074797Y-67955969D01*
X142078250Y-67956356D01*
X142081569Y-67957371D01*
X142142224Y-67963532D01*
X142202881Y-67970336D01*
X142209669Y-67970383D01*
X142209796Y-67970396D01*
X142209914Y-67970385D01*
X142212102Y-67970400D01*
X142636250Y-67970400D01*
X142618543Y-68095000D01*
X142618543Y-69065000D01*
X142624994Y-69145897D01*
X142667485Y-69283107D01*
X142746520Y-69403047D01*
X142855841Y-69496220D01*
X142986790Y-69555248D01*
X143129000Y-69575457D01*
X144399000Y-69575457D01*
X144479897Y-69569006D01*
X144617107Y-69526515D01*
X144737047Y-69447480D01*
X144818753Y-69351613D01*
X145252627Y-69351613D01*
X145286520Y-69403047D01*
X145395841Y-69496220D01*
X145526790Y-69555248D01*
X145669000Y-69575457D01*
X146939000Y-69575457D01*
X147019897Y-69569006D01*
X147157107Y-69526515D01*
X147277047Y-69447480D01*
X147370220Y-69338159D01*
X147414287Y-69240400D01*
X148619604Y-69240400D01*
X146853027Y-71006977D01*
X146814326Y-71054092D01*
X146775095Y-71100846D01*
X146773423Y-71103888D01*
X146771218Y-71106572D01*
X146742393Y-71160330D01*
X146713003Y-71213791D01*
X146711953Y-71217102D01*
X146710312Y-71220162D01*
X146692485Y-71278471D01*
X146674031Y-71336645D01*
X146673644Y-71340098D01*
X146672629Y-71343417D01*
X146666468Y-71404072D01*
X146659664Y-71464729D01*
X146659617Y-71471517D01*
X146659604Y-71471644D01*
X146659615Y-71471762D01*
X146659600Y-71473950D01*
X146659600Y-72169759D01*
X146604291Y-72250536D01*
X146541498Y-72397045D01*
X146508357Y-72552960D01*
X146506131Y-72712342D01*
X146534906Y-72869122D01*
X146593584Y-73017327D01*
X146679932Y-73151312D01*
X146790659Y-73265973D01*
X146921549Y-73356944D01*
X147067616Y-73420759D01*
X147223296Y-73454988D01*
X147382659Y-73458326D01*
X147539636Y-73430647D01*
X147675600Y-73377909D01*
X147675600Y-77002480D01*
X147681555Y-77063214D01*
X147686870Y-77123962D01*
X147687838Y-77127294D01*
X147688177Y-77130752D01*
X147705810Y-77189156D01*
X147722828Y-77247732D01*
X147724427Y-77250817D01*
X147725430Y-77254139D01*
X147754055Y-77307976D01*
X147782142Y-77362160D01*
X147784309Y-77364875D01*
X147785939Y-77367940D01*
X147824482Y-77415198D01*
X147862552Y-77462888D01*
X147867316Y-77467718D01*
X147867399Y-77467820D01*
X147867493Y-77467898D01*
X147869027Y-77469453D01*
X149816574Y-79417000D01*
X141500000Y-79417000D01*
X141445362Y-79422357D01*
X141390757Y-79427327D01*
X141388799Y-79427903D01*
X141386761Y-79428103D01*
X141334201Y-79443972D01*
X141281604Y-79459452D01*
X141279791Y-79460400D01*
X141277836Y-79460990D01*
X141229438Y-79486724D01*
X141180771Y-79512166D01*
X141179176Y-79513448D01*
X141177373Y-79514407D01*
X141134883Y-79549061D01*
X141092096Y-79583462D01*
X141090782Y-79585028D01*
X141089198Y-79586320D01*
X141054241Y-79628577D01*
X141018959Y-79670624D01*
X141017974Y-79672416D01*
X141016671Y-79673991D01*
X140990580Y-79722245D01*
X140964144Y-79770332D01*
X140963526Y-79772281D01*
X140962554Y-79774078D01*
X140946345Y-79826442D01*
X140929740Y-79878787D01*
X140929512Y-79880821D01*
X140928908Y-79882772D01*
X140923173Y-79937332D01*
X140917057Y-79991860D01*
X140917030Y-79995782D01*
X140917014Y-79995930D01*
X140917027Y-79996078D01*
X140917000Y-80000000D01*
X140917000Y-117500000D01*
X140922357Y-117554638D01*
X140927327Y-117609243D01*
X140927903Y-117611201D01*
X140928103Y-117613239D01*
X140943972Y-117665799D01*
X140959452Y-117718396D01*
X140960400Y-117720209D01*
X140960990Y-117722164D01*
X140986724Y-117770562D01*
X141012166Y-117819229D01*
X141013448Y-117820824D01*
X141014407Y-117822627D01*
X141049061Y-117865117D01*
X141083462Y-117907904D01*
X141085028Y-117909218D01*
X141086320Y-117910802D01*
X141128577Y-117945759D01*
X141170624Y-117981041D01*
X141172416Y-117982026D01*
X141173991Y-117983329D01*
X141222245Y-118009420D01*
X141270332Y-118035856D01*
X141272281Y-118036474D01*
X141274078Y-118037446D01*
X141326442Y-118053655D01*
X141378787Y-118070260D01*
X141380821Y-118070488D01*
X141382772Y-118071092D01*
X141437332Y-118076827D01*
X141491860Y-118082943D01*
X141495782Y-118082970D01*
X141495930Y-118082986D01*
X141496078Y-118082973D01*
X141500000Y-118083000D01*
X172500000Y-118083000D01*
X172554638Y-118077643D01*
X172609243Y-118072673D01*
X172611201Y-118072097D01*
X172613239Y-118071897D01*
X172665799Y-118056028D01*
X172718396Y-118040548D01*
X172720209Y-118039600D01*
X172722164Y-118039010D01*
X172770562Y-118013276D01*
X172819229Y-117987834D01*
X172820824Y-117986552D01*
X172822627Y-117985593D01*
X172865117Y-117950939D01*
X172907904Y-117916538D01*
X172909218Y-117914972D01*
X172910802Y-117913680D01*
X172945759Y-117871423D01*
X172981041Y-117829376D01*
X172982026Y-117827584D01*
X172983329Y-117826009D01*
X173009420Y-117777755D01*
X173035856Y-117729668D01*
X173036474Y-117727719D01*
X173037446Y-117725922D01*
X173053655Y-117673558D01*
X173070260Y-117621213D01*
X173070488Y-117619179D01*
X173071092Y-117617228D01*
X173076827Y-117562668D01*
X173082943Y-117508140D01*
X173082970Y-117504218D01*
X173082986Y-117504070D01*
X173082973Y-117503922D01*
X173083000Y-117500000D01*
X173083000Y-105233267D01*
X176088575Y-105233267D01*
X176149039Y-105507674D01*
X176410750Y-105649522D01*
X176695105Y-105737587D01*
X176991177Y-105768486D01*
X177287589Y-105741029D01*
X177572948Y-105656273D01*
X177836290Y-105517476D01*
X177850961Y-105507674D01*
X177911425Y-105233267D01*
X177000000Y-104321842D01*
X176088575Y-105233267D01*
X173083000Y-105233267D01*
X173083000Y-104241177D01*
X175481514Y-104241177D01*
X175508971Y-104537589D01*
X175593727Y-104822948D01*
X175732524Y-105086290D01*
X175742326Y-105100961D01*
X176016733Y-105161425D01*
X176928158Y-104250000D01*
X176016733Y-103338575D01*
X175742326Y-103399039D01*
X175600478Y-103660750D01*
X175512413Y-103945105D01*
X175481514Y-104241177D01*
X173083000Y-104241177D01*
X173083000Y-103266733D01*
X176088575Y-103266733D01*
X177000000Y-104178158D01*
X177911425Y-103266733D01*
X177850961Y-102992326D01*
X177589250Y-102850478D01*
X177304895Y-102762413D01*
X177008823Y-102731514D01*
X176712411Y-102758971D01*
X176427052Y-102843727D01*
X176163710Y-102982524D01*
X176149039Y-102992326D01*
X176088575Y-103266733D01*
X173083000Y-103266733D01*
X173083000Y-80000000D01*
X173077643Y-79945362D01*
X173072673Y-79890757D01*
X173072097Y-79888799D01*
X173071897Y-79886761D01*
X173056028Y-79834201D01*
X173040548Y-79781604D01*
X173039600Y-79779791D01*
X173039010Y-79777836D01*
X173013276Y-79729438D01*
X172987834Y-79680771D01*
X172986552Y-79679176D01*
X172985593Y-79677373D01*
X172950939Y-79634883D01*
X172916538Y-79592096D01*
X172914972Y-79590782D01*
X172913680Y-79589198D01*
X172871423Y-79554241D01*
X172829376Y-79518959D01*
X172827584Y-79517974D01*
X172826009Y-79516671D01*
X172777755Y-79490580D01*
X172729668Y-79464144D01*
X172727719Y-79463526D01*
X172725922Y-79462554D01*
X172673558Y-79446345D01*
X172621213Y-79429740D01*
X172619179Y-79429512D01*
X172617228Y-79428908D01*
X172562668Y-79423173D01*
X172508140Y-79417057D01*
X172504218Y-79417030D01*
X172504070Y-79417014D01*
X172503922Y-79417027D01*
X172500000Y-79417000D01*
X171706946Y-79417000D01*
X172993546Y-78130400D01*
X175419573Y-78130400D01*
X175338353Y-78183920D01*
X175245180Y-78293241D01*
X175186152Y-78424190D01*
X175165943Y-78566400D01*
X175165943Y-80293600D01*
X175172394Y-80374497D01*
X175214885Y-80511707D01*
X175293920Y-80631647D01*
X175403241Y-80724820D01*
X175534190Y-80783848D01*
X175676400Y-80804057D01*
X175818543Y-80804057D01*
X175774331Y-80827565D01*
X175566887Y-80996753D01*
X175396255Y-81203011D01*
X175268936Y-81438484D01*
X175189778Y-81694202D01*
X175161796Y-81960425D01*
X175186058Y-82227012D01*
X175261638Y-82483810D01*
X175385657Y-82721038D01*
X175553392Y-82929658D01*
X175758454Y-83101726D01*
X175993032Y-83230686D01*
X176019742Y-83239159D01*
X176010687Y-83241893D01*
X175774331Y-83367565D01*
X175566887Y-83536753D01*
X175396255Y-83743011D01*
X175268936Y-83978484D01*
X175189778Y-84234202D01*
X175161796Y-84500425D01*
X175186058Y-84767012D01*
X175261638Y-85023810D01*
X175385657Y-85261038D01*
X175553392Y-85469658D01*
X175758454Y-85641726D01*
X175993032Y-85770686D01*
X176019742Y-85779159D01*
X176010687Y-85781893D01*
X175774331Y-85907565D01*
X175566887Y-86076753D01*
X175396255Y-86283011D01*
X175268936Y-86518484D01*
X175189778Y-86774202D01*
X175161796Y-87040425D01*
X175186058Y-87307012D01*
X175261638Y-87563810D01*
X175385657Y-87801038D01*
X175553392Y-88009658D01*
X175758454Y-88181726D01*
X175993032Y-88310686D01*
X176019742Y-88319159D01*
X176010687Y-88321893D01*
X175774331Y-88447565D01*
X175566887Y-88616753D01*
X175396255Y-88823011D01*
X175268936Y-89058484D01*
X175189778Y-89314202D01*
X175161796Y-89580425D01*
X175186058Y-89847012D01*
X175261638Y-90103810D01*
X175385657Y-90341038D01*
X175553392Y-90549658D01*
X175758454Y-90721726D01*
X175993032Y-90850686D01*
X176248191Y-90931627D01*
X176514212Y-90961466D01*
X176533363Y-90961600D01*
X176546637Y-90961600D01*
X176813049Y-90935478D01*
X177069313Y-90858107D01*
X177305669Y-90732435D01*
X177513113Y-90563247D01*
X177683745Y-90356989D01*
X177698396Y-90329892D01*
X177776762Y-90474066D01*
X177974276Y-90711328D01*
X178214282Y-90905498D01*
X178487557Y-91049114D01*
X178783600Y-91136657D01*
X179029200Y-90986182D01*
X179029200Y-89640800D01*
X179130800Y-89640800D01*
X179130800Y-90986182D01*
X179376400Y-91136657D01*
X179672443Y-91049114D01*
X179945718Y-90905498D01*
X180185724Y-90711328D01*
X180383238Y-90474066D01*
X180530669Y-90202830D01*
X180622352Y-89908043D01*
X180626655Y-89886399D01*
X180476076Y-89640800D01*
X179130800Y-89640800D01*
X179029200Y-89640800D01*
X179009200Y-89640800D01*
X179009200Y-89539200D01*
X179029200Y-89539200D01*
X179029200Y-87100800D01*
X179130800Y-87100800D01*
X179130800Y-89539200D01*
X180476076Y-89539200D01*
X180626655Y-89293601D01*
X180622352Y-89271957D01*
X180530669Y-88977170D01*
X180383238Y-88705934D01*
X180185724Y-88468672D01*
X180001956Y-88320000D01*
X180185724Y-88171328D01*
X180383238Y-87934066D01*
X180530669Y-87662830D01*
X180622352Y-87368043D01*
X180626655Y-87346399D01*
X180476076Y-87100800D01*
X179130800Y-87100800D01*
X179029200Y-87100800D01*
X179009200Y-87100800D01*
X179009200Y-86999200D01*
X179029200Y-86999200D01*
X179029200Y-84560800D01*
X179130800Y-84560800D01*
X179130800Y-86999200D01*
X180476076Y-86999200D01*
X180626655Y-86753601D01*
X180622352Y-86731957D01*
X180530669Y-86437170D01*
X180383238Y-86165934D01*
X180185724Y-85928672D01*
X180001956Y-85780000D01*
X180185724Y-85631328D01*
X180383238Y-85394066D01*
X180530669Y-85122830D01*
X180622352Y-84828043D01*
X180626655Y-84806399D01*
X180476076Y-84560800D01*
X179130800Y-84560800D01*
X179029200Y-84560800D01*
X179009200Y-84560800D01*
X179009200Y-84459200D01*
X179029200Y-84459200D01*
X179029200Y-84439200D01*
X179130800Y-84439200D01*
X179130800Y-84459200D01*
X180476076Y-84459200D01*
X180626655Y-84213601D01*
X180622352Y-84191957D01*
X180530669Y-83897170D01*
X180383238Y-83625934D01*
X180185724Y-83388672D01*
X179945718Y-83194502D01*
X179817778Y-83127265D01*
X179845669Y-83112435D01*
X180053113Y-82943247D01*
X180223745Y-82736989D01*
X180351064Y-82501516D01*
X180430222Y-82245798D01*
X180458204Y-81979575D01*
X180433942Y-81712988D01*
X180358362Y-81456190D01*
X180234343Y-81218962D01*
X180066608Y-81010342D01*
X179861546Y-80838274D01*
X179816404Y-80813457D01*
X179945718Y-80745498D01*
X180185724Y-80551328D01*
X180383238Y-80314066D01*
X180530669Y-80042830D01*
X180622352Y-79748043D01*
X180626655Y-79726399D01*
X180476076Y-79480800D01*
X179130800Y-79480800D01*
X179130800Y-79500800D01*
X179029200Y-79500800D01*
X179029200Y-79480800D01*
X179009200Y-79480800D01*
X179009200Y-79379200D01*
X179029200Y-79379200D01*
X179029200Y-79359200D01*
X179130800Y-79359200D01*
X179130800Y-79379200D01*
X180476076Y-79379200D01*
X180626655Y-79133601D01*
X180622352Y-79111957D01*
X180530669Y-78817170D01*
X180383238Y-78545934D01*
X180185724Y-78308672D01*
X179965369Y-78130400D01*
X181336454Y-78130400D01*
X185902600Y-82696546D01*
X185902600Y-91219759D01*
X185847291Y-91300536D01*
X185784498Y-91447045D01*
X185751357Y-91602960D01*
X185749131Y-91762342D01*
X185777906Y-91919122D01*
X185836584Y-92067327D01*
X185922932Y-92201312D01*
X186033659Y-92315973D01*
X186164549Y-92406944D01*
X186310616Y-92470759D01*
X186466296Y-92504988D01*
X186625659Y-92508326D01*
X186782636Y-92480647D01*
X186931247Y-92423004D01*
X187007254Y-92374768D01*
X187053549Y-92406944D01*
X187199616Y-92470759D01*
X187355296Y-92504988D01*
X187514659Y-92508326D01*
X187671636Y-92480647D01*
X187820247Y-92423004D01*
X187954831Y-92337594D01*
X188070263Y-92227670D01*
X188162145Y-92097419D01*
X188226978Y-91951801D01*
X188262293Y-91796364D01*
X188264835Y-91614301D01*
X188233874Y-91457938D01*
X188173132Y-91310567D01*
X188112400Y-91219157D01*
X188112400Y-82042000D01*
X188106445Y-81981269D01*
X188101130Y-81920518D01*
X188100162Y-81917186D01*
X188099823Y-81913728D01*
X188082190Y-81855324D01*
X188065172Y-81796748D01*
X188063573Y-81793663D01*
X188062570Y-81790341D01*
X188033945Y-81736504D01*
X188005858Y-81682320D01*
X188003691Y-81679605D01*
X188002061Y-81676540D01*
X187963518Y-81629282D01*
X187925448Y-81581592D01*
X187920684Y-81576762D01*
X187920601Y-81576660D01*
X187920507Y-81576582D01*
X187918973Y-81575027D01*
X182711973Y-76368027D01*
X182664858Y-76329326D01*
X182618104Y-76290095D01*
X182615062Y-76288423D01*
X182612378Y-76286218D01*
X182558620Y-76257393D01*
X182505159Y-76228003D01*
X182501848Y-76226953D01*
X182498788Y-76225312D01*
X182440479Y-76207485D01*
X182382305Y-76189031D01*
X182378852Y-76188644D01*
X182375533Y-76187629D01*
X182314878Y-76181468D01*
X182254221Y-76174664D01*
X182247433Y-76174617D01*
X182247306Y-76174604D01*
X182247188Y-76174615D01*
X182245000Y-76174600D01*
X172600644Y-76174600D01*
X172539959Y-76180550D01*
X172479162Y-76185869D01*
X172475825Y-76186838D01*
X172472372Y-76187177D01*
X172413996Y-76204802D01*
X172355393Y-76221828D01*
X172352310Y-76223426D01*
X172348985Y-76224430D01*
X172295130Y-76253065D01*
X172240964Y-76281142D01*
X172238249Y-76283309D01*
X172235184Y-76284939D01*
X172187926Y-76323482D01*
X172140236Y-76361552D01*
X172135406Y-76366316D01*
X172135304Y-76366399D01*
X172135226Y-76366493D01*
X172133671Y-76368027D01*
X170422098Y-78079600D01*
X151796251Y-78079600D01*
X150384851Y-76668200D01*
X150384851Y-70297248D01*
X150679212Y-70002887D01*
X150743932Y-70103312D01*
X150854659Y-70217973D01*
X150985549Y-70308944D01*
X151131616Y-70372759D01*
X151253643Y-70399589D01*
X156239026Y-75384972D01*
X156286141Y-75423673D01*
X156332895Y-75462904D01*
X156335937Y-75464576D01*
X156338621Y-75466781D01*
X156392398Y-75495616D01*
X156445840Y-75524996D01*
X156449149Y-75526046D01*
X156452210Y-75527687D01*
X156510534Y-75545519D01*
X156568694Y-75563968D01*
X156572147Y-75564355D01*
X156575466Y-75565370D01*
X156636121Y-75571531D01*
X156696778Y-75578335D01*
X156703566Y-75578382D01*
X156703693Y-75578395D01*
X156703811Y-75578384D01*
X156705999Y-75578399D01*
X158797644Y-75578399D01*
X158748936Y-75668484D01*
X158669778Y-75924202D01*
X158641796Y-76190425D01*
X158666058Y-76457012D01*
X158741638Y-76713810D01*
X158865657Y-76951038D01*
X159033392Y-77159658D01*
X159238454Y-77331726D01*
X159473032Y-77460686D01*
X159728191Y-77541627D01*
X159994212Y-77571466D01*
X160013363Y-77571600D01*
X160026637Y-77571600D01*
X160293049Y-77545478D01*
X160549313Y-77468107D01*
X160785669Y-77342435D01*
X160993113Y-77173247D01*
X161163745Y-76966989D01*
X161290978Y-76731675D01*
X161405657Y-76951038D01*
X161573392Y-77159658D01*
X161778454Y-77331726D01*
X162013032Y-77460686D01*
X162268191Y-77541627D01*
X162534212Y-77571466D01*
X162553363Y-77571600D01*
X162566637Y-77571600D01*
X162833049Y-77545478D01*
X163089313Y-77468107D01*
X163325669Y-77342435D01*
X163533113Y-77173247D01*
X163703745Y-76966989D01*
X163718396Y-76939892D01*
X163796762Y-77084066D01*
X163994276Y-77321328D01*
X164234282Y-77515498D01*
X164507557Y-77659114D01*
X164803600Y-77746657D01*
X165049200Y-77596182D01*
X165049200Y-76250800D01*
X165150800Y-76250800D01*
X165150800Y-77596182D01*
X165396400Y-77746657D01*
X165692443Y-77659114D01*
X165965718Y-77515498D01*
X166205724Y-77321328D01*
X166403238Y-77084066D01*
X166550669Y-76812830D01*
X166642352Y-76518043D01*
X166646655Y-76496399D01*
X166496076Y-76250800D01*
X165150800Y-76250800D01*
X165049200Y-76250800D01*
X165029200Y-76250800D01*
X165029200Y-76149200D01*
X165049200Y-76149200D01*
X165049200Y-76129200D01*
X165150800Y-76129200D01*
X165150800Y-76149200D01*
X166496076Y-76149200D01*
X166646655Y-75903601D01*
X166642352Y-75881957D01*
X166550669Y-75587170D01*
X166403238Y-75315934D01*
X166205724Y-75078672D01*
X165965718Y-74884502D01*
X165837778Y-74817265D01*
X165865669Y-74802435D01*
X166073113Y-74633247D01*
X166243745Y-74426989D01*
X166371064Y-74191516D01*
X166450222Y-73935798D01*
X166478204Y-73669575D01*
X166453942Y-73402988D01*
X166378362Y-73146190D01*
X166254343Y-72908962D01*
X166086608Y-72700342D01*
X165881546Y-72528274D01*
X165646968Y-72399314D01*
X165391809Y-72318373D01*
X165125788Y-72288534D01*
X165106637Y-72288400D01*
X165093363Y-72288400D01*
X164826951Y-72314522D01*
X164570687Y-72391893D01*
X164334331Y-72517565D01*
X164126887Y-72686753D01*
X163956255Y-72893011D01*
X163829022Y-73128325D01*
X163714343Y-72908962D01*
X163546608Y-72700342D01*
X163341546Y-72528274D01*
X163106968Y-72399314D01*
X162851809Y-72318373D01*
X162585788Y-72288534D01*
X162566637Y-72288400D01*
X162553363Y-72288400D01*
X162286951Y-72314522D01*
X162030687Y-72391893D01*
X161794331Y-72517565D01*
X161586887Y-72686753D01*
X161416255Y-72893011D01*
X161394057Y-72934066D01*
X161394057Y-72796400D01*
X161387606Y-72715503D01*
X161345115Y-72578293D01*
X161266080Y-72458353D01*
X161156759Y-72365180D01*
X161025810Y-72306152D01*
X160883600Y-72285943D01*
X159156400Y-72285943D01*
X159075503Y-72292394D01*
X158938293Y-72334885D01*
X158818353Y-72413920D01*
X158725180Y-72523241D01*
X158666152Y-72654190D01*
X158645943Y-72796400D01*
X158645943Y-74257599D01*
X156979545Y-74257599D01*
X152186611Y-69464665D01*
X152165874Y-69359938D01*
X152105132Y-69212567D01*
X152016923Y-69079801D01*
X151904605Y-68966696D01*
X151791615Y-68890484D01*
X152277946Y-68404153D01*
X168800585Y-68404153D01*
X168848648Y-68666024D01*
X168946659Y-68913573D01*
X169090886Y-69137369D01*
X169275835Y-69328890D01*
X169494462Y-69480839D01*
X169738439Y-69587430D01*
X169998473Y-69644603D01*
X170264660Y-69650178D01*
X170526860Y-69603945D01*
X170775087Y-69507665D01*
X170999885Y-69365003D01*
X171192692Y-69181396D01*
X171346164Y-68963835D01*
X171454456Y-68720608D01*
X171513442Y-68460979D01*
X171514235Y-68404153D01*
X171868585Y-68404153D01*
X171916648Y-68666024D01*
X172014659Y-68913573D01*
X172158886Y-69137369D01*
X172343835Y-69328890D01*
X172562462Y-69480839D01*
X172806439Y-69587430D01*
X173066473Y-69644603D01*
X173332660Y-69650178D01*
X173594860Y-69603945D01*
X173843087Y-69507665D01*
X174067885Y-69365003D01*
X174260692Y-69181396D01*
X174414164Y-68963835D01*
X174522456Y-68720608D01*
X174581442Y-68460979D01*
X174584347Y-68252921D01*
X178988047Y-68252921D01*
X179094535Y-68833129D01*
X179311691Y-69381603D01*
X179631244Y-69877453D01*
X180041023Y-70301791D01*
X180525418Y-70638454D01*
X181065979Y-70874620D01*
X181642118Y-71001292D01*
X182231887Y-71013646D01*
X182812825Y-70911211D01*
X183362802Y-70697889D01*
X183860870Y-70381805D01*
X184288058Y-69974999D01*
X184628095Y-69492966D01*
X184868029Y-68954066D01*
X184998720Y-68378826D01*
X185008129Y-67705050D01*
X184893550Y-67126386D01*
X184668757Y-66580997D01*
X184342312Y-66089657D01*
X183926648Y-65671082D01*
X183437600Y-65341215D01*
X182893794Y-65112620D01*
X182315943Y-64994004D01*
X181726058Y-64989886D01*
X181146608Y-65100422D01*
X180599663Y-65321402D01*
X180106056Y-65644409D01*
X179684589Y-66057140D01*
X179351316Y-66543874D01*
X179118930Y-67086071D01*
X178996283Y-67663079D01*
X178988047Y-68252921D01*
X174584347Y-68252921D01*
X174585688Y-68156878D01*
X174533974Y-67895703D01*
X174432516Y-67649547D01*
X174285178Y-67427786D01*
X174097573Y-67238867D01*
X173876846Y-67089984D01*
X173631405Y-66986810D01*
X173370598Y-66933274D01*
X173104359Y-66931415D01*
X172842830Y-66981305D01*
X172595972Y-67081042D01*
X172373188Y-67226828D01*
X172182963Y-67413110D01*
X172032543Y-67632792D01*
X171927658Y-67877507D01*
X171872303Y-68137934D01*
X171868585Y-68404153D01*
X171514235Y-68404153D01*
X171517688Y-68156878D01*
X171465974Y-67895703D01*
X171364516Y-67649547D01*
X171217178Y-67427786D01*
X171029573Y-67238867D01*
X170808846Y-67089984D01*
X170563405Y-66986810D01*
X170302598Y-66933274D01*
X170036359Y-66931415D01*
X169774830Y-66981305D01*
X169527972Y-67081042D01*
X169305188Y-67226828D01*
X169114963Y-67413110D01*
X168964543Y-67632792D01*
X168859658Y-67877507D01*
X168804303Y-68137934D01*
X168800585Y-68404153D01*
X152277946Y-68404153D01*
X153559387Y-67122712D01*
X154039096Y-67122712D01*
X154099830Y-67116757D01*
X154160578Y-67111442D01*
X154163910Y-67110474D01*
X154167368Y-67110135D01*
X154225772Y-67092502D01*
X154284348Y-67075484D01*
X154287433Y-67073885D01*
X154290755Y-67072882D01*
X154344592Y-67044257D01*
X154398776Y-67016170D01*
X154401491Y-67014003D01*
X154404556Y-67012373D01*
X154451814Y-66973830D01*
X154499504Y-66935760D01*
X154504334Y-66930996D01*
X154504436Y-66930913D01*
X154504514Y-66930819D01*
X154506069Y-66929285D01*
X155115341Y-66320013D01*
X155203163Y-66304528D01*
X155351774Y-66246885D01*
X155486358Y-66161475D01*
X155601790Y-66051551D01*
X155693672Y-65921300D01*
X155758505Y-65775682D01*
X155793820Y-65620245D01*
X155796362Y-65438182D01*
X155765401Y-65281819D01*
X155704659Y-65134448D01*
X155673321Y-65087280D01*
X158437755Y-65087280D01*
X158513356Y-65139824D01*
X158659423Y-65203639D01*
X158815103Y-65237868D01*
X158974466Y-65241206D01*
X159131443Y-65213527D01*
X159280054Y-65155884D01*
X159414638Y-65070474D01*
X159530070Y-64960550D01*
X159621952Y-64830299D01*
X159686785Y-64684681D01*
X159722100Y-64529244D01*
X159724642Y-64347181D01*
X159693681Y-64190818D01*
X159692623Y-64188252D01*
X159727121Y-64222749D01*
X159744266Y-64316164D01*
X159802944Y-64464369D01*
X159889292Y-64598354D01*
X160000019Y-64713015D01*
X160130909Y-64803986D01*
X160276976Y-64867801D01*
X160432656Y-64902030D01*
X160592019Y-64905368D01*
X160748996Y-64877689D01*
X160897607Y-64820046D01*
X161032191Y-64734636D01*
X161147623Y-64624712D01*
X161239505Y-64494461D01*
X161304338Y-64348843D01*
X161339653Y-64193406D01*
X161342195Y-64011343D01*
X161311234Y-63854980D01*
X161250492Y-63707609D01*
X161162283Y-63574843D01*
X161049965Y-63461738D01*
X160917818Y-63372604D01*
X160770875Y-63310835D01*
X160660428Y-63288163D01*
X160405291Y-63033027D01*
X160358176Y-62994326D01*
X160311422Y-62955095D01*
X160308380Y-62953423D01*
X160305696Y-62951218D01*
X160251938Y-62922393D01*
X160198477Y-62893003D01*
X160195166Y-62891953D01*
X160192106Y-62890312D01*
X160133797Y-62872485D01*
X160075623Y-62854031D01*
X160072170Y-62853644D01*
X160068851Y-62852629D01*
X160008196Y-62846468D01*
X159947539Y-62839664D01*
X159940751Y-62839617D01*
X159940624Y-62839604D01*
X159940506Y-62839615D01*
X159938318Y-62839600D01*
X152908000Y-62839600D01*
X152847269Y-62845555D01*
X152786518Y-62850870D01*
X152783186Y-62851838D01*
X152779728Y-62852177D01*
X152721324Y-62869810D01*
X152662748Y-62886828D01*
X152659663Y-62888427D01*
X152656341Y-62889430D01*
X152602504Y-62918055D01*
X152548320Y-62946142D01*
X152545605Y-62948309D01*
X152542540Y-62949939D01*
X152495282Y-62988482D01*
X152447592Y-63026552D01*
X152442758Y-63031319D01*
X152442660Y-63031399D01*
X152442585Y-63031489D01*
X152441026Y-63033027D01*
X150094454Y-65379600D01*
X147413740Y-65379600D01*
X147400515Y-65336893D01*
X147321480Y-65216953D01*
X147212159Y-65123780D01*
X147081210Y-65064752D01*
X146939000Y-65044543D01*
X145669000Y-65044543D01*
X145588103Y-65050994D01*
X145450893Y-65093485D01*
X145330953Y-65172520D01*
X145237780Y-65281841D01*
X145193713Y-65379600D01*
X144873740Y-65379600D01*
X144860515Y-65336893D01*
X144781480Y-65216953D01*
X144672159Y-65123780D01*
X144541210Y-65064752D01*
X144399000Y-65044543D01*
X143129000Y-65044543D01*
X143048103Y-65050994D01*
X142910893Y-65093485D01*
X142790953Y-65172520D01*
X142697780Y-65281841D01*
X142638752Y-65412790D01*
X142618543Y-65555000D01*
X142618543Y-66525000D01*
X142624994Y-66605897D01*
X142638528Y-66649600D01*
X142485648Y-66649600D01*
X142314313Y-66478265D01*
X142293576Y-66373538D01*
X142232834Y-66226167D01*
X142144625Y-66093401D01*
X142032307Y-65980296D01*
X141900160Y-65891162D01*
X141753217Y-65829393D01*
X141597074Y-65797341D01*
X141437679Y-65796228D01*
X141281104Y-65826097D01*
X141133313Y-65885808D01*
X140999934Y-65973089D01*
X140886048Y-66084614D01*
X140795993Y-66216136D01*
X140733200Y-66362645D01*
X140700059Y-66518560D01*
X140697833Y-66677942D01*
X138980027Y-66677942D01*
X138986293Y-66650364D01*
X138988835Y-66468301D01*
X138957874Y-66311938D01*
X138897132Y-66164567D01*
X138808923Y-66031801D01*
X138696605Y-65918696D01*
X138564458Y-65829562D01*
X138417515Y-65767793D01*
X138261372Y-65735741D01*
X138101977Y-65734628D01*
X137945402Y-65764497D01*
X137813884Y-65817634D01*
X129632219Y-57635969D01*
X138290058Y-57635969D01*
X138260869Y-57689064D01*
X138186448Y-57923668D01*
X138159013Y-58168260D01*
X138158890Y-58185868D01*
X138158890Y-59714132D01*
X138182908Y-59959083D01*
X138254046Y-60194704D01*
X138369595Y-60412020D01*
X138525153Y-60602753D01*
X138714796Y-60759640D01*
X138931300Y-60876703D01*
X139166419Y-60949484D01*
X139411196Y-60975211D01*
X139656308Y-60952904D01*
X139716780Y-60935106D01*
X143375958Y-64594284D01*
X143423073Y-64632985D01*
X143469827Y-64672216D01*
X143472869Y-64673888D01*
X143475553Y-64676093D01*
X143529311Y-64704918D01*
X143582772Y-64734308D01*
X143586083Y-64735358D01*
X143589143Y-64736999D01*
X143647452Y-64754826D01*
X143705626Y-64773280D01*
X143709079Y-64773667D01*
X143712398Y-64774682D01*
X143773053Y-64780843D01*
X143833710Y-64787647D01*
X143840498Y-64787694D01*
X143840625Y-64787707D01*
X143840743Y-64787696D01*
X143842931Y-64787711D01*
X144202101Y-64787711D01*
X144277702Y-64840255D01*
X144423769Y-64904070D01*
X144579449Y-64938299D01*
X144738812Y-64941637D01*
X144895789Y-64913958D01*
X145044400Y-64856315D01*
X145178984Y-64770905D01*
X145294416Y-64660981D01*
X145386298Y-64530730D01*
X145451131Y-64385112D01*
X145486446Y-64229675D01*
X145487340Y-64165666D01*
X145500630Y-64178956D01*
X145521425Y-64292255D01*
X145580103Y-64440460D01*
X145666451Y-64574445D01*
X145777178Y-64689106D01*
X145908068Y-64780077D01*
X146054135Y-64843892D01*
X146209815Y-64878121D01*
X146369178Y-64881459D01*
X146526155Y-64853780D01*
X146674766Y-64796137D01*
X146809350Y-64710727D01*
X146924782Y-64600803D01*
X147016664Y-64470552D01*
X147081497Y-64324934D01*
X147116812Y-64169497D01*
X147119354Y-63987434D01*
X147088393Y-63831071D01*
X147027651Y-63683700D01*
X146939442Y-63550934D01*
X146827124Y-63437829D01*
X146694977Y-63348695D01*
X146548034Y-63286926D01*
X146458013Y-63268447D01*
X144287247Y-61097681D01*
X144449200Y-60989887D01*
X144449200Y-59000800D01*
X144550800Y-59000800D01*
X144550800Y-60989887D01*
X144779105Y-61141845D01*
X145013434Y-61076667D01*
X145271288Y-60950133D01*
X145499502Y-60775725D01*
X145689306Y-60560146D01*
X145833406Y-60311681D01*
X145926263Y-60039877D01*
X145964310Y-59755180D01*
X145964310Y-59000800D01*
X144550800Y-59000800D01*
X144449200Y-59000800D01*
X144429200Y-59000800D01*
X144429200Y-58899200D01*
X144449200Y-58899200D01*
X144449200Y-58879200D01*
X144550800Y-58879200D01*
X144550800Y-58899200D01*
X145964310Y-58899200D01*
X145964310Y-58144820D01*
X145926263Y-57860123D01*
X145849685Y-57635969D01*
X146369040Y-57635969D01*
X146371549Y-57637713D01*
X146517616Y-57701528D01*
X146673296Y-57735757D01*
X146832659Y-57739095D01*
X146989636Y-57711416D01*
X147138247Y-57653773D01*
X147166301Y-57635969D01*
X151243589Y-57635969D01*
X151127706Y-57805212D01*
X151029590Y-58034132D01*
X150977808Y-58277749D01*
X150974331Y-58526785D01*
X151019291Y-58771753D01*
X151110976Y-59003323D01*
X151245894Y-59212675D01*
X151418905Y-59391833D01*
X151623420Y-59533975D01*
X151851650Y-59633686D01*
X152094899Y-59687168D01*
X152343905Y-59692384D01*
X152589181Y-59649135D01*
X152821385Y-59559069D01*
X153031673Y-59425616D01*
X153212035Y-59253859D01*
X153355602Y-59050341D01*
X153456903Y-58822814D01*
X153512082Y-58579943D01*
X153516054Y-58295470D01*
X153467678Y-58051154D01*
X153372769Y-57820886D01*
X153249911Y-57635969D01*
X153836202Y-57635969D01*
X153836202Y-59656606D01*
X153244008Y-60248800D01*
X152291189Y-60248800D01*
X152280458Y-60241562D01*
X152133515Y-60179793D01*
X151977372Y-60147741D01*
X151817977Y-60146628D01*
X151661402Y-60176497D01*
X151513611Y-60236208D01*
X151380232Y-60323489D01*
X151266346Y-60435014D01*
X151176291Y-60566536D01*
X151113498Y-60713045D01*
X151080357Y-60868960D01*
X151078131Y-61028342D01*
X151106906Y-61185122D01*
X151165584Y-61333327D01*
X151251932Y-61467312D01*
X151362659Y-61581973D01*
X151493549Y-61672944D01*
X151639616Y-61736759D01*
X151795296Y-61770988D01*
X151954659Y-61774326D01*
X152111636Y-61746647D01*
X152260247Y-61689004D01*
X152288301Y-61671200D01*
X153538596Y-61671200D01*
X153603942Y-61664793D01*
X153669422Y-61659064D01*
X153673017Y-61658020D01*
X153676735Y-61657655D01*
X153739586Y-61638679D01*
X153802713Y-61620339D01*
X153806034Y-61618618D01*
X153809613Y-61617537D01*
X153867608Y-61586701D01*
X153925943Y-61556463D01*
X153928866Y-61554130D01*
X153932168Y-61552374D01*
X153983083Y-61510849D01*
X153993014Y-61502921D01*
X185738047Y-61502921D01*
X185844535Y-62083129D01*
X186061691Y-62631603D01*
X186381244Y-63127453D01*
X186791023Y-63551791D01*
X187275418Y-63888454D01*
X187815979Y-64124620D01*
X188392118Y-64251292D01*
X188981887Y-64263646D01*
X189562825Y-64161211D01*
X190112802Y-63947889D01*
X190610870Y-63631805D01*
X191038058Y-63224999D01*
X191378095Y-62742966D01*
X191618029Y-62204066D01*
X191748720Y-61628826D01*
X191758129Y-60955050D01*
X191643550Y-60376386D01*
X191418757Y-59830997D01*
X191092312Y-59339657D01*
X190676648Y-58921082D01*
X190187600Y-58591215D01*
X189643794Y-58362620D01*
X189065943Y-58244004D01*
X188476058Y-58239886D01*
X187896608Y-58350422D01*
X187349663Y-58571402D01*
X186856056Y-58894409D01*
X186434589Y-59307140D01*
X186101316Y-59793874D01*
X185868930Y-60336071D01*
X185746283Y-60913079D01*
X185738047Y-61502921D01*
X153993014Y-61502921D01*
X154034420Y-61469867D01*
X154039620Y-61464738D01*
X154039732Y-61464647D01*
X154039818Y-61464543D01*
X154041490Y-61462894D01*
X155050296Y-60454088D01*
X155091960Y-60403366D01*
X155134223Y-60352999D01*
X155136025Y-60349720D01*
X155138398Y-60346832D01*
X155169442Y-60288936D01*
X155201091Y-60231365D01*
X155202221Y-60227802D01*
X155203989Y-60224505D01*
X155223194Y-60161690D01*
X155243061Y-60099061D01*
X155243478Y-60095343D01*
X155244571Y-60091768D01*
X155251209Y-60026422D01*
X155258533Y-59961124D01*
X155258584Y-59953817D01*
X155258598Y-59953677D01*
X155258586Y-59953546D01*
X155258602Y-59951194D01*
X155258602Y-57632641D01*
X156125868Y-57632641D01*
X156007706Y-57805212D01*
X155909590Y-58034132D01*
X155857808Y-58277749D01*
X155854331Y-58526785D01*
X155899291Y-58771753D01*
X155990976Y-59003323D01*
X156125894Y-59212675D01*
X156298905Y-59391833D01*
X156503420Y-59533975D01*
X156731650Y-59633686D01*
X156974899Y-59687168D01*
X157223905Y-59692384D01*
X157469181Y-59649135D01*
X157701385Y-59559069D01*
X157911673Y-59425616D01*
X158092035Y-59253859D01*
X158235602Y-59050341D01*
X158336903Y-58822814D01*
X158392082Y-58579943D01*
X158396054Y-58295470D01*
X158347678Y-58051154D01*
X158252769Y-57820886D01*
X158127700Y-57632641D01*
X163063952Y-57632641D01*
X163066461Y-57634385D01*
X163212528Y-57698200D01*
X163368208Y-57732429D01*
X163527571Y-57735767D01*
X163684548Y-57708088D01*
X163833159Y-57650445D01*
X163855969Y-57635969D01*
X166149040Y-57635969D01*
X166151549Y-57637713D01*
X166297616Y-57701528D01*
X166453296Y-57735757D01*
X166612659Y-57739095D01*
X166769636Y-57711416D01*
X166918247Y-57653773D01*
X167052831Y-57568363D01*
X167168263Y-57458439D01*
X167188843Y-57429265D01*
X168799913Y-57429265D01*
X168799913Y-58979630D01*
X168806364Y-59060527D01*
X168848855Y-59197737D01*
X168927890Y-59317677D01*
X169037211Y-59410850D01*
X169168160Y-59469878D01*
X169310370Y-59490087D01*
X171009630Y-59490087D01*
X171090527Y-59483636D01*
X171227737Y-59441145D01*
X171347677Y-59362110D01*
X171440850Y-59252789D01*
X171499878Y-59121840D01*
X171520087Y-58979630D01*
X171520087Y-57429265D01*
X171867913Y-57429265D01*
X171867913Y-58979630D01*
X171874364Y-59060527D01*
X171916855Y-59197737D01*
X171995890Y-59317677D01*
X172105211Y-59410850D01*
X172236160Y-59469878D01*
X172378370Y-59490087D01*
X174077630Y-59490087D01*
X174158527Y-59483636D01*
X174295737Y-59441145D01*
X174415677Y-59362110D01*
X174508850Y-59252789D01*
X174567878Y-59121840D01*
X174588087Y-58979630D01*
X174588087Y-57635969D01*
X190020049Y-57635969D01*
X195566653Y-63182573D01*
X195566653Y-74791161D01*
X195562144Y-74797746D01*
X195499351Y-74944255D01*
X195466210Y-75100170D01*
X195463984Y-75259552D01*
X195492759Y-75416332D01*
X195551437Y-75564537D01*
X195564330Y-75584543D01*
X195564330Y-80117951D01*
X195559821Y-80124536D01*
X195497028Y-80271045D01*
X195463887Y-80426960D01*
X195461661Y-80586342D01*
X195490436Y-80743122D01*
X195549114Y-80891327D01*
X195564330Y-80914937D01*
X195564330Y-96824800D01*
X183279189Y-96824800D01*
X183268458Y-96817562D01*
X183121515Y-96755793D01*
X182965372Y-96723741D01*
X182805977Y-96722628D01*
X182649402Y-96752497D01*
X182501611Y-96812208D01*
X182368232Y-96899489D01*
X182254346Y-97011014D01*
X182164291Y-97142536D01*
X182101498Y-97289045D01*
X182096189Y-97314023D01*
X178997106Y-100413106D01*
X178955442Y-100463828D01*
X178913179Y-100514195D01*
X178911377Y-100517474D01*
X178909004Y-100520362D01*
X178877960Y-100578258D01*
X178846311Y-100635829D01*
X178845181Y-100639392D01*
X178843413Y-100642689D01*
X178824208Y-100705504D01*
X178804341Y-100768133D01*
X178803924Y-100771851D01*
X178802831Y-100775426D01*
X178796193Y-100840772D01*
X178788869Y-100906070D01*
X178788818Y-100913377D01*
X178788804Y-100913517D01*
X178788816Y-100913648D01*
X178788800Y-100916000D01*
X178788800Y-102939543D01*
X178700000Y-102939543D01*
X178619103Y-102945994D01*
X178481893Y-102988485D01*
X178361953Y-103067520D01*
X178268780Y-103176841D01*
X178209752Y-103307790D01*
X178198634Y-103386030D01*
X177983267Y-103338575D01*
X177071842Y-104250000D01*
X177983267Y-105161425D01*
X178194713Y-105114834D01*
X178195994Y-105130897D01*
X178238485Y-105268107D01*
X178317520Y-105388047D01*
X178426841Y-105481220D01*
X178557790Y-105540248D01*
X178700000Y-105560457D01*
X180300000Y-105560457D01*
X180380897Y-105554006D01*
X180518107Y-105511515D01*
X180638047Y-105432480D01*
X180731220Y-105323159D01*
X180790248Y-105192210D01*
X180810457Y-105050000D01*
X180810457Y-103450000D01*
X180804006Y-103369103D01*
X180761515Y-103231893D01*
X180682480Y-103111953D01*
X180573159Y-103018780D01*
X180442210Y-102959752D01*
X180300000Y-102939543D01*
X180211200Y-102939543D01*
X180211200Y-101210588D01*
X183099035Y-98322753D01*
X183099636Y-98322647D01*
X183248247Y-98265004D01*
X183276301Y-98247200D01*
X195527165Y-98247200D01*
X195497028Y-98317515D01*
X195463887Y-98473430D01*
X195461661Y-98632812D01*
X195490436Y-98789592D01*
X195549114Y-98937797D01*
X195564330Y-98961407D01*
X195564330Y-122122345D01*
X191220970Y-126465705D01*
X191378095Y-126242966D01*
X191618029Y-125704066D01*
X191748720Y-125128826D01*
X191758129Y-124455050D01*
X191643550Y-123876386D01*
X191418757Y-123330997D01*
X191092312Y-122839657D01*
X190676648Y-122421082D01*
X190187600Y-122091215D01*
X189643794Y-121862620D01*
X189065943Y-121744004D01*
X188476058Y-121739886D01*
X187896608Y-121850422D01*
X187349663Y-122071402D01*
X186856056Y-122394409D01*
X186434589Y-122807140D01*
X186101316Y-123293874D01*
X185868930Y-123836071D01*
X185746283Y-124413079D01*
X185738047Y-125002921D01*
X185844535Y-125583129D01*
X186061691Y-126131603D01*
X186381244Y-126627453D01*
X186791023Y-127051791D01*
X187275418Y-127388454D01*
X187815979Y-127624620D01*
X188392118Y-127751292D01*
X188981887Y-127763646D01*
X189562825Y-127661211D01*
X190112802Y-127447889D01*
X190457605Y-127229070D01*
X188193787Y-129492888D01*
X188183514Y-129494848D01*
X188035723Y-129554559D01*
X188021051Y-129564160D01*
X167824549Y-129564160D01*
X167813818Y-129556922D01*
X167666875Y-129495153D01*
X167510732Y-129463101D01*
X167351337Y-129461988D01*
X167194762Y-129491857D01*
X167046971Y-129551568D01*
X166913592Y-129638849D01*
X166799706Y-129750374D01*
X166709651Y-129881896D01*
X166646858Y-130028405D01*
X166613717Y-130184320D01*
X166611491Y-130343702D01*
X166640266Y-130500482D01*
X166698944Y-130648687D01*
X166785292Y-130782672D01*
X166896019Y-130897333D01*
X167026909Y-130988304D01*
X167172976Y-131052119D01*
X167328656Y-131086348D01*
X167488019Y-131089686D01*
X167644996Y-131062007D01*
X167793607Y-131004364D01*
X167821661Y-130986560D01*
X188008848Y-130986560D01*
X188015661Y-130991295D01*
X188161728Y-131055110D01*
X188317408Y-131089339D01*
X188476771Y-131092677D01*
X188633748Y-131064998D01*
X188782359Y-131007355D01*
X188916943Y-130921945D01*
X189032375Y-130812021D01*
X189124257Y-130681770D01*
X189189090Y-130536152D01*
X189197025Y-130501226D01*
X196778424Y-122919827D01*
X196808800Y-122882847D01*
X196808800Y-123043951D01*
X196804291Y-123050536D01*
X196741498Y-123197045D01*
X196736189Y-123222022D01*
X188488329Y-131469883D01*
X172275627Y-131469883D01*
X172264896Y-131462645D01*
X172117953Y-131400876D01*
X171961810Y-131368824D01*
X171802415Y-131367711D01*
X171645840Y-131397580D01*
X171498049Y-131457291D01*
X171364670Y-131544572D01*
X171250784Y-131656097D01*
X171160729Y-131787619D01*
X171097936Y-131934128D01*
X171064795Y-132090043D01*
X171062569Y-132249425D01*
X171091344Y-132406205D01*
X171150022Y-132554410D01*
X171236370Y-132688395D01*
X171347097Y-132803056D01*
X171477987Y-132894027D01*
X171624054Y-132957842D01*
X171779734Y-132992071D01*
X171939097Y-132995409D01*
X172096074Y-132967730D01*
X172244685Y-132910087D01*
X172272739Y-132892283D01*
X188782917Y-132892283D01*
X188848263Y-132885876D01*
X188913743Y-132880147D01*
X188917338Y-132879103D01*
X188921056Y-132878738D01*
X188983907Y-132859762D01*
X189047034Y-132841422D01*
X189050355Y-132839701D01*
X189053934Y-132838620D01*
X189111929Y-132807784D01*
X189170264Y-132777546D01*
X189173187Y-132775213D01*
X189176489Y-132773457D01*
X189227404Y-132731932D01*
X189278741Y-132690950D01*
X189283941Y-132685821D01*
X189284053Y-132685730D01*
X189284139Y-132685626D01*
X189285811Y-132683977D01*
X197739036Y-124230753D01*
X197739636Y-124230647D01*
X197888247Y-124173004D01*
X198022831Y-124087594D01*
X198138263Y-123977670D01*
X198230145Y-123847419D01*
X198294978Y-123701801D01*
X198330293Y-123546364D01*
X198332835Y-123364301D01*
X198301874Y-123207938D01*
X198241132Y-123060567D01*
X198231200Y-123045618D01*
X198231200Y-107831049D01*
X198294978Y-107687801D01*
X198330293Y-107532364D01*
X198332835Y-107350301D01*
X198301874Y-107193938D01*
X198241132Y-107046567D01*
X198231200Y-107031618D01*
X198231200Y-88701049D01*
X198294978Y-88557801D01*
X198330293Y-88402364D01*
X198332835Y-88220301D01*
X198301874Y-88063938D01*
X198241132Y-87916567D01*
X198231200Y-87901618D01*
X198231200Y-74811049D01*
X198294978Y-74667801D01*
X198330293Y-74512364D01*
X198332835Y-74330301D01*
X198301874Y-74173938D01*
X198241132Y-74026567D01*
X198231200Y-74011618D01*
X198231200Y-63029990D01*
X198224793Y-62964644D01*
X198219064Y-62899164D01*
X198218020Y-62895569D01*
X198217655Y-62891851D01*
X198198679Y-62829000D01*
X198180339Y-62765873D01*
X198178618Y-62762552D01*
X198177537Y-62758973D01*
X198146712Y-62700998D01*
X198116463Y-62642642D01*
X198114128Y-62639717D01*
X198112374Y-62636418D01*
X198070866Y-62585525D01*
X198029867Y-62534166D01*
X198024738Y-62528966D01*
X198024647Y-62528854D01*
X198024543Y-62528768D01*
X198022894Y-62527096D01*
X190207878Y-54712080D01*
X190204879Y-54696933D01*
X190144137Y-54549562D01*
X190055928Y-54416796D01*
X189943610Y-54303691D01*
X189811463Y-54214557D01*
X189664520Y-54152788D01*
X189644471Y-54148673D01*
X187482904Y-51987106D01*
X187432182Y-51945442D01*
X187381815Y-51903179D01*
X187378536Y-51901377D01*
X187375648Y-51899004D01*
X187317752Y-51867960D01*
X187260181Y-51836311D01*
X187256618Y-51835181D01*
X187253321Y-51833413D01*
X187190506Y-51814208D01*
X187127877Y-51794341D01*
X187124159Y-51793924D01*
X187120584Y-51792831D01*
X187055238Y-51786193D01*
X186989940Y-51778869D01*
X186982633Y-51778818D01*
X186982493Y-51778804D01*
X186982362Y-51778816D01*
X186980010Y-51778800D01*
X174509189Y-51778800D01*
X174498458Y-51771562D01*
X174351515Y-51709793D01*
X174195372Y-51677741D01*
X174035977Y-51676628D01*
X173879402Y-51706497D01*
X173731611Y-51766208D01*
X173712368Y-51778800D01*
X152909189Y-51778800D01*
X152898458Y-51771562D01*
X152751515Y-51709793D01*
X152595372Y-51677741D01*
X152435977Y-51676628D01*
X152279402Y-51706497D01*
X152131611Y-51766208D01*
X152112368Y-51778800D01*
X141729189Y-51778800D01*
X141718458Y-51771562D01*
X141571515Y-51709793D01*
X141415372Y-51677741D01*
X141255977Y-51676628D01*
X141099402Y-51706497D01*
X140951611Y-51766208D01*
X140932368Y-51778800D01*
X125409898Y-51778800D01*
X125344593Y-51785203D01*
X125279072Y-51790936D01*
X125275477Y-51791980D01*
X125271759Y-51792345D01*
X125208908Y-51811321D01*
X125145781Y-51829661D01*
X125142460Y-51831382D01*
X125138881Y-51832463D01*
X125080886Y-51863299D01*
X125022551Y-51893537D01*
X125019628Y-51895870D01*
X125016326Y-51897626D01*
X124965411Y-51939151D01*
X124914074Y-51980133D01*
X124908870Y-51985265D01*
X124908762Y-51985353D01*
X124908680Y-51985453D01*
X124907004Y-51987105D01*
X115622746Y-61271364D01*
X115581082Y-61322086D01*
X115538819Y-61372453D01*
X115537017Y-61375732D01*
X115534644Y-61378620D01*
X115503600Y-61436516D01*
X115471951Y-61494087D01*
X115470821Y-61497650D01*
X115469053Y-61500947D01*
X115449848Y-61563762D01*
X115429981Y-61626391D01*
X115429564Y-61630109D01*
X115428471Y-61633684D01*
X115421833Y-61699030D01*
X115414509Y-61764328D01*
X115414458Y-61771635D01*
X115414444Y-61771775D01*
X115414456Y-61771906D01*
X115414440Y-61774258D01*
X115414440Y-69192143D01*
X115409931Y-69198728D01*
X115347138Y-69345237D01*
X115313997Y-69501152D01*
X115311771Y-69660534D01*
X107583000Y-69660534D01*
X107583000Y-68241486D01*
X132241486Y-43583000D01*
X181758514Y-43583000D01*
X206417000Y-68241486D01*
X206417000Y-68241486D01*
G37*
X206417000Y-68241486D02*
X206417000Y-117758514D01*
X181758514Y-142417000D01*
X132241486Y-142417000D01*
X107583000Y-117758514D01*
X107583000Y-69660534D01*
X115311771Y-69660534D01*
X115340546Y-69817314D01*
X115399224Y-69965519D01*
X115448800Y-70042445D01*
X115448800Y-96749951D01*
X115444291Y-96756536D01*
X115381498Y-96903045D01*
X115348357Y-97058960D01*
X115346131Y-97218342D01*
X115374906Y-97375122D01*
X115433584Y-97523327D01*
X115448800Y-97546937D01*
X115448800Y-111296953D01*
X115410798Y-111385619D01*
X115377657Y-111541534D01*
X115375431Y-111700916D01*
X115404206Y-111857696D01*
X115462884Y-112005901D01*
X115478100Y-112029511D01*
X115478100Y-123766943D01*
X115484507Y-123832289D01*
X115490236Y-123897769D01*
X115491280Y-123901364D01*
X115491645Y-123905082D01*
X115510621Y-123967933D01*
X115528961Y-124031060D01*
X115530682Y-124034381D01*
X115531763Y-124037960D01*
X115562599Y-124095955D01*
X115592837Y-124154290D01*
X115595170Y-124157213D01*
X115596926Y-124160515D01*
X115638451Y-124211430D01*
X115679433Y-124262767D01*
X115684562Y-124267967D01*
X115684653Y-124268079D01*
X115684757Y-124268165D01*
X115686406Y-124269837D01*
X125868972Y-134452404D01*
X125919692Y-134494066D01*
X125970062Y-134536331D01*
X125973344Y-134538135D01*
X125976229Y-134540505D01*
X126034087Y-134571528D01*
X126091696Y-134603199D01*
X126095260Y-134604329D01*
X126098556Y-134606097D01*
X126161371Y-134625302D01*
X126224000Y-134645169D01*
X126227718Y-134645586D01*
X126231293Y-134646679D01*
X126296639Y-134653317D01*
X126361937Y-134660641D01*
X126369244Y-134660692D01*
X126369384Y-134660706D01*
X126369515Y-134660694D01*
X126371867Y-134660710D01*
X127272344Y-134660710D01*
X127317616Y-134680489D01*
X127473296Y-134714718D01*
X127632659Y-134718056D01*
X127789636Y-134690377D01*
X127938247Y-134632734D01*
X127966301Y-134614930D01*
X135598843Y-134614930D01*
X135664189Y-134608523D01*
X135729669Y-134602794D01*
X135733264Y-134601750D01*
X135736982Y-134601385D01*
X135799833Y-134582409D01*
X135862960Y-134564069D01*
X135866281Y-134562348D01*
X135869860Y-134561267D01*
X135927855Y-134530431D01*
X135986190Y-134500193D01*
X135989113Y-134497860D01*
X135992415Y-134496104D01*
X136043330Y-134454579D01*
X136094667Y-134413597D01*
X136099867Y-134408468D01*
X136099979Y-134408377D01*
X136100065Y-134408273D01*
X136101737Y-134406624D01*
X136146479Y-134361882D01*
X136147080Y-134361776D01*
X136251690Y-134321200D01*
X158549040Y-134321200D01*
X158551549Y-134322944D01*
X158697616Y-134386759D01*
X158853296Y-134420988D01*
X159012659Y-134424326D01*
X159169636Y-134396647D01*
X159318247Y-134339004D01*
X159452831Y-134253594D01*
X159568263Y-134143670D01*
X159660145Y-134013419D01*
X159724978Y-133867801D01*
X159760293Y-133712364D01*
X159762835Y-133530301D01*
X159731874Y-133373938D01*
X159671132Y-133226567D01*
X159582923Y-133093801D01*
X159470605Y-132980696D01*
X159338458Y-132891562D01*
X159191515Y-132829793D01*
X159035372Y-132797741D01*
X158875977Y-132796628D01*
X158719402Y-132826497D01*
X158571611Y-132886208D01*
X158552368Y-132898800D01*
X136378331Y-132898800D01*
X136315902Y-132856691D01*
X136168959Y-132794922D01*
X136012816Y-132762870D01*
X135853421Y-132761757D01*
X135696846Y-132791626D01*
X135549055Y-132851337D01*
X135415676Y-132938618D01*
X135301790Y-133050143D01*
X135211735Y-133181665D01*
X135207078Y-133192530D01*
X127969189Y-133192530D01*
X127958458Y-133185292D01*
X127811515Y-133123523D01*
X127655372Y-133091471D01*
X127495977Y-133090358D01*
X127339402Y-133120227D01*
X127191611Y-133179938D01*
X127102409Y-133238310D01*
X126666456Y-133238310D01*
X116900500Y-123472355D01*
X116900500Y-112033623D01*
X116964278Y-111890375D01*
X116999593Y-111734938D01*
X117002135Y-111552875D01*
X116971174Y-111396512D01*
X116910432Y-111249141D01*
X116871200Y-111190092D01*
X116871200Y-97551049D01*
X116934978Y-97407801D01*
X116970293Y-97252364D01*
X116972835Y-97070301D01*
X116941874Y-96913938D01*
X116881132Y-96766567D01*
X116871200Y-96751618D01*
X116871200Y-69916067D01*
X116900618Y-69849993D01*
X116935933Y-69694556D01*
X116938475Y-69512493D01*
X116907514Y-69356130D01*
X116846772Y-69208759D01*
X116836840Y-69193810D01*
X116836840Y-62068846D01*
X125704487Y-53201200D01*
X140929040Y-53201200D01*
X140931549Y-53202944D01*
X141077616Y-53266759D01*
X141233296Y-53300988D01*
X141392659Y-53304326D01*
X141549636Y-53276647D01*
X141698247Y-53219004D01*
X141726301Y-53201200D01*
X152109040Y-53201200D01*
X152111549Y-53202944D01*
X152257616Y-53266759D01*
X152413296Y-53300988D01*
X152572659Y-53304326D01*
X152729636Y-53276647D01*
X152878247Y-53219004D01*
X152906301Y-53201200D01*
X173709040Y-53201200D01*
X173711549Y-53202944D01*
X173857616Y-53266759D01*
X174013296Y-53300988D01*
X174172659Y-53304326D01*
X174329636Y-53276647D01*
X174478247Y-53219004D01*
X174506301Y-53201200D01*
X186685422Y-53201200D01*
X188636916Y-55152695D01*
X188637911Y-55158117D01*
X188696589Y-55306322D01*
X188782937Y-55440307D01*
X188893664Y-55554968D01*
X189024554Y-55645939D01*
X189170621Y-55709754D01*
X189200558Y-55716336D01*
X189697791Y-56213569D01*
X173204240Y-56213569D01*
X173155468Y-56173507D01*
X173105101Y-56131244D01*
X173101822Y-56129442D01*
X173098934Y-56127069D01*
X173041038Y-56096025D01*
X172983467Y-56064376D01*
X172979904Y-56063246D01*
X172976607Y-56061478D01*
X172913792Y-56042273D01*
X172851163Y-56022406D01*
X172847445Y-56021989D01*
X172843870Y-56020896D01*
X172778524Y-56014258D01*
X172713226Y-56006934D01*
X172705919Y-56006883D01*
X172705779Y-56006869D01*
X172705648Y-56006881D01*
X172703296Y-56006865D01*
X166756704Y-56006865D01*
X166691399Y-56013268D01*
X166625878Y-56019001D01*
X166622283Y-56020045D01*
X166618565Y-56020410D01*
X166555714Y-56039386D01*
X166492587Y-56057726D01*
X166489266Y-56059447D01*
X166485687Y-56060528D01*
X166427692Y-56091364D01*
X166369357Y-56121602D01*
X166366434Y-56123935D01*
X166363132Y-56125691D01*
X166351556Y-56135132D01*
X166319402Y-56141266D01*
X166171611Y-56200977D01*
X166152368Y-56213569D01*
X163869035Y-56213569D01*
X163853370Y-56203003D01*
X163706427Y-56141234D01*
X163550284Y-56109182D01*
X163390889Y-56108069D01*
X163234314Y-56137938D01*
X163086523Y-56197649D01*
X163067280Y-56210241D01*
X154943328Y-56210241D01*
X154909387Y-56213569D01*
X147169189Y-56213569D01*
X147158458Y-56206331D01*
X147011515Y-56144562D01*
X146855372Y-56112510D01*
X146695977Y-56111397D01*
X146539402Y-56141266D01*
X146391611Y-56200977D01*
X146372368Y-56213569D01*
X128314420Y-56213569D01*
X128303689Y-56206331D01*
X128156746Y-56144562D01*
X128000603Y-56112510D01*
X127841208Y-56111397D01*
X127684633Y-56141266D01*
X127536842Y-56200977D01*
X127517599Y-56213569D01*
X124767971Y-56213569D01*
X124702625Y-56219976D01*
X124637145Y-56225705D01*
X124633550Y-56226749D01*
X124629832Y-56227114D01*
X124566981Y-56246090D01*
X124503854Y-56264430D01*
X124500533Y-56266151D01*
X124496954Y-56267232D01*
X124438979Y-56298057D01*
X124380623Y-56328306D01*
X124377698Y-56330641D01*
X124374399Y-56332395D01*
X124323506Y-56373903D01*
X124272147Y-56414902D01*
X124266947Y-56420031D01*
X124266835Y-56420122D01*
X124266749Y-56420226D01*
X124265077Y-56421875D01*
X121277106Y-59409846D01*
X121235442Y-59460568D01*
X121193179Y-59510935D01*
X121191377Y-59514214D01*
X121189004Y-59517102D01*
X121157960Y-59574998D01*
X121126311Y-59632569D01*
X121125181Y-59636132D01*
X121123413Y-59639429D01*
X121104208Y-59702244D01*
X121084341Y-59764873D01*
X121083924Y-59768591D01*
X121082831Y-59772166D01*
X121076193Y-59837512D01*
X121068869Y-59902810D01*
X121068818Y-59910117D01*
X121068804Y-59910257D01*
X121068816Y-59910388D01*
X121068800Y-59912740D01*
X121068800Y-70579951D01*
X121064291Y-70586536D01*
X121001498Y-70733045D01*
X120968357Y-70888960D01*
X120966131Y-71048342D01*
X120994906Y-71205122D01*
X121053584Y-71353327D01*
X121068800Y-71376937D01*
X121068800Y-86299951D01*
X121064291Y-86306536D01*
X121001498Y-86453045D01*
X120968357Y-86608960D01*
X120966131Y-86768342D01*
X120994906Y-86925122D01*
X121053584Y-87073327D01*
X121068800Y-87096937D01*
X121068800Y-100405442D01*
X121068051Y-100406536D01*
X121005258Y-100553045D01*
X120972117Y-100708960D01*
X120969891Y-100868342D01*
X120998666Y-101025122D01*
X121057344Y-101173327D01*
X121068800Y-101191103D01*
X121068800Y-109059951D01*
X121064291Y-109066536D01*
X121001498Y-109213045D01*
X120968357Y-109368960D01*
X120966131Y-109528342D01*
X120994906Y-109685122D01*
X121053584Y-109833327D01*
X121068800Y-109856937D01*
X121068800Y-126137813D01*
X121075207Y-126203159D01*
X121080936Y-126268639D01*
X121081980Y-126272234D01*
X121082345Y-126275952D01*
X121101321Y-126338803D01*
X121119661Y-126401930D01*
X121121382Y-126405251D01*
X121122463Y-126408830D01*
X121153299Y-126466825D01*
X121183537Y-126525160D01*
X121185870Y-126528083D01*
X121187626Y-126531385D01*
X121229151Y-126582300D01*
X121270133Y-126633637D01*
X121275262Y-126638837D01*
X121275353Y-126638949D01*
X121275457Y-126639035D01*
X121277106Y-126640707D01*
X125239293Y-130602895D01*
X125290022Y-130644564D01*
X125340382Y-130686821D01*
X125343663Y-130688625D01*
X125346550Y-130690996D01*
X125404425Y-130722028D01*
X125462016Y-130753689D01*
X125465580Y-130754819D01*
X125468876Y-130756587D01*
X125531691Y-130775792D01*
X125594320Y-130795659D01*
X125598038Y-130796076D01*
X125601613Y-130797169D01*
X125666955Y-130803806D01*
X125732257Y-130811131D01*
X125739565Y-130811182D01*
X125739705Y-130811196D01*
X125739836Y-130811184D01*
X125742187Y-130811200D01*
X136119040Y-130811200D01*
X136121549Y-130812944D01*
X136267616Y-130876759D01*
X136423296Y-130910988D01*
X136582659Y-130914326D01*
X136739636Y-130886647D01*
X136888247Y-130829004D01*
X136916301Y-130811200D01*
X148719040Y-130811200D01*
X148721549Y-130812944D01*
X148867616Y-130876759D01*
X149023296Y-130910988D01*
X149182659Y-130914326D01*
X149339636Y-130886647D01*
X149488247Y-130829004D01*
X149622831Y-130743594D01*
X149738263Y-130633670D01*
X149830145Y-130503419D01*
X149894978Y-130357801D01*
X149930293Y-130202364D01*
X149932835Y-130020301D01*
X149901874Y-129863938D01*
X149841132Y-129716567D01*
X149752923Y-129583801D01*
X149640605Y-129470696D01*
X149508458Y-129381562D01*
X149361515Y-129319793D01*
X149205372Y-129287741D01*
X149045977Y-129286628D01*
X148889402Y-129316497D01*
X148741611Y-129376208D01*
X148722368Y-129388800D01*
X136919189Y-129388800D01*
X136908458Y-129381562D01*
X136761515Y-129319793D01*
X136605372Y-129287741D01*
X136445977Y-129286628D01*
X136289402Y-129316497D01*
X136141611Y-129376208D01*
X136122368Y-129388800D01*
X126036776Y-129388800D01*
X124238936Y-127590961D01*
X124315979Y-127624620D01*
X124892118Y-127751292D01*
X125481887Y-127763646D01*
X126062825Y-127661211D01*
X126612802Y-127447889D01*
X127110870Y-127131805D01*
X127538058Y-126724999D01*
X127878095Y-126242966D01*
X128118029Y-125704066D01*
X128248720Y-125128826D01*
X128258129Y-124455050D01*
X128143550Y-123876386D01*
X127918757Y-123330997D01*
X127592312Y-122839657D01*
X127176648Y-122421082D01*
X126687600Y-122091215D01*
X126143794Y-121862620D01*
X125565943Y-121744004D01*
X124976058Y-121739886D01*
X124396608Y-121850422D01*
X123849663Y-122071402D01*
X123356056Y-122394409D01*
X122934589Y-122807140D01*
X122601316Y-123293874D01*
X122491200Y-123550794D01*
X122491200Y-118252921D01*
X128988047Y-118252921D01*
X129094535Y-118833129D01*
X129311691Y-119381603D01*
X129631244Y-119877453D01*
X130041023Y-120301791D01*
X130525418Y-120638454D01*
X131065979Y-120874620D01*
X131642118Y-121001292D01*
X132231887Y-121013646D01*
X132812825Y-120911211D01*
X133362802Y-120697889D01*
X133860870Y-120381805D01*
X134288058Y-119974999D01*
X134628095Y-119492966D01*
X134868029Y-118954066D01*
X134998720Y-118378826D01*
X135008129Y-117705050D01*
X134893550Y-117126386D01*
X134668757Y-116580997D01*
X134342312Y-116089657D01*
X133926648Y-115671082D01*
X133437600Y-115341215D01*
X132893794Y-115112620D01*
X132315943Y-114994004D01*
X131726058Y-114989886D01*
X131146608Y-115100422D01*
X130599663Y-115321402D01*
X130106056Y-115644409D01*
X129684589Y-116057140D01*
X129351316Y-116543874D01*
X129118930Y-117086071D01*
X128996283Y-117663079D01*
X128988047Y-118252921D01*
X122491200Y-118252921D01*
X122491200Y-109861049D01*
X122554978Y-109717801D01*
X122590293Y-109562364D01*
X122592835Y-109380301D01*
X122561874Y-109223938D01*
X122501132Y-109076567D01*
X122491200Y-109061618D01*
X122491200Y-101207254D01*
X122493905Y-101203419D01*
X122558738Y-101057801D01*
X122594053Y-100902364D01*
X122596595Y-100720301D01*
X122565634Y-100563938D01*
X122504892Y-100416567D01*
X122491200Y-100395959D01*
X122491200Y-87579200D01*
X130155040Y-87579200D01*
X130157549Y-87580944D01*
X130303616Y-87644759D01*
X130459296Y-87678988D01*
X130618659Y-87682326D01*
X130775636Y-87654647D01*
X130924247Y-87597004D01*
X131058831Y-87511594D01*
X131174263Y-87401670D01*
X131266145Y-87271419D01*
X131330978Y-87125801D01*
X131366293Y-86970364D01*
X131368835Y-86788301D01*
X131337874Y-86631938D01*
X131277132Y-86484567D01*
X131188923Y-86351801D01*
X131076605Y-86238696D01*
X130944458Y-86149562D01*
X130797515Y-86087793D01*
X130641372Y-86055741D01*
X130481977Y-86054628D01*
X130325402Y-86084497D01*
X130177611Y-86144208D01*
X130158368Y-86156800D01*
X122491200Y-86156800D01*
X122491200Y-79722433D01*
X137295916Y-79722433D01*
X137295916Y-119002230D01*
X137301871Y-119062964D01*
X137307186Y-119123712D01*
X137308154Y-119127044D01*
X137308493Y-119130502D01*
X137326126Y-119188906D01*
X137343144Y-119247482D01*
X137344743Y-119250567D01*
X137345746Y-119253889D01*
X137374371Y-119307726D01*
X137402458Y-119361910D01*
X137404625Y-119364625D01*
X137406255Y-119367690D01*
X137444798Y-119414948D01*
X137482868Y-119462638D01*
X137487632Y-119467468D01*
X137487715Y-119467570D01*
X137487809Y-119467648D01*
X137489343Y-119469203D01*
X146503113Y-128482973D01*
X146550228Y-128521674D01*
X146596982Y-128560905D01*
X146600024Y-128562577D01*
X146602708Y-128564782D01*
X146656466Y-128593607D01*
X146709927Y-128622997D01*
X146713238Y-128624047D01*
X146716298Y-128625688D01*
X146774595Y-128643511D01*
X146832781Y-128661969D01*
X146836236Y-128662357D01*
X146839554Y-128663371D01*
X146900203Y-128669532D01*
X146960865Y-128676336D01*
X146967653Y-128676383D01*
X146967780Y-128676396D01*
X146967898Y-128676385D01*
X146970086Y-128676400D01*
X151417948Y-128676400D01*
X151493549Y-128728944D01*
X151639616Y-128792759D01*
X151795296Y-128826988D01*
X151954659Y-128830326D01*
X152111636Y-128802647D01*
X152260247Y-128745004D01*
X152394831Y-128659594D01*
X152510263Y-128549670D01*
X152602145Y-128419419D01*
X152666978Y-128273801D01*
X152702293Y-128118364D01*
X152704835Y-127936301D01*
X152673874Y-127779938D01*
X152613132Y-127632567D01*
X152524923Y-127499801D01*
X152412605Y-127386696D01*
X152280458Y-127297562D01*
X152133515Y-127235793D01*
X151977372Y-127203741D01*
X151817977Y-127202628D01*
X151661402Y-127232497D01*
X151513611Y-127292208D01*
X151416738Y-127355600D01*
X147243632Y-127355600D01*
X138616716Y-118728684D01*
X138616716Y-118542000D01*
X145170572Y-118542000D01*
X145170572Y-122108000D01*
X167829429Y-122108000D01*
X167829429Y-118542000D01*
X145170572Y-118542000D01*
X138616716Y-118542000D01*
X138616716Y-118252921D01*
X178988047Y-118252921D01*
X179094535Y-118833129D01*
X179311691Y-119381603D01*
X179631244Y-119877453D01*
X180041023Y-120301791D01*
X180525418Y-120638454D01*
X181065979Y-120874620D01*
X181642118Y-121001292D01*
X182231887Y-121013646D01*
X182812825Y-120911211D01*
X183362802Y-120697889D01*
X183860870Y-120381805D01*
X184288058Y-119974999D01*
X184628095Y-119492966D01*
X184868029Y-118954066D01*
X184998720Y-118378826D01*
X185008129Y-117705050D01*
X184893550Y-117126386D01*
X184668757Y-116580997D01*
X184342312Y-116089657D01*
X183926648Y-115671082D01*
X183437600Y-115341215D01*
X182893794Y-115112620D01*
X182315943Y-114994004D01*
X181726058Y-114989886D01*
X181146608Y-115100422D01*
X180599663Y-115321402D01*
X180106056Y-115644409D01*
X179684589Y-116057140D01*
X179351316Y-116543874D01*
X179118930Y-117086071D01*
X178996283Y-117663079D01*
X178988047Y-118252921D01*
X138616716Y-118252921D01*
X138616716Y-79995979D01*
X145089889Y-73522806D01*
X145128590Y-73475691D01*
X145167821Y-73428937D01*
X145169493Y-73425895D01*
X145171698Y-73423211D01*
X145200523Y-73369453D01*
X145229913Y-73315992D01*
X145230963Y-73312681D01*
X145232604Y-73309621D01*
X145250431Y-73251312D01*
X145268885Y-73193138D01*
X145269272Y-73189685D01*
X145270287Y-73186366D01*
X145276448Y-73125711D01*
X145278750Y-73105191D01*
X145333061Y-73028200D01*
X145397894Y-72882582D01*
X145433209Y-72727145D01*
X145435751Y-72545082D01*
X145404790Y-72388719D01*
X145344048Y-72241348D01*
X145255839Y-72108582D01*
X145143521Y-71995477D01*
X145011374Y-71906343D01*
X144864431Y-71844574D01*
X144708288Y-71812522D01*
X144548893Y-71811409D01*
X144392318Y-71841278D01*
X144244527Y-71900989D01*
X144111148Y-71988270D01*
X143997262Y-72099795D01*
X143907207Y-72231317D01*
X143844414Y-72377826D01*
X143811273Y-72533741D01*
X143809047Y-72693123D01*
X143837822Y-72849903D01*
X143854011Y-72890792D01*
X137489343Y-79255460D01*
X137450642Y-79302575D01*
X137411411Y-79349329D01*
X137409739Y-79352371D01*
X137407534Y-79355055D01*
X137378709Y-79408813D01*
X137349319Y-79462274D01*
X137348269Y-79465585D01*
X137346628Y-79468645D01*
X137328801Y-79526954D01*
X137310347Y-79585128D01*
X137309960Y-79588581D01*
X137308945Y-79591900D01*
X137302784Y-79652555D01*
X137295980Y-79713212D01*
X137295933Y-79720000D01*
X137295920Y-79720127D01*
X137295931Y-79720245D01*
X137295916Y-79722433D01*
X122491200Y-79722433D01*
X122491200Y-71381049D01*
X122554978Y-71237801D01*
X122590293Y-71082364D01*
X122592835Y-70900301D01*
X122561874Y-70743938D01*
X122501132Y-70596567D01*
X122491200Y-70581618D01*
X122491200Y-68252921D01*
X128988047Y-68252921D01*
X129094535Y-68833129D01*
X129311691Y-69381603D01*
X129631244Y-69877453D01*
X130041023Y-70301791D01*
X130525418Y-70638454D01*
X131065979Y-70874620D01*
X131642118Y-71001292D01*
X132231887Y-71013646D01*
X132812825Y-70911211D01*
X133362802Y-70697889D01*
X133860870Y-70381805D01*
X134288058Y-69974999D01*
X134628095Y-69492966D01*
X134868029Y-68954066D01*
X134998720Y-68378826D01*
X135008129Y-67705050D01*
X134893550Y-67126386D01*
X134668757Y-66580997D01*
X134342312Y-66089657D01*
X133926648Y-65671082D01*
X133437600Y-65341215D01*
X132893794Y-65112620D01*
X132315943Y-64994004D01*
X131726058Y-64989886D01*
X131146608Y-65100422D01*
X130599663Y-65321402D01*
X130106056Y-65644409D01*
X129684589Y-66057140D01*
X129351316Y-66543874D01*
X129118930Y-67086071D01*
X128996283Y-67663079D01*
X128988047Y-68252921D01*
X122491200Y-68252921D01*
X122491200Y-62453563D01*
X122561691Y-62631603D01*
X122881244Y-63127453D01*
X123291023Y-63551791D01*
X123775418Y-63888454D01*
X124315979Y-64124620D01*
X124892118Y-64251292D01*
X125481887Y-64263646D01*
X126062825Y-64161211D01*
X126612802Y-63947889D01*
X127110870Y-63631805D01*
X127538058Y-63224999D01*
X127878095Y-62742966D01*
X128118029Y-62204066D01*
X128248720Y-61628826D01*
X128258129Y-60955050D01*
X128143550Y-60376386D01*
X127918757Y-59830997D01*
X127592312Y-59339657D01*
X127176648Y-58921082D01*
X126687600Y-58591215D01*
X126143794Y-58362620D01*
X125565943Y-58244004D01*
X124976058Y-58239886D01*
X124396608Y-58350422D01*
X124315225Y-58383303D01*
X125062559Y-57635969D01*
X127514271Y-57635969D01*
X127516780Y-57637713D01*
X127662847Y-57701528D01*
X127692784Y-57708110D01*
X137035568Y-67050894D01*
X137086268Y-67092539D01*
X137136657Y-67134821D01*
X137139938Y-67136625D01*
X137142825Y-67138996D01*
X137200700Y-67170028D01*
X137258291Y-67201689D01*
X137261855Y-67202819D01*
X137265151Y-67204587D01*
X137327966Y-67223792D01*
X137390595Y-67243659D01*
X137394313Y-67244076D01*
X137397888Y-67245169D01*
X137463234Y-67251807D01*
X137528532Y-67259131D01*
X137535839Y-67259182D01*
X137535979Y-67259196D01*
X137536110Y-67259184D01*
X137538462Y-67259200D01*
X137775040Y-67259200D01*
X137777549Y-67260944D01*
X137923616Y-67324759D01*
X138079296Y-67358988D01*
X138238659Y-67362326D01*
X138395636Y-67334647D01*
X138544247Y-67277004D01*
X138678831Y-67191594D01*
X138794263Y-67081670D01*
X138886145Y-66951419D01*
X138950978Y-66805801D01*
X138980027Y-66677942D01*
X140697833Y-66677942D01*
X140726608Y-66834722D01*
X140785286Y-66982927D01*
X140871634Y-67116912D01*
X140982361Y-67231573D01*
X141113251Y-67322544D01*
X141259318Y-67386359D01*
X141381345Y-67413189D01*
X141745129Y-67776973D01*
X141792244Y-67815674D01*
X141838998Y-67854905D01*
X141842040Y-67856577D01*
X141844724Y-67858782D01*
X141898501Y-67887617D01*
X141951943Y-67916997D01*
X141955252Y-67918047D01*
X141958313Y-67919688D01*
X142016637Y-67937520D01*
X142074797Y-67955969D01*
X142078250Y-67956356D01*
X142081569Y-67957371D01*
X142142224Y-67963532D01*
X142202881Y-67970336D01*
X142209669Y-67970383D01*
X142209796Y-67970396D01*
X142209914Y-67970385D01*
X142212102Y-67970400D01*
X142636250Y-67970400D01*
X142618543Y-68095000D01*
X142618543Y-69065000D01*
X142624994Y-69145897D01*
X142667485Y-69283107D01*
X142746520Y-69403047D01*
X142855841Y-69496220D01*
X142986790Y-69555248D01*
X143129000Y-69575457D01*
X144399000Y-69575457D01*
X144479897Y-69569006D01*
X144617107Y-69526515D01*
X144737047Y-69447480D01*
X144818753Y-69351613D01*
X145252627Y-69351613D01*
X145286520Y-69403047D01*
X145395841Y-69496220D01*
X145526790Y-69555248D01*
X145669000Y-69575457D01*
X146939000Y-69575457D01*
X147019897Y-69569006D01*
X147157107Y-69526515D01*
X147277047Y-69447480D01*
X147370220Y-69338159D01*
X147414287Y-69240400D01*
X148619604Y-69240400D01*
X146853027Y-71006977D01*
X146814326Y-71054092D01*
X146775095Y-71100846D01*
X146773423Y-71103888D01*
X146771218Y-71106572D01*
X146742393Y-71160330D01*
X146713003Y-71213791D01*
X146711953Y-71217102D01*
X146710312Y-71220162D01*
X146692485Y-71278471D01*
X146674031Y-71336645D01*
X146673644Y-71340098D01*
X146672629Y-71343417D01*
X146666468Y-71404072D01*
X146659664Y-71464729D01*
X146659617Y-71471517D01*
X146659604Y-71471644D01*
X146659615Y-71471762D01*
X146659600Y-71473950D01*
X146659600Y-72169759D01*
X146604291Y-72250536D01*
X146541498Y-72397045D01*
X146508357Y-72552960D01*
X146506131Y-72712342D01*
X146534906Y-72869122D01*
X146593584Y-73017327D01*
X146679932Y-73151312D01*
X146790659Y-73265973D01*
X146921549Y-73356944D01*
X147067616Y-73420759D01*
X147223296Y-73454988D01*
X147382659Y-73458326D01*
X147539636Y-73430647D01*
X147675600Y-73377909D01*
X147675600Y-77002480D01*
X147681555Y-77063214D01*
X147686870Y-77123962D01*
X147687838Y-77127294D01*
X147688177Y-77130752D01*
X147705810Y-77189156D01*
X147722828Y-77247732D01*
X147724427Y-77250817D01*
X147725430Y-77254139D01*
X147754055Y-77307976D01*
X147782142Y-77362160D01*
X147784309Y-77364875D01*
X147785939Y-77367940D01*
X147824482Y-77415198D01*
X147862552Y-77462888D01*
X147867316Y-77467718D01*
X147867399Y-77467820D01*
X147867493Y-77467898D01*
X147869027Y-77469453D01*
X149816574Y-79417000D01*
X141500000Y-79417000D01*
X141445362Y-79422357D01*
X141390757Y-79427327D01*
X141388799Y-79427903D01*
X141386761Y-79428103D01*
X141334201Y-79443972D01*
X141281604Y-79459452D01*
X141279791Y-79460400D01*
X141277836Y-79460990D01*
X141229438Y-79486724D01*
X141180771Y-79512166D01*
X141179176Y-79513448D01*
X141177373Y-79514407D01*
X141134883Y-79549061D01*
X141092096Y-79583462D01*
X141090782Y-79585028D01*
X141089198Y-79586320D01*
X141054241Y-79628577D01*
X141018959Y-79670624D01*
X141017974Y-79672416D01*
X141016671Y-79673991D01*
X140990580Y-79722245D01*
X140964144Y-79770332D01*
X140963526Y-79772281D01*
X140962554Y-79774078D01*
X140946345Y-79826442D01*
X140929740Y-79878787D01*
X140929512Y-79880821D01*
X140928908Y-79882772D01*
X140923173Y-79937332D01*
X140917057Y-79991860D01*
X140917030Y-79995782D01*
X140917014Y-79995930D01*
X140917027Y-79996078D01*
X140917000Y-80000000D01*
X140917000Y-117500000D01*
X140922357Y-117554638D01*
X140927327Y-117609243D01*
X140927903Y-117611201D01*
X140928103Y-117613239D01*
X140943972Y-117665799D01*
X140959452Y-117718396D01*
X140960400Y-117720209D01*
X140960990Y-117722164D01*
X140986724Y-117770562D01*
X141012166Y-117819229D01*
X141013448Y-117820824D01*
X141014407Y-117822627D01*
X141049061Y-117865117D01*
X141083462Y-117907904D01*
X141085028Y-117909218D01*
X141086320Y-117910802D01*
X141128577Y-117945759D01*
X141170624Y-117981041D01*
X141172416Y-117982026D01*
X141173991Y-117983329D01*
X141222245Y-118009420D01*
X141270332Y-118035856D01*
X141272281Y-118036474D01*
X141274078Y-118037446D01*
X141326442Y-118053655D01*
X141378787Y-118070260D01*
X141380821Y-118070488D01*
X141382772Y-118071092D01*
X141437332Y-118076827D01*
X141491860Y-118082943D01*
X141495782Y-118082970D01*
X141495930Y-118082986D01*
X141496078Y-118082973D01*
X141500000Y-118083000D01*
X172500000Y-118083000D01*
X172554638Y-118077643D01*
X172609243Y-118072673D01*
X172611201Y-118072097D01*
X172613239Y-118071897D01*
X172665799Y-118056028D01*
X172718396Y-118040548D01*
X172720209Y-118039600D01*
X172722164Y-118039010D01*
X172770562Y-118013276D01*
X172819229Y-117987834D01*
X172820824Y-117986552D01*
X172822627Y-117985593D01*
X172865117Y-117950939D01*
X172907904Y-117916538D01*
X172909218Y-117914972D01*
X172910802Y-117913680D01*
X172945759Y-117871423D01*
X172981041Y-117829376D01*
X172982026Y-117827584D01*
X172983329Y-117826009D01*
X173009420Y-117777755D01*
X173035856Y-117729668D01*
X173036474Y-117727719D01*
X173037446Y-117725922D01*
X173053655Y-117673558D01*
X173070260Y-117621213D01*
X173070488Y-117619179D01*
X173071092Y-117617228D01*
X173076827Y-117562668D01*
X173082943Y-117508140D01*
X173082970Y-117504218D01*
X173082986Y-117504070D01*
X173082973Y-117503922D01*
X173083000Y-117500000D01*
X173083000Y-105233267D01*
X176088575Y-105233267D01*
X176149039Y-105507674D01*
X176410750Y-105649522D01*
X176695105Y-105737587D01*
X176991177Y-105768486D01*
X177287589Y-105741029D01*
X177572948Y-105656273D01*
X177836290Y-105517476D01*
X177850961Y-105507674D01*
X177911425Y-105233267D01*
X177000000Y-104321842D01*
X176088575Y-105233267D01*
X173083000Y-105233267D01*
X173083000Y-104241177D01*
X175481514Y-104241177D01*
X175508971Y-104537589D01*
X175593727Y-104822948D01*
X175732524Y-105086290D01*
X175742326Y-105100961D01*
X176016733Y-105161425D01*
X176928158Y-104250000D01*
X176016733Y-103338575D01*
X175742326Y-103399039D01*
X175600478Y-103660750D01*
X175512413Y-103945105D01*
X175481514Y-104241177D01*
X173083000Y-104241177D01*
X173083000Y-103266733D01*
X176088575Y-103266733D01*
X177000000Y-104178158D01*
X177911425Y-103266733D01*
X177850961Y-102992326D01*
X177589250Y-102850478D01*
X177304895Y-102762413D01*
X177008823Y-102731514D01*
X176712411Y-102758971D01*
X176427052Y-102843727D01*
X176163710Y-102982524D01*
X176149039Y-102992326D01*
X176088575Y-103266733D01*
X173083000Y-103266733D01*
X173083000Y-80000000D01*
X173077643Y-79945362D01*
X173072673Y-79890757D01*
X173072097Y-79888799D01*
X173071897Y-79886761D01*
X173056028Y-79834201D01*
X173040548Y-79781604D01*
X173039600Y-79779791D01*
X173039010Y-79777836D01*
X173013276Y-79729438D01*
X172987834Y-79680771D01*
X172986552Y-79679176D01*
X172985593Y-79677373D01*
X172950939Y-79634883D01*
X172916538Y-79592096D01*
X172914972Y-79590782D01*
X172913680Y-79589198D01*
X172871423Y-79554241D01*
X172829376Y-79518959D01*
X172827584Y-79517974D01*
X172826009Y-79516671D01*
X172777755Y-79490580D01*
X172729668Y-79464144D01*
X172727719Y-79463526D01*
X172725922Y-79462554D01*
X172673558Y-79446345D01*
X172621213Y-79429740D01*
X172619179Y-79429512D01*
X172617228Y-79428908D01*
X172562668Y-79423173D01*
X172508140Y-79417057D01*
X172504218Y-79417030D01*
X172504070Y-79417014D01*
X172503922Y-79417027D01*
X172500000Y-79417000D01*
X171706946Y-79417000D01*
X172993546Y-78130400D01*
X175419573Y-78130400D01*
X175338353Y-78183920D01*
X175245180Y-78293241D01*
X175186152Y-78424190D01*
X175165943Y-78566400D01*
X175165943Y-80293600D01*
X175172394Y-80374497D01*
X175214885Y-80511707D01*
X175293920Y-80631647D01*
X175403241Y-80724820D01*
X175534190Y-80783848D01*
X175676400Y-80804057D01*
X175818543Y-80804057D01*
X175774331Y-80827565D01*
X175566887Y-80996753D01*
X175396255Y-81203011D01*
X175268936Y-81438484D01*
X175189778Y-81694202D01*
X175161796Y-81960425D01*
X175186058Y-82227012D01*
X175261638Y-82483810D01*
X175385657Y-82721038D01*
X175553392Y-82929658D01*
X175758454Y-83101726D01*
X175993032Y-83230686D01*
X176019742Y-83239159D01*
X176010687Y-83241893D01*
X175774331Y-83367565D01*
X175566887Y-83536753D01*
X175396255Y-83743011D01*
X175268936Y-83978484D01*
X175189778Y-84234202D01*
X175161796Y-84500425D01*
X175186058Y-84767012D01*
X175261638Y-85023810D01*
X175385657Y-85261038D01*
X175553392Y-85469658D01*
X175758454Y-85641726D01*
X175993032Y-85770686D01*
X176019742Y-85779159D01*
X176010687Y-85781893D01*
X175774331Y-85907565D01*
X175566887Y-86076753D01*
X175396255Y-86283011D01*
X175268936Y-86518484D01*
X175189778Y-86774202D01*
X175161796Y-87040425D01*
X175186058Y-87307012D01*
X175261638Y-87563810D01*
X175385657Y-87801038D01*
X175553392Y-88009658D01*
X175758454Y-88181726D01*
X175993032Y-88310686D01*
X176019742Y-88319159D01*
X176010687Y-88321893D01*
X175774331Y-88447565D01*
X175566887Y-88616753D01*
X175396255Y-88823011D01*
X175268936Y-89058484D01*
X175189778Y-89314202D01*
X175161796Y-89580425D01*
X175186058Y-89847012D01*
X175261638Y-90103810D01*
X175385657Y-90341038D01*
X175553392Y-90549658D01*
X175758454Y-90721726D01*
X175993032Y-90850686D01*
X176248191Y-90931627D01*
X176514212Y-90961466D01*
X176533363Y-90961600D01*
X176546637Y-90961600D01*
X176813049Y-90935478D01*
X177069313Y-90858107D01*
X177305669Y-90732435D01*
X177513113Y-90563247D01*
X177683745Y-90356989D01*
X177698396Y-90329892D01*
X177776762Y-90474066D01*
X177974276Y-90711328D01*
X178214282Y-90905498D01*
X178487557Y-91049114D01*
X178783600Y-91136657D01*
X179029200Y-90986182D01*
X179029200Y-89640800D01*
X179130800Y-89640800D01*
X179130800Y-90986182D01*
X179376400Y-91136657D01*
X179672443Y-91049114D01*
X179945718Y-90905498D01*
X180185724Y-90711328D01*
X180383238Y-90474066D01*
X180530669Y-90202830D01*
X180622352Y-89908043D01*
X180626655Y-89886399D01*
X180476076Y-89640800D01*
X179130800Y-89640800D01*
X179029200Y-89640800D01*
X179009200Y-89640800D01*
X179009200Y-89539200D01*
X179029200Y-89539200D01*
X179029200Y-87100800D01*
X179130800Y-87100800D01*
X179130800Y-89539200D01*
X180476076Y-89539200D01*
X180626655Y-89293601D01*
X180622352Y-89271957D01*
X180530669Y-88977170D01*
X180383238Y-88705934D01*
X180185724Y-88468672D01*
X180001956Y-88320000D01*
X180185724Y-88171328D01*
X180383238Y-87934066D01*
X180530669Y-87662830D01*
X180622352Y-87368043D01*
X180626655Y-87346399D01*
X180476076Y-87100800D01*
X179130800Y-87100800D01*
X179029200Y-87100800D01*
X179009200Y-87100800D01*
X179009200Y-86999200D01*
X179029200Y-86999200D01*
X179029200Y-84560800D01*
X179130800Y-84560800D01*
X179130800Y-86999200D01*
X180476076Y-86999200D01*
X180626655Y-86753601D01*
X180622352Y-86731957D01*
X180530669Y-86437170D01*
X180383238Y-86165934D01*
X180185724Y-85928672D01*
X180001956Y-85780000D01*
X180185724Y-85631328D01*
X180383238Y-85394066D01*
X180530669Y-85122830D01*
X180622352Y-84828043D01*
X180626655Y-84806399D01*
X180476076Y-84560800D01*
X179130800Y-84560800D01*
X179029200Y-84560800D01*
X179009200Y-84560800D01*
X179009200Y-84459200D01*
X179029200Y-84459200D01*
X179029200Y-84439200D01*
X179130800Y-84439200D01*
X179130800Y-84459200D01*
X180476076Y-84459200D01*
X180626655Y-84213601D01*
X180622352Y-84191957D01*
X180530669Y-83897170D01*
X180383238Y-83625934D01*
X180185724Y-83388672D01*
X179945718Y-83194502D01*
X179817778Y-83127265D01*
X179845669Y-83112435D01*
X180053113Y-82943247D01*
X180223745Y-82736989D01*
X180351064Y-82501516D01*
X180430222Y-82245798D01*
X180458204Y-81979575D01*
X180433942Y-81712988D01*
X180358362Y-81456190D01*
X180234343Y-81218962D01*
X180066608Y-81010342D01*
X179861546Y-80838274D01*
X179816404Y-80813457D01*
X179945718Y-80745498D01*
X180185724Y-80551328D01*
X180383238Y-80314066D01*
X180530669Y-80042830D01*
X180622352Y-79748043D01*
X180626655Y-79726399D01*
X180476076Y-79480800D01*
X179130800Y-79480800D01*
X179130800Y-79500800D01*
X179029200Y-79500800D01*
X179029200Y-79480800D01*
X179009200Y-79480800D01*
X179009200Y-79379200D01*
X179029200Y-79379200D01*
X179029200Y-79359200D01*
X179130800Y-79359200D01*
X179130800Y-79379200D01*
X180476076Y-79379200D01*
X180626655Y-79133601D01*
X180622352Y-79111957D01*
X180530669Y-78817170D01*
X180383238Y-78545934D01*
X180185724Y-78308672D01*
X179965369Y-78130400D01*
X181336454Y-78130400D01*
X185902600Y-82696546D01*
X185902600Y-91219759D01*
X185847291Y-91300536D01*
X185784498Y-91447045D01*
X185751357Y-91602960D01*
X185749131Y-91762342D01*
X185777906Y-91919122D01*
X185836584Y-92067327D01*
X185922932Y-92201312D01*
X186033659Y-92315973D01*
X186164549Y-92406944D01*
X186310616Y-92470759D01*
X186466296Y-92504988D01*
X186625659Y-92508326D01*
X186782636Y-92480647D01*
X186931247Y-92423004D01*
X187007254Y-92374768D01*
X187053549Y-92406944D01*
X187199616Y-92470759D01*
X187355296Y-92504988D01*
X187514659Y-92508326D01*
X187671636Y-92480647D01*
X187820247Y-92423004D01*
X187954831Y-92337594D01*
X188070263Y-92227670D01*
X188162145Y-92097419D01*
X188226978Y-91951801D01*
X188262293Y-91796364D01*
X188264835Y-91614301D01*
X188233874Y-91457938D01*
X188173132Y-91310567D01*
X188112400Y-91219157D01*
X188112400Y-82042000D01*
X188106445Y-81981269D01*
X188101130Y-81920518D01*
X188100162Y-81917186D01*
X188099823Y-81913728D01*
X188082190Y-81855324D01*
X188065172Y-81796748D01*
X188063573Y-81793663D01*
X188062570Y-81790341D01*
X188033945Y-81736504D01*
X188005858Y-81682320D01*
X188003691Y-81679605D01*
X188002061Y-81676540D01*
X187963518Y-81629282D01*
X187925448Y-81581592D01*
X187920684Y-81576762D01*
X187920601Y-81576660D01*
X187920507Y-81576582D01*
X187918973Y-81575027D01*
X182711973Y-76368027D01*
X182664858Y-76329326D01*
X182618104Y-76290095D01*
X182615062Y-76288423D01*
X182612378Y-76286218D01*
X182558620Y-76257393D01*
X182505159Y-76228003D01*
X182501848Y-76226953D01*
X182498788Y-76225312D01*
X182440479Y-76207485D01*
X182382305Y-76189031D01*
X182378852Y-76188644D01*
X182375533Y-76187629D01*
X182314878Y-76181468D01*
X182254221Y-76174664D01*
X182247433Y-76174617D01*
X182247306Y-76174604D01*
X182247188Y-76174615D01*
X182245000Y-76174600D01*
X172600644Y-76174600D01*
X172539959Y-76180550D01*
X172479162Y-76185869D01*
X172475825Y-76186838D01*
X172472372Y-76187177D01*
X172413996Y-76204802D01*
X172355393Y-76221828D01*
X172352310Y-76223426D01*
X172348985Y-76224430D01*
X172295130Y-76253065D01*
X172240964Y-76281142D01*
X172238249Y-76283309D01*
X172235184Y-76284939D01*
X172187926Y-76323482D01*
X172140236Y-76361552D01*
X172135406Y-76366316D01*
X172135304Y-76366399D01*
X172135226Y-76366493D01*
X172133671Y-76368027D01*
X170422098Y-78079600D01*
X151796251Y-78079600D01*
X150384851Y-76668200D01*
X150384851Y-70297248D01*
X150679212Y-70002887D01*
X150743932Y-70103312D01*
X150854659Y-70217973D01*
X150985549Y-70308944D01*
X151131616Y-70372759D01*
X151253643Y-70399589D01*
X156239026Y-75384972D01*
X156286141Y-75423673D01*
X156332895Y-75462904D01*
X156335937Y-75464576D01*
X156338621Y-75466781D01*
X156392398Y-75495616D01*
X156445840Y-75524996D01*
X156449149Y-75526046D01*
X156452210Y-75527687D01*
X156510534Y-75545519D01*
X156568694Y-75563968D01*
X156572147Y-75564355D01*
X156575466Y-75565370D01*
X156636121Y-75571531D01*
X156696778Y-75578335D01*
X156703566Y-75578382D01*
X156703693Y-75578395D01*
X156703811Y-75578384D01*
X156705999Y-75578399D01*
X158797644Y-75578399D01*
X158748936Y-75668484D01*
X158669778Y-75924202D01*
X158641796Y-76190425D01*
X158666058Y-76457012D01*
X158741638Y-76713810D01*
X158865657Y-76951038D01*
X159033392Y-77159658D01*
X159238454Y-77331726D01*
X159473032Y-77460686D01*
X159728191Y-77541627D01*
X159994212Y-77571466D01*
X160013363Y-77571600D01*
X160026637Y-77571600D01*
X160293049Y-77545478D01*
X160549313Y-77468107D01*
X160785669Y-77342435D01*
X160993113Y-77173247D01*
X161163745Y-76966989D01*
X161290978Y-76731675D01*
X161405657Y-76951038D01*
X161573392Y-77159658D01*
X161778454Y-77331726D01*
X162013032Y-77460686D01*
X162268191Y-77541627D01*
X162534212Y-77571466D01*
X162553363Y-77571600D01*
X162566637Y-77571600D01*
X162833049Y-77545478D01*
X163089313Y-77468107D01*
X163325669Y-77342435D01*
X163533113Y-77173247D01*
X163703745Y-76966989D01*
X163718396Y-76939892D01*
X163796762Y-77084066D01*
X163994276Y-77321328D01*
X164234282Y-77515498D01*
X164507557Y-77659114D01*
X164803600Y-77746657D01*
X165049200Y-77596182D01*
X165049200Y-76250800D01*
X165150800Y-76250800D01*
X165150800Y-77596182D01*
X165396400Y-77746657D01*
X165692443Y-77659114D01*
X165965718Y-77515498D01*
X166205724Y-77321328D01*
X166403238Y-77084066D01*
X166550669Y-76812830D01*
X166642352Y-76518043D01*
X166646655Y-76496399D01*
X166496076Y-76250800D01*
X165150800Y-76250800D01*
X165049200Y-76250800D01*
X165029200Y-76250800D01*
X165029200Y-76149200D01*
X165049200Y-76149200D01*
X165049200Y-76129200D01*
X165150800Y-76129200D01*
X165150800Y-76149200D01*
X166496076Y-76149200D01*
X166646655Y-75903601D01*
X166642352Y-75881957D01*
X166550669Y-75587170D01*
X166403238Y-75315934D01*
X166205724Y-75078672D01*
X165965718Y-74884502D01*
X165837778Y-74817265D01*
X165865669Y-74802435D01*
X166073113Y-74633247D01*
X166243745Y-74426989D01*
X166371064Y-74191516D01*
X166450222Y-73935798D01*
X166478204Y-73669575D01*
X166453942Y-73402988D01*
X166378362Y-73146190D01*
X166254343Y-72908962D01*
X166086608Y-72700342D01*
X165881546Y-72528274D01*
X165646968Y-72399314D01*
X165391809Y-72318373D01*
X165125788Y-72288534D01*
X165106637Y-72288400D01*
X165093363Y-72288400D01*
X164826951Y-72314522D01*
X164570687Y-72391893D01*
X164334331Y-72517565D01*
X164126887Y-72686753D01*
X163956255Y-72893011D01*
X163829022Y-73128325D01*
X163714343Y-72908962D01*
X163546608Y-72700342D01*
X163341546Y-72528274D01*
X163106968Y-72399314D01*
X162851809Y-72318373D01*
X162585788Y-72288534D01*
X162566637Y-72288400D01*
X162553363Y-72288400D01*
X162286951Y-72314522D01*
X162030687Y-72391893D01*
X161794331Y-72517565D01*
X161586887Y-72686753D01*
X161416255Y-72893011D01*
X161394057Y-72934066D01*
X161394057Y-72796400D01*
X161387606Y-72715503D01*
X161345115Y-72578293D01*
X161266080Y-72458353D01*
X161156759Y-72365180D01*
X161025810Y-72306152D01*
X160883600Y-72285943D01*
X159156400Y-72285943D01*
X159075503Y-72292394D01*
X158938293Y-72334885D01*
X158818353Y-72413920D01*
X158725180Y-72523241D01*
X158666152Y-72654190D01*
X158645943Y-72796400D01*
X158645943Y-74257599D01*
X156979545Y-74257599D01*
X152186611Y-69464665D01*
X152165874Y-69359938D01*
X152105132Y-69212567D01*
X152016923Y-69079801D01*
X151904605Y-68966696D01*
X151791615Y-68890484D01*
X152277946Y-68404153D01*
X168800585Y-68404153D01*
X168848648Y-68666024D01*
X168946659Y-68913573D01*
X169090886Y-69137369D01*
X169275835Y-69328890D01*
X169494462Y-69480839D01*
X169738439Y-69587430D01*
X169998473Y-69644603D01*
X170264660Y-69650178D01*
X170526860Y-69603945D01*
X170775087Y-69507665D01*
X170999885Y-69365003D01*
X171192692Y-69181396D01*
X171346164Y-68963835D01*
X171454456Y-68720608D01*
X171513442Y-68460979D01*
X171514235Y-68404153D01*
X171868585Y-68404153D01*
X171916648Y-68666024D01*
X172014659Y-68913573D01*
X172158886Y-69137369D01*
X172343835Y-69328890D01*
X172562462Y-69480839D01*
X172806439Y-69587430D01*
X173066473Y-69644603D01*
X173332660Y-69650178D01*
X173594860Y-69603945D01*
X173843087Y-69507665D01*
X174067885Y-69365003D01*
X174260692Y-69181396D01*
X174414164Y-68963835D01*
X174522456Y-68720608D01*
X174581442Y-68460979D01*
X174584347Y-68252921D01*
X178988047Y-68252921D01*
X179094535Y-68833129D01*
X179311691Y-69381603D01*
X179631244Y-69877453D01*
X180041023Y-70301791D01*
X180525418Y-70638454D01*
X181065979Y-70874620D01*
X181642118Y-71001292D01*
X182231887Y-71013646D01*
X182812825Y-70911211D01*
X183362802Y-70697889D01*
X183860870Y-70381805D01*
X184288058Y-69974999D01*
X184628095Y-69492966D01*
X184868029Y-68954066D01*
X184998720Y-68378826D01*
X185008129Y-67705050D01*
X184893550Y-67126386D01*
X184668757Y-66580997D01*
X184342312Y-66089657D01*
X183926648Y-65671082D01*
X183437600Y-65341215D01*
X182893794Y-65112620D01*
X182315943Y-64994004D01*
X181726058Y-64989886D01*
X181146608Y-65100422D01*
X180599663Y-65321402D01*
X180106056Y-65644409D01*
X179684589Y-66057140D01*
X179351316Y-66543874D01*
X179118930Y-67086071D01*
X178996283Y-67663079D01*
X178988047Y-68252921D01*
X174584347Y-68252921D01*
X174585688Y-68156878D01*
X174533974Y-67895703D01*
X174432516Y-67649547D01*
X174285178Y-67427786D01*
X174097573Y-67238867D01*
X173876846Y-67089984D01*
X173631405Y-66986810D01*
X173370598Y-66933274D01*
X173104359Y-66931415D01*
X172842830Y-66981305D01*
X172595972Y-67081042D01*
X172373188Y-67226828D01*
X172182963Y-67413110D01*
X172032543Y-67632792D01*
X171927658Y-67877507D01*
X171872303Y-68137934D01*
X171868585Y-68404153D01*
X171514235Y-68404153D01*
X171517688Y-68156878D01*
X171465974Y-67895703D01*
X171364516Y-67649547D01*
X171217178Y-67427786D01*
X171029573Y-67238867D01*
X170808846Y-67089984D01*
X170563405Y-66986810D01*
X170302598Y-66933274D01*
X170036359Y-66931415D01*
X169774830Y-66981305D01*
X169527972Y-67081042D01*
X169305188Y-67226828D01*
X169114963Y-67413110D01*
X168964543Y-67632792D01*
X168859658Y-67877507D01*
X168804303Y-68137934D01*
X168800585Y-68404153D01*
X152277946Y-68404153D01*
X153559387Y-67122712D01*
X154039096Y-67122712D01*
X154099830Y-67116757D01*
X154160578Y-67111442D01*
X154163910Y-67110474D01*
X154167368Y-67110135D01*
X154225772Y-67092502D01*
X154284348Y-67075484D01*
X154287433Y-67073885D01*
X154290755Y-67072882D01*
X154344592Y-67044257D01*
X154398776Y-67016170D01*
X154401491Y-67014003D01*
X154404556Y-67012373D01*
X154451814Y-66973830D01*
X154499504Y-66935760D01*
X154504334Y-66930996D01*
X154504436Y-66930913D01*
X154504514Y-66930819D01*
X154506069Y-66929285D01*
X155115341Y-66320013D01*
X155203163Y-66304528D01*
X155351774Y-66246885D01*
X155486358Y-66161475D01*
X155601790Y-66051551D01*
X155693672Y-65921300D01*
X155758505Y-65775682D01*
X155793820Y-65620245D01*
X155796362Y-65438182D01*
X155765401Y-65281819D01*
X155704659Y-65134448D01*
X155673321Y-65087280D01*
X158437755Y-65087280D01*
X158513356Y-65139824D01*
X158659423Y-65203639D01*
X158815103Y-65237868D01*
X158974466Y-65241206D01*
X159131443Y-65213527D01*
X159280054Y-65155884D01*
X159414638Y-65070474D01*
X159530070Y-64960550D01*
X159621952Y-64830299D01*
X159686785Y-64684681D01*
X159722100Y-64529244D01*
X159724642Y-64347181D01*
X159693681Y-64190818D01*
X159692623Y-64188252D01*
X159727121Y-64222749D01*
X159744266Y-64316164D01*
X159802944Y-64464369D01*
X159889292Y-64598354D01*
X160000019Y-64713015D01*
X160130909Y-64803986D01*
X160276976Y-64867801D01*
X160432656Y-64902030D01*
X160592019Y-64905368D01*
X160748996Y-64877689D01*
X160897607Y-64820046D01*
X161032191Y-64734636D01*
X161147623Y-64624712D01*
X161239505Y-64494461D01*
X161304338Y-64348843D01*
X161339653Y-64193406D01*
X161342195Y-64011343D01*
X161311234Y-63854980D01*
X161250492Y-63707609D01*
X161162283Y-63574843D01*
X161049965Y-63461738D01*
X160917818Y-63372604D01*
X160770875Y-63310835D01*
X160660428Y-63288163D01*
X160405291Y-63033027D01*
X160358176Y-62994326D01*
X160311422Y-62955095D01*
X160308380Y-62953423D01*
X160305696Y-62951218D01*
X160251938Y-62922393D01*
X160198477Y-62893003D01*
X160195166Y-62891953D01*
X160192106Y-62890312D01*
X160133797Y-62872485D01*
X160075623Y-62854031D01*
X160072170Y-62853644D01*
X160068851Y-62852629D01*
X160008196Y-62846468D01*
X159947539Y-62839664D01*
X159940751Y-62839617D01*
X159940624Y-62839604D01*
X159940506Y-62839615D01*
X159938318Y-62839600D01*
X152908000Y-62839600D01*
X152847269Y-62845555D01*
X152786518Y-62850870D01*
X152783186Y-62851838D01*
X152779728Y-62852177D01*
X152721324Y-62869810D01*
X152662748Y-62886828D01*
X152659663Y-62888427D01*
X152656341Y-62889430D01*
X152602504Y-62918055D01*
X152548320Y-62946142D01*
X152545605Y-62948309D01*
X152542540Y-62949939D01*
X152495282Y-62988482D01*
X152447592Y-63026552D01*
X152442758Y-63031319D01*
X152442660Y-63031399D01*
X152442585Y-63031489D01*
X152441026Y-63033027D01*
X150094454Y-65379600D01*
X147413740Y-65379600D01*
X147400515Y-65336893D01*
X147321480Y-65216953D01*
X147212159Y-65123780D01*
X147081210Y-65064752D01*
X146939000Y-65044543D01*
X145669000Y-65044543D01*
X145588103Y-65050994D01*
X145450893Y-65093485D01*
X145330953Y-65172520D01*
X145237780Y-65281841D01*
X145193713Y-65379600D01*
X144873740Y-65379600D01*
X144860515Y-65336893D01*
X144781480Y-65216953D01*
X144672159Y-65123780D01*
X144541210Y-65064752D01*
X144399000Y-65044543D01*
X143129000Y-65044543D01*
X143048103Y-65050994D01*
X142910893Y-65093485D01*
X142790953Y-65172520D01*
X142697780Y-65281841D01*
X142638752Y-65412790D01*
X142618543Y-65555000D01*
X142618543Y-66525000D01*
X142624994Y-66605897D01*
X142638528Y-66649600D01*
X142485648Y-66649600D01*
X142314313Y-66478265D01*
X142293576Y-66373538D01*
X142232834Y-66226167D01*
X142144625Y-66093401D01*
X142032307Y-65980296D01*
X141900160Y-65891162D01*
X141753217Y-65829393D01*
X141597074Y-65797341D01*
X141437679Y-65796228D01*
X141281104Y-65826097D01*
X141133313Y-65885808D01*
X140999934Y-65973089D01*
X140886048Y-66084614D01*
X140795993Y-66216136D01*
X140733200Y-66362645D01*
X140700059Y-66518560D01*
X140697833Y-66677942D01*
X138980027Y-66677942D01*
X138986293Y-66650364D01*
X138988835Y-66468301D01*
X138957874Y-66311938D01*
X138897132Y-66164567D01*
X138808923Y-66031801D01*
X138696605Y-65918696D01*
X138564458Y-65829562D01*
X138417515Y-65767793D01*
X138261372Y-65735741D01*
X138101977Y-65734628D01*
X137945402Y-65764497D01*
X137813884Y-65817634D01*
X129632219Y-57635969D01*
X138290058Y-57635969D01*
X138260869Y-57689064D01*
X138186448Y-57923668D01*
X138159013Y-58168260D01*
X138158890Y-58185868D01*
X138158890Y-59714132D01*
X138182908Y-59959083D01*
X138254046Y-60194704D01*
X138369595Y-60412020D01*
X138525153Y-60602753D01*
X138714796Y-60759640D01*
X138931300Y-60876703D01*
X139166419Y-60949484D01*
X139411196Y-60975211D01*
X139656308Y-60952904D01*
X139716780Y-60935106D01*
X143375958Y-64594284D01*
X143423073Y-64632985D01*
X143469827Y-64672216D01*
X143472869Y-64673888D01*
X143475553Y-64676093D01*
X143529311Y-64704918D01*
X143582772Y-64734308D01*
X143586083Y-64735358D01*
X143589143Y-64736999D01*
X143647452Y-64754826D01*
X143705626Y-64773280D01*
X143709079Y-64773667D01*
X143712398Y-64774682D01*
X143773053Y-64780843D01*
X143833710Y-64787647D01*
X143840498Y-64787694D01*
X143840625Y-64787707D01*
X143840743Y-64787696D01*
X143842931Y-64787711D01*
X144202101Y-64787711D01*
X144277702Y-64840255D01*
X144423769Y-64904070D01*
X144579449Y-64938299D01*
X144738812Y-64941637D01*
X144895789Y-64913958D01*
X145044400Y-64856315D01*
X145178984Y-64770905D01*
X145294416Y-64660981D01*
X145386298Y-64530730D01*
X145451131Y-64385112D01*
X145486446Y-64229675D01*
X145487340Y-64165666D01*
X145500630Y-64178956D01*
X145521425Y-64292255D01*
X145580103Y-64440460D01*
X145666451Y-64574445D01*
X145777178Y-64689106D01*
X145908068Y-64780077D01*
X146054135Y-64843892D01*
X146209815Y-64878121D01*
X146369178Y-64881459D01*
X146526155Y-64853780D01*
X146674766Y-64796137D01*
X146809350Y-64710727D01*
X146924782Y-64600803D01*
X147016664Y-64470552D01*
X147081497Y-64324934D01*
X147116812Y-64169497D01*
X147119354Y-63987434D01*
X147088393Y-63831071D01*
X147027651Y-63683700D01*
X146939442Y-63550934D01*
X146827124Y-63437829D01*
X146694977Y-63348695D01*
X146548034Y-63286926D01*
X146458013Y-63268447D01*
X144287247Y-61097681D01*
X144449200Y-60989887D01*
X144449200Y-59000800D01*
X144550800Y-59000800D01*
X144550800Y-60989887D01*
X144779105Y-61141845D01*
X145013434Y-61076667D01*
X145271288Y-60950133D01*
X145499502Y-60775725D01*
X145689306Y-60560146D01*
X145833406Y-60311681D01*
X145926263Y-60039877D01*
X145964310Y-59755180D01*
X145964310Y-59000800D01*
X144550800Y-59000800D01*
X144449200Y-59000800D01*
X144429200Y-59000800D01*
X144429200Y-58899200D01*
X144449200Y-58899200D01*
X144449200Y-58879200D01*
X144550800Y-58879200D01*
X144550800Y-58899200D01*
X145964310Y-58899200D01*
X145964310Y-58144820D01*
X145926263Y-57860123D01*
X145849685Y-57635969D01*
X146369040Y-57635969D01*
X146371549Y-57637713D01*
X146517616Y-57701528D01*
X146673296Y-57735757D01*
X146832659Y-57739095D01*
X146989636Y-57711416D01*
X147138247Y-57653773D01*
X147166301Y-57635969D01*
X151243589Y-57635969D01*
X151127706Y-57805212D01*
X151029590Y-58034132D01*
X150977808Y-58277749D01*
X150974331Y-58526785D01*
X151019291Y-58771753D01*
X151110976Y-59003323D01*
X151245894Y-59212675D01*
X151418905Y-59391833D01*
X151623420Y-59533975D01*
X151851650Y-59633686D01*
X152094899Y-59687168D01*
X152343905Y-59692384D01*
X152589181Y-59649135D01*
X152821385Y-59559069D01*
X153031673Y-59425616D01*
X153212035Y-59253859D01*
X153355602Y-59050341D01*
X153456903Y-58822814D01*
X153512082Y-58579943D01*
X153516054Y-58295470D01*
X153467678Y-58051154D01*
X153372769Y-57820886D01*
X153249911Y-57635969D01*
X153836202Y-57635969D01*
X153836202Y-59656606D01*
X153244008Y-60248800D01*
X152291189Y-60248800D01*
X152280458Y-60241562D01*
X152133515Y-60179793D01*
X151977372Y-60147741D01*
X151817977Y-60146628D01*
X151661402Y-60176497D01*
X151513611Y-60236208D01*
X151380232Y-60323489D01*
X151266346Y-60435014D01*
X151176291Y-60566536D01*
X151113498Y-60713045D01*
X151080357Y-60868960D01*
X151078131Y-61028342D01*
X151106906Y-61185122D01*
X151165584Y-61333327D01*
X151251932Y-61467312D01*
X151362659Y-61581973D01*
X151493549Y-61672944D01*
X151639616Y-61736759D01*
X151795296Y-61770988D01*
X151954659Y-61774326D01*
X152111636Y-61746647D01*
X152260247Y-61689004D01*
X152288301Y-61671200D01*
X153538596Y-61671200D01*
X153603942Y-61664793D01*
X153669422Y-61659064D01*
X153673017Y-61658020D01*
X153676735Y-61657655D01*
X153739586Y-61638679D01*
X153802713Y-61620339D01*
X153806034Y-61618618D01*
X153809613Y-61617537D01*
X153867608Y-61586701D01*
X153925943Y-61556463D01*
X153928866Y-61554130D01*
X153932168Y-61552374D01*
X153983083Y-61510849D01*
X153993014Y-61502921D01*
X185738047Y-61502921D01*
X185844535Y-62083129D01*
X186061691Y-62631603D01*
X186381244Y-63127453D01*
X186791023Y-63551791D01*
X187275418Y-63888454D01*
X187815979Y-64124620D01*
X188392118Y-64251292D01*
X188981887Y-64263646D01*
X189562825Y-64161211D01*
X190112802Y-63947889D01*
X190610870Y-63631805D01*
X191038058Y-63224999D01*
X191378095Y-62742966D01*
X191618029Y-62204066D01*
X191748720Y-61628826D01*
X191758129Y-60955050D01*
X191643550Y-60376386D01*
X191418757Y-59830997D01*
X191092312Y-59339657D01*
X190676648Y-58921082D01*
X190187600Y-58591215D01*
X189643794Y-58362620D01*
X189065943Y-58244004D01*
X188476058Y-58239886D01*
X187896608Y-58350422D01*
X187349663Y-58571402D01*
X186856056Y-58894409D01*
X186434589Y-59307140D01*
X186101316Y-59793874D01*
X185868930Y-60336071D01*
X185746283Y-60913079D01*
X185738047Y-61502921D01*
X153993014Y-61502921D01*
X154034420Y-61469867D01*
X154039620Y-61464738D01*
X154039732Y-61464647D01*
X154039818Y-61464543D01*
X154041490Y-61462894D01*
X155050296Y-60454088D01*
X155091960Y-60403366D01*
X155134223Y-60352999D01*
X155136025Y-60349720D01*
X155138398Y-60346832D01*
X155169442Y-60288936D01*
X155201091Y-60231365D01*
X155202221Y-60227802D01*
X155203989Y-60224505D01*
X155223194Y-60161690D01*
X155243061Y-60099061D01*
X155243478Y-60095343D01*
X155244571Y-60091768D01*
X155251209Y-60026422D01*
X155258533Y-59961124D01*
X155258584Y-59953817D01*
X155258598Y-59953677D01*
X155258586Y-59953546D01*
X155258602Y-59951194D01*
X155258602Y-57632641D01*
X156125868Y-57632641D01*
X156007706Y-57805212D01*
X155909590Y-58034132D01*
X155857808Y-58277749D01*
X155854331Y-58526785D01*
X155899291Y-58771753D01*
X155990976Y-59003323D01*
X156125894Y-59212675D01*
X156298905Y-59391833D01*
X156503420Y-59533975D01*
X156731650Y-59633686D01*
X156974899Y-59687168D01*
X157223905Y-59692384D01*
X157469181Y-59649135D01*
X157701385Y-59559069D01*
X157911673Y-59425616D01*
X158092035Y-59253859D01*
X158235602Y-59050341D01*
X158336903Y-58822814D01*
X158392082Y-58579943D01*
X158396054Y-58295470D01*
X158347678Y-58051154D01*
X158252769Y-57820886D01*
X158127700Y-57632641D01*
X163063952Y-57632641D01*
X163066461Y-57634385D01*
X163212528Y-57698200D01*
X163368208Y-57732429D01*
X163527571Y-57735767D01*
X163684548Y-57708088D01*
X163833159Y-57650445D01*
X163855969Y-57635969D01*
X166149040Y-57635969D01*
X166151549Y-57637713D01*
X166297616Y-57701528D01*
X166453296Y-57735757D01*
X166612659Y-57739095D01*
X166769636Y-57711416D01*
X166918247Y-57653773D01*
X167052831Y-57568363D01*
X167168263Y-57458439D01*
X167188843Y-57429265D01*
X168799913Y-57429265D01*
X168799913Y-58979630D01*
X168806364Y-59060527D01*
X168848855Y-59197737D01*
X168927890Y-59317677D01*
X169037211Y-59410850D01*
X169168160Y-59469878D01*
X169310370Y-59490087D01*
X171009630Y-59490087D01*
X171090527Y-59483636D01*
X171227737Y-59441145D01*
X171347677Y-59362110D01*
X171440850Y-59252789D01*
X171499878Y-59121840D01*
X171520087Y-58979630D01*
X171520087Y-57429265D01*
X171867913Y-57429265D01*
X171867913Y-58979630D01*
X171874364Y-59060527D01*
X171916855Y-59197737D01*
X171995890Y-59317677D01*
X172105211Y-59410850D01*
X172236160Y-59469878D01*
X172378370Y-59490087D01*
X174077630Y-59490087D01*
X174158527Y-59483636D01*
X174295737Y-59441145D01*
X174415677Y-59362110D01*
X174508850Y-59252789D01*
X174567878Y-59121840D01*
X174588087Y-58979630D01*
X174588087Y-57635969D01*
X190020049Y-57635969D01*
X195566653Y-63182573D01*
X195566653Y-74791161D01*
X195562144Y-74797746D01*
X195499351Y-74944255D01*
X195466210Y-75100170D01*
X195463984Y-75259552D01*
X195492759Y-75416332D01*
X195551437Y-75564537D01*
X195564330Y-75584543D01*
X195564330Y-80117951D01*
X195559821Y-80124536D01*
X195497028Y-80271045D01*
X195463887Y-80426960D01*
X195461661Y-80586342D01*
X195490436Y-80743122D01*
X195549114Y-80891327D01*
X195564330Y-80914937D01*
X195564330Y-96824800D01*
X183279189Y-96824800D01*
X183268458Y-96817562D01*
X183121515Y-96755793D01*
X182965372Y-96723741D01*
X182805977Y-96722628D01*
X182649402Y-96752497D01*
X182501611Y-96812208D01*
X182368232Y-96899489D01*
X182254346Y-97011014D01*
X182164291Y-97142536D01*
X182101498Y-97289045D01*
X182096189Y-97314023D01*
X178997106Y-100413106D01*
X178955442Y-100463828D01*
X178913179Y-100514195D01*
X178911377Y-100517474D01*
X178909004Y-100520362D01*
X178877960Y-100578258D01*
X178846311Y-100635829D01*
X178845181Y-100639392D01*
X178843413Y-100642689D01*
X178824208Y-100705504D01*
X178804341Y-100768133D01*
X178803924Y-100771851D01*
X178802831Y-100775426D01*
X178796193Y-100840772D01*
X178788869Y-100906070D01*
X178788818Y-100913377D01*
X178788804Y-100913517D01*
X178788816Y-100913648D01*
X178788800Y-100916000D01*
X178788800Y-102939543D01*
X178700000Y-102939543D01*
X178619103Y-102945994D01*
X178481893Y-102988485D01*
X178361953Y-103067520D01*
X178268780Y-103176841D01*
X178209752Y-103307790D01*
X178198634Y-103386030D01*
X177983267Y-103338575D01*
X177071842Y-104250000D01*
X177983267Y-105161425D01*
X178194713Y-105114834D01*
X178195994Y-105130897D01*
X178238485Y-105268107D01*
X178317520Y-105388047D01*
X178426841Y-105481220D01*
X178557790Y-105540248D01*
X178700000Y-105560457D01*
X180300000Y-105560457D01*
X180380897Y-105554006D01*
X180518107Y-105511515D01*
X180638047Y-105432480D01*
X180731220Y-105323159D01*
X180790248Y-105192210D01*
X180810457Y-105050000D01*
X180810457Y-103450000D01*
X180804006Y-103369103D01*
X180761515Y-103231893D01*
X180682480Y-103111953D01*
X180573159Y-103018780D01*
X180442210Y-102959752D01*
X180300000Y-102939543D01*
X180211200Y-102939543D01*
X180211200Y-101210588D01*
X183099035Y-98322753D01*
X183099636Y-98322647D01*
X183248247Y-98265004D01*
X183276301Y-98247200D01*
X195527165Y-98247200D01*
X195497028Y-98317515D01*
X195463887Y-98473430D01*
X195461661Y-98632812D01*
X195490436Y-98789592D01*
X195549114Y-98937797D01*
X195564330Y-98961407D01*
X195564330Y-122122345D01*
X191220970Y-126465705D01*
X191378095Y-126242966D01*
X191618029Y-125704066D01*
X191748720Y-125128826D01*
X191758129Y-124455050D01*
X191643550Y-123876386D01*
X191418757Y-123330997D01*
X191092312Y-122839657D01*
X190676648Y-122421082D01*
X190187600Y-122091215D01*
X189643794Y-121862620D01*
X189065943Y-121744004D01*
X188476058Y-121739886D01*
X187896608Y-121850422D01*
X187349663Y-122071402D01*
X186856056Y-122394409D01*
X186434589Y-122807140D01*
X186101316Y-123293874D01*
X185868930Y-123836071D01*
X185746283Y-124413079D01*
X185738047Y-125002921D01*
X185844535Y-125583129D01*
X186061691Y-126131603D01*
X186381244Y-126627453D01*
X186791023Y-127051791D01*
X187275418Y-127388454D01*
X187815979Y-127624620D01*
X188392118Y-127751292D01*
X188981887Y-127763646D01*
X189562825Y-127661211D01*
X190112802Y-127447889D01*
X190457605Y-127229070D01*
X188193787Y-129492888D01*
X188183514Y-129494848D01*
X188035723Y-129554559D01*
X188021051Y-129564160D01*
X167824549Y-129564160D01*
X167813818Y-129556922D01*
X167666875Y-129495153D01*
X167510732Y-129463101D01*
X167351337Y-129461988D01*
X167194762Y-129491857D01*
X167046971Y-129551568D01*
X166913592Y-129638849D01*
X166799706Y-129750374D01*
X166709651Y-129881896D01*
X166646858Y-130028405D01*
X166613717Y-130184320D01*
X166611491Y-130343702D01*
X166640266Y-130500482D01*
X166698944Y-130648687D01*
X166785292Y-130782672D01*
X166896019Y-130897333D01*
X167026909Y-130988304D01*
X167172976Y-131052119D01*
X167328656Y-131086348D01*
X167488019Y-131089686D01*
X167644996Y-131062007D01*
X167793607Y-131004364D01*
X167821661Y-130986560D01*
X188008848Y-130986560D01*
X188015661Y-130991295D01*
X188161728Y-131055110D01*
X188317408Y-131089339D01*
X188476771Y-131092677D01*
X188633748Y-131064998D01*
X188782359Y-131007355D01*
X188916943Y-130921945D01*
X189032375Y-130812021D01*
X189124257Y-130681770D01*
X189189090Y-130536152D01*
X189197025Y-130501226D01*
X196778424Y-122919827D01*
X196808800Y-122882847D01*
X196808800Y-123043951D01*
X196804291Y-123050536D01*
X196741498Y-123197045D01*
X196736189Y-123222022D01*
X188488329Y-131469883D01*
X172275627Y-131469883D01*
X172264896Y-131462645D01*
X172117953Y-131400876D01*
X171961810Y-131368824D01*
X171802415Y-131367711D01*
X171645840Y-131397580D01*
X171498049Y-131457291D01*
X171364670Y-131544572D01*
X171250784Y-131656097D01*
X171160729Y-131787619D01*
X171097936Y-131934128D01*
X171064795Y-132090043D01*
X171062569Y-132249425D01*
X171091344Y-132406205D01*
X171150022Y-132554410D01*
X171236370Y-132688395D01*
X171347097Y-132803056D01*
X171477987Y-132894027D01*
X171624054Y-132957842D01*
X171779734Y-132992071D01*
X171939097Y-132995409D01*
X172096074Y-132967730D01*
X172244685Y-132910087D01*
X172272739Y-132892283D01*
X188782917Y-132892283D01*
X188848263Y-132885876D01*
X188913743Y-132880147D01*
X188917338Y-132879103D01*
X188921056Y-132878738D01*
X188983907Y-132859762D01*
X189047034Y-132841422D01*
X189050355Y-132839701D01*
X189053934Y-132838620D01*
X189111929Y-132807784D01*
X189170264Y-132777546D01*
X189173187Y-132775213D01*
X189176489Y-132773457D01*
X189227404Y-132731932D01*
X189278741Y-132690950D01*
X189283941Y-132685821D01*
X189284053Y-132685730D01*
X189284139Y-132685626D01*
X189285811Y-132683977D01*
X197739036Y-124230753D01*
X197739636Y-124230647D01*
X197888247Y-124173004D01*
X198022831Y-124087594D01*
X198138263Y-123977670D01*
X198230145Y-123847419D01*
X198294978Y-123701801D01*
X198330293Y-123546364D01*
X198332835Y-123364301D01*
X198301874Y-123207938D01*
X198241132Y-123060567D01*
X198231200Y-123045618D01*
X198231200Y-107831049D01*
X198294978Y-107687801D01*
X198330293Y-107532364D01*
X198332835Y-107350301D01*
X198301874Y-107193938D01*
X198241132Y-107046567D01*
X198231200Y-107031618D01*
X198231200Y-88701049D01*
X198294978Y-88557801D01*
X198330293Y-88402364D01*
X198332835Y-88220301D01*
X198301874Y-88063938D01*
X198241132Y-87916567D01*
X198231200Y-87901618D01*
X198231200Y-74811049D01*
X198294978Y-74667801D01*
X198330293Y-74512364D01*
X198332835Y-74330301D01*
X198301874Y-74173938D01*
X198241132Y-74026567D01*
X198231200Y-74011618D01*
X198231200Y-63029990D01*
X198224793Y-62964644D01*
X198219064Y-62899164D01*
X198218020Y-62895569D01*
X198217655Y-62891851D01*
X198198679Y-62829000D01*
X198180339Y-62765873D01*
X198178618Y-62762552D01*
X198177537Y-62758973D01*
X198146712Y-62700998D01*
X198116463Y-62642642D01*
X198114128Y-62639717D01*
X198112374Y-62636418D01*
X198070866Y-62585525D01*
X198029867Y-62534166D01*
X198024738Y-62528966D01*
X198024647Y-62528854D01*
X198024543Y-62528768D01*
X198022894Y-62527096D01*
X190207878Y-54712080D01*
X190204879Y-54696933D01*
X190144137Y-54549562D01*
X190055928Y-54416796D01*
X189943610Y-54303691D01*
X189811463Y-54214557D01*
X189664520Y-54152788D01*
X189644471Y-54148673D01*
X187482904Y-51987106D01*
X187432182Y-51945442D01*
X187381815Y-51903179D01*
X187378536Y-51901377D01*
X187375648Y-51899004D01*
X187317752Y-51867960D01*
X187260181Y-51836311D01*
X187256618Y-51835181D01*
X187253321Y-51833413D01*
X187190506Y-51814208D01*
X187127877Y-51794341D01*
X187124159Y-51793924D01*
X187120584Y-51792831D01*
X187055238Y-51786193D01*
X186989940Y-51778869D01*
X186982633Y-51778818D01*
X186982493Y-51778804D01*
X186982362Y-51778816D01*
X186980010Y-51778800D01*
X174509189Y-51778800D01*
X174498458Y-51771562D01*
X174351515Y-51709793D01*
X174195372Y-51677741D01*
X174035977Y-51676628D01*
X173879402Y-51706497D01*
X173731611Y-51766208D01*
X173712368Y-51778800D01*
X152909189Y-51778800D01*
X152898458Y-51771562D01*
X152751515Y-51709793D01*
X152595372Y-51677741D01*
X152435977Y-51676628D01*
X152279402Y-51706497D01*
X152131611Y-51766208D01*
X152112368Y-51778800D01*
X141729189Y-51778800D01*
X141718458Y-51771562D01*
X141571515Y-51709793D01*
X141415372Y-51677741D01*
X141255977Y-51676628D01*
X141099402Y-51706497D01*
X140951611Y-51766208D01*
X140932368Y-51778800D01*
X125409898Y-51778800D01*
X125344593Y-51785203D01*
X125279072Y-51790936D01*
X125275477Y-51791980D01*
X125271759Y-51792345D01*
X125208908Y-51811321D01*
X125145781Y-51829661D01*
X125142460Y-51831382D01*
X125138881Y-51832463D01*
X125080886Y-51863299D01*
X125022551Y-51893537D01*
X125019628Y-51895870D01*
X125016326Y-51897626D01*
X124965411Y-51939151D01*
X124914074Y-51980133D01*
X124908870Y-51985265D01*
X124908762Y-51985353D01*
X124908680Y-51985453D01*
X124907004Y-51987105D01*
X115622746Y-61271364D01*
X115581082Y-61322086D01*
X115538819Y-61372453D01*
X115537017Y-61375732D01*
X115534644Y-61378620D01*
X115503600Y-61436516D01*
X115471951Y-61494087D01*
X115470821Y-61497650D01*
X115469053Y-61500947D01*
X115449848Y-61563762D01*
X115429981Y-61626391D01*
X115429564Y-61630109D01*
X115428471Y-61633684D01*
X115421833Y-61699030D01*
X115414509Y-61764328D01*
X115414458Y-61771635D01*
X115414444Y-61771775D01*
X115414456Y-61771906D01*
X115414440Y-61774258D01*
X115414440Y-69192143D01*
X115409931Y-69198728D01*
X115347138Y-69345237D01*
X115313997Y-69501152D01*
X115311771Y-69660534D01*
X107583000Y-69660534D01*
X107583000Y-68241486D01*
X132241486Y-43583000D01*
X181758514Y-43583000D01*
X206417000Y-68241486D01*
M02*
