G04 #@! TF.FileFunction,Legend,Top*
%FSLAX46Y46*%
G04 Gerber Fmt 4.6, Leading zero omitted, Abs format (unit mm)*
G04 Created by KiCad (PCBNEW 4.0.6-e0-6349~53~ubuntu16.04.1) date Thu Mar  2 14:53:25 2017*
%MOMM*%
%LPD*%
G01*
G04 APERTURE LIST*
%ADD10C,0.100000*%
%ADD11C,0.200000*%
%ADD12C,0.300000*%
%ADD13C,0.150000*%
%ADD14C,0.120000*%
%ADD15C,5.400000*%
%ADD16R,2.127200X2.127200*%
%ADD17O,2.127200X2.127200*%
%ADD18C,2.099260*%
%ADD19R,2.099260X2.099260*%
%ADD20C,1.924000*%
%ADD21O,1.906220X3.414980*%
%ADD22R,1.670000X1.370000*%
%ADD23R,2.000000X2.000000*%
%ADD24C,2.000000*%
G04 APERTURE END LIST*
D10*
D11*
X134366000Y-78344044D02*
X132461000Y-76439044D01*
X133477000Y-78344044D02*
X134366000Y-78344044D01*
X130556000Y-78344044D02*
X133477000Y-78344044D01*
X132461000Y-76439044D02*
X130556000Y-78344044D01*
X132461000Y-85710044D02*
X132461000Y-76439044D01*
D12*
X139021715Y-64234143D02*
X139236001Y-64305571D01*
X139593144Y-64305571D01*
X139736001Y-64234143D01*
X139807430Y-64162714D01*
X139878858Y-64019857D01*
X139878858Y-63877000D01*
X139807430Y-63734143D01*
X139736001Y-63662714D01*
X139593144Y-63591286D01*
X139307430Y-63519857D01*
X139164572Y-63448429D01*
X139093144Y-63377000D01*
X139021715Y-63234143D01*
X139021715Y-63091286D01*
X139093144Y-62948429D01*
X139164572Y-62877000D01*
X139307430Y-62805571D01*
X139664572Y-62805571D01*
X139878858Y-62877000D01*
X141093143Y-64234143D02*
X140950286Y-64305571D01*
X140664572Y-64305571D01*
X140521715Y-64234143D01*
X140450286Y-64091286D01*
X140450286Y-63519857D01*
X140521715Y-63377000D01*
X140664572Y-63305571D01*
X140950286Y-63305571D01*
X141093143Y-63377000D01*
X141164572Y-63519857D01*
X141164572Y-63662714D01*
X140450286Y-63805571D01*
X141807429Y-64305571D02*
X141807429Y-63305571D01*
X141807429Y-63591286D02*
X141878857Y-63448429D01*
X141950286Y-63377000D01*
X142093143Y-63305571D01*
X142236000Y-63305571D01*
X142736000Y-64305571D02*
X142736000Y-63305571D01*
X142736000Y-62805571D02*
X142664571Y-62877000D01*
X142736000Y-62948429D01*
X142807428Y-62877000D01*
X142736000Y-62805571D01*
X142736000Y-62948429D01*
X144093143Y-64305571D02*
X144093143Y-63519857D01*
X144021714Y-63377000D01*
X143878857Y-63305571D01*
X143593143Y-63305571D01*
X143450286Y-63377000D01*
X144093143Y-64234143D02*
X143950286Y-64305571D01*
X143593143Y-64305571D01*
X143450286Y-64234143D01*
X143378857Y-64091286D01*
X143378857Y-63948429D01*
X143450286Y-63805571D01*
X143593143Y-63734143D01*
X143950286Y-63734143D01*
X144093143Y-63662714D01*
X145021715Y-64305571D02*
X144878857Y-64234143D01*
X144807429Y-64091286D01*
X144807429Y-62805571D01*
X182678571Y-85714285D02*
X181678571Y-85714285D01*
X181178571Y-85714285D02*
X181250000Y-85785714D01*
X181321429Y-85714285D01*
X181250000Y-85642857D01*
X181178571Y-85714285D01*
X181321429Y-85714285D01*
X181321429Y-85071428D02*
X181250000Y-84999999D01*
X181178571Y-84857142D01*
X181178571Y-84499999D01*
X181250000Y-84357142D01*
X181321429Y-84285713D01*
X181464286Y-84214285D01*
X181607143Y-84214285D01*
X181821429Y-84285713D01*
X182678571Y-85142856D01*
X182678571Y-84214285D01*
X182535714Y-82714285D02*
X182607143Y-82785714D01*
X182678571Y-83000000D01*
X182678571Y-83142857D01*
X182607143Y-83357142D01*
X182464286Y-83500000D01*
X182321429Y-83571428D01*
X182035714Y-83642857D01*
X181821429Y-83642857D01*
X181535714Y-83571428D01*
X181392857Y-83500000D01*
X181250000Y-83357142D01*
X181178571Y-83142857D01*
X181178571Y-83000000D01*
X181250000Y-82785714D01*
X181321429Y-82714285D01*
D13*
X180350000Y-78160000D02*
X180350000Y-90860000D01*
X180350000Y-90860000D02*
X175270000Y-90860000D01*
X175270000Y-90860000D02*
X175270000Y-80700000D01*
X180350000Y-78160000D02*
X177810000Y-78160000D01*
X176540000Y-77880000D02*
X174990000Y-77880000D01*
X177810000Y-78160000D02*
X177810000Y-80700000D01*
X177810000Y-80700000D02*
X175270000Y-80700000D01*
X174990000Y-77880000D02*
X174990000Y-79430000D01*
X166370000Y-72390000D02*
X161290000Y-72390000D01*
X158470000Y-72110000D02*
X160020000Y-72110000D01*
X158750000Y-74930000D02*
X161290000Y-74930000D01*
X161290000Y-74930000D02*
X161290000Y-72390000D01*
X166370000Y-72390000D02*
X166370000Y-77470000D01*
X166370000Y-77470000D02*
X161290000Y-77470000D01*
X158470000Y-72110000D02*
X158470000Y-73660000D01*
X158750000Y-77470000D02*
X158750000Y-74930000D01*
X161290000Y-77470000D02*
X158750000Y-77470000D01*
X173228000Y-65496000D02*
X173228000Y-66893000D01*
X173228000Y-61051000D02*
X173228000Y-59527000D01*
X173990000Y-61432000D02*
X172466000Y-61432000D01*
X173990000Y-61178000D02*
X172466000Y-61178000D01*
X173228000Y-60924000D02*
X172466000Y-60924000D01*
X172466000Y-60924000D02*
X172466000Y-65496000D01*
X172466000Y-65496000D02*
X173990000Y-65496000D01*
X173990000Y-65496000D02*
X173990000Y-60924000D01*
X173990000Y-60924000D02*
X173228000Y-60924000D01*
X170160000Y-65496000D02*
X170160000Y-66893000D01*
X170160000Y-61051000D02*
X170160000Y-59527000D01*
X170922000Y-61432000D02*
X169398000Y-61432000D01*
X170922000Y-61178000D02*
X169398000Y-61178000D01*
X170160000Y-60924000D02*
X169398000Y-60924000D01*
X169398000Y-60924000D02*
X169398000Y-65496000D01*
X169398000Y-65496000D02*
X170922000Y-65496000D01*
X170922000Y-65496000D02*
X170922000Y-60924000D01*
X170922000Y-60924000D02*
X170160000Y-60924000D01*
X151446000Y-60770000D02*
X156146000Y-60770000D01*
X151446000Y-56070000D02*
X156146000Y-56070000D01*
X157926000Y-60770000D02*
X155576000Y-60770000D01*
X157926000Y-56070000D02*
X155576000Y-56070000D01*
X160276000Y-58420000D02*
G75*
G03X157926000Y-56070000I-2350000J0D01*
G01*
X157926000Y-60770000D02*
G75*
G03X160276000Y-58420000I0J2350000D01*
G01*
X149096000Y-58420000D02*
G75*
G03X151446000Y-60770000I2350000J0D01*
G01*
X151446000Y-56070000D02*
G75*
G03X149096000Y-58420000I0J-2350000D01*
G01*
X138150000Y-55775000D02*
X138150000Y-62125000D01*
X145770000Y-55775000D02*
X145770000Y-62125000D01*
X145770000Y-57680000D02*
X138150000Y-57680000D01*
X138150000Y-55775000D02*
X145770000Y-55775000D01*
X145770000Y-62125000D02*
X138150000Y-62125000D01*
D14*
X145414000Y-65400000D02*
X145414000Y-69220000D01*
X145414000Y-69220000D02*
X147194000Y-69220000D01*
X147194000Y-69220000D02*
X147194000Y-65400000D01*
X145414000Y-65400000D02*
X147194000Y-65400000D01*
X144654000Y-69220000D02*
X144654000Y-65400000D01*
X144654000Y-65400000D02*
X142874000Y-65400000D01*
X142874000Y-65400000D02*
X142874000Y-69220000D01*
X144654000Y-69220000D02*
X142874000Y-69220000D01*
X182340000Y-104250000D02*
G75*
G03X182340000Y-104250000I-4090000J0D01*
G01*
X181700000Y-104250000D02*
X180500000Y-104250000D01*
X181100000Y-104900000D02*
X181100000Y-103600000D01*
D13*
X153380667Y-100881381D02*
X153047333Y-100405190D01*
X152809238Y-100881381D02*
X152809238Y-99881381D01*
X153190191Y-99881381D01*
X153285429Y-99929000D01*
X153333048Y-99976619D01*
X153380667Y-100071857D01*
X153380667Y-100214714D01*
X153333048Y-100309952D01*
X153285429Y-100357571D01*
X153190191Y-100405190D01*
X152809238Y-100405190D01*
X153809238Y-100357571D02*
X154142572Y-100357571D01*
X154285429Y-100881381D02*
X153809238Y-100881381D01*
X153809238Y-99881381D01*
X154285429Y-99881381D01*
X155047334Y-100357571D02*
X154714000Y-100357571D01*
X154714000Y-100881381D02*
X154714000Y-99881381D01*
X155190191Y-99881381D01*
X155714000Y-99881381D02*
X155714000Y-100119476D01*
X155475905Y-100024238D02*
X155714000Y-100119476D01*
X155952096Y-100024238D01*
X155571143Y-100309952D02*
X155714000Y-100119476D01*
X155856858Y-100309952D01*
X156475905Y-99881381D02*
X156475905Y-100119476D01*
X156237810Y-100024238D02*
X156475905Y-100119476D01*
X156714001Y-100024238D01*
X156333048Y-100309952D02*
X156475905Y-100119476D01*
X156618763Y-100309952D01*
X154455905Y-97861381D02*
X154455905Y-96861381D01*
X154836858Y-96861381D01*
X154932096Y-96909000D01*
X154979715Y-96956619D01*
X155027334Y-97051857D01*
X155027334Y-97194714D01*
X154979715Y-97289952D01*
X154932096Y-97337571D01*
X154836858Y-97385190D01*
X154455905Y-97385190D01*
X155979715Y-97861381D02*
X155408286Y-97861381D01*
X155694000Y-97861381D02*
X155694000Y-96861381D01*
X155598762Y-97004238D01*
X155503524Y-97099476D01*
X155408286Y-97147095D01*
X156392715Y-97766143D02*
X156345096Y-97813762D01*
X156202239Y-97861381D01*
X156107001Y-97861381D01*
X155964143Y-97813762D01*
X155868905Y-97718524D01*
X155821286Y-97623286D01*
X155773667Y-97432810D01*
X155773667Y-97289952D01*
X155821286Y-97099476D01*
X155868905Y-97004238D01*
X155964143Y-96909000D01*
X156107001Y-96861381D01*
X156202239Y-96861381D01*
X156345096Y-96909000D01*
X156392715Y-96956619D01*
X157011762Y-96861381D02*
X157202239Y-96861381D01*
X157297477Y-96909000D01*
X157392715Y-97004238D01*
X157440334Y-97194714D01*
X157440334Y-97528048D01*
X157392715Y-97718524D01*
X157297477Y-97813762D01*
X157202239Y-97861381D01*
X157011762Y-97861381D01*
X156916524Y-97813762D01*
X156821286Y-97718524D01*
X156773667Y-97528048D01*
X156773667Y-97194714D01*
X156821286Y-97004238D01*
X156916524Y-96909000D01*
X157011762Y-96861381D01*
X157868905Y-97861381D02*
X157868905Y-96861381D01*
X158440334Y-97861381D01*
X158440334Y-96861381D01*
X159440334Y-97861381D02*
X158868905Y-97861381D01*
X159154619Y-97861381D02*
X159154619Y-96861381D01*
X159059381Y-97004238D01*
X158964143Y-97099476D01*
X158868905Y-97147095D01*
X175610781Y-64830686D02*
X174610781Y-64830686D01*
X174610781Y-64592591D01*
X174658400Y-64449733D01*
X174753638Y-64354495D01*
X174848876Y-64306876D01*
X175039352Y-64259257D01*
X175182210Y-64259257D01*
X175372686Y-64306876D01*
X175467924Y-64354495D01*
X175563162Y-64449733D01*
X175610781Y-64592591D01*
X175610781Y-64830686D01*
X174610781Y-63925924D02*
X174610781Y-63306876D01*
X174991733Y-63640210D01*
X174991733Y-63497352D01*
X175039352Y-63402114D01*
X175086971Y-63354495D01*
X175182210Y-63306876D01*
X175420305Y-63306876D01*
X175515543Y-63354495D01*
X175563162Y-63402114D01*
X175610781Y-63497352D01*
X175610781Y-63783067D01*
X175563162Y-63878305D01*
X175515543Y-63925924D01*
X174944114Y-62449733D02*
X175610781Y-62449733D01*
X174563162Y-62687829D02*
X175277448Y-62925924D01*
X175277448Y-62306876D01*
X168834381Y-64678286D02*
X167834381Y-64678286D01*
X167834381Y-64440191D01*
X167882000Y-64297333D01*
X167977238Y-64202095D01*
X168072476Y-64154476D01*
X168262952Y-64106857D01*
X168405810Y-64106857D01*
X168596286Y-64154476D01*
X168691524Y-64202095D01*
X168786762Y-64297333D01*
X168834381Y-64440191D01*
X168834381Y-64678286D01*
X167834381Y-63773524D02*
X167834381Y-63154476D01*
X168215333Y-63487810D01*
X168215333Y-63344952D01*
X168262952Y-63249714D01*
X168310571Y-63202095D01*
X168405810Y-63154476D01*
X168643905Y-63154476D01*
X168739143Y-63202095D01*
X168786762Y-63249714D01*
X168834381Y-63344952D01*
X168834381Y-63630667D01*
X168786762Y-63725905D01*
X168739143Y-63773524D01*
X167834381Y-62249714D02*
X167834381Y-62725905D01*
X168310571Y-62773524D01*
X168262952Y-62725905D01*
X168215333Y-62630667D01*
X168215333Y-62392571D01*
X168262952Y-62297333D01*
X168310571Y-62249714D01*
X168405810Y-62202095D01*
X168643905Y-62202095D01*
X168739143Y-62249714D01*
X168786762Y-62297333D01*
X168834381Y-62392571D01*
X168834381Y-62630667D01*
X168786762Y-62725905D01*
X168739143Y-62773524D01*
X153898695Y-54036981D02*
X153898695Y-54846505D01*
X153946314Y-54941743D01*
X153993933Y-54989362D01*
X154089171Y-55036981D01*
X154279648Y-55036981D01*
X154374886Y-54989362D01*
X154422505Y-54941743D01*
X154470124Y-54846505D01*
X154470124Y-54036981D01*
X154851076Y-54036981D02*
X155470124Y-54036981D01*
X155136790Y-54417933D01*
X155279648Y-54417933D01*
X155374886Y-54465552D01*
X155422505Y-54513171D01*
X155470124Y-54608410D01*
X155470124Y-54846505D01*
X155422505Y-54941743D01*
X155374886Y-54989362D01*
X155279648Y-55036981D01*
X154993933Y-55036981D01*
X154898695Y-54989362D01*
X154851076Y-54941743D01*
X156527667Y-99385381D02*
X156194333Y-98909190D01*
X155956238Y-99385381D02*
X155956238Y-98385381D01*
X156337191Y-98385381D01*
X156432429Y-98433000D01*
X156480048Y-98480619D01*
X156527667Y-98575857D01*
X156527667Y-98718714D01*
X156480048Y-98813952D01*
X156432429Y-98861571D01*
X156337191Y-98909190D01*
X155956238Y-98909190D01*
X156956238Y-98861571D02*
X157289572Y-98861571D01*
X157432429Y-99385381D02*
X156956238Y-99385381D01*
X156956238Y-98385381D01*
X157432429Y-98385381D01*
X158194334Y-98861571D02*
X157861000Y-98861571D01*
X157861000Y-99385381D02*
X157861000Y-98385381D01*
X158337191Y-98385381D01*
X158861000Y-98385381D02*
X158861000Y-98623476D01*
X158622905Y-98528238D02*
X158861000Y-98623476D01*
X159099096Y-98528238D01*
X158718143Y-98813952D02*
X158861000Y-98623476D01*
X159003858Y-98813952D01*
X159622905Y-98385381D02*
X159622905Y-98623476D01*
X159384810Y-98528238D02*
X159622905Y-98623476D01*
X159861001Y-98528238D01*
X159480048Y-98813952D02*
X159622905Y-98623476D01*
X159765763Y-98813952D01*
X157035667Y-99639381D02*
X156702333Y-99163190D01*
X156464238Y-99639381D02*
X156464238Y-98639381D01*
X156845191Y-98639381D01*
X156940429Y-98687000D01*
X156988048Y-98734619D01*
X157035667Y-98829857D01*
X157035667Y-98972714D01*
X156988048Y-99067952D01*
X156940429Y-99115571D01*
X156845191Y-99163190D01*
X156464238Y-99163190D01*
X157464238Y-99115571D02*
X157797572Y-99115571D01*
X157940429Y-99639381D02*
X157464238Y-99639381D01*
X157464238Y-98639381D01*
X157940429Y-98639381D01*
X158702334Y-99115571D02*
X158369000Y-99115571D01*
X158369000Y-99639381D02*
X158369000Y-98639381D01*
X158845191Y-98639381D01*
X159369000Y-98639381D02*
X159369000Y-98877476D01*
X159130905Y-98782238D02*
X159369000Y-98877476D01*
X159607096Y-98782238D01*
X159226143Y-99067952D02*
X159369000Y-98877476D01*
X159511858Y-99067952D01*
X160130905Y-98639381D02*
X160130905Y-98877476D01*
X159892810Y-98782238D02*
X160130905Y-98877476D01*
X160369001Y-98782238D01*
X159988048Y-99067952D02*
X160130905Y-98877476D01*
X160273763Y-99067952D01*
X156527667Y-97353381D02*
X156194333Y-96877190D01*
X155956238Y-97353381D02*
X155956238Y-96353381D01*
X156337191Y-96353381D01*
X156432429Y-96401000D01*
X156480048Y-96448619D01*
X156527667Y-96543857D01*
X156527667Y-96686714D01*
X156480048Y-96781952D01*
X156432429Y-96829571D01*
X156337191Y-96877190D01*
X155956238Y-96877190D01*
X156956238Y-96829571D02*
X157289572Y-96829571D01*
X157432429Y-97353381D02*
X156956238Y-97353381D01*
X156956238Y-96353381D01*
X157432429Y-96353381D01*
X158194334Y-96829571D02*
X157861000Y-96829571D01*
X157861000Y-97353381D02*
X157861000Y-96353381D01*
X158337191Y-96353381D01*
X158861000Y-96353381D02*
X158861000Y-96591476D01*
X158622905Y-96496238D02*
X158861000Y-96591476D01*
X159099096Y-96496238D01*
X158718143Y-96781952D02*
X158861000Y-96591476D01*
X159003858Y-96781952D01*
X159622905Y-96353381D02*
X159622905Y-96591476D01*
X159384810Y-96496238D02*
X159622905Y-96591476D01*
X159861001Y-96496238D01*
X159480048Y-96781952D02*
X159622905Y-96591476D01*
X159765763Y-96781952D01*
X157035667Y-97607381D02*
X156702333Y-97131190D01*
X156464238Y-97607381D02*
X156464238Y-96607381D01*
X156845191Y-96607381D01*
X156940429Y-96655000D01*
X156988048Y-96702619D01*
X157035667Y-96797857D01*
X157035667Y-96940714D01*
X156988048Y-97035952D01*
X156940429Y-97083571D01*
X156845191Y-97131190D01*
X156464238Y-97131190D01*
X157464238Y-97083571D02*
X157797572Y-97083571D01*
X157940429Y-97607381D02*
X157464238Y-97607381D01*
X157464238Y-96607381D01*
X157940429Y-96607381D01*
X158702334Y-97083571D02*
X158369000Y-97083571D01*
X158369000Y-97607381D02*
X158369000Y-96607381D01*
X158845191Y-96607381D01*
X159369000Y-96607381D02*
X159369000Y-96845476D01*
X159130905Y-96750238D02*
X159369000Y-96845476D01*
X159607096Y-96750238D01*
X159226143Y-97035952D02*
X159369000Y-96845476D01*
X159511858Y-97035952D01*
X160130905Y-96607381D02*
X160130905Y-96845476D01*
X159892810Y-96750238D02*
X160130905Y-96845476D01*
X160369001Y-96750238D01*
X159988048Y-97035952D02*
X160130905Y-96845476D01*
X160273763Y-97035952D01*
X157769667Y-97635381D02*
X157436333Y-97159190D01*
X157198238Y-97635381D02*
X157198238Y-96635381D01*
X157579191Y-96635381D01*
X157674429Y-96683000D01*
X157722048Y-96730619D01*
X157769667Y-96825857D01*
X157769667Y-96968714D01*
X157722048Y-97063952D01*
X157674429Y-97111571D01*
X157579191Y-97159190D01*
X157198238Y-97159190D01*
X158198238Y-97111571D02*
X158531572Y-97111571D01*
X158674429Y-97635381D02*
X158198238Y-97635381D01*
X158198238Y-96635381D01*
X158674429Y-96635381D01*
X159436334Y-97111571D02*
X159103000Y-97111571D01*
X159103000Y-97635381D02*
X159103000Y-96635381D01*
X159579191Y-96635381D01*
X160103000Y-96635381D02*
X160103000Y-96873476D01*
X159864905Y-96778238D02*
X160103000Y-96873476D01*
X160341096Y-96778238D01*
X159960143Y-97063952D02*
X160103000Y-96873476D01*
X160245858Y-97063952D01*
X160864905Y-96635381D02*
X160864905Y-96873476D01*
X160626810Y-96778238D02*
X160864905Y-96873476D01*
X161103001Y-96778238D01*
X160722048Y-97063952D02*
X160864905Y-96873476D01*
X161007763Y-97063952D01*
X155031667Y-94714381D02*
X154698333Y-94238190D01*
X154460238Y-94714381D02*
X154460238Y-93714381D01*
X154841191Y-93714381D01*
X154936429Y-93762000D01*
X154984048Y-93809619D01*
X155031667Y-93904857D01*
X155031667Y-94047714D01*
X154984048Y-94142952D01*
X154936429Y-94190571D01*
X154841191Y-94238190D01*
X154460238Y-94238190D01*
X155460238Y-94190571D02*
X155793572Y-94190571D01*
X155936429Y-94714381D02*
X155460238Y-94714381D01*
X155460238Y-93714381D01*
X155936429Y-93714381D01*
X156698334Y-94190571D02*
X156365000Y-94190571D01*
X156365000Y-94714381D02*
X156365000Y-93714381D01*
X156841191Y-93714381D01*
X157365000Y-93714381D02*
X157365000Y-93952476D01*
X157126905Y-93857238D02*
X157365000Y-93952476D01*
X157603096Y-93857238D01*
X157222143Y-94142952D02*
X157365000Y-93952476D01*
X157507858Y-94142952D01*
X158126905Y-93714381D02*
X158126905Y-93952476D01*
X157888810Y-93857238D02*
X158126905Y-93952476D01*
X158365001Y-93857238D01*
X157984048Y-94142952D02*
X158126905Y-93952476D01*
X158269763Y-94142952D01*
X157515667Y-100881381D02*
X157182333Y-100405190D01*
X156944238Y-100881381D02*
X156944238Y-99881381D01*
X157325191Y-99881381D01*
X157420429Y-99929000D01*
X157468048Y-99976619D01*
X157515667Y-100071857D01*
X157515667Y-100214714D01*
X157468048Y-100309952D01*
X157420429Y-100357571D01*
X157325191Y-100405190D01*
X156944238Y-100405190D01*
X157944238Y-100357571D02*
X158277572Y-100357571D01*
X158420429Y-100881381D02*
X157944238Y-100881381D01*
X157944238Y-99881381D01*
X158420429Y-99881381D01*
X159182334Y-100357571D02*
X158849000Y-100357571D01*
X158849000Y-100881381D02*
X158849000Y-99881381D01*
X159325191Y-99881381D01*
X159849000Y-99881381D02*
X159849000Y-100119476D01*
X159610905Y-100024238D02*
X159849000Y-100119476D01*
X160087096Y-100024238D01*
X159706143Y-100309952D02*
X159849000Y-100119476D01*
X159991858Y-100309952D01*
X160610905Y-99881381D02*
X160610905Y-100119476D01*
X160372810Y-100024238D02*
X160610905Y-100119476D01*
X160849001Y-100024238D01*
X160468048Y-100309952D02*
X160610905Y-100119476D01*
X160753763Y-100309952D01*
X157122905Y-98623381D02*
X157122905Y-97623381D01*
X157503858Y-97623381D01*
X157599096Y-97671000D01*
X157646715Y-97718619D01*
X157694334Y-97813857D01*
X157694334Y-97956714D01*
X157646715Y-98051952D01*
X157599096Y-98099571D01*
X157503858Y-98147190D01*
X157122905Y-98147190D01*
X158075286Y-97718619D02*
X158122905Y-97671000D01*
X158218143Y-97623381D01*
X158456239Y-97623381D01*
X158551477Y-97671000D01*
X158599096Y-97718619D01*
X158646715Y-97813857D01*
X158646715Y-97909095D01*
X158599096Y-98051952D01*
X158027667Y-98623381D01*
X158646715Y-98623381D01*
X145883381Y-71445333D02*
X146597667Y-71445333D01*
X146740524Y-71492953D01*
X146835762Y-71588191D01*
X146883381Y-71731048D01*
X146883381Y-71826286D01*
X146883381Y-70969143D02*
X145883381Y-70969143D01*
X145883381Y-70588190D01*
X145931000Y-70492952D01*
X145978619Y-70445333D01*
X146073857Y-70397714D01*
X146216714Y-70397714D01*
X146311952Y-70445333D01*
X146359571Y-70492952D01*
X146407190Y-70588190D01*
X146407190Y-70969143D01*
X146883381Y-69445333D02*
X146883381Y-70016762D01*
X146883381Y-69731048D02*
X145883381Y-69731048D01*
X146026238Y-69826286D01*
X146121476Y-69921524D01*
X146169095Y-70016762D01*
X143343381Y-71445333D02*
X144057667Y-71445333D01*
X144200524Y-71492953D01*
X144295762Y-71588191D01*
X144343381Y-71731048D01*
X144343381Y-71826286D01*
X144343381Y-70969143D02*
X143343381Y-70969143D01*
X143343381Y-70588190D01*
X143391000Y-70492952D01*
X143438619Y-70445333D01*
X143533857Y-70397714D01*
X143676714Y-70397714D01*
X143771952Y-70445333D01*
X143819571Y-70492952D01*
X143867190Y-70588190D01*
X143867190Y-70969143D01*
X143438619Y-70016762D02*
X143391000Y-69969143D01*
X143343381Y-69873905D01*
X143343381Y-69635809D01*
X143391000Y-69540571D01*
X143438619Y-69492952D01*
X143533857Y-69445333D01*
X143629095Y-69445333D01*
X143771952Y-69492952D01*
X144343381Y-70064381D01*
X144343381Y-69445333D01*
X177607143Y-109667143D02*
X177559524Y-109714762D01*
X177416667Y-109762381D01*
X177321429Y-109762381D01*
X177178571Y-109714762D01*
X177083333Y-109619524D01*
X177035714Y-109524286D01*
X176988095Y-109333810D01*
X176988095Y-109190952D01*
X177035714Y-109000476D01*
X177083333Y-108905238D01*
X177178571Y-108810000D01*
X177321429Y-108762381D01*
X177416667Y-108762381D01*
X177559524Y-108810000D01*
X177607143Y-108857619D01*
X177988095Y-108857619D02*
X178035714Y-108810000D01*
X178130952Y-108762381D01*
X178369048Y-108762381D01*
X178464286Y-108810000D01*
X178511905Y-108857619D01*
X178559524Y-108952857D01*
X178559524Y-109048095D01*
X178511905Y-109190952D01*
X177940476Y-109762381D01*
X178559524Y-109762381D01*
X178892857Y-108762381D02*
X179511905Y-108762381D01*
X179178571Y-109143333D01*
X179321429Y-109143333D01*
X179416667Y-109190952D01*
X179464286Y-109238571D01*
X179511905Y-109333810D01*
X179511905Y-109571905D01*
X179464286Y-109667143D01*
X179416667Y-109714762D01*
X179321429Y-109762381D01*
X179035714Y-109762381D01*
X178940476Y-109714762D01*
X178892857Y-109667143D01*
%LPC*%
D15*
X125250000Y-124750000D03*
D16*
X176540000Y-79430000D03*
D17*
X179080000Y-79430000D03*
X176540000Y-81970000D03*
X179080000Y-81970000D03*
X176540000Y-84510000D03*
X179080000Y-84510000D03*
X176540000Y-87050000D03*
X179080000Y-87050000D03*
X176540000Y-89590000D03*
X179080000Y-89590000D03*
D16*
X160020000Y-73660000D03*
D17*
X160020000Y-76200000D03*
X162560000Y-73660000D03*
X162560000Y-76200000D03*
X165100000Y-73660000D03*
X165100000Y-76200000D03*
D18*
X173228000Y-68290000D03*
D19*
X173228000Y-58130000D03*
D18*
X170160000Y-68290000D03*
D19*
X170160000Y-58130000D03*
D20*
X152246000Y-58420000D03*
X157126000Y-58420000D03*
D15*
X182000000Y-68000000D03*
X132000000Y-68000000D03*
X182000000Y-118000000D03*
X132000000Y-118000000D03*
X188750000Y-61250000D03*
X125250000Y-61250000D03*
X188750000Y-124750000D03*
D21*
X139420000Y-58950000D03*
X141960000Y-58950000D03*
X144500000Y-58950000D03*
D22*
X146304000Y-66040000D03*
X146304000Y-67310000D03*
X146304000Y-68580000D03*
X143764000Y-68580000D03*
X143764000Y-67310000D03*
X143764000Y-66040000D03*
D23*
X179500000Y-104250000D03*
D24*
X177000000Y-104250000D03*
M02*
