M48
;DRILL file {KiCad 4.0.6-e0-6349~53~ubuntu16.04.1} date Thu Mar  2 15:06:21 2017
;FORMAT={-:-/ absolute / metric / decimal}
FMAT,2
METRIC,TZ
T1C0.305
T2C0.762
T3C0.800
T4C0.900
T5C0.998
T6C1.016
T7C3.200
%
G90
G05
M71
T1
X116.126Y-69.592
X116.16Y-97.15
X116.189Y-111.633
X121.78Y-70.98
X121.78Y-86.7
X121.78Y-109.46
X121.784Y-100.8
X127.57Y-133.904
X127.915Y-56.925
X130.556Y-86.868
X135.927Y-133.575
X136.52Y-130.1
X138.176Y-66.548
X141.33Y-52.49
X141.512Y-66.61
X144.623Y-72.625
X144.676Y-64.127
X145.017Y-67.766
X146.307Y-64.067
X146.77Y-56.925
X147.32Y-72.644
X148.336Y-71.628
X149.12Y-130.1
X151.384Y-69.596
X151.892Y-60.96
X151.892Y-128.016
X152.51Y-52.49
X153.844Y-65.381
X154.984Y-65.518
X158.912Y-64.427
X158.95Y-133.61
X160.529Y-64.091
X163.465Y-56.921
X166.55Y-56.925
X167.425Y-130.275
X171.876Y-132.181
X174.11Y-52.49
X182.88Y-97.536
X186.563Y-91.694
X187.452Y-91.694
X188.414Y-130.278
X189.423Y-54.933
X196.276Y-80.518
X196.276Y-98.564
X196.278Y-75.191
X197.52Y-74.41
X197.52Y-88.3
X197.52Y-107.43
X197.52Y-123.444
T2
X152.246Y-58.42
T3
X157.126Y-58.42
X177.Y-104.25
X179.5Y-104.25
T4
X170.16Y-58.13
X170.16Y-68.29
X173.228Y-58.13
X173.228Y-68.29
T5
X139.42Y-58.95
X141.96Y-58.95
X144.5Y-58.95
T6
X160.02Y-73.66
X160.02Y-76.2
X162.56Y-73.66
X162.56Y-76.2
X165.1Y-73.66
X165.1Y-76.2
X176.54Y-79.43
X176.54Y-81.97
X176.54Y-84.51
X176.54Y-87.05
X176.54Y-89.59
X179.08Y-79.43
X179.08Y-81.97
X179.08Y-84.51
X179.08Y-87.05
X179.08Y-89.59
T7
X125.25Y-61.25
X125.25Y-124.75
X132.Y-68.
X132.Y-118.
X182.Y-68.
X182.Y-118.
X188.75Y-61.25
X188.75Y-124.75
T0
M30
