G04 #@! TF.FileFunction,Soldermask,Bot*
%FSLAX46Y46*%
G04 Gerber Fmt 4.6, Leading zero omitted, Abs format (unit mm)*
G04 Created by KiCad (PCBNEW 4.0.6-e0-6349~53~ubuntu16.04.1) date Thu Mar  2 14:53:25 2017*
%MOMM*%
%LPD*%
G01*
G04 APERTURE LIST*
%ADD10C,0.100000*%
%ADD11C,5.400000*%
%ADD12R,1.000000X1.700000*%
%ADD13R,1.997660X2.200860*%
%ADD14R,1.700000X1.900000*%
%ADD15R,1.900000X1.650000*%
%ADD16R,2.127200X2.127200*%
%ADD17O,2.127200X2.127200*%
%ADD18R,1.620000X1.310000*%
%ADD19R,1.900000X1.700000*%
%ADD20R,0.950000X2.000000*%
%ADD21R,2.000000X0.950000*%
%ADD22R,1.650000X1.900000*%
%ADD23R,1.900000X1.900000*%
%ADD24C,2.099260*%
%ADD25R,2.099260X2.099260*%
%ADD26R,1.500000X1.400000*%
%ADD27R,1.400000X1.500000*%
%ADD28R,2.200860X1.997660*%
%ADD29C,1.924000*%
%ADD30O,1.906220X3.414980*%
%ADD31R,2.000000X2.000000*%
%ADD32C,2.000000*%
%ADD33R,1.600000X1.200000*%
G04 APERTURE END LIST*
D10*
D11*
X125250000Y-124750000D03*
D12*
X182880000Y-90170000D03*
X184150000Y-90170000D03*
X185420000Y-90170000D03*
X186690000Y-90170000D03*
X187960000Y-90170000D03*
X189230000Y-90170000D03*
X190500000Y-90170000D03*
X191770000Y-90170000D03*
X191770000Y-95470000D03*
X190500000Y-95470000D03*
X189230000Y-95470000D03*
X187960000Y-95470000D03*
X186690000Y-95470000D03*
X185420000Y-95470000D03*
X184150000Y-95470000D03*
X182880000Y-95470000D03*
D13*
X164592000Y-49276000D03*
X167431720Y-49276000D03*
D14*
X187250000Y-56100000D03*
X187250000Y-53400000D03*
D10*
G36*
X190224695Y-55964645D02*
X191214645Y-54974695D01*
X192275305Y-56035355D01*
X191285355Y-57025305D01*
X190224695Y-55964645D01*
X190224695Y-55964645D01*
G37*
G36*
X192982411Y-58722361D02*
X193972361Y-57732411D01*
X195033021Y-58793071D01*
X194043071Y-59783021D01*
X192982411Y-58722361D01*
X192982411Y-58722361D01*
G37*
G36*
X191709619Y-59995154D02*
X192699569Y-59005204D01*
X193760229Y-60065864D01*
X192770279Y-61055814D01*
X191709619Y-59995154D01*
X191709619Y-59995154D01*
G37*
G36*
X188951903Y-57237437D02*
X189941853Y-56247487D01*
X191002513Y-57308147D01*
X190012563Y-58298097D01*
X188951903Y-57237437D01*
X188951903Y-57237437D01*
G37*
D15*
X153650000Y-74676000D03*
X151150000Y-74676000D03*
D16*
X176540000Y-79430000D03*
D17*
X179080000Y-79430000D03*
X176540000Y-81970000D03*
X179080000Y-81970000D03*
X176540000Y-84510000D03*
X179080000Y-84510000D03*
X176540000Y-87050000D03*
X179080000Y-87050000D03*
X176540000Y-89590000D03*
X179080000Y-89590000D03*
D18*
X163068000Y-65135000D03*
X163068000Y-61865000D03*
D19*
X195600000Y-123750000D03*
X192900000Y-123750000D03*
D20*
X149600000Y-63060000D03*
X150400000Y-63060000D03*
X151200000Y-63060000D03*
X152000000Y-63060000D03*
X152800000Y-63060000D03*
X153600000Y-63060000D03*
X154400000Y-63060000D03*
X155200000Y-63060000D03*
D21*
X156650000Y-64510000D03*
X156650000Y-65310000D03*
X156650000Y-66110000D03*
X156650000Y-66910000D03*
X156650000Y-67710000D03*
X156650000Y-68510000D03*
X156650000Y-69310000D03*
X156650000Y-70110000D03*
D20*
X155200000Y-71560000D03*
X154400000Y-71560000D03*
X153600000Y-71560000D03*
X152800000Y-71560000D03*
X152000000Y-71560000D03*
X151200000Y-71560000D03*
X150400000Y-71560000D03*
X149600000Y-71560000D03*
D21*
X148150000Y-70110000D03*
X148150000Y-69310000D03*
X148150000Y-68510000D03*
X148150000Y-67710000D03*
X148150000Y-66910000D03*
X148150000Y-66110000D03*
X148150000Y-65310000D03*
X148150000Y-64510000D03*
D19*
X145622000Y-66548000D03*
X142922000Y-66548000D03*
X145622000Y-69088000D03*
X142922000Y-69088000D03*
D15*
X152440000Y-77216000D03*
X154940000Y-77216000D03*
D13*
X149171660Y-136893300D03*
X146331940Y-136893300D03*
D12*
X130810000Y-95885000D03*
X129540000Y-95885000D03*
X128270000Y-95885000D03*
X127000000Y-95885000D03*
X125730000Y-95885000D03*
X124460000Y-95885000D03*
X123190000Y-95885000D03*
X121920000Y-95885000D03*
X121920000Y-90585000D03*
X123190000Y-90585000D03*
X124460000Y-90585000D03*
X125730000Y-90585000D03*
X127000000Y-90585000D03*
X128270000Y-90585000D03*
X129540000Y-90585000D03*
X130810000Y-90585000D03*
D15*
X164825360Y-134223760D03*
X167325360Y-134223760D03*
X146501800Y-134188200D03*
X149001800Y-134188200D03*
X130403280Y-127853440D03*
X132903280Y-127853440D03*
D22*
X123770000Y-118220000D03*
X123770000Y-115720000D03*
X115785900Y-100819900D03*
X115785900Y-103319900D03*
X116471700Y-82874800D03*
X116471700Y-85374800D03*
X126365000Y-67965000D03*
X126365000Y-70465000D03*
D15*
X133330000Y-58420000D03*
X130830000Y-58420000D03*
X159024000Y-56134000D03*
X161524000Y-56134000D03*
X151364000Y-56134000D03*
X148864000Y-56134000D03*
X123170000Y-98425000D03*
X120670000Y-98425000D03*
X149306600Y-51549300D03*
X146806600Y-51549300D03*
X167520940Y-51828700D03*
X165020940Y-51828700D03*
X183634700Y-58331100D03*
X181134700Y-58331100D03*
D22*
X190500000Y-69195000D03*
X190500000Y-66695000D03*
X197896480Y-85171600D03*
X197896480Y-82671600D03*
X197977760Y-103114160D03*
X197977760Y-100614160D03*
X190340000Y-116870000D03*
X190340000Y-119370000D03*
D15*
X181040720Y-127853440D03*
X183540720Y-127853440D03*
D16*
X160020000Y-73660000D03*
D17*
X160020000Y-76200000D03*
X162560000Y-73660000D03*
X162560000Y-76200000D03*
X165100000Y-73660000D03*
X165100000Y-76200000D03*
D23*
X167853300Y-139141200D03*
X164353300Y-139141200D03*
X149578000Y-139446000D03*
X146078000Y-139446000D03*
X133626800Y-133217920D03*
X130126800Y-133217920D03*
X117977920Y-121231600D03*
X117977920Y-117731600D03*
X110604300Y-103896100D03*
X110604300Y-100396100D03*
X110718600Y-85760500D03*
X110718600Y-82260500D03*
X117881400Y-68615500D03*
X117881400Y-65115500D03*
X130182680Y-53197760D03*
X133682680Y-53197760D03*
X146116100Y-46634400D03*
X149616100Y-46634400D03*
X164269480Y-46603920D03*
X167769480Y-46603920D03*
X180634700Y-53263800D03*
X184134700Y-53263800D03*
X196027040Y-64737040D03*
X196027040Y-68237040D03*
X203403200Y-82070000D03*
X203403200Y-85570000D03*
X203362560Y-100297040D03*
X203362560Y-103797040D03*
X195795900Y-117731600D03*
X195795900Y-121231600D03*
X184035640Y-132603240D03*
X180535640Y-132603240D03*
D24*
X173228000Y-68290000D03*
D25*
X173228000Y-58130000D03*
D24*
X170160000Y-68290000D03*
D25*
X170160000Y-58130000D03*
D18*
X168148000Y-61865000D03*
X168148000Y-65135000D03*
X165608000Y-65135000D03*
X165608000Y-61865000D03*
X160528000Y-61865000D03*
X160528000Y-65135000D03*
X181610000Y-82185000D03*
X181610000Y-85455000D03*
D13*
X167495220Y-136710420D03*
X164655500Y-136710420D03*
D26*
X158978600Y-139923520D03*
X155078600Y-139923520D03*
X155078600Y-138123520D03*
X158978600Y-138123520D03*
X141693900Y-136512300D03*
X137793900Y-136512300D03*
X137793900Y-134712300D03*
X141693900Y-134712300D03*
D10*
G36*
X124033021Y-129793071D02*
X123043071Y-130783021D01*
X121982411Y-129722361D01*
X122972361Y-128732411D01*
X124033021Y-129793071D01*
X124033021Y-129793071D01*
G37*
G36*
X121275305Y-127035355D02*
X120285355Y-128025305D01*
X119224695Y-126964645D01*
X120214645Y-125974695D01*
X121275305Y-127035355D01*
X121275305Y-127035355D01*
G37*
G36*
X122548097Y-125762562D02*
X121558147Y-126752512D01*
X120497487Y-125691852D01*
X121487437Y-124701902D01*
X122548097Y-125762562D01*
X122548097Y-125762562D01*
G37*
G36*
X125305813Y-128520279D02*
X124315863Y-129510229D01*
X123255203Y-128449569D01*
X124245153Y-127459619D01*
X125305813Y-128520279D01*
X125305813Y-128520279D01*
G37*
D27*
X114051080Y-113883440D03*
X114051080Y-109983440D03*
X115851080Y-109983440D03*
X115851080Y-113883440D03*
D13*
X133184900Y-130535680D03*
X130345180Y-130535680D03*
D28*
X120741440Y-120860820D03*
X120741440Y-118021100D03*
D27*
X110111540Y-94856300D03*
X110111540Y-90956300D03*
X111911540Y-90956300D03*
X111911540Y-94856300D03*
X114190780Y-75885040D03*
X114190780Y-71985040D03*
X115990780Y-71985040D03*
X115990780Y-75885040D03*
D10*
G36*
X119714645Y-59775305D02*
X118724695Y-58785355D01*
X119785355Y-57724695D01*
X120775305Y-58714645D01*
X119714645Y-59775305D01*
X119714645Y-59775305D01*
G37*
G36*
X122472361Y-57017589D02*
X121482411Y-56027639D01*
X122543071Y-54966979D01*
X123533021Y-55956929D01*
X122472361Y-57017589D01*
X122472361Y-57017589D01*
G37*
G36*
X123745154Y-58290381D02*
X122755204Y-57300431D01*
X123815864Y-56239771D01*
X124805814Y-57229721D01*
X123745154Y-58290381D01*
X123745154Y-58290381D01*
G37*
G36*
X120987437Y-61048097D02*
X119997487Y-60058147D01*
X121058147Y-58997487D01*
X122048097Y-59987437D01*
X120987437Y-61048097D01*
X120987437Y-61048097D01*
G37*
D26*
X137855960Y-49453800D03*
X141755960Y-49453800D03*
X141755960Y-51253800D03*
X137855960Y-51253800D03*
D28*
X113271300Y-103527860D03*
X113271300Y-100688140D03*
X113766600Y-85544660D03*
X113766600Y-82704940D03*
X121158000Y-68221860D03*
X121158000Y-65382140D03*
D13*
X130624580Y-55656480D03*
X133464300Y-55656480D03*
D26*
X155143200Y-45986700D03*
X159043200Y-45986700D03*
X159043200Y-47786700D03*
X155143200Y-47786700D03*
X172333920Y-49286160D03*
X176233920Y-49286160D03*
X176233920Y-51086160D03*
X172333920Y-51086160D03*
D27*
X199872600Y-72199500D03*
X199872600Y-76099500D03*
X198072600Y-76099500D03*
X198072600Y-72199500D03*
D13*
X146598640Y-49187100D03*
X149438360Y-49187100D03*
X180888640Y-55892700D03*
X183728360Y-55892700D03*
D28*
X193263520Y-65250060D03*
X193263520Y-68089780D03*
D27*
X203911200Y-91059000D03*
X203911200Y-94959000D03*
X202111200Y-94959000D03*
X202111200Y-91059000D03*
X199758300Y-110032800D03*
X199758300Y-113932800D03*
X197958300Y-113932800D03*
X197958300Y-110032800D03*
D10*
G36*
X194043071Y-126216979D02*
X195033021Y-127206929D01*
X193972361Y-128267589D01*
X192982411Y-127277639D01*
X194043071Y-126216979D01*
X194043071Y-126216979D01*
G37*
G36*
X191285355Y-128974695D02*
X192275305Y-129964645D01*
X191214645Y-131025305D01*
X190224695Y-130035355D01*
X191285355Y-128974695D01*
X191285355Y-128974695D01*
G37*
G36*
X190012562Y-127701903D02*
X191002512Y-128691853D01*
X189941852Y-129752513D01*
X188951902Y-128762563D01*
X190012562Y-127701903D01*
X190012562Y-127701903D01*
G37*
G36*
X192770279Y-124944187D02*
X193760229Y-125934137D01*
X192699569Y-126994797D01*
X191709619Y-126004847D01*
X192770279Y-124944187D01*
X192770279Y-124944187D01*
G37*
D26*
X176136300Y-136550400D03*
X172236300Y-136550400D03*
X172236300Y-134750400D03*
X176136300Y-134750400D03*
D28*
X200558400Y-82552540D03*
X200558400Y-85392260D03*
X200639680Y-100525580D03*
X200639680Y-103365300D03*
X193014600Y-120787160D03*
X193014600Y-117947440D03*
D13*
X183720740Y-130286760D03*
X180881020Y-130286760D03*
D14*
X161744660Y-135667760D03*
X161744660Y-138367760D03*
X143891000Y-132203200D03*
X143891000Y-134903200D03*
D19*
X129180000Y-135500000D03*
X131880000Y-135500000D03*
D14*
X118745000Y-111045000D03*
X118745000Y-113745000D03*
D19*
X167425360Y-131932680D03*
X164725360Y-131932680D03*
X149101800Y-131787900D03*
X146401800Y-131787900D03*
X134710000Y-125460000D03*
X132010000Y-125460000D03*
D14*
X121285000Y-111045000D03*
X121285000Y-113745000D03*
D19*
X114380000Y-97155000D03*
X111680000Y-97155000D03*
X117351800Y-80060800D03*
X114651800Y-80060800D03*
D14*
X119888000Y-73994000D03*
X119888000Y-71294000D03*
X136235440Y-55944760D03*
X136235440Y-53244760D03*
X118158260Y-103470700D03*
X118158260Y-100770700D03*
X118872000Y-85398600D03*
X118872000Y-82698600D03*
X123825000Y-69295000D03*
X123825000Y-66595000D03*
D19*
X132000000Y-60960000D03*
X134700000Y-60960000D03*
D14*
X152514300Y-50346600D03*
X152514300Y-47646600D03*
X170192700Y-53661300D03*
X170192700Y-50961300D03*
D19*
X192693300Y-70370700D03*
X195393300Y-70370700D03*
X146744700Y-53797200D03*
X149444700Y-53797200D03*
X164880300Y-54216300D03*
X167580300Y-54216300D03*
X179608500Y-60502800D03*
X182308500Y-60502800D03*
D14*
X190500000Y-74300000D03*
X190500000Y-71600000D03*
D19*
X199091560Y-88346280D03*
X201791560Y-88346280D03*
X199510000Y-107430000D03*
X202210000Y-107430000D03*
D14*
X178229260Y-129884180D03*
X178229260Y-132584180D03*
X195607940Y-82553820D03*
X195607940Y-85253820D03*
X195620640Y-100595440D03*
X195620640Y-103295440D03*
X187970000Y-118280000D03*
X187970000Y-115580000D03*
D19*
X182930000Y-125690000D03*
X180230000Y-125690000D03*
D14*
X153670000Y-129460000D03*
X153670000Y-132160000D03*
X140208000Y-67898000D03*
X140208000Y-65198000D03*
X168030000Y-77080000D03*
X168030000Y-74380000D03*
D29*
X152246000Y-58420000D03*
X157126000Y-58420000D03*
D11*
X182000000Y-68000000D03*
X132000000Y-68000000D03*
X182000000Y-118000000D03*
X132000000Y-118000000D03*
X188750000Y-61250000D03*
X125250000Y-61250000D03*
X188750000Y-124750000D03*
D14*
X139700000Y-70278000D03*
X139700000Y-72978000D03*
D30*
X139420000Y-58950000D03*
X141960000Y-58950000D03*
X144500000Y-58950000D03*
D15*
X190510000Y-87660000D03*
X193010000Y-87660000D03*
D31*
X179500000Y-104250000D03*
D32*
X177000000Y-104250000D03*
D33*
X156000000Y-130800000D03*
X158000000Y-129850000D03*
X158000000Y-131750000D03*
M02*
