G04 #@! TF.FileFunction,Soldermask,Top*
%FSLAX46Y46*%
G04 Gerber Fmt 4.6, Leading zero omitted, Abs format (unit mm)*
G04 Created by KiCad (PCBNEW 4.0.6-e0-6349~53~ubuntu16.04.1) date Thu Mar  2 14:53:25 2017*
%MOMM*%
%LPD*%
G01*
G04 APERTURE LIST*
%ADD10C,0.100000*%
%ADD11C,5.400000*%
%ADD12R,2.127200X2.127200*%
%ADD13O,2.127200X2.127200*%
%ADD14C,2.099260*%
%ADD15R,2.099260X2.099260*%
%ADD16C,1.924000*%
%ADD17O,1.906220X3.414980*%
%ADD18R,1.670000X1.370000*%
%ADD19R,2.000000X2.000000*%
%ADD20C,2.000000*%
G04 APERTURE END LIST*
D10*
D11*
X125250000Y-124750000D03*
D12*
X176540000Y-79430000D03*
D13*
X179080000Y-79430000D03*
X176540000Y-81970000D03*
X179080000Y-81970000D03*
X176540000Y-84510000D03*
X179080000Y-84510000D03*
X176540000Y-87050000D03*
X179080000Y-87050000D03*
X176540000Y-89590000D03*
X179080000Y-89590000D03*
D12*
X160020000Y-73660000D03*
D13*
X160020000Y-76200000D03*
X162560000Y-73660000D03*
X162560000Y-76200000D03*
X165100000Y-73660000D03*
X165100000Y-76200000D03*
D14*
X173228000Y-68290000D03*
D15*
X173228000Y-58130000D03*
D14*
X170160000Y-68290000D03*
D15*
X170160000Y-58130000D03*
D16*
X152246000Y-58420000D03*
X157126000Y-58420000D03*
D11*
X182000000Y-68000000D03*
X132000000Y-68000000D03*
X182000000Y-118000000D03*
X132000000Y-118000000D03*
X188750000Y-61250000D03*
X125250000Y-61250000D03*
X188750000Y-124750000D03*
D17*
X139420000Y-58950000D03*
X141960000Y-58950000D03*
X144500000Y-58950000D03*
D18*
X146304000Y-66040000D03*
X146304000Y-67310000D03*
X146304000Y-68580000D03*
X143764000Y-68580000D03*
X143764000Y-67310000D03*
X143764000Y-66040000D03*
D19*
X179500000Y-104250000D03*
D20*
X177000000Y-104250000D03*
M02*
